<svg width="800" height="563" viewBox="0 0 800 563" fill="none" xmlns="http://www.w3.org/2000/svg">
<g clip-path="url(#clip0_4_51)">
<rect width="800" height="562.3" fill="white"/>
<path d="M800 0H0V562.64H800V0Z" fill="#E20A22"/>
<path d="M360.52 321.09C362.383 320.145 364.432 319.625 366.52 319.57C368.71 319.57 371.11 319.83 371.12 322.17C370.35 322.1 368.94 321.92 367.73 321.92C363.39 321.92 358.4 323.03 358.4 328.57C358.4 332.36 361.68 333.9 365.02 333.9C366.183 333.97 367.343 333.729 368.382 333.201C369.42 332.674 370.3 331.88 370.93 330.9H371V333.49H379.13V322.49C379.13 315.91 373.04 315 368.04 315C365.483 314.933 362.932 315.288 360.49 316.05L360.52 321.09ZM371.15 326.09C371.15 327.65 370.26 329.3 368.45 329.3C367.11 329.3 366.39 328.83 366.39 327.59C366.39 325.69 368.48 325.53 370.3 325.53H371.15V326.09Z" fill="#FCF5DE"/>
<path d="M390.7 307.47H381.97V333.48H390.7V307.47Z" fill="#FCF5DE"/>
<path d="M393.88 333.47H402.63V315.42H393.88V333.47ZM402.63 307.47H393.88V313.47H402.63V307.47Z" fill="#FCF5DE"/>
<path d="M422.32 327.6C421.117 328.336 419.73 328.718 418.32 328.7C417.728 328.74 417.134 328.652 416.58 328.439C416.026 328.227 415.524 327.897 415.11 327.472C414.696 327.047 414.38 326.536 414.183 325.977C413.986 325.417 413.913 324.821 413.97 324.23C413.97 321.55 415.71 320.23 418.32 320.23C419.671 320.248 421.001 320.558 422.22 321.14V315.81C420.154 315.233 418.014 314.97 415.87 315.03C408.56 315.03 404.68 318.08 404.68 324.15C404.68 330.42 408.56 333.95 415.87 333.95C418.073 334.005 420.27 333.691 422.37 333.02L422.32 327.6Z" fill="#FCF5DE"/>
<path d="M423.36 324.11C423.36 330.37 427.25 333.9 434.58 333.9C441.91 333.9 445.82 330.37 445.82 324.11C445.82 318.03 441.87 314.98 434.58 314.98C427.29 314.98 423.36 318.03 423.36 324.11ZM432.68 324.11C432.68 321.96 432.88 320.18 434.58 320.18C436.28 320.18 436.51 321.96 436.51 324.11C436.51 326.75 436.28 328.7 434.58 328.7C432.88 328.7 432.68 326.75 432.68 324.11Z" fill="#FCF5DE"/>
<path d="M448 315.42V333.47H456.76V326.91C456.72 325.684 457.168 324.491 458.006 323.595C458.844 322.699 460.004 322.172 461.23 322.13C461.908 322.108 462.584 322.202 463.23 322.41V315.17C462.766 315.032 462.284 314.968 461.8 314.98C459.07 314.98 457.34 316.98 456.31 319.5H456.24V315.42H448Z" fill="#FCF5DE"/>
<path d="M465.54 340.77H474.29V331.16H474.37C474.957 332.051 475.767 332.773 476.72 333.254C477.672 333.734 478.734 333.957 479.8 333.9C485.24 333.9 487.48 329.63 487.48 324.73C487.48 319.5 485.36 314.98 479.56 314.98C478.312 314.867 477.062 315.173 476.007 315.848C474.952 316.523 474.151 317.53 473.73 318.71H473.67V315.42H465.54V340.77ZM474 324.54C474 322.81 474.29 320.8 476.15 320.8C478.01 320.8 478.38 322.8 478.38 324.73C478.38 326.66 478.06 328.49 476.23 328.49C474.4 328.49 474 326.63 474 324.49" fill="#FCF5DE"/>
<path d="M371.69 313.55L379.06 315.07C379.06 315.07 379.63 307.91 371.64 305.51L364.26 304C364.26 304 364.26 312.48 371.69 313.55Z" fill="#8BB825"/>
<path d="M260.53 175.05V175C260.48 172.594 260.92 170.202 261.821 167.97C262.723 165.739 264.068 163.713 265.775 162.016C267.482 160.32 269.516 158.987 271.753 158.099C273.99 157.211 276.384 156.786 278.79 156.85C282.979 156.676 287.104 157.927 290.49 160.4C290.959 160.759 291.338 161.22 291.6 161.749C291.862 162.278 291.999 162.86 292 163.45C291.999 163.946 291.899 164.437 291.707 164.895C291.515 165.353 291.234 165.768 290.881 166.116C290.528 166.465 290.109 166.74 289.649 166.926C289.189 167.112 288.696 167.205 288.2 167.2C287.374 167.193 286.571 166.931 285.9 166.45C283.858 164.85 281.335 163.986 278.74 164C272.84 164 268.58 168.9 268.58 174.9V175C268.58 181 272.73 186 278.74 186C281.527 186.058 284.236 185.078 286.34 183.25C286.694 182.921 287.111 182.667 287.566 182.504C288.021 182.341 288.504 182.272 288.986 182.301C289.469 182.33 289.94 182.457 290.372 182.674C290.804 182.891 291.187 183.193 291.499 183.562C291.811 183.931 292.044 184.36 292.185 184.822C292.326 185.284 292.372 185.77 292.32 186.251C292.268 186.731 292.118 187.196 291.881 187.617C291.644 188.038 291.324 188.406 290.94 188.7C287.79 191.45 284.09 193.1 278.49 193.1C276.113 193.14 273.752 192.699 271.549 191.805C269.347 190.911 267.347 189.581 265.67 187.896C263.993 186.21 262.674 184.204 261.79 181.997C260.907 179.79 260.479 177.427 260.53 175.05Z" fill="white"/>
<path d="M322.54 189C322.49 189.975 322.067 190.894 321.359 191.567C320.651 192.24 319.712 192.615 318.735 192.615C317.758 192.615 316.819 192.24 316.111 191.567C315.403 190.894 314.98 189.975 314.93 189V188.7C313.18 190.95 310.93 193 307.08 193C301.33 193 298 189.16 298 183V169.15C298 168.142 298.4 167.176 299.113 166.463C299.826 165.75 300.792 165.35 301.8 165.35C302.808 165.35 303.774 165.75 304.487 166.463C305.2 167.176 305.6 168.142 305.6 169.15V180.61C305.6 184.21 307.3 186.06 310.2 186.06C313.1 186.06 314.95 184.21 314.95 180.61V169.15C315 168.175 315.423 167.256 316.131 166.583C316.839 165.91 317.778 165.535 318.755 165.535C319.732 165.535 320.671 165.91 321.379 166.583C322.087 167.256 322.51 168.175 322.56 169.15L322.54 189Z" fill="white"/>
<path d="M329.33 169.15C329.33 168.142 329.73 167.176 330.443 166.463C331.156 165.75 332.122 165.35 333.13 165.35C334.138 165.35 335.104 165.75 335.817 166.463C336.53 167.176 336.93 168.142 336.93 169.15V170.35C338.03 167.76 339.83 165.35 342.08 165.35C342.987 165.339 343.865 165.665 344.546 166.263C345.228 166.862 345.663 167.692 345.768 168.592C345.874 169.493 345.642 170.401 345.118 171.141C344.594 171.881 343.815 172.401 342.93 172.6C339.08 173.51 336.93 176.46 336.93 181.86V189C336.93 190.008 336.53 190.974 335.817 191.687C335.104 192.4 334.138 192.8 333.13 192.8C332.122 192.8 331.156 192.4 330.443 191.687C329.73 190.974 329.33 190.008 329.33 189V169.15Z" fill="white"/>
<path d="M349.53 189.91C349.083 189.64 348.714 189.259 348.46 188.803C348.205 188.347 348.075 187.832 348.08 187.31C348.08 186.514 348.396 185.751 348.959 185.189C349.521 184.626 350.284 184.31 351.08 184.31C351.607 184.306 352.125 184.444 352.58 184.71C354.73 186.161 357.239 186.992 359.83 187.11C362.03 187.11 363.03 186.31 363.03 185.11V185C363.03 183.35 360.43 182.8 357.48 181.9C353.73 180.8 349.48 179.05 349.48 173.84V173.75C349.48 168.29 353.88 165.25 359.28 165.25C362.163 165.278 365.001 165.962 367.58 167.25C368.123 167.501 368.582 167.903 368.901 168.409C369.221 168.915 369.387 169.502 369.38 170.1C369.38 170.896 369.064 171.659 368.501 172.221C367.939 172.784 367.176 173.1 366.38 173.1C365.89 173.106 365.407 172.981 364.98 172.74C363.188 171.771 361.212 171.191 359.18 171.04C357.33 171.04 356.38 171.85 356.38 172.9V172.99C356.38 174.49 358.93 175.2 361.83 176.2C365.58 177.45 369.93 179.25 369.93 184.2V184.3C369.93 190.3 365.48 192.95 359.68 192.95C356.074 192.938 352.549 191.882 349.53 189.91Z" fill="white"/>
<path d="M374 179.21V179.11C374 171.4 380.2 165.11 388.55 165.11C396.9 165.11 403 171.3 403 179V179.1C403 186.8 396.8 193.1 388.45 193.1C380.1 193.1 374 186.91 374 179.21ZM395.5 179.21V179.11C395.538 178.158 395.383 177.207 395.047 176.316C394.71 175.424 394.198 174.609 393.541 173.918C392.883 173.228 392.094 172.677 391.219 172.298C390.345 171.919 389.403 171.719 388.45 171.71C384.1 171.71 381.5 175.05 381.5 179.01V179.11C381.462 180.062 381.617 181.013 381.953 181.904C382.29 182.796 382.802 183.611 383.459 184.302C384.117 184.992 384.906 185.543 385.781 185.922C386.655 186.301 387.597 186.501 388.55 186.51C392.93 186.51 395.53 183.16 395.53 179.21H395.5Z" fill="white"/>
<path d="M433.68 190L422.33 162.8C422.058 162.22 421.905 161.591 421.88 160.95C421.877 160.446 421.975 159.946 422.168 159.481C422.362 159.015 422.646 158.593 423.005 158.239C423.363 157.885 423.789 157.606 424.257 157.419C424.725 157.232 425.226 157.141 425.73 157.15C426.583 157.125 427.422 157.374 428.123 157.86C428.825 158.345 429.353 159.043 429.63 159.85L438.38 182.51L447.23 159.6C447.536 158.872 448.051 158.251 448.709 157.815C449.368 157.379 450.14 157.148 450.93 157.15C451.424 157.138 451.915 157.225 452.375 157.405C452.835 157.586 453.254 157.856 453.608 158.201C453.962 158.545 454.244 158.957 454.436 159.412C454.629 159.867 454.729 160.356 454.73 160.85C454.71 161.437 454.574 162.015 454.33 162.55L442.88 190C442.561 190.893 441.97 191.663 441.189 192.202C440.408 192.74 439.478 193.019 438.53 193H438C437.057 193.013 436.133 192.731 435.359 192.193C434.584 191.655 433.997 190.888 433.68 190Z" fill="white"/>
<path d="M458.73 159.25C458.73 157.05 460.58 155.7 462.98 155.7C465.38 155.7 467.23 157.05 467.23 159.25V159.35C467.23 161.55 465.38 162.95 462.98 162.95C460.58 162.95 458.73 161.55 458.73 159.35V159.25ZM459.18 169.15C459.18 168.142 459.58 167.176 460.293 166.463C461.006 165.75 461.972 165.35 462.98 165.35C463.988 165.35 464.954 165.75 465.667 166.463C466.38 167.176 466.78 168.142 466.78 169.15V189C466.78 190.008 466.38 190.974 465.667 191.687C464.954 192.4 463.988 192.8 462.98 192.8C461.972 192.8 461.006 192.4 460.293 191.687C459.58 190.974 459.18 190.008 459.18 189V169.15Z" fill="white"/>
<path d="M473.93 169.15C473.93 168.142 474.33 167.176 475.043 166.463C475.756 165.75 476.722 165.35 477.73 165.35C478.738 165.35 479.704 165.75 480.417 166.463C481.13 167.176 481.53 168.142 481.53 169.15V170.35C482.63 167.76 484.43 165.35 486.68 165.35C487.587 165.339 488.465 165.665 489.146 166.263C489.827 166.862 490.263 167.692 490.368 168.592C490.474 169.493 490.242 170.401 489.718 171.141C489.194 171.881 488.415 172.401 487.53 172.6C483.68 173.51 481.53 176.46 481.53 181.86V189C481.53 190.008 481.13 190.974 480.417 191.687C479.704 192.4 478.738 192.8 477.73 192.8C476.722 192.8 475.756 192.4 475.043 191.687C474.33 190.974 473.93 190.008 473.93 189V169.15Z" fill="white"/>
<path d="M496.08 184.86V172.16H495.83C494.998 172.114 494.215 171.751 493.642 171.145C493.07 170.54 492.75 169.738 492.75 168.905C492.75 168.072 493.07 167.27 493.642 166.665C494.215 166.059 494.998 165.696 495.83 165.65H496.08V162.3C496.08 161.292 496.48 160.326 497.193 159.613C497.906 158.9 498.872 158.5 499.88 158.5C500.888 158.5 501.854 158.9 502.567 159.613C503.28 160.326 503.68 161.292 503.68 162.3V165.65H507C507.832 165.696 508.615 166.059 509.188 166.665C509.76 167.27 510.08 168.072 510.08 168.905C510.08 169.738 509.76 170.54 509.188 171.145C508.615 171.751 507.832 172.114 507 172.16H503.65V183.61C503.65 185.36 504.4 186.21 506.1 186.21C506.35 186.21 506.85 186.16 507 186.16C507.834 186.165 508.632 186.499 509.222 187.088C509.811 187.678 510.145 188.476 510.15 189.31C510.146 189.925 509.958 190.525 509.61 191.033C509.263 191.541 508.772 191.933 508.2 192.16C506.814 192.696 505.335 192.951 503.85 192.91C499.23 192.91 496.08 191.06 496.08 184.86Z" fill="white"/>
<path d="M539.93 189C539.93 190.008 539.53 190.974 538.817 191.687C538.104 192.4 537.138 192.8 536.13 192.8C535.122 192.8 534.156 192.4 533.443 191.687C532.73 190.974 532.33 190.008 532.33 189V188.7C530.58 190.95 528.33 193 524.48 193C518.73 193 515.38 189.2 515.38 183.05V169.15C515.38 168.142 515.78 167.176 516.493 166.463C517.206 165.75 518.172 165.35 519.18 165.35C520.188 165.35 521.154 165.75 521.867 166.463C522.58 167.176 522.98 168.142 522.98 169.15V180.61C522.98 184.21 524.68 186.06 527.58 186.06C530.48 186.06 532.33 184.21 532.33 180.61V169.15C532.33 168.142 532.73 167.176 533.443 166.463C534.156 165.75 535.122 165.35 536.13 165.35C537.138 165.35 538.104 165.75 538.817 166.463C539.53 167.176 539.93 168.142 539.93 169.15V189Z" fill="white"/>
<path d="M545.13 184.76V184.66C545.13 178.81 549.58 176.11 555.93 176.11C558.161 176.085 560.379 176.458 562.48 177.21V176.76C562.48 173.6 560.48 171.85 556.73 171.85C554.952 171.836 553.183 172.089 551.48 172.6C551.129 172.735 550.756 172.803 550.38 172.8C549.969 172.808 549.561 172.734 549.179 172.582C548.797 172.431 548.449 172.204 548.156 171.916C547.863 171.629 547.63 171.285 547.471 170.907C547.312 170.528 547.23 170.121 547.23 169.71C547.213 169.065 547.397 168.43 547.755 167.893C548.113 167.356 548.628 166.943 549.23 166.71C551.966 165.705 554.867 165.227 557.78 165.3C561.93 165.3 564.93 166.4 566.83 168.3C568.73 170.2 569.73 173.25 569.73 176.86V189.06C569.73 189.544 569.634 190.022 569.447 190.468C569.261 190.915 568.988 191.319 568.643 191.659C568.299 191.998 567.891 192.266 567.442 192.447C566.994 192.627 566.514 192.717 566.03 192.71C565.583 192.744 565.134 192.689 564.709 192.549C564.283 192.409 563.889 192.187 563.55 191.894C563.211 191.601 562.933 191.244 562.732 190.844C562.531 190.443 562.412 190.007 562.38 189.56C561.364 190.689 560.111 191.579 558.711 192.167C557.31 192.755 555.797 193.025 554.28 192.96C549.28 193 545.13 190.06 545.13 184.76ZM562.58 183V181.66C561.052 180.987 559.399 180.646 557.73 180.66C554.48 180.66 552.48 181.96 552.48 184.36V184.46C552.48 186.46 554.18 187.71 556.63 187.71C560.18 187.71 562.58 185.76 562.58 183Z" fill="white"/>
<path d="M576.68 159.45C576.68 158.442 577.08 157.476 577.793 156.763C578.506 156.05 579.472 155.65 580.48 155.65C581.488 155.65 582.454 156.05 583.167 156.763C583.88 157.476 584.28 158.442 584.28 159.45V189C584.28 190.008 583.88 190.974 583.167 191.687C582.454 192.4 581.488 192.8 580.48 192.8C579.472 192.8 578.506 192.4 577.793 191.687C577.08 190.974 576.68 190.008 576.68 189V159.45Z" fill="white"/>
<path d="M297.35 244.45C297.611 245.957 297.758 247.481 297.79 249.01C297.791 249.492 297.757 249.973 297.69 250.45C297.642 250.892 297.506 251.32 297.292 251.71C297.077 252.1 296.788 252.443 296.44 252.72C295.88 253.192 295.172 253.453 294.44 253.46C293.66 253.464 292.902 253.203 292.29 252.72C291.648 252.25 291.177 251.583 290.95 250.82C290.465 248.858 290.253 246.839 290.32 244.82C290.32 244.11 290.32 243.35 290.32 242.55V241.19C290.32 240.47 290.32 239.68 290.32 238.82C290.32 235.24 290.157 230.413 289.83 224.34L289.73 222.12C289.73 221.76 289.63 220.96 289.49 219.73C289.175 216.961 289.012 214.177 289 211.39C289 207.217 289.577 204.483 290.73 203.19C291.041 202.838 291.424 202.557 291.854 202.367C292.284 202.177 292.75 202.082 293.22 202.09H293.4C293.965 202.041 294.534 202.119 295.065 202.318C295.596 202.517 296.076 202.832 296.47 203.24C297.052 204.127 297.319 205.183 297.23 206.24C297.212 207.33 297.105 208.417 296.91 209.49C296.8 210.11 296.72 210.49 296.69 210.78C296.378 213.391 296.241 216.02 296.28 218.65C296.28 221.15 296.36 224.03 296.52 227.26C296.68 230.49 296.76 232.64 296.79 234.12C296.79 234.69 296.79 235.41 296.79 236.27C296.752 238.608 296.865 240.946 297.13 243.27L297.35 244.45Z" fill="white"/>
<path d="M349.81 243.57C350.287 245.212 350.543 246.91 350.57 248.62C350.57 249.01 350.57 249.39 350.57 249.75C350.39 251.52 349.77 252.41 348.71 252.41C348.367 252.391 348.029 252.317 347.71 252.19C345.157 251.183 342.62 245.713 340.1 235.78C339.54 233.627 338.62 229.68 337.34 223.94C336.353 219.46 335.603 216.46 335.09 214.94C335.03 220.813 333.81 228.617 331.43 238.35C330.582 242.243 329.338 246.039 327.72 249.68C326.48 252.22 325.29 253.49 324.15 253.49C323.897 253.485 323.649 253.427 323.42 253.32C320.953 252.18 318.847 246.597 317.1 236.57C314.973 224.357 313.76 217.903 313.46 217.21C312.5 219.75 311.5 225.283 310.46 233.81C309.42 242.337 308.453 247.67 307.56 249.81C307.07 251 306.47 251.59 305.75 251.59C305.215 251.54 304.714 251.307 304.33 250.93C303.076 249.811 302.249 248.291 301.99 246.63C301.83 245.769 301.756 244.895 301.77 244.02C301.77 240.78 302.51 236.133 303.99 230.08L306.35 219.2C306.888 216.493 307.589 213.822 308.45 211.2C309.109 209.322 310.432 207.75 312.17 206.78C312.752 206.458 313.405 206.282 314.07 206.27C314.691 206.302 315.298 206.467 315.85 206.753C316.402 207.039 316.886 207.441 317.27 207.93C319.483 210.37 321.127 215.253 322.2 222.58C322.46 224.35 322.81 227.26 323.2 231.29C323.573 234.683 323.907 237.053 324.2 238.4C324.56 236.3 325.407 231.66 326.74 224.48C327.9 218.313 328.667 213.98 329.04 211.48C329.257 209.335 329.689 207.218 330.33 205.16C331.21 203.28 332.96 202.35 335.58 202.35H335.85C337.723 204.35 339.39 207.653 340.85 212.26C342.99 219.087 345.977 229.523 349.81 243.57Z" fill="white"/>
<path d="M407.09 228.29C407.204 228.676 407.261 229.077 407.26 229.48C407.26 231.96 405.347 235.313 401.52 239.54C398.045 243.388 393.952 246.629 389.41 249.13C384.458 251.961 378.854 253.453 373.15 253.46C369.172 253.535 365.241 252.592 361.73 250.72C357.063 248.153 354.15 244.623 352.99 240.13C352.625 238.675 352.444 237.18 352.45 235.68C352.463 233.752 352.718 231.834 353.21 229.97C354.905 223.507 358.542 217.72 363.63 213.39C368.757 208.85 373.907 206.58 379.08 206.58C379.307 206.58 379.537 206.58 379.77 206.58C380.758 206.653 381.717 206.943 382.58 207.43C383.443 207.891 384.102 208.658 384.43 209.58C384.526 209.853 384.577 210.14 384.58 210.43C384.58 212.08 382.92 213.58 379.58 214.95L377.77 215.68C372.837 217.68 369.257 219.73 367.03 221.83C364.917 223.774 363.128 226.042 361.73 228.55C360.502 230.609 359.815 232.944 359.73 235.34C359.731 235.705 359.758 236.069 359.81 236.43C360.13 239.31 361.813 241.643 364.86 243.43C367.605 244.97 370.713 245.743 373.86 245.67C379.187 245.721 384.387 244.044 388.68 240.89C388.73 240.89 389.08 240.52 389.75 239.89C398.477 231.603 403.857 227.46 405.89 227.46C406.157 227.426 406.428 227.491 406.649 227.645C406.871 227.798 407.028 228.028 407.09 228.29Z" fill="white"/>
<path d="M436.07 204.75L437.82 206.48C439.239 207.262 440.84 207.652 442.46 207.61C443.02 207.61 443.89 207.61 445.1 207.61C446.31 207.61 446.94 207.61 447.39 207.61C449.321 207.709 451.24 207.964 453.13 208.37C455.48 209.04 456.65 210.19 456.65 211.84V212.11C456.47 214.69 454.563 217.487 450.93 220.5C451 220.44 449.53 221.44 446.54 223.5C445.77 224.02 444.29 224.9 442.07 226.13C443.36 226.04 444.72 225.99 446.15 225.99C447.22 225.99 448.34 225.99 449.49 226.06C452.2 226.19 454.08 226.3 455.16 226.38H455.6C457.701 226.286 459.802 226.574 461.8 227.23C462.646 227.496 463.382 228.031 463.898 228.752C464.414 229.474 464.681 230.343 464.66 231.23C464.66 235.79 461.453 240.013 455.04 243.9C450.187 246.895 444.824 248.973 439.22 250.03C439.229 250.495 439.13 250.956 438.93 251.376C438.731 251.795 438.436 252.163 438.07 252.45C437.317 253.016 436.402 253.325 435.46 253.33H435.21C434.582 253.405 433.949 253.229 433.45 252.84C433.123 252.451 432.739 252.113 432.31 251.84C431.994 251.702 431.655 251.627 431.31 251.62C431.11 251.62 430.911 251.651 430.72 251.71C430.238 251.899 429.728 252.007 429.21 252.03H429.13C428.42 252.03 427.73 251.51 427.13 250.52C426.691 249.94 426.431 249.245 426.38 248.52C426.378 248.354 426.402 248.189 426.45 248.03C426.531 247.688 426.69 247.37 426.913 247.1C427.137 246.829 427.42 246.614 427.74 246.47C428.31 246.278 428.901 246.154 429.5 246.1C430.045 246.07 430.564 245.855 430.97 245.49C431.314 244.997 431.477 244.4 431.43 243.8C431.43 243.61 431.43 243.41 431.43 243.19C431.43 242.97 431.43 242.36 431.43 241.78C431.43 241.2 431.43 240.84 431.43 240.29C431.43 239.74 431.43 239.01 431.43 238.51C431.43 238.01 431.43 237.62 431.43 237.31C431.27 235.02 430.43 233.4 428.96 232.48C427.49 231.56 426.96 230.81 426.96 230.01C426.957 229.835 426.991 229.661 427.06 229.5C427.684 228.287 428.66 227.29 429.86 226.64C429.81 224.71 429.77 222.91 429.72 221.25C429.593 216.663 429.477 214.147 429.37 213.7C429.37 213.7 428.98 213.7 428.18 213.7C427.38 213.7 426.85 213.7 426.74 213.63C425.987 213.511 425.272 213.213 424.657 212.763C424.041 212.313 423.542 211.722 423.2 211.04C423.023 210.735 422.923 210.392 422.91 210.04C422.905 209.799 422.964 209.561 423.08 209.35C423.311 209.02 423.608 208.741 423.952 208.531C424.297 208.321 424.68 208.184 425.08 208.13C425.427 208.072 425.778 208.039 426.13 208.03C426.77 208.03 427.13 208.03 427.33 208.03C427.693 208.038 428.053 207.96 428.38 207.802C428.707 207.644 428.991 207.41 429.21 207.12C429.702 206.219 430.318 205.391 431.04 204.66C431.717 204.053 432.601 203.728 433.51 203.75C433.653 203.74 433.797 203.74 433.94 203.75C434.752 203.799 435.514 204.157 436.07 204.75ZM436.75 222.6C442.89 219.8 446.773 216.87 448.4 213.81C446.266 213.186 444.053 212.88 441.83 212.9H440.51C439.054 212.872 437.613 213.198 436.31 213.85C436.47 216.08 436.62 219 436.75 222.6ZM438.48 243.6C447.353 240.267 453.173 236.81 455.94 233.23L451.57 232.64C449.57 232.38 447.92 232.22 446.57 232.15C446.05 232.15 445.57 232.15 445.06 232.15C441.78 232.15 439.297 232.73 437.61 233.89L438.48 243.6Z" fill="white"/>
<path d="M489.73 227.72C490.083 227.931 490.381 228.222 490.602 228.57C490.822 228.917 490.959 229.311 491 229.72C490.995 229.911 490.961 230.099 490.9 230.28C487.604 231.944 484.731 234.338 482.5 237.28C479.974 240.638 478.225 244.514 477.38 248.63C476.69 251.8 475.71 253.39 474.38 253.39C473.681 253.321 473.031 253.002 472.55 252.49C470.91 250.99 469.623 248.1 468.69 243.82C467.956 240.537 467.58 237.184 467.57 233.82C467.726 232.767 468.255 231.806 469.06 231.11C469.355 230.907 469.702 230.796 470.06 230.79C470.458 230.795 470.846 230.913 471.18 231.13C472.967 232.237 473.993 234.817 474.26 238.87C475.177 235.983 476.756 233.35 478.87 231.18C481.623 228.14 484.29 226.617 486.87 226.61H487C488.006 226.677 488.963 227.066 489.73 227.72Z" fill="white"/>
<path d="M495.93 221.79C495.026 221.795 494.149 221.476 493.46 220.89C493.244 220.7 493.072 220.466 492.954 220.204C492.837 219.942 492.778 219.657 492.78 219.37V219.3C492.816 218.841 492.956 218.395 493.188 217.997C493.42 217.599 493.738 217.258 494.12 217C494.893 216.414 495.84 216.105 496.81 216.12H497.39C498.267 216.073 499.135 216.315 499.86 216.81C500.129 216.999 500.347 217.251 500.495 217.544C500.643 217.837 500.717 218.162 500.71 218.49C500.698 218.929 500.589 219.359 500.392 219.752C500.195 220.144 499.915 220.488 499.57 220.76C498.749 221.499 497.674 221.893 496.57 221.86C496.356 221.849 496.142 221.826 495.93 221.79ZM497.57 227.28C498.69 227.28 499.25 227.76 499.25 228.72C500.016 233.205 500.384 237.75 500.35 242.3C500.35 242.88 500.35 243.49 500.35 244.11L500.21 251.45C500.21 251.83 499.71 252.26 498.72 252.75C498.007 253.151 497.215 253.393 496.4 253.46C496.139 253.472 495.881 253.394 495.67 253.24C494.96 252.579 494.389 251.784 493.99 250.899C493.592 250.015 493.374 249.06 493.35 248.09C493.294 247.552 493.268 247.011 493.27 246.47C493.27 245.137 493.37 243.397 493.57 241.25C493.65 240.37 493.7 239.72 493.74 239.25C493.85 237.65 493.91 236 493.91 234.25C493.91 233.68 493.91 233.1 493.91 232.52C493.894 232.095 493.854 231.671 493.79 231.25C493.79 231.1 493.79 230.95 493.79 230.81C493.817 229.944 494.114 229.108 494.64 228.42C495.001 228.009 495.456 227.691 495.966 227.492C496.476 227.294 497.026 227.221 497.57 227.28Z" fill="white"/>
<path d="M531.77 238.61C532.525 237.926 533.457 237.468 534.46 237.29C535.06 237.29 535.36 237.75 535.36 238.66C534.973 241.413 533.433 244.303 530.74 247.33C528.608 249.912 525.855 251.911 522.74 253.14C521.787 253.349 520.815 253.456 519.84 253.46C515.067 253.46 510.67 250.757 506.65 245.35C505.167 243.114 504.448 240.459 504.6 237.78C504.61 236.293 504.733 234.808 504.97 233.34C505.41 230.44 507.72 228.527 511.9 227.6C512.454 227.473 513.021 227.409 513.59 227.41C515.126 227.414 516.617 227.928 517.83 228.87C519.501 230.196 520.82 231.914 521.67 233.87C521.929 234.774 522.067 235.709 522.08 236.65C522.028 238.189 521.506 239.676 520.586 240.911C519.666 242.146 518.39 243.07 516.93 243.56C516.2 243.82 515.76 243.98 515.61 244.05C515.469 244.103 515.346 244.195 515.256 244.316C515.165 244.436 515.111 244.58 515.1 244.73C515.243 245.266 515.538 245.749 515.95 246.12C516.433 246.701 517.036 247.17 517.718 247.495C518.4 247.819 519.145 247.992 519.9 248C520.344 247.998 520.787 247.948 521.22 247.85C523.13 247.43 525.03 246.09 526.94 243.85C528.427 241.994 530.041 240.243 531.77 238.61ZM512.34 240.61C512.821 240.623 513.299 240.531 513.741 240.342C514.183 240.152 514.578 239.868 514.9 239.51C515.528 238.825 515.905 237.947 515.97 237.02C515.98 236.857 515.98 236.693 515.97 236.53C515.982 235.797 515.776 235.077 515.38 234.46C515.135 234.061 514.801 233.725 514.403 233.478C514.006 233.232 513.556 233.082 513.09 233.04C512.967 233.031 512.843 233.031 512.72 233.04C512.42 233.027 512.122 233.094 511.856 233.235C511.591 233.376 511.368 233.585 511.21 233.84C510.796 234.533 510.6 235.334 510.65 236.14C510.67 238.327 511.233 239.827 512.34 240.64V240.61Z" fill="white"/>
<path d="M548.76 225.48C554.1 225.66 557.66 225.87 559.46 226.11C560.98 226.34 561.75 226.7 561.75 227.19C561.777 228.09 561.494 228.972 560.948 229.688C560.401 230.403 559.625 230.909 558.75 231.12C557.121 231.555 555.435 231.743 553.75 231.68H552.04H550.77H549.52C549.23 231.68 548.95 231.68 548.69 231.68C547.703 231.64 546.716 231.745 545.76 231.99C546.073 236.23 546.407 239.933 546.76 243.1C546.87 244.26 547.07 245.61 547.34 247.1C547.5 248.1 547.64 248.79 547.73 249.33C547.74 249.393 547.74 249.457 547.73 249.52C547.504 250.494 547.009 251.385 546.302 252.092C545.595 252.799 544.704 253.294 543.73 253.52C543.439 253.517 543.154 253.441 542.9 253.3C541.713 253.2 540.973 251.603 540.68 248.51V248.1C540.51 246.7 540.35 244.61 540.19 241.85C539.977 238.25 539.74 235.583 539.48 233.85C539.46 233.564 539.36 233.288 539.192 233.055C539.024 232.822 538.795 232.64 538.53 232.53C537.816 232.313 537.076 232.189 536.33 232.16C535.84 232.141 535.352 232.084 534.87 231.99C534.24 231.942 533.634 231.733 533.108 231.383C532.583 231.032 532.156 230.553 531.87 229.99C531.728 229.676 531.653 229.335 531.65 228.99C531.66 228.526 531.788 228.072 532.02 227.67C532.12 227.15 533.52 226.67 536.24 226.16C537.056 226.032 537.864 225.858 538.66 225.64C538.66 220.48 539.043 216.633 539.81 214.1C541.143 209.64 543.73 207.41 547.57 207.41H548C550.739 207.387 553.403 208.3 555.55 210C557.87 211.907 559.603 214.43 560.55 217.28C560.925 218.283 561.137 219.34 561.18 220.41C561.212 221.047 561.041 221.677 560.69 222.21C560.325 222.636 559.859 222.963 559.335 223.164C558.812 223.365 558.246 223.432 557.69 223.36C557.275 223.404 556.856 223.364 556.457 223.242C556.059 223.12 555.689 222.919 555.37 222.65C554.985 222.122 554.725 221.513 554.61 220.87C554.458 220.222 554.264 219.584 554.03 218.96C552.43 215.027 550.94 213.06 549.56 213.06C548.75 213.06 547.98 213.81 547.27 215.3C546.569 216.839 546.085 218.468 545.83 220.14C545.664 221.132 545.573 222.135 545.56 223.14C545.56 223.43 545.56 223.72 545.56 223.99C545.63 224.84 545.75 225.3 545.93 225.36C546.11 225.42 547.2 225.43 548.76 225.48Z" fill="white"/>
<path d="M233.21 149.82C226.12 149.82 221.71 145.44 221.71 138.56V126.38C221.71 126.317 221.722 126.255 221.747 126.198C221.771 126.14 221.806 126.088 221.851 126.044C221.896 126 221.949 125.966 222.007 125.943C222.065 125.92 222.127 125.909 222.19 125.91H235.75C242.85 125.91 247.26 130.29 247.26 137.17V149.34C247.26 149.404 247.247 149.467 247.223 149.526C247.198 149.585 247.162 149.638 247.116 149.683C247.07 149.728 247.016 149.763 246.957 149.786C246.897 149.81 246.834 149.821 246.77 149.82H233.21Z" fill="white"/>
<path d="M268 149.82C275.36 149.82 279.94 145.27 279.94 138.13V125.49C279.94 125.421 279.926 125.353 279.899 125.29C279.871 125.227 279.83 125.171 279.779 125.125C279.728 125.078 279.668 125.043 279.603 125.022C279.538 125 279.468 124.993 279.4 125H265.32C258 125 253.38 129.55 253.38 136.69V149.33C253.383 149.461 253.436 149.585 253.53 149.677C253.623 149.769 253.749 149.82 253.88 149.82H268Z" fill="#87BD29"/>
<path d="M232.73 186.31C241.73 186.31 247.26 180.78 247.26 172.09V156.72C247.257 156.56 247.192 156.407 247.078 156.295C246.964 156.183 246.81 156.12 246.65 156.12H229.52C220.57 156.12 215 161.65 215 170.34V185.71C215 185.79 215.016 185.868 215.047 185.942C215.077 186.015 215.122 186.082 215.179 186.138C215.236 186.194 215.303 186.238 215.377 186.267C215.451 186.297 215.53 186.311 215.61 186.31H232.73Z" fill="#87BD29"/>
<path d="M308 438C281.59 438 279.91 421.62 279.91 395.88V367.59C279.915 367.114 280.109 366.66 280.448 366.327C280.787 365.993 281.244 365.807 281.72 365.81H536.15C562.57 365.81 564.9 382.2 564.9 407.95V436.22C564.897 436.455 564.849 436.687 564.756 436.904C564.664 437.12 564.53 437.316 564.362 437.48C564.194 437.644 563.995 437.774 563.777 437.861C563.558 437.949 563.325 437.993 563.09 437.99L308 438Z" fill="#8BB825"/>
<path d="M353.28 382.33L354.35 383.38C355.212 383.854 356.186 384.089 357.17 384.06C357.51 384.06 358.04 384.06 358.78 384.06C359.52 384.06 359.89 384.06 360.17 384.06C361.344 384.121 362.511 384.274 363.66 384.52C365.09 384.93 365.8 385.63 365.8 386.63V386.79C365.687 388.37 364.527 390.073 362.32 391.9C362.32 391.9 361.47 392.47 359.65 393.73C359.19 394.04 358.28 394.58 356.94 395.33C357.72 395.27 358.54 395.24 359.42 395.24C360.07 395.24 360.75 395.24 361.42 395.29C363.06 395.36 364.21 395.43 364.86 395.48H365.13C366.408 395.422 367.686 395.598 368.9 396C369.419 396.16 369.871 396.487 370.185 396.93C370.5 397.373 370.66 397.907 370.64 398.45C370.64 401.217 368.69 403.783 364.79 406.15C361.839 407.973 358.578 409.237 355.17 409.88C355.177 410.163 355.117 410.443 354.996 410.699C354.874 410.954 354.694 411.177 354.47 411.35C354.014 411.699 353.454 411.886 352.88 411.88H352.73C352.349 411.925 351.966 411.821 351.66 411.59C351.473 411.359 351.25 411.16 351 411C350.808 410.914 350.6 410.867 350.39 410.86C350.268 410.86 350.146 410.881 350.03 410.92C349.736 411.035 349.425 411.102 349.11 411.12C348.67 411.12 348.26 410.8 347.86 410.2C347.589 409.848 347.429 409.423 347.4 408.98C347.385 408.881 347.385 408.779 347.4 408.68C347.445 408.463 347.539 408.26 347.677 408.086C347.814 407.913 347.99 407.774 348.19 407.68C348.538 407.568 348.896 407.495 349.26 407.46C349.591 407.444 349.906 407.313 350.15 407.09C350.356 406.799 350.454 406.446 350.43 406.09C350.43 405.97 350.43 405.85 350.43 405.72C350.43 405.59 350.43 405.22 350.43 404.86C350.43 404.5 350.43 404.29 350.43 403.96C350.43 403.63 350.43 403.18 350.43 402.87C350.43 402.56 350.43 402.33 350.43 402.14C350.438 401.565 350.306 400.996 350.045 400.484C349.783 399.971 349.401 399.531 348.93 399.2C348.11 398.69 347.7 398.2 347.7 397.71C347.7 397.601 347.72 397.492 347.76 397.39C348.146 396.657 348.741 396.054 349.47 395.66C349.47 394.48 349.41 393.39 349.38 392.38C349.3 389.58 349.23 388.06 349.17 387.79C348.927 387.777 348.683 387.777 348.44 387.79L347.57 387.74C347.111 387.67 346.675 387.491 346.299 387.217C345.923 386.944 345.619 386.585 345.41 386.17C345.309 385.978 345.251 385.767 345.24 385.55C345.238 385.404 345.272 385.259 345.34 385.13C345.482 384.928 345.665 384.757 345.877 384.63C346.088 384.502 346.325 384.421 346.57 384.39C346.781 384.354 346.995 384.334 347.21 384.33H347.94C348.16 384.338 348.379 384.292 348.578 384.196C348.776 384.1 348.949 383.957 349.08 383.78C349.385 383.232 349.762 382.728 350.2 382.28C350.612 381.913 351.148 381.716 351.7 381.73H351.96C352.209 381.738 352.454 381.795 352.68 381.898C352.907 382.001 353.111 382.148 353.28 382.33ZM353.7 393.18C357.433 391.48 359.793 389.697 360.78 387.83C359.48 387.454 358.133 387.268 356.78 387.28H355.98C355.092 387.26 354.213 387.459 353.42 387.86C353.53 389.21 353.62 391 353.7 393.18ZM354.75 406C360.15 404 363.69 401.897 365.37 399.69L362.71 399.33C361.497 399.17 360.497 399.07 359.71 399.03H358.79C357.208 398.927 355.632 399.296 354.26 400.09L354.75 406Z" fill="white"/>
<path d="M374.66 392.69C374.111 392.689 373.58 392.494 373.16 392.14C373.03 392.025 372.925 391.883 372.855 391.725C372.784 391.566 372.748 391.394 372.75 391.22V391.17C372.768 390.887 372.85 390.612 372.991 390.366C373.131 390.12 373.326 389.909 373.56 389.75C374.031 389.392 374.608 389.202 375.2 389.21H375.55C376.081 389.18 376.608 389.324 377.05 389.62C377.211 389.732 377.343 389.882 377.434 390.056C377.524 390.23 377.571 390.424 377.57 390.62C377.563 390.888 377.497 391.15 377.376 391.389C377.255 391.628 377.082 391.837 376.87 392C376.383 392.447 375.741 392.687 375.08 392.67L374.66 392.69ZM375.66 396.03C376.327 396.03 376.66 396.32 376.66 396.9C377.129 399.628 377.353 402.392 377.33 405.16C377.33 405.51 377.33 405.88 377.33 406.26L377.24 410.73C377.24 410.95 376.94 411.22 376.34 411.51C375.907 411.755 375.426 411.902 374.93 411.94C374.769 411.95 374.61 411.904 374.48 411.81C374.049 411.408 373.702 410.924 373.46 410.387C373.218 409.849 373.086 409.269 373.07 408.68C373.052 408.347 373.052 408.013 373.07 407.68C373.07 406.873 373.13 405.813 373.25 404.5C373.25 403.97 373.33 403.57 373.35 403.31C373.42 402.31 373.45 401.31 373.45 400.31C373.45 399.96 373.45 399.61 373.45 399.25C373.45 399.04 373.45 398.78 373.38 398.48C373.375 398.393 373.375 398.307 373.38 398.22C373.396 397.691 373.578 397.18 373.9 396.76C374.112 396.503 374.382 396.3 374.688 396.167C374.994 396.035 375.327 395.978 375.66 396V396.03Z" fill="white"/>
<path d="M396.46 402.92C396.915 402.503 397.481 402.225 398.09 402.12C398.45 402.12 398.64 402.39 398.64 402.95C398.234 404.942 397.258 406.773 395.83 408.22C394.538 409.788 392.869 411.003 390.98 411.75C390.398 411.876 389.805 411.94 389.21 411.94C386.31 411.94 383.643 410.297 381.21 407.01C380.311 405.651 379.876 404.037 379.97 402.41C379.975 401.506 380.049 400.603 380.19 399.71C380.463 397.95 381.867 396.787 384.4 396.22C384.728 396.143 385.063 396.103 385.4 396.1C386.342 396.105 387.256 396.421 388 397C389.008 397.797 389.808 398.826 390.33 400C390.494 400.549 390.582 401.117 390.59 401.69C390.59 402.454 390.388 403.205 390.003 403.866C389.618 404.526 389.065 405.073 388.4 405.45C388.102 405.633 387.783 405.781 387.45 405.89L386.65 406.19C386.565 406.222 386.49 406.277 386.436 406.35C386.381 406.423 386.348 406.509 386.34 406.6C386.426 406.928 386.607 407.224 386.86 407.45C387.154 407.799 387.519 408.081 387.932 408.276C388.344 408.471 388.794 408.575 389.25 408.58C389.519 408.579 389.787 408.548 390.05 408.49C391.443 408.075 392.665 407.218 393.53 406.05C394.429 404.936 395.408 403.89 396.46 402.92ZM384.64 404.15C384.933 404.16 385.225 404.105 385.495 403.989C385.764 403.873 386.005 403.699 386.2 403.48C386.578 403.063 386.807 402.531 386.85 401.97C386.85 401.87 386.85 401.77 386.85 401.67C386.863 401.224 386.741 400.785 386.5 400.41C386.349 400.168 386.144 399.964 385.901 399.815C385.658 399.666 385.384 399.575 385.1 399.55H384.88C384.697 399.545 384.517 399.588 384.356 399.674C384.194 399.76 384.058 399.886 383.96 400.04C383.71 400.462 383.591 400.95 383.62 401.44C383.563 401.94 383.626 402.447 383.804 402.918C383.981 403.389 384.268 403.811 384.64 404.15Z" fill="white"/>
<path d="M412.56 407.83C412.795 408.627 412.929 409.45 412.96 410.28C412.994 410.668 412.903 411.057 412.7 411.39C412.53 411.584 412.316 411.735 412.076 411.83C411.836 411.926 411.577 411.963 411.32 411.94C411.041 411.937 410.763 411.907 410.49 411.85C409.64 411.71 408.98 410.69 408.49 408.85C408.048 406.957 407.714 405.041 407.49 403.11C407.24 401.25 407.05 400.06 406.91 399.54C405.568 400.465 404.489 401.723 403.78 403.19C403.248 404.508 402.986 405.919 403.01 407.34C402.953 408.208 402.67 409.045 402.19 409.77C401.58 410.77 400.92 411.34 400.19 411.34C399.46 411.34 399.04 410.92 398.57 410.08C398.225 409.276 398.078 408.402 398.14 407.53C398.165 406.167 398.282 404.807 398.49 403.46C398.651 402.493 398.761 401.518 398.82 400.54C398.789 400.122 398.846 399.703 398.988 399.308C399.129 398.914 399.351 398.553 399.64 398.25C400.025 397.894 400.535 397.704 401.06 397.72C401.309 397.722 401.558 397.752 401.8 397.81C402.45 397.94 402.8 398.17 402.8 398.47C403.278 397.933 403.707 397.354 404.08 396.74C404.439 396.168 404.829 395.618 405.25 395.09C405.575 394.754 405.945 394.464 406.35 394.23C406.886 393.861 407.511 393.643 408.16 393.6C408.456 393.59 408.748 393.672 408.995 393.835C409.242 393.998 409.433 394.234 409.54 394.51C410.61 397.371 411.319 400.354 411.65 403.39C411.87 404.82 412.04 405.9 412.17 406.62C412.29 406.82 412.4 407.24 412.56 407.83Z" fill="white"/>
<path d="M429.41 395.57C429.57 395.878 429.643 396.224 429.62 396.57C429.62 398.023 428.74 400.547 426.98 404.14C426.57 405 426.34 405.51 426.28 405.69L426.16 406.02C425.759 407.324 425.233 408.587 424.59 409.79C423.717 411.25 422.717 411.98 421.59 411.98H421.35C420.839 411.871 420.361 411.644 419.953 411.318C419.545 410.991 419.219 410.574 419 410.1C418.423 409.103 417.932 408.059 417.53 406.98C417.36 406.54 417.24 406.23 417.16 406.05C417.08 405.87 416.9 405.46 416.69 405C416.082 403.742 415.554 402.446 415.11 401.12C414.894 400.475 414.776 399.8 414.76 399.12C414.744 398.701 414.844 398.286 415.05 397.92C415.238 397.66 415.492 397.455 415.785 397.325C416.079 397.195 416.401 397.145 416.72 397.18C416.971 397.182 417.222 397.202 417.47 397.24C418.19 397.65 419.23 399.7 420.59 403.37C421.15 404.86 421.53 405.83 421.75 406.28C422.68 404.731 423.355 403.043 423.75 401.28C424.175 399.753 424.71 398.259 425.35 396.81C426.05 395.45 426.85 394.81 427.74 394.81C427.932 394.809 428.124 394.832 428.31 394.88C428.539 394.883 428.763 394.949 428.957 395.071C429.151 395.193 429.307 395.365 429.41 395.57Z" fill="white"/>
<path d="M447.13 402.92C447.585 402.503 448.151 402.225 448.76 402.12C449.13 402.12 449.31 402.39 449.31 402.95C448.908 404.943 447.931 406.775 446.5 408.22C445.208 409.788 443.539 411.003 441.65 411.75C441.068 411.876 440.475 411.94 439.88 411.94C436.98 411.94 434.313 410.297 431.88 407.01C430.981 405.651 430.546 404.037 430.64 402.41C430.645 401.506 430.719 400.603 430.86 399.71C431.13 397.95 432.53 396.79 435.08 396.22C435.408 396.142 435.743 396.102 436.08 396.1C437.014 396.106 437.921 396.419 438.66 396.99C439.668 397.787 440.468 398.816 440.99 399.99C441.154 400.539 441.242 401.107 441.25 401.68C441.25 402.444 441.048 403.195 440.663 403.856C440.278 404.516 439.725 405.063 439.06 405.44C438.762 405.623 438.443 405.771 438.11 405.88L437.31 406.18C437.225 406.212 437.15 406.267 437.095 406.34C437.041 406.413 437.007 406.499 437 406.59C437.086 406.918 437.267 407.214 437.52 407.44C437.814 407.789 438.179 408.071 438.592 408.266C439.004 408.461 439.454 408.565 439.91 408.57C440.179 408.569 440.447 408.539 440.71 408.48C442.103 408.065 443.325 407.208 444.19 406.04C445.092 404.929 446.075 403.887 447.13 402.92ZM435.31 404.15C435.603 404.16 435.895 404.105 436.165 403.989C436.434 403.873 436.675 403.699 436.87 403.48C437.248 403.063 437.477 402.531 437.52 401.97C437.52 401.87 437.52 401.77 437.52 401.67C437.53 401.223 437.404 400.784 437.16 400.41C437.009 400.168 436.804 399.964 436.561 399.815C436.318 399.666 436.044 399.575 435.76 399.55H435.54C435.358 399.546 435.177 399.59 435.016 399.675C434.855 399.761 434.719 399.887 434.62 400.04C434.369 400.462 434.251 400.95 434.28 401.44C434.227 401.941 434.293 402.447 434.472 402.918C434.651 403.389 434.938 403.811 435.31 404.15Z" fill="white"/>
<path d="M463.23 407.83C463.467 408.627 463.605 409.45 463.64 410.28C463.672 410.669 463.577 411.059 463.37 411.39C463.199 411.584 462.986 411.735 462.746 411.83C462.506 411.926 462.247 411.963 461.99 411.94C461.711 411.937 461.433 411.907 461.16 411.85C460.31 411.71 459.65 410.69 459.16 408.85C458.718 406.957 458.384 405.041 458.16 403.11C457.91 401.25 457.72 400.06 457.58 399.54C456.238 400.465 455.159 401.723 454.45 403.19C453.918 404.508 453.656 405.919 453.68 407.34C453.623 408.208 453.34 409.045 452.86 409.77C452.25 410.77 451.59 411.34 450.86 411.34C450.13 411.34 449.71 410.92 449.24 410.08C448.895 409.276 448.748 408.402 448.81 407.53C448.834 406.167 448.954 404.806 449.17 403.46C449.37 402.04 449.48 401.06 449.49 400.54C449.459 400.122 449.516 399.703 449.658 399.308C449.799 398.914 450.021 398.553 450.31 398.25C450.695 397.894 451.205 397.704 451.73 397.72C451.983 397.723 452.234 397.753 452.48 397.81C453.12 397.94 453.48 398.17 453.48 398.47C453.958 397.933 454.387 397.354 454.76 396.74C455.119 396.168 455.509 395.618 455.93 395.09C456.255 394.754 456.625 394.464 457.03 394.23C457.566 393.861 458.191 393.643 458.84 393.6C459.137 393.592 459.429 393.675 459.677 393.838C459.925 394.001 460.118 394.235 460.23 394.51C461.291 397.373 461.996 400.355 462.33 403.39C462.55 404.82 462.72 405.9 462.85 406.62C463 406.82 463.07 407.24 463.23 407.83Z" fill="white"/>
<path d="M468.06 392.69C467.511 392.689 466.98 392.494 466.56 392.14C466.428 392.026 466.323 391.884 466.25 391.726C466.178 391.567 466.14 391.394 466.14 391.22V391.17C466.16 390.887 466.244 390.611 466.386 390.365C466.528 390.119 466.724 389.909 466.96 389.75C467.428 389.393 468.002 389.203 468.59 389.21H468.95C469.481 389.183 470.007 389.327 470.45 389.62C470.611 389.732 470.743 389.882 470.834 390.056C470.924 390.23 470.971 390.424 470.97 390.62C470.963 390.888 470.897 391.15 470.776 391.389C470.655 391.628 470.482 391.837 470.27 392C469.783 392.447 469.141 392.687 468.48 392.67L468.06 392.69ZM469.06 396.03C469.75 396.03 470.06 396.32 470.06 396.9C470.524 399.628 470.748 402.392 470.73 405.16C470.73 405.51 470.73 405.88 470.73 406.26L470.64 410.73C470.64 410.95 470.34 411.22 469.74 411.51C469.307 411.754 468.826 411.9 468.33 411.94C468.169 411.95 468.01 411.904 467.88 411.81C467.449 411.408 467.102 410.924 466.86 410.387C466.618 409.849 466.486 409.269 466.47 408.68C466.452 408.347 466.452 408.013 466.47 407.68C466.47 406.87 466.53 405.81 466.64 404.5C466.69 403.97 466.73 403.57 466.75 403.31C466.82 402.31 466.85 401.31 466.85 400.31C466.85 399.96 466.85 399.61 466.85 399.25C466.85 399.04 466.85 398.78 466.77 398.48C466.765 398.393 466.765 398.307 466.77 398.22C466.786 397.691 466.968 397.18 467.29 396.76C467.5 396.501 467.77 396.296 468.077 396.164C468.383 396.032 468.717 395.975 469.05 396L469.06 396.03Z" fill="white"/>
<path d="M489.91 407.18C490.574 407.805 491.004 408.637 491.13 409.54C491.131 409.733 491.09 409.924 491.01 410.1C490.49 411.23 489.87 411.8 489.16 411.8C488.3 411.8 487.14 410.64 485.68 408.32C485.33 407.76 485.07 407.38 484.92 407.18C483.96 409.24 482.087 410.65 479.3 411.41C478.136 411.747 476.932 411.926 475.72 411.94C474.18 411.94 473.4 411.48 473.4 410.56C473.312 410.112 473.269 409.657 473.27 409.2C473.27 406.327 475.127 403.63 478.84 401.11C479.265 400.87 479.71 400.665 480.17 400.5C481.89 399.81 482.74 399.26 482.74 398.85C482.67 398.2 482.64 397.22 482.64 395.92C482.64 395.253 482.64 394.523 482.64 393.73C482.64 392.73 482.64 391.86 482.64 391.19C482.64 390.68 482.64 390.28 482.64 389.97V389.82C482.64 389.493 482.64 389.16 482.64 388.82C482.64 386.89 482.94 385.62 483.53 385C483.74 384.786 483.993 384.618 484.272 384.508C484.551 384.397 484.85 384.347 485.15 384.36H485.47C485.8 384.36 486.11 384.68 486.39 385.22C486.625 385.659 486.781 386.137 486.85 386.63C487.048 388.409 487.128 390.2 487.09 391.99V392.87C487.09 393.2 487.09 393.72 487.09 394.41C487.09 394.8 487.09 395.17 487.09 395.52C487.041 397.277 487.182 399.034 487.51 400.76C488.037 402.992 488.844 405.149 489.91 407.18ZM482.47 403.69C481.488 404.044 480.549 404.507 479.67 405.07C478.843 405.478 478.182 406.16 477.8 407C477.768 407.097 477.751 407.198 477.75 407.3C477.752 407.535 477.837 407.761 477.99 407.94H478.39C478.905 407.897 479.405 407.747 479.858 407.499C480.311 407.251 480.707 406.911 481.02 406.5C481.781 405.735 482.287 404.753 482.47 403.69Z" fill="white"/>
<path d="M500.26 396.13C500.984 396.108 501.704 396.258 502.359 396.567C503.014 396.877 503.587 397.337 504.03 397.91C505.03 399.293 505.528 400.976 505.44 402.68C505.479 404.895 504.848 407.07 503.63 408.92C503.091 409.828 502.326 410.582 501.409 411.107C500.493 411.633 499.456 411.913 498.4 411.92C497.973 411.92 497.548 411.877 497.13 411.79C496.301 411.624 495.53 411.246 494.892 410.692C494.253 410.138 493.77 409.427 493.49 408.63C492.965 407.304 492.706 405.886 492.73 404.46C492.73 404.06 492.73 403.65 492.73 403.24C492.787 401.296 493.577 399.446 494.94 398.06C495.597 397.412 496.38 396.905 497.239 396.57C498.099 396.235 499.018 396.078 499.94 396.11L500.26 396.13ZM497.42 402.13C497.087 402.79 496.919 403.521 496.93 404.26V404.47C496.924 405.273 497.131 406.063 497.53 406.76C497.64 407.005 497.814 407.215 498.035 407.368C498.255 407.521 498.512 407.612 498.78 407.63C499.131 407.583 499.467 407.46 499.766 407.271C500.065 407.081 500.319 406.828 500.51 406.53C501.174 405.71 501.55 404.695 501.58 403.64C501.58 403.48 501.58 403.33 501.58 403.18C501.604 402.275 501.364 401.382 500.89 400.61C500.786 400.422 500.634 400.266 500.45 400.157C500.265 400.048 500.054 399.99 499.84 399.99C499.24 400.023 498.677 400.289 498.27 400.73C497.829 401.077 497.528 401.57 497.42 402.12V402.13Z" fill="white"/>
</g>
<defs>
<clipPath id="clip0_4_51">
<rect width="800" height="562.3" fill="white"/>
</clipPath>
</defs>
</svg>
