<svg width="1360" height="768" viewBox="0 0 1360 768" fill="none" xmlns="http://www.w3.org/2000/svg">
<rect width="1360" height="768" fill="white"/>
<path d="M306.72 63.384C306.72 62.104 307.744 61.112 309.088 61.112C310.432 61.112 311.456 62.104 311.456 63.384C311.456 64.696 310.432 65.688 309.088 65.688C307.744 65.688 306.72 64.696 306.72 63.384ZM306.752 83.8L307.168 68.696H310.72L311.168 83.8H306.752ZM330.738 56.6H335.154V79H330.738V69.464H320.274V79H315.858V56.6H320.274V65.88H330.738V56.6ZM346.375 62.2C351.335 62.2 354.727 65.688 354.727 70.776C354.727 75.864 351.335 79.352 346.375 79.352C341.351 79.352 337.959 75.864 337.959 70.776C337.959 65.688 341.351 62.2 346.375 62.2ZM346.343 76.056C348.871 76.056 350.535 73.976 350.535 70.776C350.535 67.544 348.871 65.496 346.343 65.496C343.783 65.496 342.119 67.544 342.119 70.776C342.119 73.976 343.783 76.056 346.343 76.056ZM361.418 79H357.258V56.28H361.418V79ZM372.022 62.2C376.47 62.2 378.838 64.376 378.838 68.536V79H375.158L374.838 76.76C373.878 78.424 372.118 79.32 369.75 79.32C366.23 79.32 363.99 77.432 363.99 74.392C363.99 70.616 367.478 69.048 374.678 69.048V68.632C374.678 66.328 373.782 65.336 371.734 65.336C369.942 65.336 368.694 66.2 368.566 67.608H364.63C364.822 64.376 367.766 62.2 372.022 62.2ZM374.71 72.824V71.64C370.294 71.64 368.118 72.408 368.118 74.264C368.118 75.544 369.174 76.344 370.838 76.344C373.238 76.344 374.71 74.968 374.71 72.824ZM383.095 75.416H387.127L384.695 83.736H381.751L383.095 75.416ZM408.779 56.6L416.875 79H412.427L410.859 74.36H401.963L400.395 79H395.947L404.043 56.6H408.779ZM402.923 71.064H409.899L406.411 60.728L402.923 71.064ZM422.279 67.096C422.279 68.024 423.079 68.568 425.287 69.016L426.375 69.24C430.407 70.072 432.039 71.448 432.039 73.944C432.039 77.304 429.383 79.352 425.095 79.352C420.903 79.352 418.151 77.24 417.863 73.912H421.927C421.991 75.288 423.303 76.28 425.223 76.28C426.823 76.28 427.911 75.448 427.911 74.296C427.911 73.304 427.143 72.792 424.743 72.28L423.719 72.056C419.975 71.288 418.311 69.816 418.311 67.32C418.311 64.28 420.935 62.2 424.839 62.2C428.743 62.2 431.303 64.184 431.559 67.288H427.719C427.559 66.008 426.439 65.208 424.839 65.208C423.367 65.208 422.279 66.008 422.279 67.096ZM442.411 65.688H439.371V74.104C439.371 75.448 440.011 75.928 441.323 75.928C441.899 75.928 442.411 75.864 442.603 75.8V79C442.155 79.096 441.259 79.256 440.363 79.256C436.779 79.256 435.243 77.816 435.243 74.2V65.688H433.195V62.552H435.243V58.584H439.275V62.552H442.411V65.688ZM454.474 62.392V66.104C454.154 66.008 453.738 65.944 453.194 65.944C450.73 65.944 449.29 67.736 449.29 70.84V79H445.13V62.552H448.906L449.226 64.984C449.93 63.32 451.466 62.232 453.13 62.232C453.642 62.232 454.09 62.296 454.474 62.392ZM458.652 60.28C457.276 60.28 456.188 59.256 456.188 57.88C456.188 56.536 457.276 55.512 458.652 55.512C460.028 55.512 461.116 56.536 461.116 57.88C461.116 59.256 460.028 60.28 458.652 60.28ZM460.7 79H456.54V62.552H460.7V79ZM479.941 79H476.197L475.877 76.408C474.725 78.296 472.741 79.352 470.437 79.352C466.277 79.352 463.365 75.896 463.365 70.776C463.365 65.688 466.309 62.2 470.437 62.2C472.709 62.2 474.693 63.256 475.813 65.048V56.28H479.941V79ZM475.941 70.776C475.941 67.576 474.277 65.496 471.749 65.496C469.253 65.496 467.589 67.576 467.589 70.776C467.589 73.976 469.253 76.056 471.749 76.056C474.277 76.056 475.941 73.976 475.941 70.776ZM484.825 71.704L484.409 56.6H488.825L488.377 71.704H484.825ZM484.377 77.016C484.377 75.704 485.401 74.712 486.745 74.712C488.089 74.712 489.113 75.704 489.113 77.016C489.113 78.296 488.089 79.288 486.745 79.288C485.401 79.288 484.377 78.296 484.377 77.016Z" fill="#13172C"/>
<path d="M314.34 130.84H307.5V135.02H313.54V136.82H307.5V141.16H314.34V143H305.28V129H314.34V130.84ZM318.389 135.54C318.389 136.2 318.929 136.6 320.309 136.88L320.969 137.02C323.429 137.56 324.509 138.44 324.509 139.96C324.509 141.96 322.929 143.2 320.369 143.2C317.909 143.2 316.229 141.9 316.069 139.86H318.169C318.189 140.86 319.129 141.54 320.469 141.54C321.609 141.54 322.409 140.94 322.409 140.1C322.409 139.38 321.889 139.02 320.309 138.66L319.689 138.52C317.349 138 316.349 137.12 316.349 135.64C316.349 133.82 317.909 132.56 320.209 132.56C322.529 132.56 324.069 133.76 324.229 135.62H322.209C322.109 134.74 321.329 134.18 320.209 134.18C319.149 134.18 318.389 134.74 318.389 135.54ZM330.798 134.44H328.858V140.18C328.858 141.08 329.278 141.4 330.118 141.4C330.518 141.4 330.858 141.34 330.918 141.32V143C330.778 143.04 330.278 143.14 329.758 143.14C327.638 143.14 326.758 142.34 326.758 140.16V134.44H325.478V132.76H326.758V130.32H328.818V132.76H330.798V134.44ZM337.351 128.36H339.431L337.491 131.4H335.991L337.351 128.36ZM337.031 132.56C339.691 132.56 341.091 133.9 341.091 136.48V143H339.271L339.071 141.54C338.471 142.6 337.311 143.18 335.831 143.18C333.671 143.18 332.251 142 332.251 140.14C332.251 137.8 334.531 136.82 338.991 136.82V136.52C338.991 134.92 338.371 134.24 336.931 134.24C335.671 134.24 334.771 134.86 334.691 135.8H332.671C332.771 133.9 334.591 132.56 337.031 132.56ZM339.011 139.08V138.26C335.931 138.26 334.351 138.8 334.351 140.14C334.351 141.04 335.091 141.58 336.231 141.58C337.931 141.58 339.011 140.6 339.011 139.08ZM345.22 135.54C345.22 136.2 345.76 136.6 347.14 136.88L347.8 137.02C350.26 137.56 351.34 138.44 351.34 139.96C351.34 141.96 349.76 143.2 347.2 143.2C344.74 143.2 343.06 141.9 342.9 139.86H345C345.02 140.86 345.96 141.54 347.3 141.54C348.44 141.54 349.24 140.94 349.24 140.1C349.24 139.38 348.72 139.02 347.14 138.66L346.52 138.52C344.18 138 343.18 137.12 343.18 135.64C343.18 133.82 344.74 132.56 347.04 132.56C349.36 132.56 350.9 133.76 351.06 135.62H349.04C348.94 134.74 348.16 134.18 347.04 134.18C345.98 134.18 345.22 134.74 345.22 135.54ZM366.97 137.9V138.36H359.17C359.21 140.16 360.31 141.5 362.13 141.5C363.29 141.5 364.21 141.02 364.67 139.92H366.83C366.29 142.02 364.33 143.2 362.13 143.2C358.99 143.2 357.03 140.98 357.03 137.9C357.03 134.92 358.93 132.56 362.03 132.56C365.21 132.56 366.97 134.78 366.97 137.9ZM359.21 136.88H364.83C364.65 135.24 363.71 134.22 362.05 134.22C360.47 134.22 359.39 135.32 359.21 136.88ZM374.064 132.56C376.184 132.56 377.544 134 377.544 136.3V143H375.444V136.78C375.444 135.22 374.664 134.34 373.284 134.34C371.804 134.34 370.904 135.44 370.904 137.24V143H368.804V132.76H370.664L370.864 134.24C371.564 133.14 372.664 132.56 374.064 132.56ZM385.966 135.54C385.966 136.2 386.506 136.6 387.886 136.88L388.546 137.02C391.006 137.56 392.086 138.44 392.086 139.96C392.086 141.96 390.506 143.2 387.946 143.2C385.486 143.2 383.806 141.9 383.646 139.86H385.746C385.766 140.86 386.706 141.54 388.046 141.54C389.186 141.54 389.986 140.94 389.986 140.1C389.986 139.38 389.466 139.02 387.886 138.66L387.266 138.52C384.926 138 383.926 137.12 383.926 135.64C383.926 133.82 385.486 132.56 387.786 132.56C390.106 132.56 391.646 133.76 391.806 135.62H389.786C389.686 134.74 388.906 134.18 387.786 134.18C386.726 134.18 385.966 134.74 385.966 135.54ZM403.395 137.9V138.36H395.595C395.635 140.16 396.735 141.5 398.555 141.5C399.715 141.5 400.635 141.02 401.095 139.92H403.255C402.715 142.02 400.755 143.2 398.555 143.2C395.415 143.2 393.455 140.98 393.455 137.9C393.455 134.92 395.355 132.56 398.455 132.56C401.635 132.56 403.395 134.78 403.395 137.9ZM395.635 136.88H401.255C401.075 135.24 400.135 134.22 398.475 134.22C396.895 134.22 395.815 135.32 395.635 136.88ZM414.789 143H412.929L412.729 141.34C411.949 142.56 410.709 143.2 409.269 143.2C406.629 143.2 404.749 141.04 404.749 137.88C404.749 134.74 406.649 132.56 409.249 132.56C410.689 132.56 411.949 133.2 412.689 134.36V128.8H414.789V143ZM412.769 137.88C412.769 135.72 411.589 134.28 409.829 134.28C408.069 134.28 406.909 135.72 406.909 137.88C406.909 140.04 408.069 141.48 409.829 141.48C411.589 141.48 412.769 140.04 412.769 137.88ZM426.627 137.9V138.36H418.827C418.867 140.16 419.967 141.5 421.787 141.5C422.947 141.5 423.867 141.02 424.327 139.92H426.487C425.947 142.02 423.987 143.2 421.787 143.2C418.647 143.2 416.687 140.98 416.687 137.9C416.687 134.92 418.587 132.56 421.687 132.56C424.867 132.56 426.627 134.78 426.627 137.9ZM418.867 136.88H424.487C424.307 135.24 423.367 134.22 421.707 134.22C420.127 134.22 419.047 135.32 418.867 136.88ZM434.942 132.7C434.942 133.74 435.762 134.36 437.882 134.84L438.742 135.04C441.922 135.76 443.162 136.84 443.162 139.06C443.162 141.48 441.082 143.2 437.902 143.2C434.762 143.2 432.622 141.52 432.382 138.78H434.622C434.802 140.36 436.122 141.4 437.942 141.4C439.682 141.4 440.922 140.44 440.922 139.16C440.922 138 440.122 137.42 438.082 136.96L437.282 136.78C434.142 136.08 432.762 134.9 432.762 132.9C432.762 130.48 434.782 128.8 437.702 128.8C440.542 128.8 442.602 130.42 442.802 132.84H440.622C440.482 131.48 439.282 130.58 437.662 130.58C436.082 130.58 434.942 131.46 434.942 132.7ZM449.392 132.56C452.052 132.56 453.452 133.9 453.452 136.48V143H451.632L451.432 141.54C450.832 142.6 449.672 143.18 448.192 143.18C446.032 143.18 444.612 142 444.612 140.14C444.612 137.8 446.892 136.82 451.352 136.82V136.52C451.352 134.92 450.732 134.24 449.292 134.24C448.032 134.24 447.132 134.86 447.052 135.8H445.032C445.132 133.9 446.952 132.56 449.392 132.56ZM451.372 139.08V138.26C448.292 138.26 446.712 138.8 446.712 140.14C446.712 141.04 447.452 141.58 448.592 141.58C450.292 141.58 451.372 140.6 451.372 139.08ZM461 132.56C463.12 132.56 464.48 134 464.48 136.3V143H462.38V136.78C462.38 135.22 461.6 134.34 460.22 134.34C458.74 134.34 457.84 135.44 457.84 137.24V143H455.74V132.76H457.6L457.8 134.24C458.5 133.14 459.6 132.56 461 132.56ZM478.962 135.52C480.542 135.92 481.662 137.34 481.662 139.02C481.662 141.36 479.902 143 477.422 143H471.282V129H477.102C479.362 129 480.982 130.48 480.982 132.58C480.982 133.96 480.262 135 478.962 135.52ZM473.502 130.74V134.86H476.602C477.782 134.86 478.722 133.96 478.722 132.76C478.722 131.58 477.822 130.74 476.602 130.74H473.502ZM476.802 141.26C478.282 141.26 479.402 140.28 479.402 138.96C479.402 137.4 478.362 136.46 476.622 136.46H473.502V141.26H476.802ZM488.149 132.56C491.169 132.56 493.249 134.72 493.249 137.88C493.249 141.04 491.169 143.2 488.149 143.2C485.089 143.2 483.009 141.04 483.009 137.88C483.009 134.72 485.089 132.56 488.149 132.56ZM488.129 141.46C489.929 141.46 491.109 140.06 491.109 137.88C491.109 135.7 489.929 134.3 488.129 134.3C486.309 134.3 485.129 135.7 485.129 137.88C485.129 140.06 486.309 141.46 488.129 141.46ZM500.355 132.66V134.54C500.155 134.48 499.895 134.42 499.575 134.42C498.055 134.42 497.175 135.6 497.175 137.64V143H495.075V132.76H496.935L497.135 134.26C497.535 133.26 498.515 132.56 499.515 132.56C499.855 132.56 500.115 132.6 500.355 132.66ZM503.297 131.12C502.557 131.12 501.977 130.58 501.977 129.84C501.977 129.1 502.557 128.56 503.297 128.56C504.057 128.56 504.617 129.1 504.617 129.84C504.617 130.58 504.057 131.12 503.297 131.12ZM502.217 132.76H504.317V143.28C504.317 145.52 503.097 146.6 500.697 146.6V144.86C501.657 144.86 502.217 144.32 502.217 143.3V132.76ZM511.144 132.56C513.804 132.56 515.204 133.9 515.204 136.48V143H513.384L513.184 141.54C512.584 142.6 511.424 143.18 509.944 143.18C507.784 143.18 506.364 142 506.364 140.14C506.364 137.8 508.644 136.82 513.104 136.82V136.52C513.104 134.92 512.484 134.24 511.044 134.24C509.784 134.24 508.884 134.86 508.804 135.8H506.784C506.884 133.9 508.704 132.56 511.144 132.56ZM513.124 139.08V138.26C510.044 138.26 508.464 138.8 508.464 140.14C508.464 141.04 509.204 141.58 510.344 141.58C512.044 141.58 513.124 140.6 513.124 139.08ZM528.153 138.14H521.873V136.3H528.153V138.14ZM540.23 129C542.95 129 544.85 130.9 544.85 133.62C544.85 136.34 542.95 138.24 540.23 138.24H537.29V143H535.07V129H540.23ZM539.91 136.4C541.49 136.4 542.57 135.28 542.57 133.62C542.57 131.96 541.49 130.84 539.91 130.84H537.29V136.4H539.91ZM547.89 131.12C547.15 131.12 546.57 130.58 546.57 129.84C546.57 129.1 547.15 128.56 547.89 128.56C548.63 128.56 549.21 129.1 549.21 129.84C549.21 130.58 548.63 131.12 547.89 131.12ZM548.91 143H546.81V132.76H548.91V143ZM553.223 135.54C553.223 136.2 553.763 136.6 555.143 136.88L555.803 137.02C558.263 137.56 559.343 138.44 559.343 139.96C559.343 141.96 557.763 143.2 555.203 143.2C552.743 143.2 551.063 141.9 550.903 139.86H553.003C553.023 140.86 553.963 141.54 555.303 141.54C556.443 141.54 557.243 140.94 557.243 140.1C557.243 139.38 556.723 139.02 555.143 138.66L554.523 138.52C552.183 138 551.183 137.12 551.183 135.64C551.183 133.82 552.743 132.56 555.043 132.56C557.363 132.56 558.903 133.76 559.063 135.62H557.043C556.943 134.74 556.163 134.18 555.043 134.18C553.983 134.18 553.223 134.74 553.223 135.54ZM565.852 132.56C568.872 132.56 570.952 134.72 570.952 137.88C570.952 141.04 568.872 143.2 565.852 143.2C562.792 143.2 560.712 141.04 560.712 137.88C560.712 134.72 562.792 132.56 565.852 132.56ZM565.832 141.46C567.632 141.46 568.812 140.06 568.812 137.88C568.812 135.7 567.632 134.3 565.832 134.3C564.012 134.3 562.832 135.7 562.832 137.88C562.832 140.06 564.012 141.46 565.832 141.46ZM577.019 143V141.62L582.719 136.18C583.979 134.96 584.519 134.1 584.519 133.1C584.519 131.56 583.479 130.54 581.899 130.54C580.399 130.54 579.359 131.44 579.239 132.96H577.079C577.199 130.52 579.219 128.8 581.979 128.8C584.739 128.8 586.719 130.54 586.719 132.98C586.719 134.42 585.999 135.7 584.399 137.22L580.239 141.2H586.739V143H577.019Z" fill="#13172C"/>
<path d="M306.59 175.832C306.59 176.49 307.122 176.868 308.508 177.176L309.138 177.316C311.378 177.82 312.232 178.576 312.232 180.13C312.232 181.922 310.762 183.154 308.424 183.154C306.142 183.154 304.588 181.964 304.448 180.004H306.352C306.45 180.97 307.304 181.628 308.466 181.628C309.544 181.628 310.314 181.054 310.314 180.27C310.314 179.57 309.796 179.206 308.438 178.898L307.864 178.772C305.68 178.31 304.7 177.442 304.7 176.014C304.7 174.264 306.156 173.046 308.298 173.046C310.356 173.046 311.826 174.208 311.966 175.944H310.118C310.02 175.104 309.292 174.544 308.256 174.544C307.276 174.544 306.59 175.076 306.59 175.832ZM320.4 179.444V179.794H315.108C315.122 180.942 315.808 181.768 316.942 181.768C317.656 181.768 318.23 181.46 318.496 180.788H320.33C319.98 182.272 318.566 183.154 316.928 183.154C314.688 183.154 313.274 181.6 313.274 179.416C313.274 177.26 314.632 175.65 316.858 175.65C319.14 175.65 320.4 177.19 320.4 179.444ZM315.136 178.646H318.58C318.468 177.624 317.88 177.008 316.886 177.008C315.906 177.008 315.248 177.666 315.136 178.646ZM323.546 183H321.726V173.06H323.546V183ZM331.997 179.444V179.794H326.705C326.719 180.942 327.405 181.768 328.539 181.768C329.253 181.768 329.827 181.46 330.093 180.788H331.927C331.577 182.272 330.163 183.154 328.525 183.154C326.285 183.154 324.871 181.6 324.871 179.416C324.871 177.26 326.229 175.65 328.455 175.65C330.737 175.65 331.997 177.19 331.997 179.444ZM326.733 178.646H330.177C330.065 177.624 329.477 177.008 328.483 177.008C327.503 177.008 326.845 177.666 326.733 178.646ZM336.697 181.712C337.495 181.712 338.069 181.222 338.209 180.424H340.001C339.819 182.09 338.503 183.154 336.627 183.154C334.457 183.154 332.987 181.642 332.987 179.402C332.987 177.176 334.457 175.65 336.627 175.65C338.503 175.65 339.819 176.714 340.001 178.38H338.209C338.069 177.582 337.495 177.092 336.697 177.092C335.535 177.092 334.807 177.974 334.807 179.402C334.807 180.83 335.535 181.712 336.697 181.712ZM344.676 181.712C345.474 181.712 346.048 181.222 346.188 180.424H347.98C347.798 182.09 346.482 183.154 344.606 183.154C342.436 183.154 340.966 181.642 340.966 179.402C340.966 177.176 342.436 175.65 344.606 175.65C346.482 175.65 347.798 176.714 347.98 178.38H346.188C346.048 177.582 345.474 177.092 344.676 177.092C343.514 177.092 342.786 177.974 342.786 179.402C342.786 180.83 343.514 181.712 344.676 181.712ZM350.22 174.81C349.618 174.81 349.142 174.362 349.142 173.76C349.142 173.172 349.618 172.724 350.22 172.724C350.822 172.724 351.298 173.172 351.298 173.76C351.298 174.362 350.822 174.81 350.22 174.81ZM351.116 183H349.296V175.804H351.116V183ZM356.163 175.65C358.333 175.65 359.817 177.176 359.817 179.402C359.817 181.628 358.333 183.154 356.163 183.154C353.965 183.154 352.481 181.628 352.481 179.402C352.481 177.176 353.965 175.65 356.163 175.65ZM356.149 181.712C357.255 181.712 357.983 180.802 357.983 179.402C357.983 177.988 357.255 177.092 356.149 177.092C355.029 177.092 354.301 177.988 354.301 179.402C354.301 180.802 355.029 181.712 356.149 181.712ZM365.115 175.65C366.613 175.65 367.537 176.644 367.537 178.282V183H365.717V178.73C365.717 177.708 365.241 177.148 364.387 177.148C363.449 177.148 362.903 177.834 362.903 179.038V183H361.097V175.804H362.735L362.875 176.854C363.379 176.07 364.135 175.65 365.115 175.65ZM372.296 175.65C374.242 175.65 375.278 176.602 375.278 178.422V183H373.668L373.528 182.02C373.108 182.748 372.338 183.14 371.302 183.14C369.762 183.14 368.782 182.314 368.782 180.984C368.782 179.332 370.308 178.646 373.458 178.646V178.464C373.458 177.456 373.066 177.022 372.17 177.022C371.386 177.022 370.84 177.4 370.784 178.016H369.062C369.146 176.602 370.434 175.65 372.296 175.65ZM373.472 180.298V179.78C371.54 179.78 370.588 180.116 370.588 180.928C370.588 181.488 371.05 181.838 371.778 181.838C372.828 181.838 373.472 181.236 373.472 180.298ZM386.685 179.444V179.794H381.393C381.407 180.942 382.093 181.768 383.227 181.768C383.941 181.768 384.515 181.46 384.781 180.788H386.615C386.265 182.272 384.851 183.154 383.213 183.154C380.973 183.154 379.559 181.6 379.559 179.416C379.559 177.26 380.917 175.65 383.143 175.65C385.425 175.65 386.685 177.19 386.685 179.444ZM381.421 178.646H384.865C384.753 177.624 384.165 177.008 383.171 177.008C382.191 177.008 381.533 177.666 381.421 178.646ZM389.831 183H388.011V173.06H389.831V183ZM398.498 175.65C399.996 175.65 400.92 176.644 400.92 178.282V183H399.1V178.73C399.1 177.708 398.624 177.148 397.77 177.148C396.832 177.148 396.286 177.834 396.286 179.038V183H394.48V175.804H396.118L396.258 176.854C396.762 176.07 397.518 175.65 398.498 175.65ZM405.819 172.724H407.471L406.113 174.88H404.895L405.819 172.724ZM404.839 183.154C403.341 183.154 402.431 182.16 402.431 180.522V175.804H404.237V180.06C404.237 181.082 404.727 181.642 405.581 181.642C406.519 181.642 407.065 180.956 407.065 179.752V175.804H408.871V183H407.233L407.093 181.95C406.589 182.734 405.819 183.154 404.839 183.154ZM410.466 175.804H412.09L412.23 176.854C412.65 176.098 413.42 175.65 414.358 175.65C415.296 175.65 415.982 176.112 416.332 176.952C416.822 176.098 417.606 175.65 418.642 175.65C420.042 175.65 420.952 176.672 420.952 178.282V183H419.16V178.548C419.16 177.652 418.74 177.148 417.984 177.148C417.144 177.148 416.598 177.806 416.598 178.828V183H414.806V178.548C414.806 177.652 414.386 177.148 413.644 177.148C412.79 177.148 412.258 177.848 412.258 178.954V183H410.466V175.804ZM429.324 179.444V179.794H424.032C424.046 180.942 424.732 181.768 425.866 181.768C426.58 181.768 427.154 181.46 427.42 180.788H429.254C428.904 182.272 427.49 183.154 425.852 183.154C423.612 183.154 422.198 181.6 422.198 179.416C422.198 177.26 423.556 175.65 425.782 175.65C428.064 175.65 429.324 177.19 429.324 179.444ZM424.06 178.646H427.504C427.392 177.624 426.804 177.008 425.81 177.008C424.83 177.008 424.172 177.666 424.06 178.646ZM434.682 175.734V177.358C434.542 177.316 434.36 177.288 434.122 177.288C433.044 177.288 432.414 178.072 432.414 179.43V183H430.594V175.804H432.246L432.386 176.868C432.694 176.14 433.366 175.664 434.094 175.664C434.318 175.664 434.514 175.692 434.682 175.734ZM438.858 175.65C441.028 175.65 442.512 177.176 442.512 179.402C442.512 181.628 441.028 183.154 438.858 183.154C436.66 183.154 435.176 181.628 435.176 179.402C435.176 177.176 436.66 175.65 438.858 175.65ZM438.844 181.712C439.95 181.712 440.678 180.802 440.678 179.402C440.678 177.988 439.95 177.092 438.844 177.092C437.724 177.092 436.996 177.988 436.996 179.402C436.996 180.802 437.724 181.712 438.844 181.712ZM453.752 183H452.114L451.974 181.866C451.47 182.692 450.602 183.154 449.594 183.154C447.774 183.154 446.5 181.642 446.5 179.402C446.5 177.176 447.788 175.65 449.594 175.65C450.588 175.65 451.456 176.112 451.946 176.896V173.06H453.752V183ZM452.002 179.402C452.002 178.002 451.274 177.092 450.168 177.092C449.076 177.092 448.348 178.002 448.348 179.402C448.348 180.802 449.076 181.712 450.168 181.712C451.274 181.712 452.002 180.802 452.002 179.402ZM462.207 179.444V179.794H456.915C456.929 180.942 457.615 181.768 458.749 181.768C459.463 181.768 460.037 181.46 460.303 180.788H462.137C461.787 182.272 460.373 183.154 458.735 183.154C456.495 183.154 455.081 181.6 455.081 179.416C455.081 177.26 456.439 175.65 458.665 175.65C460.947 175.65 462.207 177.19 462.207 179.444ZM456.943 178.646H460.387C460.275 177.624 459.687 177.008 458.693 177.008C457.713 177.008 457.055 177.666 456.943 178.646ZM465.353 183H463.533V173.06H465.353V183ZM473.475 177.176H472.145V180.858C472.145 181.446 472.425 181.656 472.999 181.656C473.251 181.656 473.475 181.628 473.559 181.6V183C473.363 183.042 472.971 183.112 472.579 183.112C471.011 183.112 470.339 182.482 470.339 180.9V177.176H469.443V175.804H470.339V174.068H472.103V175.804H473.475V177.176ZM478.283 172.724H479.935L478.577 174.88H477.359L478.283 172.724ZM478.143 175.65C480.313 175.65 481.797 177.176 481.797 179.402C481.797 181.628 480.313 183.154 478.143 183.154C475.945 183.154 474.461 181.628 474.461 179.402C474.461 177.176 475.945 175.65 478.143 175.65ZM478.129 181.712C479.235 181.712 479.963 180.802 479.963 179.402C479.963 177.988 479.235 177.092 478.129 177.092C477.009 177.092 476.281 177.988 476.281 179.402C476.281 180.802 477.009 181.712 478.129 181.712ZM486.549 177.176H485.219V180.858C485.219 181.446 485.499 181.656 486.073 181.656C486.325 181.656 486.549 181.628 486.633 181.6V183C486.437 183.042 486.045 183.112 485.653 183.112C484.085 183.112 483.413 182.482 483.413 180.9V177.176H482.517V175.804H483.413V174.068H485.177V175.804H486.549V177.176ZM494.661 179.444V179.794H489.369C489.383 180.942 490.069 181.768 491.203 181.768C491.917 181.768 492.491 181.46 492.757 180.788H494.591C494.241 182.272 492.827 183.154 491.189 183.154C488.949 183.154 487.535 181.6 487.535 179.416C487.535 177.26 488.893 175.65 491.119 175.65C493.401 175.65 494.661 177.19 494.661 179.444ZM489.397 178.646H492.841C492.729 177.624 492.141 177.008 491.147 177.008C490.167 177.008 489.509 177.666 489.397 178.646ZM495.959 175.804H497.583L497.723 176.854C498.143 176.098 498.913 175.65 499.851 175.65C500.789 175.65 501.475 176.112 501.825 176.952C502.315 176.098 503.099 175.65 504.135 175.65C505.535 175.65 506.445 176.672 506.445 178.282V183H504.653V178.548C504.653 177.652 504.233 177.148 503.477 177.148C502.637 177.148 502.091 177.806 502.091 178.828V183H500.299V178.548C500.299 177.652 499.879 177.148 499.137 177.148C498.283 177.148 497.751 177.848 497.751 178.954V183H495.959V175.804Z" fill="#13172C"/>
<path d="M310 192.5H638C641.038 192.5 643.5 194.962 643.5 198V234C643.5 237.038 641.038 239.5 638 239.5H310C306.962 239.5 304.5 237.038 304.5 234V198C304.5 194.962 306.962 192.5 310 192.5Z" fill="white"/>
<path d="M310 192.5H638C641.038 192.5 643.5 194.962 643.5 198V234C643.5 237.038 641.038 239.5 638 239.5H310C306.962 239.5 304.5 237.038 304.5 234V198C304.5 194.962 306.962 192.5 310 192.5Z" stroke="#5E6488"/>
<path d="M316.704 218.832H318.064C318.096 220.096 319.168 221.024 320.576 221.024C322.016 221.024 323.056 220.096 323.056 218.832C323.056 217.6 322.112 216.8 320.656 216.8H319.248V215.68H320.656C321.712 215.68 322.608 214.768 322.608 213.664C322.608 212.576 321.728 211.776 320.544 211.776C319.328 211.776 318.432 212.64 318.416 213.84H317.04C317.056 212.032 318.608 210.64 320.576 210.64C322.48 210.64 324 211.904 324 213.504C324 214.736 323.184 215.84 322.048 216.16C323.488 216.432 324.448 217.536 324.448 218.96C324.448 220.784 322.768 222.16 320.544 222.16C318.336 222.16 316.72 220.768 316.704 218.832Z" fill="#13172C"/>
<path d="M622 220.892L615.494 214.38L617.257 212.617L622 217.355L626.744 212.617L628.507 214.38L622 220.892Z" fill="#13172C"/>
<path d="M304 284C304 268.536 316.536 256 332 256H439C454.464 256 467 268.536 467 284C467 299.464 454.464 312 439 312H332C316.536 312 304 299.464 304 284Z" fill="#295BFF"/>
<path d="M348.146 280.82C348.146 281.576 348.776 281.99 350.468 282.368L351.278 282.548C354.176 283.178 355.292 284.168 355.292 286.166C355.292 288.614 353.348 290.198 350.216 290.198C347.156 290.198 345.122 288.686 344.942 286.076H347.858C347.93 287.174 348.92 287.93 350.288 287.93C351.512 287.93 352.34 287.318 352.34 286.454C352.34 285.662 351.728 285.248 350.09 284.906L349.316 284.744C346.562 284.15 345.284 282.998 345.284 281.108C345.284 278.786 347.21 277.202 350.054 277.202C352.826 277.202 354.752 278.696 354.932 281.018H352.142C352.016 280.046 351.188 279.452 350.018 279.452C348.92 279.452 348.146 279.992 348.146 280.82ZM358.496 279.614C357.596 279.614 356.912 278.984 356.912 278.084C356.912 277.22 357.596 276.572 358.496 276.572C359.396 276.572 360.08 277.22 360.08 278.084C360.08 278.984 359.396 279.614 358.496 279.614ZM359.864 290H357.092V280.712H359.864V290ZM366.401 291.422C367.625 291.422 368.345 290.738 368.345 289.28V288.002C367.823 288.92 366.833 289.532 365.555 289.532C363.233 289.532 361.631 287.714 361.631 285.014C361.631 282.314 363.197 280.514 365.537 280.514C366.779 280.514 367.841 281.072 368.381 282.026L368.543 280.712H371.117V289.136C371.117 291.962 369.245 293.438 366.311 293.438C363.845 293.438 362.045 292.124 361.865 290.18H364.565C364.745 290.954 365.411 291.422 366.401 291.422ZM368.471 285.032C368.471 283.538 367.661 282.548 366.437 282.548C365.231 282.548 364.421 283.538 364.421 285.032C364.421 286.544 365.231 287.534 366.437 287.534C367.661 287.534 368.471 286.526 368.471 285.032ZM376.208 290.198C374.282 290.198 373.13 288.938 373.13 286.796V280.712H375.92V286.058C375.92 287.3 376.424 287.912 377.414 287.912C378.458 287.912 379.052 287.138 379.052 285.698V280.712H381.842V290H379.268L379.088 288.65C378.44 289.676 377.468 290.198 376.208 290.198ZM385.342 279.614C384.442 279.614 383.758 278.984 383.758 278.084C383.758 277.22 384.442 276.572 385.342 276.572C386.242 276.572 386.926 277.22 386.926 278.084C386.926 278.984 386.242 279.614 385.342 279.614ZM386.71 290H383.938V280.712H386.71V290ZM397.891 285.428V285.95H391.285C391.303 287.282 392.059 288.164 393.337 288.164C394.147 288.164 394.759 287.822 395.065 287.102H397.801C397.405 288.992 395.515 290.198 393.283 290.198C390.349 290.198 388.477 288.236 388.477 285.356C388.477 282.512 390.295 280.514 393.229 280.514C396.199 280.514 397.891 282.44 397.891 285.428ZM391.321 284.294H395.137C394.993 283.178 394.345 282.494 393.247 282.494C392.167 282.494 391.447 283.214 391.321 284.294ZM405.242 280.514C407.186 280.514 408.32 281.774 408.32 283.916V290H405.548V284.618C405.548 283.376 405.026 282.764 404.036 282.764C402.992 282.764 402.398 283.538 402.398 284.978V290H399.608V280.712H402.182L402.362 282.062C403.01 281.036 403.982 280.514 405.242 280.514ZM415.295 282.728H413.621V287.012C413.621 287.714 413.963 288.002 414.647 288.002C414.953 288.002 415.241 287.948 415.367 287.93V290C415.025 290.09 414.431 290.18 413.891 290.18C411.785 290.18 410.831 289.28 410.831 287.174V282.728H409.715V280.712H410.831V278.444H413.531V280.712H415.295V282.728ZM426.109 285.428V285.95H419.503C419.521 287.282 420.277 288.164 421.555 288.164C422.365 288.164 422.977 287.822 423.283 287.102H426.019C425.623 288.992 423.733 290.198 421.501 290.198C418.567 290.198 416.695 288.236 416.695 285.356C416.695 282.512 418.513 280.514 421.447 280.514C424.417 280.514 426.109 282.44 426.109 285.428ZM419.539 284.294H423.355C423.211 283.178 422.563 282.494 421.465 282.494C420.385 282.494 419.665 283.214 419.539 284.294Z" fill="white"/>
<path d="M1287.31 50.25H1279.5V37.75H1287.31V39.625H1281.38V48.375H1287.31V50.25ZM1294.26 43.375L1291.13 39.9375C1291.05 39.8463 1290.95 39.7724 1290.84 39.7199C1290.73 39.6674 1290.6 39.6374 1290.48 39.6316C1290.36 39.6258 1290.24 39.6443 1290.12 39.6861C1290 39.7279 1289.9 39.792 1289.81 39.875C1289.72 39.9579 1289.64 40.0579 1289.59 40.1693C1289.54 40.2808 1289.51 40.4015 1289.5 40.5245C1289.49 40.6476 1289.51 40.7706 1289.55 40.8865C1289.6 41.0024 1289.66 41.1089 1289.74 41.2L1291.44 43.075H1284.5V44.95H1291.44L1289.74 46.825C1289.66 46.9161 1289.6 47.0226 1289.55 47.1385C1289.51 47.2544 1289.49 47.3774 1289.5 47.5005C1289.51 47.6235 1289.54 47.7442 1289.59 47.8557C1289.64 47.9671 1289.72 48.0671 1289.81 48.15C1289.98 48.3051 1290.2 48.3918 1290.43 48.3937C1290.56 48.3931 1290.69 48.3655 1290.81 48.3128C1290.93 48.2602 1291.04 48.1834 1291.13 48.0875L1294.25 44.65C1294.41 44.4774 1294.5 44.2502 1294.5 44.0137C1294.5 43.7773 1294.42 43.5491 1294.26 43.375Z" fill="#03050F"/>
<path d="M1308.13 41.86C1308.13 42.448 1308.62 42.77 1309.94 43.064L1310.57 43.204C1312.82 43.694 1313.69 44.464 1313.69 46.018C1313.69 47.922 1312.18 49.154 1309.74 49.154C1307.36 49.154 1305.78 47.978 1305.64 45.948H1307.91C1307.97 46.802 1308.74 47.39 1309.8 47.39C1310.75 47.39 1311.4 46.914 1311.4 46.242C1311.4 45.626 1310.92 45.304 1309.65 45.038L1309.04 44.912C1306.9 44.45 1305.91 43.554 1305.91 42.084C1305.91 40.278 1307.41 39.046 1309.62 39.046C1311.77 39.046 1313.27 40.208 1313.41 42.014H1311.24C1311.14 41.258 1310.5 40.796 1309.59 40.796C1308.74 40.796 1308.13 41.216 1308.13 41.86ZM1318.53 41.622C1320.58 41.622 1321.65 42.574 1321.65 44.394V49H1319.73L1319.59 48.062C1319.17 48.776 1318.41 49.14 1317.38 49.14C1315.81 49.14 1314.84 48.314 1314.84 46.97C1314.84 45.318 1316.33 44.632 1319.51 44.632V44.478C1319.51 43.568 1319.16 43.162 1318.37 43.162C1317.69 43.162 1317.21 43.512 1317.17 44.058H1315.14C1315.21 42.574 1316.54 41.622 1318.53 41.622ZM1319.52 46.354V45.864C1317.81 45.864 1316.99 46.158 1316.99 46.858C1316.99 47.362 1317.39 47.67 1318.05 47.67C1318.96 47.67 1319.52 47.166 1319.52 46.354ZM1325.52 49H1323.36V39.06H1325.52V49ZM1328.35 40.922C1327.65 40.922 1327.12 40.432 1327.12 39.732C1327.12 39.06 1327.65 38.556 1328.35 38.556C1329.05 38.556 1329.58 39.06 1329.58 39.732C1329.58 40.432 1329.05 40.922 1328.35 40.922ZM1329.42 49H1327.26V41.776H1329.42V49ZM1335.6 41.706V43.652C1335.46 43.61 1335.27 43.568 1335.05 43.568C1333.93 43.568 1333.29 44.31 1333.29 45.598V49H1331.13V41.776H1333.12L1333.26 42.84C1333.59 42.084 1334.27 41.636 1335.01 41.636C1335.23 41.636 1335.43 41.664 1335.6 41.706Z" fill="#13172C"/>
<rect width="248" height="768" fill="#EDF0FF"/>
<path d="M63.9272 41.5574C68.3343 41.5574 71.9071 37.9847 71.9071 33.5775C71.9071 29.1704 68.3343 25.5977 63.9272 25.5977C59.52 25.5977 55.9473 29.1704 55.9473 33.5775C55.9473 37.9847 59.52 41.5574 63.9272 41.5574Z" fill="#00A3E0"/>
<path d="M55.0459 24.5708C55.1999 24.4957 55.1661 24.2629 54.9971 24.2366C54.0057 24.0826 52.9881 24 51.9516 24C40.9337 24 32 32.9337 32 43.9516C32 53.6063 38.8533 61.6576 47.9635 63.5052V34.6799C47.9635 30.5905 50.3031 26.8615 53.987 25.0815L55.0459 24.5708Z" fill="#003AC2"/>
<path d="M55.9393 43.9531V53.0483C55.9393 57.288 53.6449 61.1972 49.946 63.2663L49.6531 63.4278C49.4953 63.5142 49.5404 63.7545 49.7207 63.7771C50.4529 63.8597 51.1965 63.9047 51.9475 63.9047C62.9692 63.9047 71.8991 54.971 71.8991 43.9531H55.9356H55.9393Z" fill="#003AC2"/>
<path d="M82.2832 45.5039H85.1259V59.9165H82.2832V45.5039Z" fill="#003AC2"/>
<path d="M104.61 52.1746H102.282V56.4593C102.282 56.816 102.372 57.0751 102.549 57.2404C102.725 57.4056 102.988 57.4995 103.33 57.5183C103.671 57.537 104.1 57.537 104.606 57.507V59.9179C102.781 60.1244 101.493 59.9517 100.746 59.4034C99.9988 58.8551 99.6233 57.8713 99.6233 56.4593V52.1746H97.832V49.621H98.7708C99.2402 49.621 99.6233 49.238 99.6233 48.7685V46.8984H102.278V49.621H104.606V52.1746H104.61Z" fill="#003AC2"/>
<path d="M120.282 51.164C120.282 51.2992 120.462 51.3405 120.522 51.2203C120.766 50.7134 121.142 50.2778 121.506 50.0262C122.103 49.6131 123.012 49.4141 123.71 49.4141V52.3807C122.899 52.2831 121.878 52.4483 121.239 52.8764C120.601 53.3007 120.282 54.0105 120.282 54.9981V59.9175H117.627V49.6206H120.282V51.1678V51.164Z" fill="#003AC2"/>
<path d="M153.684 60.2033C152.133 60.2033 150.837 59.6813 149.801 58.6374C148.764 57.5934 148.246 56.3054 148.246 54.7657C148.246 53.2261 148.764 51.938 149.801 50.8941C150.837 49.8501 152.129 49.3281 153.684 49.3281C154.686 49.3281 155.599 49.5685 156.421 50.0491C157.244 50.5298 157.871 51.1757 158.295 51.9868L156.008 53.3237C155.802 52.8994 155.49 52.5614 155.073 52.3135C154.653 52.0657 154.183 51.9418 153.661 51.9418C152.865 51.9418 152.208 52.2046 151.686 52.7341C151.164 53.2636 150.905 53.9396 150.905 54.762C150.905 55.5844 151.164 56.2415 151.686 56.771C152.208 57.3005 152.865 57.5634 153.661 57.5634C154.198 57.5634 154.675 57.4432 155.092 57.2029C155.513 56.9625 155.824 56.6283 156.031 56.204L158.336 57.5221C157.882 58.3332 157.244 58.9829 156.421 59.4673C155.599 59.9555 154.686 60.1996 153.684 60.1996V60.2033Z" fill="#003AC2"/>
<path d="M160.685 48.3879C160.245 48.3879 159.862 48.2264 159.543 47.9034C159.22 47.5805 159.059 47.2012 159.059 46.7618C159.059 46.3225 159.22 45.9394 159.543 45.609C159.866 45.2785 160.245 45.1133 160.685 45.1133C161.124 45.1133 161.526 45.2785 161.849 45.609C162.172 45.9394 162.333 46.3225 162.333 46.7618C162.333 47.2012 162.172 47.5805 161.849 47.9034C161.526 48.2264 161.139 48.3879 160.685 48.3879ZM159.367 59.9165V49.6196H162.021V59.9165H159.367Z" fill="#003AC2"/>
<path d="M172.821 58.63C171.766 59.6815 170.474 60.2035 168.949 60.2035C167.425 60.2035 166.137 59.6777 165.089 58.63C164.038 57.5785 163.516 56.2943 163.516 54.7696C163.516 53.245 164.041 51.9607 165.089 50.9092C166.141 49.8578 167.425 49.332 168.949 49.332C170.474 49.332 171.762 49.8578 172.821 50.9092C173.876 51.9607 174.406 53.245 174.406 54.7696C174.406 56.2943 173.876 57.5823 172.821 58.63ZM166.963 56.805C167.492 57.342 168.153 57.6086 168.949 57.6086C169.746 57.6086 170.41 57.342 170.947 56.805C171.484 56.268 171.751 55.5883 171.751 54.7659C171.751 53.9435 171.484 53.2638 170.947 52.7268C170.41 52.1898 169.746 51.9232 168.949 51.9232C168.153 51.9232 167.489 52.1898 166.963 52.7268C166.433 53.2638 166.171 53.9435 166.171 54.7659C166.171 55.5883 166.433 56.268 166.963 56.805Z" fill="#003AC2"/>
<path d="M199.344 59.9151V44.8828H201.999V59.9151H199.344Z" fill="#003AC2"/>
<path d="M89.1166 43.3112C86.946 43.3112 85.1548 42.5902 83.7428 41.1482C82.3271 39.7062 81.6211 37.93 81.6211 35.8158C81.6211 33.7016 82.3271 31.9066 83.7428 30.4721C85.1548 29.0376 86.946 28.3203 89.1166 28.3203C90.4196 28.3203 91.6251 28.6245 92.7291 29.2366C93.8331 29.8487 94.6969 30.6748 95.3127 31.7188L92.9131 33.2585C92.3273 32.421 91.2007 31.1555 89.1166 31.1555C86.0335 31.1555 84.5164 34.0208 84.5164 35.8158C84.5164 38.5083 86.6494 40.5324 89.1166 40.5324C91.043 40.5324 92.3761 39.3119 92.9244 38.3806L95.3165 39.9127C94.7006 40.9567 93.8407 41.7829 92.7441 42.395C91.6476 43.0071 90.4384 43.3112 89.1203 43.3112H89.1166Z" fill="#003AC2"/>
<path d="M96.7812 43.0207V27.9922H99.4362V43.0244H96.7812V43.0207Z" fill="#003AC2"/>
<path d="M101.572 43.0188V32.7219H104.227V43.0188H101.572ZM102.042 31.4902H103.84C104.175 31.4902 104.486 31.3362 104.689 31.0696L106.266 29.0117H104.028C103.57 29.0117 103.149 29.2708 102.943 29.6839L102.038 31.4902H102.042Z" fill="#003AC2"/>
<path d="M112.012 32.4375C113.138 32.4375 114.066 32.8168 114.802 33.5716C115.538 34.3264 115.902 35.3703 115.902 36.7035V43.0235H113.247V37.0302C113.247 36.343 113.063 35.8172 112.692 35.453C112.32 35.0887 111.828 34.9084 111.208 34.9084C110.521 34.9084 109.973 35.1225 109.56 35.5468C109.147 35.9712 108.94 36.6096 108.94 37.462V43.0235H106.285V32.7267H108.94V34.1161C108.94 34.2438 109.105 34.2926 109.173 34.1874C109.725 33.3125 110.814 32.4413 112.008 32.4413L112.012 32.4375Z" fill="#003AC2"/>
<path d="M93.0002 49.332C94.1268 49.332 95.0543 49.7113 95.7903 50.4661C96.5264 51.2209 96.8906 52.2649 96.8906 53.598V59.9181H94.2357V53.9247C94.2357 53.2375 94.0517 52.7117 93.6799 52.3475C93.3081 51.9832 92.8162 51.803 92.1966 51.803C91.5094 51.803 90.9611 52.017 90.548 52.4414C90.1349 52.8657 89.9284 53.5041 89.9284 54.3565V59.9181H87.2734V49.6212H89.9284V51.0106C89.9284 51.1383 90.0936 51.1871 90.1612 51.082C90.7132 50.207 91.8023 49.3358 92.9964 49.3358L93.0002 49.332Z" fill="#003AC2"/>
<path d="M130.846 49.332C131.972 49.332 132.9 49.7113 133.636 50.4661C134.372 51.2209 134.736 52.2649 134.736 53.598V59.9181H132.081V53.9247C132.081 53.2375 131.897 52.7117 131.526 52.3475C131.154 51.9832 130.662 51.803 130.042 51.803C129.355 51.803 128.807 52.017 128.394 52.4414C127.981 52.8657 127.774 53.5041 127.774 54.3565V59.9181H125.119V49.6212H127.774V51.0106C127.774 51.1383 127.939 51.1871 128.007 51.082C128.559 50.207 129.648 49.3358 130.842 49.3358L130.846 49.332Z" fill="#003AC2"/>
<path d="M181.395 49.332C182.521 49.332 183.449 49.7113 184.185 50.4661C184.921 51.2209 185.285 52.2649 185.285 53.598V59.9181H182.63V53.9247C182.63 53.2375 182.446 52.7117 182.074 52.3475C181.703 51.9832 181.211 51.803 180.591 51.803C179.904 51.803 179.356 52.017 178.943 52.4414C178.529 52.8657 178.323 53.5041 178.323 54.3565V59.9181H175.668V49.6212H178.323V51.0106C178.323 51.1383 178.488 51.1871 178.556 51.082C179.108 50.207 180.197 49.3358 181.391 49.3358L181.395 49.332Z" fill="#003AC2"/>
<path d="M119.013 31.4933C118.573 31.4933 118.19 31.3318 117.871 31.0089C117.548 30.6859 117.387 30.3067 117.387 29.8673C117.387 29.4279 117.548 29.0449 117.871 28.7144C118.194 28.384 118.573 28.2188 119.013 28.2188C119.452 28.2188 119.854 28.384 120.177 28.7144C120.5 29.0449 120.661 29.4279 120.661 29.8673C120.661 30.3067 120.5 30.6859 120.177 31.0089C119.854 31.3318 119.467 31.4933 119.013 31.4933ZM117.695 43.0219V32.725H120.35V43.0219H117.695Z" fill="#003AC2"/>
<path d="M127.203 43.3088C125.652 43.3088 124.357 42.7868 123.32 41.7428C122.284 40.6989 121.766 39.4108 121.766 37.8712C121.766 36.3315 122.284 35.0435 123.32 33.9995C124.357 32.9556 125.649 32.4336 127.203 32.4336C128.206 32.4336 129.118 32.6739 129.941 33.1546C130.763 33.6353 131.39 34.2812 131.815 35.0923L129.528 36.4292C129.321 36.0048 129.009 35.6669 128.593 35.419C128.172 35.1712 127.703 35.0472 127.181 35.0472C126.385 35.0472 125.727 35.3101 125.205 35.8396C124.683 36.3691 124.424 37.045 124.424 37.8674C124.424 38.6898 124.683 39.347 125.205 39.8765C125.727 40.406 126.385 40.6688 127.181 40.6688C127.718 40.6688 128.195 40.5487 128.611 40.3083C129.032 40.068 129.344 39.7338 129.55 39.3094L131.856 40.6275C131.402 41.4387 130.763 42.0883 129.941 42.5728C129.118 43.0609 128.206 43.305 127.203 43.305V43.3088Z" fill="#003AC2"/>
<path d="M140.578 32.7268H143.233V43.0237H140.578V41.8934C140.578 41.7732 140.428 41.7206 140.353 41.8145C139.643 42.6857 138.516 43.3128 137.221 43.3128C135.846 43.3128 134.671 42.7871 133.691 41.7394C132.711 40.6879 132.219 39.4036 132.219 37.879C132.219 36.3544 132.711 35.0701 133.691 34.0186C134.671 32.9671 135.85 32.4414 137.221 32.4414C138.516 32.4414 139.62 32.9071 140.345 33.9998C140.416 34.105 140.578 34.0562 140.578 33.9322V32.7306V32.7268ZM135.677 39.9632C136.214 40.5039 136.894 40.778 137.716 40.778C138.539 40.778 139.222 40.5077 139.767 39.9632C140.308 39.4224 140.582 38.7239 140.582 37.8715C140.582 37.019 140.311 36.3243 139.767 35.7798C139.226 35.2391 138.543 34.9649 137.716 34.9649C136.89 34.9649 136.214 35.2353 135.677 35.7798C135.14 36.3206 134.874 37.019 134.874 37.8715C134.874 38.7239 135.14 39.4186 135.677 39.9632Z" fill="#003AC2"/>
<path d="M144.301 49.6213H146.956V59.9182H144.301V58.7879C144.301 58.6677 144.15 58.6151 144.075 58.709C143.366 59.5802 142.239 60.2074 140.943 60.2074C139.569 60.2074 138.394 59.6816 137.413 58.6339C136.433 57.5825 135.941 56.2982 135.941 54.7735C135.941 53.2489 136.433 51.9646 137.413 50.9131C138.394 49.8617 139.573 49.3359 140.943 49.3359C142.239 49.3359 143.343 49.8016 144.068 50.8944C144.139 50.9995 144.301 50.9507 144.301 50.8268V49.6251V49.6213ZM139.4 56.8577C139.937 57.3984 140.617 57.6726 141.439 57.6726C142.261 57.6726 142.945 57.4022 143.489 56.8577C144.03 56.3169 144.304 55.6185 144.304 54.766C144.304 53.9136 144.034 53.2189 143.489 52.6743C142.949 52.1336 142.265 51.8595 141.439 51.8595C140.613 51.8595 139.937 52.1298 139.4 52.6743C138.863 53.2151 138.596 53.9136 138.596 54.766C138.596 55.6185 138.863 56.3132 139.4 56.8577Z" fill="#003AC2"/>
<path d="M194.793 49.6213H197.448V59.9182H194.793V58.7879C194.793 58.6677 194.643 58.6151 194.567 58.709C193.858 59.5802 192.731 60.2074 191.436 60.2074C190.061 60.2074 188.886 59.6816 187.906 58.6339C186.926 57.5825 186.434 56.2982 186.434 54.7735C186.434 53.2489 186.926 51.9646 187.906 50.9131C188.886 49.8617 190.065 49.3359 191.436 49.3359C192.731 49.3359 193.835 49.8016 194.56 50.8944C194.631 50.9995 194.793 50.9507 194.793 50.8268V49.6251V49.6213ZM189.892 56.8577C190.429 57.3984 191.109 57.6726 191.931 57.6726C192.754 57.6726 193.437 57.4022 193.982 56.8577C194.522 56.3169 194.797 55.6185 194.797 54.766C194.797 53.9136 194.526 53.2189 193.982 52.6743C193.441 52.1336 192.757 51.8595 191.931 51.8595C191.105 51.8595 190.429 52.1298 189.892 52.6743C189.355 53.2151 189.089 53.9136 189.089 54.766C189.089 55.6185 189.355 56.3132 189.892 56.8577Z" fill="#003AC2"/>
<path d="M108.4 55.8586C108.757 57.1504 109.726 57.7926 111.303 57.7926C112.317 57.7926 113.087 57.4509 113.608 56.7637L115.749 57.9991C114.731 59.4674 113.237 60.2035 111.261 60.2035C109.56 60.2035 108.193 59.689 107.164 58.6601C106.136 57.6311 105.621 56.3318 105.621 54.7696C105.621 53.2074 106.128 51.9269 107.146 50.8867C108.16 49.8503 109.466 49.332 111.059 49.332C112.568 49.332 113.815 49.854 114.795 50.898C115.775 51.9419 116.267 53.2337 116.267 54.7696C116.267 55.1114 116.233 55.4756 116.166 55.8624H108.404L108.4 55.8586ZM108.359 53.8008H113.608C113.458 53.1023 113.147 52.5803 112.673 52.2348C112.2 51.8931 111.66 51.7204 111.059 51.7204C110.345 51.7204 109.756 51.9006 109.286 52.2649C108.821 52.6291 108.513 53.1398 108.359 53.797V53.8008Z" fill="#003AC2"/>
<rect x="32" y="107.902" width="184" height="44" rx="8" fill="white"/>
<path d="M55.5625 133.967V137.404H52.4375V133.967C52.4375 133.552 52.6021 133.155 52.8951 132.862C53.1882 132.569 53.5856 132.404 54 132.404C54.4144 132.404 54.8118 132.569 55.1049 132.862C55.3979 133.155 55.5625 133.552 55.5625 133.967ZM56.0937 123.46C55.4917 122.997 54.7534 122.746 53.9938 122.746C53.2341 122.746 52.4958 122.997 51.8938 123.46L45.875 128.217V130.604L47.125 129.617V137.404H51.1875V133.967C51.1875 133.221 51.4838 132.505 52.0113 131.978C52.5387 131.451 53.2541 131.154 54 131.154C54.7459 131.154 55.4613 131.451 55.9887 131.978C56.5162 132.505 56.8125 133.221 56.8125 133.967V137.404H60.875V129.617L62.125 130.604V128.217L56.0937 123.46Z" fill="#13172C"/>
<path d="M75.168 135.902H72.96V124.702H75.168V135.902ZM81.717 127.502C83.429 127.502 84.485 128.638 84.485 130.51V135.902H82.405V131.022C82.405 129.854 81.861 129.214 80.885 129.214C79.813 129.214 79.189 129.998 79.189 131.374V135.902H77.125V127.678H78.997L79.157 128.878C79.733 127.982 80.597 127.502 81.717 127.502ZM87.3352 126.542C86.6472 126.542 86.1032 126.03 86.1032 125.342C86.1032 124.67 86.6472 124.158 87.3352 124.158C88.0232 124.158 88.5672 124.67 88.5672 125.342C88.5672 126.03 88.0232 126.542 87.3352 126.542ZM88.3592 135.902H86.2792V127.678H88.3592V135.902ZM94.1318 134.43C95.0438 134.43 95.6998 133.87 95.8598 132.958H97.9078C97.6998 134.862 96.1958 136.078 94.0518 136.078C91.5718 136.078 89.8918 134.35 89.8918 131.79C89.8918 129.246 91.5718 127.502 94.0518 127.502C96.1958 127.502 97.6998 128.718 97.9078 130.622H95.8598C95.6998 129.71 95.0438 129.15 94.1318 129.15C92.8038 129.15 91.9718 130.158 91.9718 131.79C91.9718 133.422 92.8038 134.43 94.1318 134.43ZM100.438 126.542C99.7504 126.542 99.2064 126.03 99.2064 125.342C99.2064 124.67 99.7504 124.158 100.438 124.158C101.126 124.158 101.67 124.67 101.67 125.342C101.67 126.03 101.126 126.542 100.438 126.542ZM101.462 135.902H99.3824V127.678H101.462V135.902ZM107.203 127.502C109.683 127.502 111.379 129.246 111.379 131.79C111.379 134.334 109.683 136.078 107.203 136.078C104.691 136.078 102.995 134.334 102.995 131.79C102.995 129.246 104.691 127.502 107.203 127.502ZM107.187 134.43C108.451 134.43 109.283 133.39 109.283 131.79C109.283 130.174 108.451 129.15 107.187 129.15C105.907 129.15 105.075 130.174 105.075 131.79C105.075 133.39 105.907 134.43 107.187 134.43Z" fill="#13172C"/>
</svg>
