<svg width="1080" height="1920" viewBox="0 0 1080 1920" fill="none" xmlns="http://www.w3.org/2000/svg">
<g clip-path="url(#clip0_3524_28259)">
<rect width="1080" height="1920" fill="white"/>
<rect width="1080" height="1920" fill="white"/>
<path d="M217.495 536V496.8H234.463C237.973 496.8 240.997 497.379 243.535 498.536C246.074 499.656 248.034 501.28 249.415 503.408C250.797 505.536 251.487 508.075 251.487 511.024C251.487 513.936 250.797 516.456 249.415 518.584C248.034 520.712 246.074 522.355 243.535 523.512C240.997 524.632 237.973 525.192 234.463 525.192H222.535L226.567 521.104V536H217.495ZM226.567 522.112L222.535 517.8H233.959C236.759 517.8 238.85 517.203 240.231 516.008C241.613 514.813 242.303 513.152 242.303 511.024C242.303 508.859 241.613 507.179 240.231 505.984C238.85 504.789 236.759 504.192 233.959 504.192H222.535L226.567 499.88V522.112ZM256.173 536V505.872H264.517V514.384L263.341 511.92C264.237 509.792 265.675 508.187 267.653 507.104C269.632 505.984 272.04 505.424 274.877 505.424V513.488C274.504 513.451 274.168 513.432 273.869 513.432C273.571 513.395 273.253 513.376 272.917 513.376C270.528 513.376 268.587 514.067 267.093 515.448C265.637 516.792 264.909 518.901 264.909 521.776V536H256.173ZM293.069 536.448C289.858 536.448 287.002 535.776 284.501 534.432C282.037 533.088 280.077 531.259 278.621 528.944C277.202 526.592 276.493 523.923 276.493 520.936C276.493 517.912 277.202 515.243 278.621 512.928C280.077 510.576 282.037 508.747 284.501 507.44C287.002 506.096 289.858 505.424 293.069 505.424C296.242 505.424 299.08 506.096 301.581 507.44C304.082 508.747 306.042 510.557 307.461 512.872C308.88 515.187 309.589 517.875 309.589 520.936C309.589 523.923 308.88 526.592 307.461 528.944C306.042 531.259 304.082 533.088 301.581 534.432C299.08 535.776 296.242 536.448 293.069 536.448ZM293.069 529.28C294.525 529.28 295.832 528.944 296.989 528.272C298.146 527.6 299.061 526.648 299.733 525.416C300.405 524.147 300.741 522.653 300.741 520.936C300.741 519.181 300.405 517.688 299.733 516.456C299.061 515.224 298.146 514.272 296.989 513.6C295.832 512.928 294.525 512.592 293.069 512.592C291.613 512.592 290.306 512.928 289.149 513.6C287.992 514.272 287.058 515.224 286.349 516.456C285.677 517.688 285.341 519.181 285.341 520.936C285.341 522.653 285.677 524.147 286.349 525.416C287.058 526.648 287.992 527.6 289.149 528.272C290.306 528.944 291.613 529.28 293.069 529.28ZM328.868 536.448C325.62 536.448 322.727 535.795 320.188 534.488C317.65 533.144 315.652 531.296 314.196 528.944C312.778 526.592 312.068 523.923 312.068 520.936C312.068 517.912 312.778 515.243 314.196 512.928C315.652 510.576 317.65 508.747 320.188 507.44C322.727 506.096 325.62 505.424 328.868 505.424C332.042 505.424 334.804 506.096 337.156 507.44C339.508 508.747 341.244 510.632 342.364 513.096L335.588 516.736C334.804 515.317 333.815 514.272 332.62 513.6C331.463 512.928 330.194 512.592 328.812 512.592C327.319 512.592 325.975 512.928 324.78 513.6C323.586 514.272 322.634 515.224 321.924 516.456C321.252 517.688 320.916 519.181 320.916 520.936C320.916 522.691 321.252 524.184 321.924 525.416C322.634 526.648 323.586 527.6 324.78 528.272C325.975 528.944 327.319 529.28 328.812 529.28C330.194 529.28 331.463 528.963 332.62 528.328C333.815 527.656 334.804 526.592 335.588 525.136L342.364 528.832C341.244 531.259 339.508 533.144 337.156 534.488C334.804 535.795 332.042 536.448 328.868 536.448ZM360.844 536.448C357.409 536.448 354.385 535.776 351.772 534.432C349.196 533.088 347.198 531.259 345.78 528.944C344.361 526.592 343.652 523.923 343.652 520.936C343.652 517.912 344.342 515.243 345.724 512.928C347.142 510.576 349.065 508.747 351.492 507.44C353.918 506.096 356.662 505.424 359.724 505.424C362.673 505.424 365.324 506.059 367.676 507.328C370.065 508.56 371.95 510.352 373.332 512.704C374.713 515.019 375.404 517.8 375.404 521.048C375.404 521.384 375.385 521.776 375.348 522.224C375.31 522.635 375.273 523.027 375.236 523.4H350.764V518.304H370.644L367.284 519.816C367.284 518.248 366.966 516.885 366.332 515.728C365.697 514.571 364.82 513.675 363.7 513.04C362.58 512.368 361.273 512.032 359.78 512.032C358.286 512.032 356.961 512.368 355.804 513.04C354.684 513.675 353.806 514.589 353.172 515.784C352.537 516.941 352.22 518.323 352.22 519.928V521.272C352.22 522.915 352.574 524.371 353.284 525.64C354.03 526.872 355.057 527.824 356.364 528.496C357.708 529.131 359.276 529.448 361.068 529.448C362.673 529.448 364.073 529.205 365.268 528.72C366.5 528.235 367.62 527.507 368.628 526.536L373.276 531.576C371.894 533.144 370.158 534.357 368.068 535.216C365.977 536.037 363.569 536.448 360.844 536.448ZM390.236 536.448C387.66 536.448 385.177 536.149 382.788 535.552C380.436 534.917 378.569 534.133 377.188 533.2L380.1 526.928C381.481 527.787 383.105 528.496 384.972 529.056C386.876 529.579 388.742 529.84 390.572 529.84C392.588 529.84 394.006 529.597 394.828 529.112C395.686 528.627 396.116 527.955 396.116 527.096C396.116 526.387 395.78 525.864 395.108 525.528C394.473 525.155 393.614 524.875 392.532 524.688C391.449 524.501 390.254 524.315 388.948 524.128C387.678 523.941 386.39 523.699 385.084 523.4C383.777 523.064 382.582 522.579 381.5 521.944C380.417 521.309 379.54 520.451 378.868 519.368C378.233 518.285 377.916 516.885 377.916 515.168C377.916 513.264 378.457 511.584 379.54 510.128C380.66 508.672 382.265 507.533 384.356 506.712C386.446 505.853 388.948 505.424 391.86 505.424C393.913 505.424 396.004 505.648 398.132 506.096C400.26 506.544 402.033 507.197 403.452 508.056L400.54 514.272C399.084 513.413 397.609 512.835 396.116 512.536C394.66 512.2 393.241 512.032 391.86 512.032C389.918 512.032 388.5 512.293 387.604 512.816C386.708 513.339 386.26 514.011 386.26 514.832C386.26 515.579 386.577 516.139 387.212 516.512C387.884 516.885 388.761 517.184 389.844 517.408C390.926 517.632 392.102 517.837 393.372 518.024C394.678 518.173 395.985 518.416 397.292 518.752C398.598 519.088 399.774 519.573 400.82 520.208C401.902 520.805 402.78 521.645 403.452 522.728C404.124 523.773 404.46 525.155 404.46 526.872C404.46 528.739 403.9 530.4 402.78 531.856C401.66 533.275 400.036 534.395 397.908 535.216C395.817 536.037 393.26 536.448 390.236 536.448ZM427.21 536V530.12L426.65 528.832V518.304C426.65 516.437 426.071 514.981 424.914 513.936C423.794 512.891 422.058 512.368 419.706 512.368C418.1 512.368 416.514 512.629 414.946 513.152C413.415 513.637 412.108 514.309 411.026 515.168L407.89 509.064C409.532 507.907 411.511 507.011 413.826 506.376C416.14 505.741 418.492 505.424 420.882 505.424C425.474 505.424 429.039 506.507 431.578 508.672C434.116 510.837 435.386 514.216 435.386 518.808V536H427.21ZM418.026 536.448C415.674 536.448 413.658 536.056 411.978 535.272C410.298 534.451 409.01 533.349 408.114 531.968C407.218 530.587 406.77 529.037 406.77 527.32C406.77 525.528 407.199 523.96 408.058 522.616C408.954 521.272 410.354 520.227 412.258 519.48C414.162 518.696 416.644 518.304 419.706 518.304H427.714V523.4H420.658C418.604 523.4 417.186 523.736 416.402 524.408C415.655 525.08 415.282 525.92 415.282 526.928C415.282 528.048 415.711 528.944 416.57 529.616C417.466 530.251 418.679 530.568 420.21 530.568C421.666 530.568 422.972 530.232 424.13 529.56C425.287 528.851 426.127 527.824 426.65 526.48L427.994 530.512C427.359 532.453 426.202 533.928 424.522 534.936C422.842 535.944 420.676 536.448 418.026 536.448ZM460.484 505.424C462.874 505.424 465.002 505.909 466.868 506.88C468.772 507.813 470.266 509.269 471.348 511.248C472.431 513.189 472.972 515.691 472.972 518.752V536H464.236V520.096C464.236 517.669 463.695 515.877 462.612 514.72C461.567 513.563 460.074 512.984 458.132 512.984C456.751 512.984 455.5 513.283 454.38 513.88C453.298 514.44 452.439 515.317 451.804 516.512C451.207 517.707 450.908 519.237 450.908 521.104V536H442.172V505.872H450.516V514.216L448.948 511.696C450.031 509.68 451.58 508.131 453.596 507.048C455.612 505.965 457.908 505.424 460.484 505.424ZM492.926 536.448C490.088 536.448 487.531 535.813 485.254 534.544C482.976 533.237 481.166 531.427 479.822 529.112C478.515 526.797 477.862 524.072 477.862 520.936C477.862 517.763 478.515 515.019 479.822 512.704C481.166 510.389 482.976 508.597 485.254 507.328C487.531 506.059 490.088 505.424 492.926 505.424C495.464 505.424 497.686 505.984 499.59 507.104C501.494 508.224 502.968 509.923 504.014 512.2C505.059 514.477 505.582 517.389 505.582 520.936C505.582 524.445 505.078 527.357 504.07 529.672C503.062 531.949 501.606 533.648 499.702 534.768C497.835 535.888 495.576 536.448 492.926 536.448ZM494.438 529.28C495.856 529.28 497.144 528.944 498.302 528.272C499.459 527.6 500.374 526.648 501.046 525.416C501.755 524.147 502.11 522.653 502.11 520.936C502.11 519.181 501.755 517.688 501.046 516.456C500.374 515.224 499.459 514.272 498.302 513.6C497.144 512.928 495.856 512.592 494.438 512.592C492.982 512.592 491.675 512.928 490.518 513.6C489.36 514.272 488.427 515.224 487.718 516.456C487.046 517.688 486.71 519.181 486.71 520.936C486.71 522.653 487.046 524.147 487.718 525.416C488.427 526.648 489.36 527.6 490.518 528.272C491.675 528.944 492.982 529.28 494.438 529.28ZM502.334 536V529.84L502.502 520.88L501.942 511.976V494.448H510.678V536H502.334ZM531.979 536.448C528.768 536.448 525.912 535.776 523.411 534.432C520.947 533.088 518.987 531.259 517.531 528.944C516.112 526.592 515.403 523.923 515.403 520.936C515.403 517.912 516.112 515.243 517.531 512.928C518.987 510.576 520.947 508.747 523.411 507.44C525.912 506.096 528.768 505.424 531.979 505.424C535.152 505.424 537.99 506.096 540.491 507.44C542.992 508.747 544.952 510.557 546.371 512.872C547.79 515.187 548.499 517.875 548.499 520.936C548.499 523.923 547.79 526.592 546.371 528.944C544.952 531.259 542.992 533.088 540.491 534.432C537.99 535.776 535.152 536.448 531.979 536.448ZM531.979 529.28C533.435 529.28 534.742 528.944 535.899 528.272C537.056 527.6 537.971 526.648 538.643 525.416C539.315 524.147 539.651 522.653 539.651 520.936C539.651 519.181 539.315 517.688 538.643 516.456C537.971 515.224 537.056 514.272 535.899 513.6C534.742 512.928 533.435 512.592 531.979 512.592C530.523 512.592 529.216 512.928 528.059 513.6C526.902 514.272 525.968 515.224 525.259 516.456C524.587 517.688 524.251 519.181 524.251 520.936C524.251 522.653 524.587 524.147 525.259 525.416C525.968 526.648 526.902 527.6 528.059 528.272C529.216 528.944 530.523 529.28 531.979 529.28ZM580.278 536.448C576.731 536.448 573.968 535.552 571.99 533.76C570.011 531.931 569.022 529.224 569.022 525.64V499.208H577.758V525.528C577.758 526.797 578.094 527.787 578.766 528.496C579.438 529.168 580.352 529.504 581.51 529.504C582.891 529.504 584.067 529.131 585.038 528.384L587.39 534.544C586.494 535.179 585.411 535.664 584.142 536C582.91 536.299 581.622 536.448 580.278 536.448ZM564.374 513.264V506.544H585.262V513.264H564.374ZM603.886 536.448C601.384 536.448 599.144 535.963 597.166 534.992C595.224 534.021 593.712 532.547 592.63 530.568C591.547 528.552 591.006 525.995 591.006 522.896V505.872H599.742V521.608C599.742 524.109 600.264 525.957 601.31 527.152C602.392 528.309 603.904 528.888 605.846 528.888C607.19 528.888 608.384 528.608 609.43 528.048C610.475 527.451 611.296 526.555 611.894 525.36C612.491 524.128 612.79 522.597 612.79 520.768V505.872H621.526V536H613.238V527.712L614.75 530.12C613.742 532.211 612.248 533.797 610.27 534.88C608.328 535.925 606.2 536.448 603.886 536.448ZM638.635 536.448C636.059 536.448 633.576 536.149 631.187 535.552C628.835 534.917 626.968 534.133 625.587 533.2L628.499 526.928C629.88 527.787 631.504 528.496 633.371 529.056C635.275 529.579 637.142 529.84 638.971 529.84C640.987 529.84 642.406 529.597 643.227 529.112C644.086 528.627 644.515 527.955 644.515 527.096C644.515 526.387 644.179 525.864 643.507 525.528C642.872 525.155 642.014 524.875 640.931 524.688C639.848 524.501 638.654 524.315 637.347 524.128C636.078 523.941 634.79 523.699 633.483 523.4C632.176 523.064 630.982 522.579 629.899 521.944C628.816 521.309 627.939 520.451 627.267 519.368C626.632 518.285 626.315 516.885 626.315 515.168C626.315 513.264 626.856 511.584 627.939 510.128C629.059 508.672 630.664 507.533 632.755 506.712C634.846 505.853 637.347 505.424 640.259 505.424C642.312 505.424 644.403 505.648 646.531 506.096C648.659 506.544 650.432 507.197 651.851 508.056L648.939 514.272C647.483 513.413 646.008 512.835 644.515 512.536C643.059 512.2 641.64 512.032 640.259 512.032C638.318 512.032 636.899 512.293 636.003 512.816C635.107 513.339 634.659 514.011 634.659 514.832C634.659 515.579 634.976 516.139 635.611 516.512C636.283 516.885 637.16 517.184 638.243 517.408C639.326 517.632 640.502 517.837 641.771 518.024C643.078 518.173 644.384 518.416 645.691 518.752C646.998 519.088 648.174 519.573 649.219 520.208C650.302 520.805 651.179 521.645 651.851 522.728C652.523 523.773 652.859 525.155 652.859 526.872C652.859 528.739 652.299 530.4 651.179 531.856C650.059 533.275 648.435 534.395 646.307 535.216C644.216 536.037 641.659 536.448 638.635 536.448ZM684.804 536.448C681.967 536.448 679.41 535.813 677.132 534.544C674.855 533.237 673.044 531.427 671.7 529.112C670.394 526.797 669.74 524.072 669.74 520.936C669.74 517.763 670.394 515.019 671.7 512.704C673.044 510.389 674.855 508.597 677.132 507.328C679.41 506.059 681.967 505.424 684.804 505.424C687.343 505.424 689.564 505.984 691.468 507.104C693.372 508.224 694.847 509.923 695.892 512.2C696.938 514.477 697.46 517.389 697.46 520.936C697.46 524.445 696.956 527.357 695.948 529.672C694.94 531.949 693.484 533.648 691.58 534.768C689.714 535.888 687.455 536.448 684.804 536.448ZM686.316 529.28C687.735 529.28 689.023 528.944 690.18 528.272C691.338 527.6 692.252 526.648 692.924 525.416C693.634 524.147 693.988 522.653 693.988 520.936C693.988 519.181 693.634 517.688 692.924 516.456C692.252 515.224 691.338 514.272 690.18 513.6C689.023 512.928 687.735 512.592 686.316 512.592C684.86 512.592 683.554 512.928 682.396 513.6C681.239 514.272 680.306 515.224 679.596 516.456C678.924 517.688 678.588 519.181 678.588 520.936C678.588 522.653 678.924 524.147 679.596 525.416C680.306 526.648 681.239 527.6 682.396 528.272C683.554 528.944 684.86 529.28 686.316 529.28ZM694.212 536V529.84L694.38 520.88L693.82 511.976V494.448H702.556V536H694.212ZM728.002 536V530.12L727.442 528.832V518.304C727.442 516.437 726.863 514.981 725.706 513.936C724.586 512.891 722.85 512.368 720.498 512.368C718.893 512.368 717.306 512.629 715.738 513.152C714.207 513.637 712.901 514.309 711.818 515.168L708.682 509.064C710.325 507.907 712.303 507.011 714.618 506.376C716.933 505.741 719.285 505.424 721.674 505.424C726.266 505.424 729.831 506.507 732.37 508.672C734.909 510.837 736.178 514.216 736.178 518.808V536H728.002ZM718.818 536.448C716.466 536.448 714.45 536.056 712.77 535.272C711.09 534.451 709.802 533.349 708.906 531.968C708.01 530.587 707.562 529.037 707.562 527.32C707.562 525.528 707.991 523.96 708.85 522.616C709.746 521.272 711.146 520.227 713.05 519.48C714.954 518.696 717.437 518.304 720.498 518.304H728.506V523.4H721.45C719.397 523.4 717.978 523.736 717.194 524.408C716.447 525.08 716.074 525.92 716.074 526.928C716.074 528.048 716.503 528.944 717.362 529.616C718.258 530.251 719.471 530.568 721.002 530.568C722.458 530.568 723.765 530.232 724.922 529.56C726.079 528.851 726.919 527.824 727.442 526.48L728.786 530.512C728.151 532.453 726.994 533.928 725.314 534.936C723.634 535.944 721.469 536.448 718.818 536.448ZM755.284 536.448C751.738 536.448 748.975 535.552 746.996 533.76C745.018 531.931 744.028 529.224 744.028 525.64V499.208H752.764V525.528C752.764 526.797 753.1 527.787 753.772 528.496C754.444 529.168 755.359 529.504 756.516 529.504C757.898 529.504 759.074 529.131 760.044 528.384L762.396 534.544C761.5 535.179 760.418 535.664 759.148 536C757.916 536.299 756.628 536.448 755.284 536.448ZM739.38 513.264V506.544H760.268V513.264H739.38ZM779.587 536.448C776.376 536.448 773.52 535.776 771.019 534.432C768.555 533.088 766.595 531.259 765.139 528.944C763.72 526.592 763.011 523.923 763.011 520.936C763.011 517.912 763.72 515.243 765.139 512.928C766.595 510.576 768.555 508.747 771.019 507.44C773.52 506.096 776.376 505.424 779.587 505.424C782.76 505.424 785.597 506.096 788.099 507.44C790.6 508.747 792.56 510.557 793.979 512.872C795.397 515.187 796.107 517.875 796.107 520.936C796.107 523.923 795.397 526.592 793.979 528.944C792.56 531.259 790.6 533.088 788.099 534.432C785.597 535.776 782.76 536.448 779.587 536.448ZM779.587 529.28C781.043 529.28 782.349 528.944 783.507 528.272C784.664 527.6 785.579 526.648 786.251 525.416C786.923 524.147 787.259 522.653 787.259 520.936C787.259 519.181 786.923 517.688 786.251 516.456C785.579 515.224 784.664 514.272 783.507 513.6C782.349 512.928 781.043 512.592 779.587 512.592C778.131 512.592 776.824 512.928 775.667 513.6C774.509 514.272 773.576 515.224 772.867 516.456C772.195 517.688 771.859 519.181 771.859 520.936C771.859 522.653 772.195 524.147 772.867 525.416C773.576 526.648 774.509 527.6 775.667 528.272C776.824 528.944 778.131 529.28 779.587 529.28ZM810.962 536.448C808.386 536.448 805.903 536.149 803.514 535.552C801.162 534.917 799.295 534.133 797.914 533.2L800.826 526.928C802.207 527.787 803.831 528.496 805.698 529.056C807.602 529.579 809.469 529.84 811.298 529.84C813.314 529.84 814.733 529.597 815.554 529.112C816.413 528.627 816.842 527.955 816.842 527.096C816.842 526.387 816.506 525.864 815.834 525.528C815.199 525.155 814.341 524.875 813.258 524.688C812.175 524.501 810.981 524.315 809.674 524.128C808.405 523.941 807.117 523.699 805.81 523.4C804.503 523.064 803.309 522.579 802.226 521.944C801.143 521.309 800.266 520.451 799.594 519.368C798.959 518.285 798.642 516.885 798.642 515.168C798.642 513.264 799.183 511.584 800.266 510.128C801.386 508.672 802.991 507.533 805.082 506.712C807.173 505.853 809.674 505.424 812.586 505.424C814.639 505.424 816.73 505.648 818.858 506.096C820.986 506.544 822.759 507.197 824.178 508.056L821.266 514.272C819.81 513.413 818.335 512.835 816.842 512.536C815.386 512.2 813.967 512.032 812.586 512.032C810.645 512.032 809.226 512.293 808.33 512.816C807.434 513.339 806.986 514.011 806.986 514.832C806.986 515.579 807.303 516.139 807.938 516.512C808.61 516.885 809.487 517.184 810.57 517.408C811.653 517.632 812.829 517.837 814.098 518.024C815.405 518.173 816.711 518.416 818.018 518.752C819.325 519.088 820.501 519.573 821.546 520.208C822.629 520.805 823.506 521.645 824.178 522.728C824.85 523.773 825.186 525.155 825.186 526.872C825.186 528.739 824.626 530.4 823.506 531.856C822.386 533.275 820.762 534.395 818.634 535.216C816.543 536.037 813.986 536.448 810.962 536.448ZM832.76 536.448C831.267 536.448 829.979 535.944 828.896 534.936C827.851 533.891 827.328 532.565 827.328 530.96C827.328 529.355 827.851 528.067 828.896 527.096C829.979 526.088 831.267 525.584 832.76 525.584C834.291 525.584 835.579 526.088 836.624 527.096C837.669 528.067 838.192 529.355 838.192 530.96C838.192 532.565 837.669 533.891 836.624 534.936C835.579 535.944 834.291 536.448 832.76 536.448ZM846.296 536.448C844.803 536.448 843.515 535.944 842.432 534.936C841.387 533.891 840.864 532.565 840.864 530.96C840.864 529.355 841.387 528.067 842.432 527.096C843.515 526.088 844.803 525.584 846.296 525.584C847.827 525.584 849.115 526.088 850.16 527.096C851.205 528.067 851.728 529.355 851.728 530.96C851.728 532.565 851.205 533.891 850.16 534.936C849.115 535.944 847.827 536.448 846.296 536.448ZM859.832 536.448C858.339 536.448 857.051 535.944 855.968 534.936C854.923 533.891 854.4 532.565 854.4 530.96C854.4 529.355 854.923 528.067 855.968 527.096C857.051 526.088 858.339 525.584 859.832 525.584C861.363 525.584 862.651 526.088 863.696 527.096C864.742 528.067 865.264 529.355 865.264 530.96C865.264 532.565 864.742 533.891 863.696 534.936C862.651 535.944 861.363 536.448 859.832 536.448Z" fill="#2F2F2F"/>
<path d="M91.7631 601.64H105.683V605.92H91.7631V601.64ZM92.1631 613.64H107.963V618H86.9631V590H107.403V594.36H92.1631V613.64ZM119.685 618.28C117.898 618.28 116.178 618.053 114.525 617.6C112.898 617.12 111.605 616.547 110.645 615.88L112.565 612.08C113.525 612.693 114.671 613.2 116.005 613.6C117.338 614 118.671 614.2 120.005 614.2C121.578 614.2 122.711 613.987 123.405 613.56C124.125 613.133 124.485 612.56 124.485 611.84C124.485 611.253 124.245 610.813 123.765 610.52C123.285 610.2 122.658 609.96 121.885 609.8C121.111 609.64 120.245 609.493 119.285 609.36C118.351 609.227 117.405 609.053 116.445 608.84C115.511 608.6 114.658 608.267 113.885 607.84C113.111 607.387 112.485 606.787 112.005 606.04C111.525 605.293 111.285 604.307 111.285 603.08C111.285 601.72 111.671 600.547 112.445 599.56C113.218 598.547 114.298 597.773 115.685 597.24C117.098 596.68 118.765 596.4 120.685 596.4C122.125 596.4 123.578 596.56 125.045 596.88C126.511 597.2 127.725 597.653 128.685 598.24L126.765 602.04C125.751 601.427 124.725 601.013 123.685 600.8C122.671 600.56 121.658 600.44 120.645 600.44C119.125 600.44 117.991 600.667 117.245 601.12C116.525 601.573 116.165 602.147 116.165 602.84C116.165 603.48 116.405 603.96 116.885 604.28C117.365 604.6 117.991 604.853 118.765 605.04C119.538 605.227 120.391 605.387 121.325 605.52C122.285 605.627 123.231 605.8 124.165 606.04C125.098 606.28 125.951 606.613 126.725 607.04C127.525 607.44 128.165 608.013 128.645 608.76C129.125 609.507 129.365 610.48 129.365 611.68C129.365 613.013 128.965 614.173 128.165 615.16C127.391 616.147 126.285 616.92 124.845 617.48C123.405 618.013 121.685 618.28 119.685 618.28ZM141.711 618.28C139.364 618.28 137.551 617.68 136.271 616.48C134.991 615.253 134.351 613.453 134.351 611.08V591.92H139.351V610.96C139.351 611.973 139.604 612.76 140.111 613.32C140.644 613.88 141.377 614.16 142.311 614.16C143.431 614.16 144.364 613.867 145.111 613.28L146.511 616.84C145.924 617.32 145.204 617.68 144.351 617.92C143.497 618.16 142.617 618.28 141.711 618.28ZM130.831 600.8V596.8H145.071V600.8H130.831ZM163.784 618V613.68L163.504 612.76V605.2C163.504 603.733 163.064 602.6 162.184 601.8C161.304 600.973 159.97 600.56 158.184 600.56C156.984 600.56 155.797 600.747 154.624 601.12C153.477 601.493 152.504 602.013 151.704 602.68L149.744 599.04C150.89 598.16 152.25 597.507 153.824 597.08C155.424 596.627 157.077 596.4 158.784 596.4C161.877 596.4 164.264 597.147 165.944 598.64C167.65 600.107 168.504 602.387 168.504 605.48V618H163.784ZM157.064 618.28C155.464 618.28 154.064 618.013 152.864 617.48C151.664 616.92 150.73 616.16 150.064 615.2C149.424 614.213 149.104 613.107 149.104 611.88C149.104 610.68 149.384 609.6 149.944 608.64C150.53 607.68 151.477 606.92 152.784 606.36C154.09 605.8 155.824 605.52 157.984 605.52H164.184V608.84H158.344C156.637 608.84 155.49 609.12 154.904 609.68C154.317 610.213 154.024 610.88 154.024 611.68C154.024 612.587 154.384 613.307 155.104 613.84C155.824 614.373 156.824 614.64 158.104 614.64C159.33 614.64 160.424 614.36 161.384 613.8C162.37 613.24 163.077 612.413 163.504 611.32L164.344 614.32C163.864 615.573 162.997 616.547 161.744 617.24C160.517 617.933 158.957 618.28 157.064 618.28ZM201.881 596.4C203.587 596.4 205.094 596.733 206.401 597.4C207.734 598.067 208.774 599.093 209.521 600.48C210.267 601.84 210.641 603.6 210.641 605.76V618H205.641V606.4C205.641 604.507 205.227 603.093 204.401 602.16C203.574 601.227 202.387 600.76 200.841 600.76C199.747 600.76 198.774 601 197.921 601.48C197.094 601.96 196.441 602.667 195.961 603.6C195.507 604.533 195.281 605.72 195.281 607.16V618H190.281V606.4C190.281 604.507 189.867 603.093 189.041 602.16C188.214 601.227 187.027 600.76 185.481 600.76C184.387 600.76 183.414 601 182.561 601.48C181.734 601.96 181.081 602.667 180.601 603.6C180.147 604.533 179.921 605.72 179.921 607.16V618H174.921V596.64H179.681V602.32L178.841 600.64C179.561 599.253 180.601 598.2 181.961 597.48C183.347 596.76 184.921 596.4 186.681 596.4C188.681 596.4 190.414 596.893 191.881 597.88C193.374 598.867 194.361 600.36 194.841 602.36L192.881 601.68C193.574 600.08 194.721 598.8 196.321 597.84C197.921 596.88 199.774 596.4 201.881 596.4ZM226.669 618.28C224.482 618.28 222.536 617.813 220.829 616.88C219.122 615.92 217.776 614.613 216.789 612.96C215.802 611.307 215.309 609.427 215.309 607.32C215.309 605.187 215.802 603.307 216.789 601.68C217.776 600.027 219.122 598.733 220.829 597.8C222.536 596.867 224.482 596.4 226.669 596.4C228.882 596.4 230.842 596.867 232.549 597.8C234.282 598.733 235.629 600.013 236.589 601.64C237.576 603.267 238.069 605.16 238.069 607.32C238.069 609.427 237.576 611.307 236.589 612.96C235.629 614.613 234.282 615.92 232.549 616.88C230.842 617.813 228.882 618.28 226.669 618.28ZM226.669 614C227.896 614 228.989 613.733 229.949 613.2C230.909 612.667 231.656 611.893 232.189 610.88C232.749 609.867 233.029 608.68 233.029 607.32C233.029 605.933 232.749 604.747 232.189 603.76C231.656 602.747 230.909 601.973 229.949 601.44C228.989 600.907 227.909 600.64 226.709 600.64C225.482 600.64 224.389 600.907 223.429 601.44C222.496 601.973 221.749 602.747 221.189 603.76C220.629 604.747 220.349 605.933 220.349 607.32C220.349 608.68 220.629 609.867 221.189 610.88C221.749 611.893 222.496 612.667 223.429 613.2C224.389 613.733 225.469 614 226.669 614ZM249.45 618.28C247.664 618.28 245.944 618.053 244.29 617.6C242.664 617.12 241.37 616.547 240.41 615.88L242.33 612.08C243.29 612.693 244.437 613.2 245.77 613.6C247.104 614 248.437 614.2 249.77 614.2C251.344 614.2 252.477 613.987 253.17 613.56C253.89 613.133 254.25 612.56 254.25 611.84C254.25 611.253 254.01 610.813 253.53 610.52C253.05 610.2 252.424 609.96 251.65 609.8C250.877 609.64 250.01 609.493 249.05 609.36C248.117 609.227 247.17 609.053 246.21 608.84C245.277 608.6 244.424 608.267 243.65 607.84C242.877 607.387 242.25 606.787 241.77 606.04C241.29 605.293 241.05 604.307 241.05 603.08C241.05 601.72 241.437 600.547 242.21 599.56C242.984 598.547 244.064 597.773 245.45 597.24C246.864 596.68 248.53 596.4 250.45 596.4C251.89 596.4 253.344 596.56 254.81 596.88C256.277 597.2 257.49 597.653 258.45 598.24L256.53 602.04C255.517 601.427 254.49 601.013 253.45 600.8C252.437 600.56 251.424 600.44 250.41 600.44C248.89 600.44 247.757 600.667 247.01 601.12C246.29 601.573 245.93 602.147 245.93 602.84C245.93 603.48 246.17 603.96 246.65 604.28C247.13 604.6 247.757 604.853 248.53 605.04C249.304 605.227 250.157 605.387 251.09 605.52C252.05 605.627 252.997 605.8 253.93 606.04C254.864 606.28 255.717 606.613 256.49 607.04C257.29 607.44 257.93 608.013 258.41 608.76C258.89 609.507 259.13 610.48 259.13 611.68C259.13 613.013 258.73 614.173 257.93 615.16C257.157 616.147 256.05 616.92 254.61 617.48C253.17 618.013 251.45 618.28 249.45 618.28ZM280.171 618L271.011 596.64H276.211L284.091 615.48H281.531L289.691 596.64H294.491L285.331 618H280.171ZM310.112 618V613.68L309.832 612.76V605.2C309.832 603.733 309.392 602.6 308.512 601.8C307.632 600.973 306.299 600.56 304.512 600.56C303.312 600.56 302.125 600.747 300.952 601.12C299.805 601.493 298.832 602.013 298.032 602.68L296.072 599.04C297.219 598.16 298.579 597.507 300.152 597.08C301.752 596.627 303.405 596.4 305.112 596.4C308.205 596.4 310.592 597.147 312.272 598.64C313.979 600.107 314.832 602.387 314.832 605.48V618H310.112ZM303.392 618.28C301.792 618.28 300.392 618.013 299.192 617.48C297.992 616.92 297.059 616.16 296.392 615.2C295.752 614.213 295.432 613.107 295.432 611.88C295.432 610.68 295.712 609.6 296.272 608.64C296.859 607.68 297.805 606.92 299.112 606.36C300.419 605.8 302.152 605.52 304.312 605.52H310.512V608.84H304.672C302.965 608.84 301.819 609.12 301.232 609.68C300.645 610.213 300.352 610.88 300.352 611.68C300.352 612.587 300.712 613.307 301.432 613.84C302.152 614.373 303.152 614.64 304.432 614.64C305.659 614.64 306.752 614.36 307.712 613.8C308.699 613.24 309.405 612.413 309.832 611.32L310.672 614.32C310.192 615.573 309.325 616.547 308.072 617.24C306.845 617.933 305.285 618.28 303.392 618.28ZM321.249 618V588.32H326.249V618H321.249ZM332.811 618V596.64H337.811V618H332.811ZM335.331 593.12C334.398 593.12 333.625 592.827 333.011 592.24C332.425 591.653 332.131 590.947 332.131 590.12C332.131 589.267 332.425 588.56 333.011 588C333.625 587.413 334.398 587.12 335.331 587.12C336.265 587.12 337.025 587.4 337.611 587.96C338.225 588.493 338.531 589.173 338.531 590C338.531 590.88 338.238 591.627 337.651 592.24C337.065 592.827 336.291 593.12 335.331 593.12ZM353.414 618.28C351.36 618.28 349.507 617.827 347.854 616.92C346.227 615.987 344.947 614.707 344.014 613.08C343.08 611.453 342.614 609.533 342.614 607.32C342.614 605.107 343.08 603.187 344.014 601.56C344.947 599.933 346.227 598.667 347.854 597.76C349.507 596.853 351.36 596.4 353.414 596.4C355.2 596.4 356.8 596.8 358.214 597.6C359.627 598.373 360.747 599.56 361.574 601.16C362.4 602.76 362.814 604.813 362.814 607.32C362.814 609.8 362.414 611.853 361.614 613.48C360.814 615.08 359.707 616.28 358.294 617.08C356.88 617.88 355.254 618.28 353.414 618.28ZM354.014 614C355.214 614 356.28 613.733 357.214 613.2C358.174 612.667 358.934 611.893 359.494 610.88C360.08 609.867 360.374 608.68 360.374 607.32C360.374 605.933 360.08 604.747 359.494 603.76C358.934 602.747 358.174 601.973 357.214 601.44C356.28 600.907 355.214 600.64 354.014 600.64C352.814 600.64 351.734 600.907 350.774 601.44C349.84 601.973 349.08 602.747 348.494 603.76C347.934 604.747 347.654 605.933 347.654 607.32C347.654 608.68 347.934 609.867 348.494 610.88C349.08 611.893 349.84 612.667 350.774 613.2C351.734 613.733 352.814 614 354.014 614ZM360.494 618V612.96L360.694 607.28L360.294 601.6V588.32H365.254V618H360.494ZM384.995 618V613.68L384.715 612.76V605.2C384.715 603.733 384.275 602.6 383.395 601.8C382.515 600.973 381.181 600.56 379.395 600.56C378.195 600.56 377.008 600.747 375.835 601.12C374.688 601.493 373.715 602.013 372.915 602.68L370.955 599.04C372.101 598.16 373.461 597.507 375.035 597.08C376.635 596.627 378.288 596.4 379.995 596.4C383.088 596.4 385.475 597.147 387.155 598.64C388.861 600.107 389.715 602.387 389.715 605.48V618H384.995ZM378.275 618.28C376.675 618.28 375.275 618.013 374.075 617.48C372.875 616.92 371.941 616.16 371.275 615.2C370.635 614.213 370.315 613.107 370.315 611.88C370.315 610.68 370.595 609.6 371.155 608.64C371.741 607.68 372.688 606.92 373.995 606.36C375.301 605.8 377.035 605.52 379.195 605.52H385.395V608.84H379.555C377.848 608.84 376.701 609.12 376.115 609.68C375.528 610.213 375.235 610.88 375.235 611.68C375.235 612.587 375.595 613.307 376.315 613.84C377.035 614.373 378.035 614.64 379.315 614.64C380.541 614.64 381.635 614.36 382.595 613.8C383.581 613.24 384.288 612.413 384.715 611.32L385.555 614.32C385.075 615.573 384.208 616.547 382.955 617.24C381.728 617.933 380.168 618.28 378.275 618.28ZM408.252 596.4C409.958 596.4 411.478 596.733 412.812 597.4C414.172 598.067 415.238 599.093 416.012 600.48C416.785 601.84 417.172 603.6 417.172 605.76V618H412.172V606.4C412.172 604.507 411.718 603.093 410.812 602.16C409.932 601.227 408.692 600.76 407.092 600.76C405.918 600.76 404.878 601 403.972 601.48C403.065 601.96 402.358 602.68 401.852 603.64C401.372 604.573 401.132 605.76 401.132 607.2V618H396.132V596.64H400.892V602.4L400.052 600.64C400.798 599.28 401.878 598.24 403.292 597.52C404.732 596.773 406.385 596.4 408.252 596.4ZM432.593 618.28C430.54 618.28 428.687 617.827 427.033 616.92C425.407 615.987 424.127 614.707 423.193 613.08C422.26 611.453 421.793 609.533 421.793 607.32C421.793 605.107 422.26 603.187 423.193 601.56C424.127 599.933 425.407 598.667 427.033 597.76C428.687 596.853 430.54 596.4 432.593 596.4C434.38 596.4 435.98 596.8 437.393 597.6C438.807 598.373 439.927 599.56 440.753 601.16C441.58 602.76 441.993 604.813 441.993 607.32C441.993 609.8 441.593 611.853 440.793 613.48C439.993 615.08 438.887 616.28 437.473 617.08C436.06 617.88 434.433 618.28 432.593 618.28ZM433.193 614C434.393 614 435.46 613.733 436.393 613.2C437.353 612.667 438.113 611.893 438.673 610.88C439.26 609.867 439.553 608.68 439.553 607.32C439.553 605.933 439.26 604.747 438.673 603.76C438.113 602.747 437.353 601.973 436.393 601.44C435.46 600.907 434.393 600.64 433.193 600.64C431.993 600.64 430.913 600.907 429.953 601.44C429.02 601.973 428.26 602.747 427.673 603.76C427.113 604.747 426.833 605.933 426.833 607.32C426.833 608.68 427.113 609.867 427.673 610.88C428.26 611.893 429.02 612.667 429.953 613.2C430.913 613.733 431.993 614 433.193 614ZM439.673 618V612.96L439.873 607.28L439.473 601.6V588.32H444.433V618H439.673ZM460.614 618.28C458.428 618.28 456.481 617.813 454.774 616.88C453.068 615.92 451.721 614.613 450.734 612.96C449.748 611.307 449.254 609.427 449.254 607.32C449.254 605.187 449.748 603.307 450.734 601.68C451.721 600.027 453.068 598.733 454.774 597.8C456.481 596.867 458.428 596.4 460.614 596.4C462.828 596.4 464.788 596.867 466.494 597.8C468.228 598.733 469.574 600.013 470.534 601.64C471.521 603.267 472.014 605.16 472.014 607.32C472.014 609.427 471.521 611.307 470.534 612.96C469.574 614.613 468.228 615.92 466.494 616.88C464.788 617.813 462.828 618.28 460.614 618.28ZM460.614 614C461.841 614 462.934 613.733 463.894 613.2C464.854 612.667 465.601 611.893 466.134 610.88C466.694 609.867 466.974 608.68 466.974 607.32C466.974 605.933 466.694 604.747 466.134 603.76C465.601 602.747 464.854 601.973 463.894 601.44C462.934 600.907 461.854 600.64 460.654 600.64C459.428 600.64 458.334 600.907 457.374 601.44C456.441 601.973 455.694 602.747 455.134 603.76C454.574 604.747 454.294 605.933 454.294 607.32C454.294 608.68 454.574 609.867 455.134 610.88C455.694 611.893 456.441 612.667 457.374 613.2C458.334 613.733 459.414 614 460.614 614ZM495.89 618.28C493.544 618.28 491.73 617.68 490.45 616.48C489.17 615.253 488.53 613.453 488.53 611.08V591.92H493.53V610.96C493.53 611.973 493.784 612.76 494.29 613.32C494.824 613.88 495.557 614.16 496.49 614.16C497.61 614.16 498.544 613.867 499.29 613.28L500.69 616.84C500.104 617.32 499.384 617.68 498.53 617.92C497.677 618.16 496.797 618.28 495.89 618.28ZM485.01 600.8V596.8H499.25V600.8H485.01ZM513.843 618.28C512.03 618.28 510.43 617.947 509.043 617.28C507.657 616.587 506.577 615.547 505.803 614.16C505.03 612.747 504.643 610.973 504.643 608.84V596.64H509.643V608.16C509.643 610.08 510.07 611.52 510.923 612.48C511.803 613.413 513.043 613.88 514.643 613.88C515.817 613.88 516.83 613.64 517.683 613.16C518.563 612.68 519.243 611.96 519.723 611C520.23 610.04 520.483 608.853 520.483 607.44V596.64H525.483V618H520.723V612.24L521.563 614C520.843 615.387 519.79 616.453 518.403 617.2C517.017 617.92 515.497 618.28 513.843 618.28ZM543.085 618V596.64H548.085V618H543.085ZM545.605 593.12C544.671 593.12 543.898 592.827 543.285 592.24C542.698 591.653 542.405 590.947 542.405 590.12C542.405 589.267 542.698 588.56 543.285 588C543.898 587.413 544.671 587.12 545.605 587.12C546.538 587.12 547.298 587.4 547.885 587.96C548.498 588.493 548.805 589.173 548.805 590C548.805 590.88 548.511 591.627 547.925 592.24C547.338 592.827 546.565 593.12 545.605 593.12ZM566.767 596.4C568.474 596.4 569.994 596.733 571.327 597.4C572.687 598.067 573.754 599.093 574.527 600.48C575.301 601.84 575.687 603.6 575.687 605.76V618H570.687V606.4C570.687 604.507 570.234 603.093 569.327 602.16C568.447 601.227 567.207 600.76 565.607 600.76C564.434 600.76 563.394 601 562.487 601.48C561.581 601.96 560.874 602.68 560.367 603.64C559.887 604.573 559.647 605.76 559.647 607.2V618H554.647V596.64H559.407V602.4L558.567 600.64C559.314 599.28 560.394 598.24 561.807 597.52C563.247 596.773 564.901 596.4 566.767 596.4ZM582.71 618V595.44C582.71 593.2 583.363 591.413 584.67 590.08C586.003 588.72 587.897 588.04 590.35 588.04C591.23 588.04 592.057 588.133 592.83 588.32C593.63 588.507 594.297 588.8 594.83 589.2L593.47 592.96C593.097 592.667 592.67 592.453 592.19 592.32C591.71 592.16 591.217 592.08 590.71 592.08C589.67 592.08 588.883 592.373 588.35 592.96C587.817 593.52 587.55 594.373 587.55 595.52V597.92L587.71 600.16V618H582.71ZM579.19 600.8V596.8H593.43V600.8H579.19ZM606.083 618.28C603.896 618.28 601.95 617.813 600.243 616.88C598.536 615.92 597.19 614.613 596.203 612.96C595.216 611.307 594.723 609.427 594.723 607.32C594.723 605.187 595.216 603.307 596.203 601.68C597.19 600.027 598.536 598.733 600.243 597.8C601.95 596.867 603.896 596.4 606.083 596.4C608.296 596.4 610.256 596.867 611.963 597.8C613.696 598.733 615.043 600.013 616.003 601.64C616.99 603.267 617.483 605.16 617.483 607.32C617.483 609.427 616.99 611.307 616.003 612.96C615.043 614.613 613.696 615.92 611.963 616.88C610.256 617.813 608.296 618.28 606.083 618.28ZM606.083 614C607.31 614 608.403 613.733 609.363 613.2C610.323 612.667 611.07 611.893 611.603 610.88C612.163 609.867 612.443 608.68 612.443 607.32C612.443 605.933 612.163 604.747 611.603 603.76C611.07 602.747 610.323 601.973 609.363 601.44C608.403 600.907 607.323 600.64 606.123 600.64C604.896 600.64 603.803 600.907 602.843 601.44C601.91 601.973 601.163 602.747 600.603 603.76C600.043 604.747 599.763 605.933 599.763 607.32C599.763 608.68 600.043 609.867 600.603 610.88C601.163 611.893 601.91 612.667 602.843 613.2C603.803 613.733 604.883 614 606.083 614ZM622.264 618V596.64H627.024V602.52L626.464 600.8C627.104 599.36 628.104 598.267 629.464 597.52C630.851 596.773 632.571 596.4 634.624 596.4V601.16C634.411 601.107 634.211 601.08 634.024 601.08C633.838 601.053 633.651 601.04 633.464 601.04C631.571 601.04 630.064 601.6 628.944 602.72C627.824 603.813 627.264 605.453 627.264 607.64V618H622.264ZM665.826 596.4C667.533 596.4 669.039 596.733 670.346 597.4C671.679 598.067 672.719 599.093 673.466 600.48C674.213 601.84 674.586 603.6 674.586 605.76V618H669.586V606.4C669.586 604.507 669.173 603.093 668.346 602.16C667.519 601.227 666.333 600.76 664.786 600.76C663.693 600.76 662.719 601 661.866 601.48C661.039 601.96 660.386 602.667 659.906 603.6C659.453 604.533 659.226 605.72 659.226 607.16V618H654.226V606.4C654.226 604.507 653.813 603.093 652.986 602.16C652.159 601.227 650.973 600.76 649.426 600.76C648.333 600.76 647.359 601 646.506 601.48C645.679 601.96 645.026 602.667 644.546 603.6C644.093 604.533 643.866 605.72 643.866 607.16V618H638.866V596.64H643.626V602.32L642.786 600.64C643.506 599.253 644.546 598.2 645.906 597.48C647.293 596.76 648.866 596.4 650.626 596.4C652.626 596.4 654.359 596.893 655.826 597.88C657.319 598.867 658.306 600.36 658.786 602.36L656.826 601.68C657.519 600.08 658.666 598.8 660.266 597.84C661.866 596.88 663.719 596.4 665.826 596.4ZM694.135 618V613.68L693.855 612.76V605.2C693.855 603.733 693.415 602.6 692.535 601.8C691.655 600.973 690.322 600.56 688.535 600.56C687.335 600.56 686.149 600.747 684.975 601.12C683.829 601.493 682.855 602.013 682.055 602.68L680.095 599.04C681.242 598.16 682.602 597.507 684.175 597.08C685.775 596.627 687.429 596.4 689.135 596.4C692.229 596.4 694.615 597.147 696.295 598.64C698.002 600.107 698.855 602.387 698.855 605.48V618H694.135ZM687.415 618.28C685.815 618.28 684.415 618.013 683.215 617.48C682.015 616.92 681.082 616.16 680.415 615.2C679.775 614.213 679.455 613.107 679.455 611.88C679.455 610.68 679.735 609.6 680.295 608.64C680.882 607.68 681.829 606.92 683.135 606.36C684.442 605.8 686.175 605.52 688.335 605.52H694.535V608.84H688.695C686.989 608.84 685.842 609.12 685.255 609.68C684.669 610.213 684.375 610.88 684.375 611.68C684.375 612.587 684.735 613.307 685.455 613.84C686.175 614.373 687.175 614.64 688.455 614.64C689.682 614.64 690.775 614.36 691.735 613.8C692.722 613.24 693.429 612.413 693.855 611.32L694.695 614.32C694.215 615.573 693.349 616.547 692.095 617.24C690.869 617.933 689.309 618.28 687.415 618.28ZM715.111 618.28C712.871 618.28 710.871 617.813 709.111 616.88C707.378 615.92 706.018 614.613 705.031 612.96C704.045 611.307 703.551 609.427 703.551 607.32C703.551 605.187 704.045 603.307 705.031 601.68C706.018 600.027 707.378 598.733 709.111 597.8C710.871 596.867 712.871 596.4 715.111 596.4C717.191 596.4 719.018 596.827 720.591 597.68C722.191 598.507 723.405 599.733 724.231 601.36L720.391 603.6C719.751 602.587 718.965 601.84 718.031 601.36C717.125 600.88 716.138 600.64 715.071 600.64C713.845 600.64 712.738 600.907 711.751 601.44C710.765 601.973 709.991 602.747 709.431 603.76C708.871 604.747 708.591 605.933 708.591 607.32C708.591 608.707 708.871 609.907 709.431 610.92C709.991 611.907 710.765 612.667 711.751 613.2C712.738 613.733 713.845 614 715.071 614C716.138 614 717.125 613.76 718.031 613.28C718.965 612.8 719.751 612.053 720.391 611.04L724.231 613.28C723.405 614.88 722.191 616.12 720.591 617C719.018 617.853 717.191 618.28 715.111 618.28ZM728.358 618V596.64H733.358V618H728.358ZM730.878 593.12C729.945 593.12 729.171 592.827 728.558 592.24C727.971 591.653 727.678 590.947 727.678 590.12C727.678 589.267 727.971 588.56 728.558 588C729.171 587.413 729.945 587.12 730.878 587.12C731.811 587.12 732.571 587.4 733.158 587.96C733.771 588.493 734.078 589.173 734.078 590C734.078 590.88 733.785 591.627 733.198 592.24C732.611 592.827 731.838 593.12 730.878 593.12ZM749.521 618.28C747.334 618.28 745.387 617.813 743.681 616.88C741.974 615.92 740.627 614.613 739.641 612.96C738.654 611.307 738.161 609.427 738.161 607.32C738.161 605.187 738.654 603.307 739.641 601.68C740.627 600.027 741.974 598.733 743.681 597.8C745.387 596.867 747.334 596.4 749.521 596.4C751.734 596.4 753.694 596.867 755.401 597.8C757.134 598.733 758.481 600.013 759.441 601.64C760.427 603.267 760.921 605.16 760.921 607.32C760.921 609.427 760.427 611.307 759.441 612.96C758.481 614.613 757.134 615.92 755.401 616.88C753.694 617.813 751.734 618.28 749.521 618.28ZM749.521 614C750.747 614 751.841 613.733 752.801 613.2C753.761 612.667 754.507 611.893 755.041 610.88C755.601 609.867 755.881 608.68 755.881 607.32C755.881 605.933 755.601 604.747 755.041 603.76C754.507 602.747 753.761 601.973 752.801 601.44C751.841 600.907 750.761 600.64 749.561 600.64C748.334 600.64 747.241 600.907 746.281 601.44C745.347 601.973 744.601 602.747 744.041 603.76C743.481 604.747 743.201 605.933 743.201 607.32C743.201 608.68 743.481 609.867 744.041 610.88C744.601 611.893 745.347 612.667 746.281 613.2C747.241 613.733 748.321 614 749.521 614ZM746.121 593.72L751.521 588.24H757.401L750.441 593.72H746.121ZM777.822 596.4C779.529 596.4 781.049 596.733 782.382 597.4C783.742 598.067 784.809 599.093 785.582 600.48C786.355 601.84 786.742 603.6 786.742 605.76V618H781.742V606.4C781.742 604.507 781.289 603.093 780.382 602.16C779.502 601.227 778.262 600.76 776.662 600.76C775.489 600.76 774.449 601 773.542 601.48C772.635 601.96 771.929 602.68 771.422 603.64C770.942 604.573 770.702 605.76 770.702 607.2V618H765.702V596.64H770.462V602.4L769.622 600.64C770.369 599.28 771.449 598.24 772.862 597.52C774.302 596.773 775.955 596.4 777.822 596.4ZM813.179 618.28C811.126 618.28 809.273 617.827 807.619 616.92C805.993 615.987 804.713 614.707 803.779 613.08C802.846 611.453 802.379 609.533 802.379 607.32C802.379 605.107 802.846 603.187 803.779 601.56C804.713 599.933 805.993 598.667 807.619 597.76C809.273 596.853 811.126 596.4 813.179 596.4C814.966 596.4 816.566 596.8 817.979 597.6C819.393 598.373 820.513 599.56 821.339 601.16C822.166 602.76 822.579 604.813 822.579 607.32C822.579 609.8 822.179 611.853 821.379 613.48C820.579 615.08 819.473 616.28 818.059 617.08C816.646 617.88 815.019 618.28 813.179 618.28ZM813.779 614C814.979 614 816.046 613.733 816.979 613.2C817.939 612.667 818.699 611.893 819.259 610.88C819.846 609.867 820.139 608.68 820.139 607.32C820.139 605.933 819.846 604.747 819.259 603.76C818.699 602.747 817.939 601.973 816.979 601.44C816.046 600.907 814.979 600.64 813.779 600.64C812.579 600.64 811.499 600.907 810.539 601.44C809.606 601.973 808.846 602.747 808.259 603.76C807.699 604.747 807.419 605.933 807.419 607.32C807.419 608.68 807.699 609.867 808.259 610.88C808.846 611.893 809.606 612.667 810.539 613.2C811.499 613.733 812.579 614 813.779 614ZM820.259 618V612.96L820.459 607.28L820.059 601.6V588.32H825.019V618H820.259ZM841.64 618.28C839.267 618.28 837.187 617.813 835.4 616.88C833.64 615.92 832.267 614.613 831.28 612.96C830.32 611.307 829.84 609.427 829.84 607.32C829.84 605.187 830.307 603.307 831.24 601.68C832.2 600.027 833.507 598.733 835.16 597.8C836.84 596.867 838.747 596.4 840.88 596.4C842.96 596.4 844.814 596.853 846.44 597.76C848.067 598.667 849.347 599.947 850.28 601.6C851.214 603.253 851.68 605.2 851.68 607.44C851.68 607.653 851.667 607.893 851.64 608.16C851.64 608.427 851.627 608.68 851.6 608.92H833.8V605.6H848.96L847 606.64C847.027 605.413 846.774 604.333 846.24 603.4C845.707 602.467 844.974 601.733 844.04 601.2C843.134 600.667 842.08 600.4 840.88 600.4C839.654 600.4 838.574 600.667 837.64 601.2C836.734 601.733 836.014 602.48 835.48 603.44C834.974 604.373 834.72 605.48 834.72 606.76V607.56C834.72 608.84 835.014 609.973 835.6 610.96C836.187 611.947 837.014 612.707 838.08 613.24C839.147 613.773 840.374 614.04 841.76 614.04C842.96 614.04 844.04 613.853 845 613.48C845.96 613.107 846.814 612.52 847.56 611.72L850.24 614.8C849.28 615.92 848.067 616.787 846.6 617.4C845.16 617.987 843.507 618.28 841.64 618.28ZM867.538 618V588.32H872.538V618H867.538ZM892.26 618V613.68L891.98 612.76V605.2C891.98 603.733 891.54 602.6 890.66 601.8C889.78 600.973 888.447 600.56 886.66 600.56C885.46 600.56 884.274 600.747 883.1 601.12C881.954 601.493 880.98 602.013 880.18 602.68L878.22 599.04C879.367 598.16 880.727 597.507 882.3 597.08C883.9 596.627 885.554 596.4 887.26 596.4C890.354 596.4 892.74 597.147 894.42 598.64C896.127 600.107 896.98 602.387 896.98 605.48V618H892.26ZM885.54 618.28C883.94 618.28 882.54 618.013 881.34 617.48C880.14 616.92 879.207 616.16 878.54 615.2C877.9 614.213 877.58 613.107 877.58 611.88C877.58 610.68 877.86 609.6 878.42 608.64C879.007 607.68 879.954 606.92 881.26 606.36C882.567 605.8 884.3 605.52 886.46 605.52H892.66V608.84H886.82C885.114 608.84 883.967 609.12 883.38 609.68C882.794 610.213 882.5 610.88 882.5 611.68C882.5 612.587 882.86 613.307 883.58 613.84C884.3 614.373 885.3 614.64 886.58 614.64C887.807 614.64 888.9 614.36 889.86 613.8C890.847 613.24 891.554 612.413 891.98 611.32L892.82 614.32C892.34 615.573 891.474 616.547 890.22 617.24C888.994 617.933 887.434 618.28 885.54 618.28ZM924.252 618.28C922.012 618.28 920.012 617.813 918.252 616.88C916.519 615.92 915.159 614.613 914.172 612.96C913.185 611.307 912.692 609.427 912.692 607.32C912.692 605.187 913.185 603.307 914.172 601.68C915.159 600.027 916.519 598.733 918.252 597.8C920.012 596.867 922.012 596.4 924.252 596.4C926.332 596.4 928.159 596.827 929.732 597.68C931.332 598.507 932.545 599.733 933.372 601.36L929.532 603.6C928.892 602.587 928.105 601.84 927.172 601.36C926.265 600.88 925.279 600.64 924.212 600.64C922.985 600.64 921.879 600.907 920.892 601.44C919.905 601.973 919.132 602.747 918.572 603.76C918.012 604.747 917.732 605.933 917.732 607.32C917.732 608.707 918.012 609.907 918.572 610.92C919.132 611.907 919.905 612.667 920.892 613.2C921.879 613.733 922.985 614 924.212 614C925.279 614 926.265 613.76 927.172 613.28C928.105 612.8 928.892 612.053 929.532 611.04L933.372 613.28C932.545 614.88 931.332 616.12 929.732 617C928.159 617.853 926.332 618.28 924.252 618.28ZM937.499 618V596.64H942.499V618H937.499ZM940.019 593.12C939.085 593.12 938.312 592.827 937.699 592.24C937.112 591.653 936.819 590.947 936.819 590.12C936.819 589.267 937.112 588.56 937.699 588C938.312 587.413 939.085 587.12 940.019 587.12C940.952 587.12 941.712 587.4 942.299 587.96C942.912 588.493 943.219 589.173 943.219 590C943.219 590.88 942.925 591.627 942.339 592.24C941.752 592.827 940.979 593.12 940.019 593.12ZM957.101 618.28C954.755 618.28 952.941 617.68 951.661 616.48C950.381 615.253 949.741 613.453 949.741 611.08V591.92H954.741V610.96C954.741 611.973 954.995 612.76 955.501 613.32C956.035 613.88 956.768 614.16 957.701 614.16C958.821 614.16 959.755 613.867 960.501 613.28L961.901 616.84C961.315 617.32 960.595 617.68 959.741 617.92C958.888 618.16 958.008 618.28 957.101 618.28ZM946.221 600.8V596.8H960.461V600.8H946.221ZM979.174 618V613.68L978.894 612.76V605.2C978.894 603.733 978.454 602.6 977.574 601.8C976.694 600.973 975.361 600.56 973.574 600.56C972.374 600.56 971.188 600.747 970.014 601.12C968.868 601.493 967.894 602.013 967.094 602.68L965.134 599.04C966.281 598.16 967.641 597.507 969.214 597.08C970.814 596.627 972.468 596.4 974.174 596.4C977.268 596.4 979.654 597.147 981.334 598.64C983.041 600.107 983.894 602.387 983.894 605.48V618H979.174ZM972.454 618.28C970.854 618.28 969.454 618.013 968.254 617.48C967.054 616.92 966.121 616.16 965.454 615.2C964.814 614.213 964.494 613.107 964.494 611.88C964.494 610.68 964.774 609.6 965.334 608.64C965.921 607.68 966.868 606.92 968.174 606.36C969.481 605.8 971.214 605.52 973.374 605.52H979.574V608.84H973.734C972.028 608.84 970.881 609.12 970.294 609.68C969.708 610.213 969.414 610.88 969.414 611.68C969.414 612.587 969.774 613.307 970.494 613.84C971.214 614.373 972.214 614.64 973.494 614.64C974.721 614.64 975.814 614.36 976.774 613.8C977.761 613.24 978.468 612.413 978.894 611.32L979.734 614.32C979.254 615.573 978.388 616.547 977.134 617.24C975.908 617.933 974.348 618.28 972.454 618.28ZM991.911 618.28C991.005 618.28 990.231 617.973 989.591 617.36C988.951 616.72 988.631 615.92 988.631 614.96C988.631 613.947 988.951 613.147 989.591 612.56C990.231 611.947 991.005 611.64 991.911 611.64C992.818 611.64 993.591 611.947 994.231 612.56C994.871 613.147 995.191 613.947 995.191 614.96C995.191 615.92 994.871 616.72 994.231 617.36C993.591 617.973 992.818 618.28 991.911 618.28Z" fill="#404040"/>
<rect x="288.5" y="656.5" width="503" height="15" rx="7.5" fill="#D9F0E3" stroke="#5ADB92"/>
<rect x="288" y="656" width="228.789" height="16" rx="8" fill="#5ADB92"/>
</g>
<defs>
<clipPath id="clip0_3524_28259">
<rect width="1080" height="1920" fill="white"/>
</clipPath>
</defs>
</svg>
