<svg width="1080" height="1920" viewBox="0 0 1080 1920" fill="none" xmlns="http://www.w3.org/2000/svg">
<g clip-path="url(#clip0_3524_28788)">
<rect width="1080" height="1920" fill="white"/>
<rect width="1080" height="1920" fill="white"/>
<path d="M80 345H1000C1008.28 345 1015 351.716 1015 360V472C1015 480.284 1008.28 487 1000 487H80C71.7157 487 65 480.284 65 472V360C65 351.716 71.7157 345 80 345Z" fill="white"/>
<path d="M80 345H1000C1008.28 345 1015 351.716 1015 360V472C1015 480.284 1008.28 487 1000 487H80C71.7157 487 65 480.284 65 472V360C65 351.716 71.7157 345 80 345Z" stroke="#8A8A8A" stroke-width="2"/>
<path d="M97.776 433V429.736L111.456 416.536C112.672 415.384 113.568 414.376 114.144 413.512C114.752 412.616 115.152 411.8 115.344 411.064C115.568 410.296 115.68 409.56 115.68 408.856C115.68 407.128 115.072 405.768 113.856 404.776C112.64 403.784 110.864 403.288 108.528 403.288C106.736 403.288 105.12 403.592 103.68 404.2C102.24 404.776 100.992 405.688 99.936 406.936L96.672 404.104C97.952 402.472 99.664 401.224 101.808 400.36C103.984 399.464 106.368 399.016 108.96 399.016C111.296 399.016 113.328 399.4 115.056 400.168C116.784 400.904 118.112 401.976 119.04 403.384C120 404.792 120.48 406.456 120.48 408.376C120.48 409.464 120.336 410.536 120.048 411.592C119.76 412.648 119.216 413.768 118.416 414.952C117.616 416.136 116.464 417.464 114.96 418.936L102.768 430.696L101.616 428.824H121.92V433H97.776ZM124.859 433V429.736L138.539 416.536C139.755 415.384 140.651 414.376 141.227 413.512C141.835 412.616 142.235 411.8 142.427 411.064C142.651 410.296 142.763 409.56 142.763 408.856C142.763 407.128 142.155 405.768 140.939 404.776C139.723 403.784 137.947 403.288 135.611 403.288C133.819 403.288 132.203 403.592 130.763 404.2C129.323 404.776 128.075 405.688 127.019 406.936L123.755 404.104C125.035 402.472 126.747 401.224 128.891 400.36C131.067 399.464 133.451 399.016 136.043 399.016C138.379 399.016 140.411 399.4 142.139 400.168C143.867 400.904 145.195 401.976 146.123 403.384C147.083 404.792 147.563 406.456 147.563 408.376C147.563 409.464 147.419 410.536 147.131 411.592C146.843 412.648 146.299 413.768 145.499 414.952C144.699 416.136 143.547 417.464 142.043 418.936L129.851 430.696L128.699 428.824H149.003V433H124.859ZM162.741 433.384C160.373 433.384 158.069 433.016 155.829 432.28C153.621 431.544 151.813 430.552 150.405 429.304L152.613 425.512C153.733 426.568 155.189 427.432 156.981 428.104C158.773 428.776 160.693 429.112 162.741 429.112C165.237 429.112 167.173 428.584 168.549 427.528C169.957 426.44 170.661 424.984 170.661 423.16C170.661 421.4 169.989 419.992 168.645 418.936C167.333 417.848 165.237 417.304 162.357 417.304H159.669V413.944L169.653 401.656L170.325 403.576H151.941V399.4H174.117V402.664L164.181 414.904L161.685 413.416H163.269C167.333 413.416 170.373 414.328 172.389 416.152C174.437 417.976 175.461 420.296 175.461 423.112C175.461 425 174.997 426.728 174.069 428.296C173.141 429.864 171.733 431.112 169.845 432.04C167.989 432.936 165.621 433.384 162.741 433.384ZM189.495 433.384C187.127 433.384 184.823 433.016 182.583 432.28C180.375 431.544 178.567 430.552 177.159 429.304L179.367 425.512C180.487 426.568 181.943 427.432 183.735 428.104C185.527 428.776 187.447 429.112 189.495 429.112C191.991 429.112 193.927 428.584 195.303 427.528C196.711 426.44 197.415 424.984 197.415 423.16C197.415 421.4 196.743 419.992 195.399 418.936C194.087 417.848 191.991 417.304 189.111 417.304H186.423V413.944L196.407 401.656L197.079 403.576H178.695V399.4H200.871V402.664L190.935 414.904L188.439 413.416H190.023C194.087 413.416 197.127 414.328 199.143 416.152C201.191 417.976 202.215 420.296 202.215 423.112C202.215 425 201.751 426.728 200.823 428.296C199.895 429.864 198.487 431.112 196.599 432.04C194.743 432.936 192.375 433.384 189.495 433.384ZM205.732 424.744V421.384L222.916 399.4H228.1L211.06 421.384L208.612 420.616H235.444V424.744H205.732ZM224.404 433V424.744L224.548 420.616V413.32H229.06V433H224.404ZM237.362 424.744V421.384L254.546 399.4H259.73L242.69 421.384L240.242 420.616H267.074V424.744H237.362ZM256.034 433V424.744L256.178 420.616V413.32H260.69V433H256.034ZM280.272 433.384C277.904 433.384 275.6 433.016 273.36 432.28C271.152 431.544 269.344 430.552 267.936 429.304L270.144 425.512C271.264 426.568 272.72 427.432 274.512 428.104C276.304 428.776 278.208 429.112 280.224 429.112C282.784 429.112 284.752 428.568 286.128 427.48C287.504 426.392 288.192 424.936 288.192 423.112C288.192 421.864 287.888 420.776 287.28 419.848C286.672 418.92 285.616 418.216 284.112 417.736C282.64 417.224 280.608 416.968 278.016 416.968H270.384L272.16 399.4H291.12V403.576H273.936L276.432 401.224L275.04 415.096L272.544 412.792H279.024C282.384 412.792 285.088 413.224 287.136 414.088C289.184 414.952 290.672 416.152 291.6 417.688C292.528 419.192 292.992 420.936 292.992 422.92C292.992 424.84 292.528 426.6 291.6 428.2C290.672 429.768 289.264 431.032 287.376 431.992C285.52 432.92 283.152 433.384 280.272 433.384ZM307.12 433.384C304.752 433.384 302.448 433.016 300.208 432.28C298 431.544 296.192 430.552 294.784 429.304L296.992 425.512C298.112 426.568 299.568 427.432 301.36 428.104C303.152 428.776 305.056 429.112 307.072 429.112C309.632 429.112 311.6 428.568 312.976 427.48C314.352 426.392 315.04 424.936 315.04 423.112C315.04 421.864 314.736 420.776 314.128 419.848C313.52 418.92 312.464 418.216 310.96 417.736C309.488 417.224 307.456 416.968 304.864 416.968H297.232L299.008 399.4H317.968V403.576H300.784L303.28 401.224L301.888 415.096L299.392 412.792H305.872C309.232 412.792 311.936 413.224 313.984 414.088C316.032 414.952 317.52 416.152 318.448 417.688C319.376 419.192 319.84 420.936 319.84 422.92C319.84 424.84 319.376 426.6 318.448 428.2C317.52 429.768 316.112 431.032 314.224 431.992C312.368 432.92 310 433.384 307.12 433.384Z" fill="#8A8A8A"/>
<rect x="269" y="617" width="158" height="158" rx="23" fill="#E2E7F3"/>
<rect x="269" y="617" width="158" height="158" rx="23" stroke="#8A8A8A" stroke-width="2"/>
<path d="M344.97 728V670.8L349.986 675.992H331.946V666.4H356.41V728H344.97Z" fill="#2F2F2F"/>
<rect x="269" y="809" width="158" height="158" rx="23" fill="#E2E7F3"/>
<rect x="269" y="809" width="158" height="158" rx="23" stroke="#8A8A8A" stroke-width="2"/>
<path d="M321.129 906.008V898.088L351.489 858.4H363.721L333.801 898.088L328.081 896.328H376.921V906.008H321.129ZM354.921 920V906.008L355.273 896.328V883.92H366.009V920H354.921Z" fill="#2F2F2F"/>
<rect x="269" y="1001" width="158" height="158" rx="23" fill="#E2E7F3"/>
<rect x="269" y="1001" width="158" height="158" rx="23" stroke="#8A8A8A" stroke-width="2"/>
<path d="M335.398 1112L360.83 1054.98L363.822 1060.08H328.886L334.342 1054.54V1070.55H323.694V1050.4H371.566V1058.06L347.63 1112H335.398Z" fill="#2F2F2F"/>
<rect x="461" y="617" width="158" height="158" rx="23" fill="#E2E7F3"/>
<rect x="461" y="617" width="158" height="158" rx="23" stroke="#8A8A8A" stroke-width="2"/>
<path d="M517.471 728V720.344L541.935 697.112C543.988 695.176 545.513 693.475 546.511 692.008C547.508 690.541 548.153 689.192 548.447 687.96C548.799 686.669 548.975 685.467 548.975 684.352C548.975 681.536 548.007 679.365 546.071 677.84C544.135 676.256 541.289 675.464 537.535 675.464C534.543 675.464 531.815 675.992 529.351 677.048C526.945 678.104 524.863 679.717 523.103 681.888L515.095 675.728C517.5 672.501 520.727 670.008 524.775 668.248C528.881 666.429 533.457 665.52 538.503 665.52C542.961 665.52 546.833 666.253 550.119 667.72C553.463 669.128 556.015 671.152 557.775 673.792C559.593 676.432 560.503 679.571 560.503 683.208C560.503 685.203 560.239 687.197 559.711 689.192C559.183 691.128 558.185 693.181 556.719 695.352C555.252 697.523 553.111 699.957 550.295 702.656L529.263 722.632L526.887 718.32H562.879V728H517.471Z" fill="#2F2F2F"/>
<rect x="461" y="809" width="158" height="158" rx="23" fill="#E2E7F3"/>
<rect x="461" y="809" width="158" height="158" rx="23" stroke="#8A8A8A" stroke-width="2"/>
<path d="M538.593 920.88C534.251 920.88 529.998 920.264 525.833 919.032C521.726 917.741 518.265 915.981 515.449 913.752L520.289 904.864C522.518 906.683 525.217 908.149 528.385 909.264C531.611 910.379 534.955 910.936 538.417 910.936C542.465 910.936 545.633 910.085 547.921 908.384C550.267 906.683 551.441 904.395 551.441 901.52C551.441 899.584 550.942 897.883 549.945 896.416C549.006 894.949 547.305 893.835 544.841 893.072C542.435 892.309 539.121 891.928 534.897 891.928H520.025L523.193 858.4H559.361V867.992H527.417L533.401 862.536L531.025 887.616L525.041 882.248H537.449C543.55 882.248 548.449 883.069 552.145 884.712C555.899 886.296 558.627 888.525 560.329 891.4C562.089 894.216 562.969 897.443 562.969 901.08C562.969 904.659 562.089 907.944 560.329 910.936C558.569 913.928 555.87 916.333 552.233 918.152C548.654 919.971 544.107 920.88 538.593 920.88Z" fill="#2F2F2F"/>
<rect x="461" y="1001" width="158" height="158" rx="23" fill="#E2E7F3"/>
<rect x="461" y="1001" width="158" height="158" rx="23" stroke="#8A8A8A" stroke-width="2"/>
<path d="M539.897 1112.88C534.793 1112.88 530.364 1112.12 526.609 1110.59C522.854 1109.07 519.95 1106.93 517.897 1104.17C515.844 1101.35 514.817 1098.07 514.817 1094.31C514.817 1090.56 515.814 1087.39 517.809 1084.81C519.804 1082.23 522.678 1080.26 526.433 1078.91C530.188 1077.56 534.676 1076.89 539.897 1076.89C545.118 1076.89 549.606 1077.56 553.361 1078.91C557.174 1080.26 560.078 1082.26 562.073 1084.9C564.126 1087.48 565.153 1090.62 565.153 1094.31C565.153 1098.07 564.097 1101.35 561.985 1104.17C559.932 1106.93 556.998 1109.07 553.185 1110.59C549.43 1112.12 545.001 1112.88 539.897 1112.88ZM539.897 1103.9C544.121 1103.9 547.465 1103.02 549.929 1101.26C552.393 1099.5 553.625 1097.07 553.625 1093.96C553.625 1090.91 552.393 1088.5 549.929 1086.74C547.465 1084.98 544.121 1084.1 539.897 1084.1C535.673 1084.1 532.358 1084.98 529.953 1086.74C527.548 1088.5 526.345 1090.91 526.345 1093.96C526.345 1097.07 527.548 1099.5 529.953 1101.26C532.358 1103.02 535.673 1103.9 539.897 1103.9ZM539.897 1082.87C535.145 1082.87 531.068 1082.26 527.665 1081.02C524.262 1079.73 521.622 1077.89 519.745 1075.48C517.926 1073.02 517.017 1070.08 517.017 1066.68C517.017 1063.16 517.956 1060.14 519.833 1057.62C521.769 1055.03 524.468 1053.04 527.929 1051.63C531.39 1050.22 535.38 1049.52 539.897 1049.52C544.473 1049.52 548.492 1050.22 551.953 1051.63C555.414 1053.04 558.113 1055.03 560.049 1057.62C561.985 1060.14 562.953 1063.16 562.953 1066.68C562.953 1070.08 562.014 1073.02 560.137 1075.48C558.318 1077.89 555.678 1079.73 552.217 1081.02C548.756 1082.26 544.649 1082.87 539.897 1082.87ZM539.897 1075.83C543.534 1075.83 546.409 1075.07 548.521 1073.54C550.633 1071.96 551.689 1069.85 551.689 1067.21C551.689 1064.45 550.604 1062.31 548.433 1060.78C546.262 1059.26 543.417 1058.5 539.897 1058.5C536.377 1058.5 533.561 1059.26 531.449 1060.78C529.337 1062.31 528.281 1064.45 528.281 1067.21C528.281 1069.85 529.308 1071.96 531.361 1073.54C533.473 1075.07 536.318 1075.83 539.897 1075.83Z" fill="#2F2F2F"/>
<rect x="461" y="1193" width="158" height="158" rx="23" fill="#E2E7F3"/>
<rect x="461" y="1193" width="158" height="158" rx="23" stroke="#8A8A8A" stroke-width="2"/>
<path d="M539.963 1304.88C535.093 1304.88 530.693 1303.65 526.763 1301.18C522.891 1298.72 519.84 1295.14 517.611 1290.45C515.381 1285.7 514.267 1279.95 514.267 1273.2C514.267 1266.45 515.381 1260.73 517.611 1256.04C519.84 1251.29 522.891 1247.68 526.763 1245.22C530.693 1242.75 535.093 1241.52 539.963 1241.52C544.891 1241.52 549.291 1242.75 553.163 1245.22C557.035 1247.68 560.085 1251.29 562.315 1256.04C564.603 1260.73 565.747 1266.45 565.747 1273.2C565.747 1279.95 564.603 1285.7 562.315 1290.45C560.085 1295.14 557.035 1298.72 553.163 1301.18C549.291 1303.65 544.891 1304.88 539.963 1304.88ZM539.963 1294.94C542.837 1294.94 545.331 1294.17 547.443 1292.65C549.555 1291.06 551.197 1288.66 552.371 1285.43C553.603 1282.21 554.219 1278.13 554.219 1273.2C554.219 1268.21 553.603 1264.14 552.371 1260.97C551.197 1257.74 549.555 1255.37 547.443 1253.84C545.331 1252.26 542.837 1251.46 539.963 1251.46C537.205 1251.46 534.741 1252.26 532.571 1253.84C530.459 1255.37 528.787 1257.74 527.555 1260.97C526.381 1264.14 525.795 1268.21 525.795 1273.2C525.795 1278.13 526.381 1282.21 527.555 1285.43C528.787 1288.66 530.459 1291.06 532.571 1292.65C534.741 1294.17 537.205 1294.94 539.963 1294.94Z" fill="#2F2F2F"/>
<rect x="653" y="617" width="158" height="158" rx="23" fill="#E2E7F3"/>
<rect x="653" y="617" width="158" height="158" rx="23" stroke="#8A8A8A" stroke-width="2"/>
<path d="M729.623 728.88C725.281 728.88 721.028 728.264 716.863 727.032C712.756 725.741 709.295 723.981 706.479 721.752L711.407 712.864C713.636 714.683 716.335 716.149 719.503 717.264C722.671 718.379 725.985 718.936 729.447 718.936C733.553 718.936 736.751 718.115 739.039 716.472C741.327 714.771 742.471 712.483 742.471 709.608C742.471 706.792 741.415 704.563 739.303 702.92C737.191 701.277 733.788 700.456 729.095 700.456H723.463V692.624L741.063 671.68L742.559 675.992H709.471V666.4H751.447V674.056L733.847 695L727.863 691.48H731.295C738.863 691.48 744.524 693.181 748.279 696.584C752.092 699.928 753.999 704.24 753.999 709.52C753.999 712.981 753.119 716.179 751.359 719.112C749.599 722.045 746.9 724.421 743.263 726.24C739.684 728 735.137 728.88 729.623 728.88Z" fill="#2F2F2F"/>
<rect x="653" y="809" width="158" height="158" rx="23" fill="#E2E7F3"/>
<rect x="653" y="809" width="158" height="158" rx="23" stroke="#8A8A8A" stroke-width="2"/>
<path d="M734.95 920.88C729.377 920.88 724.595 919.707 720.606 917.36C716.617 914.955 713.566 911.493 711.454 906.976C709.342 902.459 708.286 896.885 708.286 890.256C708.286 883.216 709.547 877.261 712.07 872.392C714.651 867.523 718.201 863.827 722.718 861.304C727.294 858.781 732.545 857.52 738.47 857.52C741.579 857.52 744.542 857.843 747.358 858.488C750.233 859.133 752.667 860.131 754.662 861.48L750.438 870.104C748.737 868.989 746.889 868.227 744.894 867.816C742.958 867.347 740.905 867.112 738.734 867.112C732.926 867.112 728.321 868.901 724.918 872.48C721.515 876.059 719.814 881.339 719.814 888.32C719.814 889.435 719.843 890.755 719.902 892.28C719.961 893.747 720.166 895.243 720.518 896.768L716.998 892.896C718.054 890.491 719.491 888.496 721.31 886.912C723.187 885.269 725.387 884.037 727.91 883.216C730.491 882.395 733.278 881.984 736.27 881.984C740.318 881.984 743.926 882.776 747.094 884.36C750.262 885.885 752.785 888.085 754.662 890.96C756.539 893.776 757.478 897.091 757.478 900.904C757.478 904.952 756.481 908.472 754.486 911.464C752.491 914.456 749.793 916.773 746.39 918.416C742.987 920.059 739.174 920.88 734.95 920.88ZM734.334 911.904C736.681 911.904 738.763 911.493 740.582 910.672C742.401 909.792 743.809 908.56 744.806 906.976C745.862 905.392 746.39 903.544 746.39 901.432C746.39 898.205 745.275 895.653 743.046 893.776C740.817 891.899 737.825 890.96 734.07 890.96C731.606 890.96 729.435 891.429 727.558 892.368C725.739 893.248 724.273 894.48 723.158 896.064C722.102 897.648 721.574 899.467 721.574 901.52C721.574 903.397 722.073 905.128 723.07 906.712C724.067 908.296 725.505 909.557 727.382 910.496C729.318 911.435 731.635 911.904 734.334 911.904Z" fill="#2F2F2F"/>
<rect x="653" y="1001" width="158" height="158" rx="23" fill="#E2E7F3"/>
<rect x="653" y="1001" width="158" height="158" rx="23" stroke="#8A8A8A" stroke-width="2"/>
<path d="M729.054 1049.52C734.686 1049.52 739.467 1050.72 743.398 1053.13C747.387 1055.47 750.438 1058.91 752.55 1063.42C754.662 1067.94 755.718 1073.51 755.718 1080.14C755.718 1087.18 754.427 1093.14 751.846 1098.01C749.323 1102.88 745.803 1106.57 741.286 1109.1C736.769 1111.62 731.518 1112.88 725.534 1112.88C722.425 1112.88 719.462 1112.56 716.646 1111.91C713.83 1111.27 711.395 1110.27 709.342 1108.92L713.566 1100.3C715.267 1101.41 717.115 1102.2 719.11 1102.67C721.105 1103.08 723.158 1103.29 725.27 1103.29C731.078 1103.29 735.683 1101.5 739.086 1097.92C742.489 1094.34 744.19 1089.06 744.19 1082.08C744.19 1080.97 744.161 1079.67 744.102 1078.21C744.043 1076.68 743.838 1075.16 743.486 1073.63L747.006 1077.5C746.009 1079.91 744.571 1081.93 742.694 1083.58C740.817 1085.16 738.617 1086.36 736.094 1087.18C733.571 1088.01 730.785 1088.42 727.734 1088.42C723.745 1088.42 720.137 1087.65 716.91 1086.13C713.742 1084.54 711.219 1082.34 709.342 1079.53C707.465 1076.65 706.526 1073.31 706.526 1069.5C706.526 1065.39 707.523 1061.87 709.518 1058.94C711.513 1055.94 714.211 1053.63 717.614 1051.98C721.075 1050.34 724.889 1049.52 729.054 1049.52ZM729.67 1058.5C727.323 1058.5 725.241 1058.94 723.422 1059.82C721.603 1060.64 720.166 1061.84 719.11 1063.42C718.113 1064.95 717.614 1066.8 717.614 1068.97C717.614 1072.19 718.729 1074.75 720.958 1076.62C723.187 1078.5 726.179 1079.44 729.934 1079.44C732.398 1079.44 734.569 1079 736.446 1078.12C738.323 1077.18 739.79 1075.92 740.846 1074.34C741.902 1072.69 742.43 1070.87 742.43 1068.88C742.43 1066.94 741.931 1065.21 740.934 1063.69C739.937 1062.1 738.499 1060.84 736.622 1059.9C734.745 1058.97 732.427 1058.5 729.67 1058.5Z" fill="#2F2F2F"/>
<path d="M701.434 1236H784C786.209 1236 788 1237.79 788 1240V1304C788 1306.21 786.209 1308 784 1308H701.434C700.055 1308 698.773 1307.29 698.042 1306.12L678.042 1274.12C677.231 1272.82 677.231 1271.18 678.042 1269.88L698.042 1237.88C698.773 1236.71 700.055 1236 701.434 1236Z" stroke="#2F2F2F" stroke-width="8"/>
<path d="M755.332 1257L725.332 1287" stroke="#2F2F2F" stroke-width="8" stroke-linecap="round" stroke-linejoin="round"/>
<path d="M725.332 1257L755.332 1287" stroke="#2F2F2F" stroke-width="8" stroke-linecap="round" stroke-linejoin="round"/>
<path d="M69.88 216V176.8H75.48V216H69.88ZM101.16 186.04C103.587 186.04 105.715 186.507 107.544 187.44C109.411 188.373 110.867 189.792 111.912 191.696C112.957 193.6 113.48 196.008 113.48 198.92V216H108.104V199.536C108.104 196.661 107.395 194.496 105.976 193.04C104.595 191.584 102.635 190.856 100.096 190.856C98.1919 190.856 96.5306 191.229 95.1119 191.976C93.6933 192.723 92.5919 193.824 91.8079 195.28C91.0613 196.736 90.6879 198.547 90.6879 200.712V216H85.3119V186.32H90.4639V194.328L89.6239 192.2C90.5946 190.259 92.0879 188.747 94.1039 187.664C96.1199 186.581 98.4719 186.04 101.16 186.04ZM135.301 227.2C132.576 227.2 129.925 226.808 127.349 226.024C124.81 225.277 122.738 224.195 121.133 222.776L123.709 218.632C125.09 219.827 126.789 220.76 128.805 221.432C130.821 222.141 132.93 222.496 135.133 222.496C138.642 222.496 141.218 221.675 142.861 220.032C144.504 218.389 145.325 215.888 145.325 212.528V206.256L145.885 200.376L145.605 194.44V186.32H150.701V211.968C150.701 217.195 149.394 221.04 146.781 223.504C144.168 225.968 140.341 227.2 135.301 227.2ZM134.629 214.768C131.754 214.768 129.178 214.171 126.901 212.976C124.661 211.744 122.869 210.045 121.525 207.88C120.218 205.715 119.565 203.213 119.565 200.376C119.565 197.501 120.218 195 121.525 192.872C122.869 190.707 124.661 189.027 126.901 187.832C129.178 186.637 131.754 186.04 134.629 186.04C137.168 186.04 139.482 186.563 141.573 187.608C143.664 188.616 145.325 190.184 146.557 192.312C147.826 194.44 148.461 197.128 148.461 200.376C148.461 203.587 147.826 206.256 146.557 208.384C145.325 210.512 143.664 212.117 141.573 213.2C139.482 214.245 137.168 214.768 134.629 214.768ZM135.245 210.064C137.224 210.064 138.978 209.653 140.509 208.832C142.04 208.011 143.234 206.872 144.093 205.416C144.989 203.96 145.437 202.28 145.437 200.376C145.437 198.472 144.989 196.792 144.093 195.336C143.234 193.88 142.04 192.76 140.509 191.976C138.978 191.155 137.224 190.744 135.245 190.744C133.266 190.744 131.493 191.155 129.925 191.976C128.394 192.76 127.181 193.88 126.285 195.336C125.426 196.792 124.997 198.472 124.997 200.376C124.997 202.28 125.426 203.96 126.285 205.416C127.181 206.872 128.394 208.011 129.925 208.832C131.493 209.653 133.266 210.064 135.245 210.064ZM159.853 216V186.32H165.005V194.384L164.501 192.368C165.323 190.315 166.704 188.747 168.645 187.664C170.587 186.581 172.976 186.04 175.813 186.04V191.248C175.589 191.211 175.365 191.192 175.141 191.192C174.955 191.192 174.768 191.192 174.581 191.192C171.707 191.192 169.429 192.051 167.749 193.768C166.069 195.485 165.229 197.968 165.229 201.216V216H159.853ZM194.262 216.336C191.088 216.336 188.288 215.683 185.862 214.376C183.472 213.069 181.606 211.277 180.262 209C178.955 206.723 178.302 204.109 178.302 201.16C178.302 198.211 178.936 195.597 180.206 193.32C181.512 191.043 183.286 189.269 185.526 188C187.803 186.693 190.36 186.04 193.198 186.04C196.072 186.04 198.611 186.675 200.814 187.944C203.016 189.213 204.734 191.005 205.966 193.32C207.235 195.597 207.87 198.267 207.87 201.328C207.87 201.552 207.851 201.813 207.814 202.112C207.814 202.411 207.795 202.691 207.758 202.952H182.502V199.088H204.958L202.774 200.432C202.811 198.528 202.419 196.829 201.598 195.336C200.776 193.843 199.638 192.685 198.182 191.864C196.763 191.005 195.102 190.576 193.198 190.576C191.331 190.576 189.67 191.005 188.214 191.864C186.758 192.685 185.619 193.861 184.798 195.392C183.976 196.885 183.566 198.603 183.566 200.544V201.44C183.566 203.419 184.014 205.192 184.91 206.76C185.843 208.291 187.131 209.485 188.774 210.344C190.416 211.203 192.302 211.632 194.43 211.632C196.184 211.632 197.771 211.333 199.19 210.736C200.646 210.139 201.915 209.243 202.998 208.048L205.966 211.52C204.622 213.088 202.942 214.283 200.926 215.104C198.947 215.925 196.726 216.336 194.262 216.336ZM222.727 216.336C220.263 216.336 217.911 216 215.671 215.328C213.468 214.656 211.732 213.835 210.463 212.864L212.703 208.608C213.972 209.467 215.54 210.195 217.407 210.792C219.273 211.389 221.177 211.688 223.119 211.688C225.62 211.688 227.412 211.333 228.495 210.624C229.615 209.915 230.175 208.925 230.175 207.656C230.175 206.723 229.839 205.995 229.167 205.472C228.495 204.949 227.599 204.557 226.479 204.296C225.396 204.035 224.183 203.811 222.839 203.624C221.495 203.4 220.151 203.139 218.807 202.84C217.463 202.504 216.231 202.056 215.111 201.496C213.991 200.899 213.095 200.096 212.423 199.088C211.751 198.043 211.415 196.661 211.415 194.944C211.415 193.152 211.919 191.584 212.927 190.24C213.935 188.896 215.353 187.869 217.183 187.16C219.049 186.413 221.252 186.04 223.791 186.04C225.732 186.04 227.692 186.283 229.671 186.768C231.687 187.216 233.329 187.869 234.599 188.728L232.303 192.984C230.959 192.088 229.559 191.472 228.103 191.136C226.647 190.8 225.191 190.632 223.735 190.632C221.383 190.632 219.628 191.024 218.471 191.808C217.313 192.555 216.735 193.525 216.735 194.72C216.735 195.728 217.071 196.512 217.743 197.072C218.452 197.595 219.348 198.005 220.431 198.304C221.551 198.603 222.783 198.864 224.127 199.088C225.471 199.275 226.815 199.536 228.159 199.872C229.503 200.171 230.716 200.6 231.799 201.16C232.919 201.72 233.815 202.504 234.487 203.512C235.196 204.52 235.551 205.864 235.551 207.544C235.551 209.336 235.028 210.885 233.983 212.192C232.937 213.499 231.463 214.525 229.559 215.272C227.655 215.981 225.377 216.336 222.727 216.336ZM259.573 216V209.728L259.293 208.552V197.856C259.293 195.579 258.621 193.824 257.277 192.592C255.971 191.323 253.992 190.688 251.341 190.688C249.587 190.688 247.869 190.987 246.189 191.584C244.509 192.144 243.091 192.909 241.933 193.88L239.693 189.848C241.224 188.616 243.053 187.683 245.181 187.048C247.347 186.376 249.605 186.04 251.957 186.04C256.027 186.04 259.163 187.029 261.365 189.008C263.568 190.987 264.669 194.011 264.669 198.08V216H259.573ZM249.829 216.336C247.627 216.336 245.685 215.963 244.005 215.216C242.363 214.469 241.093 213.443 240.197 212.136C239.301 210.792 238.853 209.28 238.853 207.6C238.853 205.995 239.227 204.539 239.973 203.232C240.757 201.925 242.008 200.88 243.725 200.096C245.48 199.312 247.832 198.92 250.781 198.92H260.189V202.784H251.005C248.317 202.784 246.507 203.232 245.573 204.128C244.64 205.024 244.173 206.107 244.173 207.376C244.173 208.832 244.752 210.008 245.909 210.904C247.067 211.763 248.672 212.192 250.725 212.192C252.741 212.192 254.496 211.744 255.989 210.848C257.52 209.952 258.621 208.645 259.293 206.928L260.357 210.624C259.648 212.379 258.397 213.779 256.605 214.824C254.813 215.832 252.555 216.336 249.829 216.336ZM300.633 216.336C297.46 216.336 294.66 215.683 292.233 214.376C289.844 213.069 287.977 211.277 286.633 209C285.327 206.723 284.673 204.109 284.673 201.16C284.673 198.211 285.308 195.597 286.577 193.32C287.884 191.043 289.657 189.269 291.897 188C294.175 186.693 296.732 186.04 299.569 186.04C302.444 186.04 304.983 186.675 307.185 187.944C309.388 189.213 311.105 191.005 312.337 193.32C313.607 195.597 314.241 198.267 314.241 201.328C314.241 201.552 314.223 201.813 314.185 202.112C314.185 202.411 314.167 202.691 314.129 202.952H288.873V199.088H311.329L309.145 200.432C309.183 198.528 308.791 196.829 307.969 195.336C307.148 193.843 306.009 192.685 304.553 191.864C303.135 191.005 301.473 190.576 299.569 190.576C297.703 190.576 296.041 191.005 294.585 191.864C293.129 192.685 291.991 193.861 291.169 195.392C290.348 196.885 289.937 198.603 289.937 200.544V201.44C289.937 203.419 290.385 205.192 291.281 206.76C292.215 208.291 293.503 209.485 295.145 210.344C296.788 211.203 298.673 211.632 300.801 211.632C302.556 211.632 304.143 211.333 305.561 210.736C307.017 210.139 308.287 209.243 309.369 208.048L312.337 211.52C310.993 213.088 309.313 214.283 307.297 215.104C305.319 215.925 303.097 216.336 300.633 216.336ZM320.586 216V174.448H325.962V216H320.586ZM367.094 185.424C369.484 185.424 371.612 185.909 373.478 186.88C375.382 187.813 376.876 189.269 377.958 191.248C379.041 193.189 379.582 195.691 379.582 198.752V216H370.846V200.096C370.846 197.669 370.305 195.877 369.222 194.72C368.177 193.563 366.684 192.984 364.742 192.984C363.361 192.984 362.11 193.283 360.99 193.88C359.908 194.44 359.049 195.317 358.414 196.512C357.817 197.707 357.518 199.237 357.518 201.104V216H348.782V185.872H357.126V194.216L355.558 191.696C356.641 189.68 358.19 188.131 360.206 187.048C362.222 185.965 364.518 185.424 367.094 185.424ZM399.093 216.448C396.592 216.448 394.352 215.963 392.373 214.992C390.432 214.021 388.92 212.547 387.837 210.568C386.754 208.552 386.213 205.995 386.213 202.896V185.872H394.949V201.608C394.949 204.109 395.472 205.957 396.517 207.152C397.6 208.309 399.112 208.888 401.053 208.888C402.397 208.888 403.592 208.608 404.637 208.048C405.682 207.451 406.504 206.555 407.101 205.36C407.698 204.128 407.997 202.597 407.997 200.768V185.872H416.733V216H408.445V207.712L409.957 210.12C408.949 212.211 407.456 213.797 405.477 214.88C403.536 215.925 401.408 216.448 399.093 216.448ZM396.349 182.008L403.909 173.944H413.317L403.181 182.008H396.349ZM462.29 185.424C464.68 185.424 466.789 185.909 468.618 186.88C470.485 187.813 471.941 189.269 472.986 191.248C474.069 193.189 474.61 195.691 474.61 198.752V216H465.874V200.096C465.874 197.669 465.37 195.877 464.362 194.72C463.354 193.563 461.936 192.984 460.106 192.984C458.837 192.984 457.698 193.283 456.69 193.88C455.682 194.44 454.898 195.299 454.338 196.456C453.778 197.613 453.498 199.088 453.498 200.88V216H444.762V200.096C444.762 197.669 444.258 195.877 443.25 194.72C442.28 193.563 440.88 192.984 439.05 192.984C437.781 192.984 436.642 193.283 435.634 193.88C434.626 194.44 433.842 195.299 433.282 196.456C432.722 197.613 432.442 199.088 432.442 200.88V216H423.706V185.872H432.05V194.104L430.482 191.696C431.528 189.643 433.002 188.093 434.906 187.048C436.848 185.965 439.05 185.424 441.514 185.424C444.277 185.424 446.685 186.133 448.738 187.552C450.829 188.933 452.21 191.061 452.882 193.936L449.802 193.096C450.81 190.744 452.416 188.877 454.618 187.496C456.858 186.115 459.416 185.424 462.29 185.424ZM496.492 216.448C493.057 216.448 490.033 215.776 487.42 214.432C484.844 213.088 482.846 211.259 481.428 208.944C480.009 206.592 479.3 203.923 479.3 200.936C479.3 197.912 479.99 195.243 481.372 192.928C482.79 190.576 484.713 188.747 487.14 187.44C489.566 186.096 492.31 185.424 495.372 185.424C498.321 185.424 500.972 186.059 503.324 187.328C505.713 188.56 507.598 190.352 508.98 192.704C510.361 195.019 511.052 197.8 511.052 201.048C511.052 201.384 511.033 201.776 510.996 202.224C510.958 202.635 510.921 203.027 510.884 203.4H486.412V198.304H506.292L502.932 199.816C502.932 198.248 502.614 196.885 501.98 195.728C501.345 194.571 500.468 193.675 499.348 193.04C498.228 192.368 496.921 192.032 495.428 192.032C493.934 192.032 492.609 192.368 491.452 193.04C490.332 193.675 489.454 194.589 488.82 195.784C488.185 196.941 487.868 198.323 487.868 199.928V201.272C487.868 202.915 488.222 204.371 488.932 205.64C489.678 206.872 490.705 207.824 492.012 208.496C493.356 209.131 494.924 209.448 496.716 209.448C498.321 209.448 499.721 209.205 500.916 208.72C502.148 208.235 503.268 207.507 504.276 206.536L508.924 211.576C507.542 213.144 505.806 214.357 503.716 215.216C501.625 216.037 499.217 216.448 496.492 216.448ZM515.748 216V185.872H524.092V194.384L522.916 191.92C523.812 189.792 525.249 188.187 527.228 187.104C529.206 185.984 531.614 185.424 534.452 185.424V193.488C534.078 193.451 533.742 193.432 533.444 193.432C533.145 193.395 532.828 193.376 532.492 193.376C530.102 193.376 528.161 194.067 526.668 195.448C525.212 196.792 524.484 198.901 524.484 201.776V216H515.748ZM552.643 216.448C549.433 216.448 546.577 215.776 544.075 214.432C541.611 213.088 539.651 211.259 538.195 208.944C536.777 206.592 536.067 203.923 536.067 200.936C536.067 197.912 536.777 195.243 538.195 192.928C539.651 190.576 541.611 188.747 544.075 187.44C546.577 186.096 549.433 185.424 552.643 185.424C555.817 185.424 558.654 186.096 561.155 187.44C563.657 188.747 565.617 190.557 567.035 192.872C568.454 195.187 569.163 197.875 569.163 200.936C569.163 203.923 568.454 206.592 567.035 208.944C565.617 211.259 563.657 213.088 561.155 214.432C558.654 215.776 555.817 216.448 552.643 216.448ZM552.643 209.28C554.099 209.28 555.406 208.944 556.563 208.272C557.721 207.6 558.635 206.648 559.307 205.416C559.979 204.147 560.315 202.653 560.315 200.936C560.315 199.181 559.979 197.688 559.307 196.456C558.635 195.224 557.721 194.272 556.563 193.6C555.406 192.928 554.099 192.592 552.643 192.592C551.187 192.592 549.881 192.928 548.723 193.6C547.566 194.272 546.633 195.224 545.923 196.456C545.251 197.688 544.915 199.181 544.915 200.936C544.915 202.653 545.251 204.147 545.923 205.416C546.633 206.648 547.566 207.6 548.723 208.272C549.881 208.944 551.187 209.28 552.643 209.28ZM601.558 216.448C598.721 216.448 596.163 215.813 593.886 214.544C591.609 213.237 589.798 211.427 588.454 209.112C587.147 206.797 586.494 204.072 586.494 200.936C586.494 197.763 587.147 195.019 588.454 192.704C589.798 190.389 591.609 188.597 593.886 187.328C596.163 186.059 598.721 185.424 601.558 185.424C604.097 185.424 606.318 185.984 608.222 187.104C610.126 188.224 611.601 189.923 612.646 192.2C613.691 194.477 614.214 197.389 614.214 200.936C614.214 204.445 613.71 207.357 612.702 209.672C611.694 211.949 610.238 213.648 608.334 214.768C606.467 215.888 604.209 216.448 601.558 216.448ZM603.07 209.28C604.489 209.28 605.777 208.944 606.934 208.272C608.091 207.6 609.006 206.648 609.678 205.416C610.387 204.147 610.742 202.653 610.742 200.936C610.742 199.181 610.387 197.688 609.678 196.456C609.006 195.224 608.091 194.272 606.934 193.6C605.777 192.928 604.489 192.592 603.07 192.592C601.614 192.592 600.307 192.928 599.15 193.6C597.993 194.272 597.059 195.224 596.35 196.456C595.678 197.688 595.342 199.181 595.342 200.936C595.342 202.653 595.678 204.147 596.35 205.416C597.059 206.648 597.993 207.6 599.15 208.272C600.307 208.944 601.614 209.28 603.07 209.28ZM610.966 216V209.84L611.134 200.88L610.574 191.976V174.448H619.31V216H610.966ZM641.227 216.448C637.793 216.448 634.769 215.776 632.155 214.432C629.579 213.088 627.582 211.259 626.163 208.944C624.745 206.592 624.035 203.923 624.035 200.936C624.035 197.912 624.726 195.243 626.107 192.928C627.526 190.576 629.449 188.747 631.875 187.44C634.302 186.096 637.046 185.424 640.107 185.424C643.057 185.424 645.707 186.059 648.059 187.328C650.449 188.56 652.334 190.352 653.715 192.704C655.097 195.019 655.787 197.8 655.787 201.048C655.787 201.384 655.769 201.776 655.731 202.224C655.694 202.635 655.657 203.027 655.619 203.4H631.147V198.304H651.027L647.667 199.816C647.667 198.248 647.35 196.885 646.715 195.728C646.081 194.571 645.203 193.675 644.083 193.04C642.963 192.368 641.657 192.032 640.163 192.032C638.67 192.032 637.345 192.368 636.187 193.04C635.067 193.675 634.19 194.589 633.555 195.784C632.921 196.941 632.603 198.323 632.603 199.928V201.272C632.603 202.915 632.958 204.371 633.667 205.64C634.414 206.872 635.441 207.824 636.747 208.496C638.091 209.131 639.659 209.448 641.451 209.448C643.057 209.448 644.457 209.205 645.651 208.72C646.883 208.235 648.003 207.507 649.011 206.536L653.659 211.576C652.278 213.144 650.542 214.357 648.451 215.216C646.361 216.037 643.953 216.448 641.227 216.448ZM675.839 216V176.8H693.647C697.903 176.8 701.655 177.621 704.903 179.264C708.151 180.869 710.69 183.128 712.519 186.04C714.348 188.952 715.263 192.405 715.263 196.4C715.263 200.357 714.348 203.811 712.519 206.76C710.69 209.672 708.151 211.949 704.903 213.592C701.655 215.197 697.903 216 693.647 216H675.839ZM684.911 208.552H693.199C695.812 208.552 698.071 208.067 699.975 207.096C701.916 206.088 703.41 204.669 704.455 202.84C705.538 201.011 706.079 198.864 706.079 196.4C706.079 193.899 705.538 191.752 704.455 189.96C703.41 188.131 701.916 186.731 699.975 185.76C698.071 184.752 695.812 184.248 693.199 184.248H684.911V208.552ZM720.985 216V176.8H728.489L751.617 205.024H747.977V176.8H756.937V216H749.489L726.305 187.776H729.945V216H720.985ZM765.091 216V176.8H774.163V216H765.091ZM809.406 216.448C806.568 216.448 804.011 215.813 801.734 214.544C799.456 213.237 797.646 211.427 796.302 209.112C794.995 206.797 794.342 204.072 794.342 200.936C794.342 197.763 794.995 195.019 796.302 192.704C797.646 190.389 799.456 188.597 801.734 187.328C804.011 186.059 806.568 185.424 809.406 185.424C811.944 185.424 814.166 185.984 816.07 187.104C817.974 188.224 819.448 189.923 820.494 192.2C821.539 194.477 822.062 197.389 822.062 200.936C822.062 204.445 821.558 207.357 820.55 209.672C819.542 211.949 818.086 213.648 816.182 214.768C814.315 215.888 812.056 216.448 809.406 216.448ZM810.918 209.28C812.336 209.28 813.624 208.944 814.782 208.272C815.939 207.6 816.854 206.648 817.526 205.416C818.235 204.147 818.59 202.653 818.59 200.936C818.59 199.181 818.235 197.688 817.526 196.456C816.854 195.224 815.939 194.272 814.782 193.6C813.624 192.928 812.336 192.592 810.918 192.592C809.462 192.592 808.155 192.928 806.998 193.6C805.84 194.272 804.907 195.224 804.198 196.456C803.526 197.688 803.19 199.181 803.19 200.936C803.19 202.653 803.526 204.147 804.198 205.416C804.907 206.648 805.84 207.6 806.998 208.272C808.155 208.944 809.462 209.28 810.918 209.28ZM818.814 216V209.84L818.982 200.88L818.422 191.976V174.448H827.158V216H818.814ZM849.075 216.448C845.64 216.448 842.616 215.776 840.003 214.432C837.427 213.088 835.43 211.259 834.011 208.944C832.592 206.592 831.883 203.923 831.883 200.936C831.883 197.912 832.574 195.243 833.955 192.928C835.374 190.576 837.296 188.747 839.723 187.44C842.15 186.096 844.894 185.424 847.955 185.424C850.904 185.424 853.555 186.059 855.907 187.328C858.296 188.56 860.182 190.352 861.563 192.704C862.944 195.019 863.635 197.8 863.635 201.048C863.635 201.384 863.616 201.776 863.579 202.224C863.542 202.635 863.504 203.027 863.467 203.4H838.995V198.304H858.875L855.515 199.816C855.515 198.248 855.198 196.885 854.563 195.728C853.928 194.571 853.051 193.675 851.931 193.04C850.811 192.368 849.504 192.032 848.011 192.032C846.518 192.032 845.192 192.368 844.035 193.04C842.915 193.675 842.038 194.589 841.403 195.784C840.768 196.941 840.451 198.323 840.451 199.928V201.272C840.451 202.915 840.806 204.371 841.515 205.64C842.262 206.872 843.288 207.824 844.595 208.496C845.939 209.131 847.507 209.448 849.299 209.448C850.904 209.448 852.304 209.205 853.499 208.72C854.731 208.235 855.851 207.507 856.859 206.536L861.507 211.576C860.126 213.144 858.39 214.357 856.299 215.216C854.208 216.037 851.8 216.448 849.075 216.448ZM868.331 216V174.448H877.067V216H868.331ZM85.84 288.448C83.3013 288.448 81.08 287.888 79.176 286.768C77.272 285.648 75.7787 283.949 74.696 281.672C73.6507 279.357 73.128 276.445 73.128 272.936C73.128 269.389 73.632 266.477 74.64 264.2C75.648 261.923 77.104 260.224 79.008 259.104C80.912 257.984 83.1893 257.424 85.84 257.424C88.6773 257.424 91.216 258.077 93.456 259.384C95.7333 260.653 97.5253 262.445 98.832 264.76C100.176 267.075 100.848 269.8 100.848 272.936C100.848 276.109 100.176 278.853 98.832 281.168C97.5253 283.483 95.7333 285.275 93.456 286.544C91.216 287.813 88.6773 288.448 85.84 288.448ZM68.032 298.864V257.872H76.376V264.032L76.208 272.992L76.768 281.896V298.864H68.032ZM84.328 281.28C85.784 281.28 87.072 280.944 88.192 280.272C89.3493 279.6 90.264 278.648 90.936 277.416C91.6453 276.147 92 274.653 92 272.936C92 271.181 91.6453 269.688 90.936 268.456C90.264 267.224 89.3493 266.272 88.192 265.6C87.072 264.928 85.784 264.592 84.328 264.592C82.872 264.592 81.5653 264.928 80.408 265.6C79.2507 266.272 78.336 267.224 77.664 268.456C76.992 269.688 76.656 271.181 76.656 272.936C76.656 274.653 76.992 276.147 77.664 277.416C78.336 278.648 79.2507 279.6 80.408 280.272C81.5653 280.944 82.872 281.28 84.328 281.28ZM123.564 288V282.12L123.004 280.832V270.304C123.004 268.437 122.425 266.981 121.268 265.936C120.148 264.891 118.412 264.368 116.06 264.368C114.455 264.368 112.868 264.629 111.3 265.152C109.769 265.637 108.463 266.309 107.38 267.168L104.244 261.064C105.887 259.907 107.865 259.011 110.18 258.376C112.495 257.741 114.847 257.424 117.236 257.424C121.828 257.424 125.393 258.507 127.932 260.672C130.471 262.837 131.74 266.216 131.74 270.808V288H123.564ZM114.38 288.448C112.028 288.448 110.012 288.056 108.332 287.272C106.652 286.451 105.364 285.349 104.468 283.968C103.572 282.587 103.124 281.037 103.124 279.32C103.124 277.528 103.553 275.96 104.412 274.616C105.308 273.272 106.708 272.227 108.612 271.48C110.516 270.696 112.999 270.304 116.06 270.304H124.068V275.4H117.012C114.959 275.4 113.54 275.736 112.756 276.408C112.009 277.08 111.636 277.92 111.636 278.928C111.636 280.048 112.065 280.944 112.924 281.616C113.82 282.251 115.033 282.568 116.564 282.568C118.02 282.568 119.327 282.232 120.484 281.56C121.641 280.851 122.481 279.824 123.004 278.48L124.348 282.512C123.713 284.453 122.556 285.928 120.876 286.936C119.196 287.944 117.031 288.448 114.38 288.448ZM153.305 288.448C150.057 288.448 147.164 287.795 144.625 286.488C142.086 285.144 140.089 283.296 138.633 280.944C137.214 278.592 136.505 275.923 136.505 272.936C136.505 269.912 137.214 267.243 138.633 264.928C140.089 262.576 142.086 260.747 144.625 259.44C147.164 258.096 150.057 257.424 153.305 257.424C156.478 257.424 159.241 258.096 161.593 259.44C163.945 260.747 165.681 262.632 166.801 265.096L160.025 268.736C159.241 267.317 158.252 266.272 157.057 265.6C155.9 264.928 154.63 264.592 153.249 264.592C151.756 264.592 150.412 264.928 149.217 265.6C148.022 266.272 147.07 267.224 146.361 268.456C145.689 269.688 145.353 271.181 145.353 272.936C145.353 274.691 145.689 276.184 146.361 277.416C147.07 278.648 148.022 279.6 149.217 280.272C150.412 280.944 151.756 281.28 153.249 281.28C154.63 281.28 155.9 280.963 157.057 280.328C158.252 279.656 159.241 278.592 160.025 277.136L166.801 280.832C165.681 283.259 163.945 285.144 161.593 286.488C159.241 287.795 156.478 288.448 153.305 288.448ZM170.547 288V257.872H179.283V288H170.547ZM174.915 253.672C173.31 253.672 172.003 253.205 170.995 252.272C169.987 251.339 169.483 250.181 169.483 248.8C169.483 247.419 169.987 246.261 170.995 245.328C172.003 244.395 173.31 243.928 174.915 243.928C176.52 243.928 177.827 244.376 178.835 245.272C179.843 246.131 180.347 247.251 180.347 248.632C180.347 250.088 179.843 251.301 178.835 252.272C177.864 253.205 176.558 253.672 174.915 253.672ZM201.223 288.448C197.788 288.448 194.764 287.776 192.151 286.432C189.575 285.088 187.577 283.259 186.159 280.944C184.74 278.592 184.031 275.923 184.031 272.936C184.031 269.912 184.721 267.243 186.103 264.928C187.521 262.576 189.444 260.747 191.871 259.44C194.297 258.096 197.041 257.424 200.103 257.424C203.052 257.424 205.703 258.059 208.055 259.328C210.444 260.56 212.329 262.352 213.711 264.704C215.092 267.019 215.783 269.8 215.783 273.048C215.783 273.384 215.764 273.776 215.727 274.224C215.689 274.635 215.652 275.027 215.615 275.4H191.143V270.304H211.023L207.663 271.816C207.663 270.248 207.345 268.885 206.711 267.728C206.076 266.571 205.199 265.675 204.079 265.04C202.959 264.368 201.652 264.032 200.159 264.032C198.665 264.032 197.34 264.368 196.183 265.04C195.063 265.675 194.185 266.589 193.551 267.784C192.916 268.941 192.599 270.323 192.599 271.928V273.272C192.599 274.915 192.953 276.371 193.663 277.64C194.409 278.872 195.436 279.824 196.743 280.496C198.087 281.131 199.655 281.448 201.447 281.448C203.052 281.448 204.452 281.205 205.647 280.72C206.879 280.235 207.999 279.507 209.007 278.536L213.655 283.576C212.273 285.144 210.537 286.357 208.447 287.216C206.356 288.037 203.948 288.448 201.223 288.448ZM238.791 257.424C241.18 257.424 243.308 257.909 245.175 258.88C247.079 259.813 248.572 261.269 249.655 263.248C250.738 265.189 251.279 267.691 251.279 270.752V288H242.543V272.096C242.543 269.669 242.002 267.877 240.919 266.72C239.874 265.563 238.38 264.984 236.439 264.984C235.058 264.984 233.807 265.283 232.687 265.88C231.604 266.44 230.746 267.317 230.111 268.512C229.514 269.707 229.215 271.237 229.215 273.104V288H220.479V257.872H228.823V266.216L227.255 263.696C228.338 261.68 229.887 260.131 231.903 259.048C233.919 257.965 236.215 257.424 238.791 257.424ZM270.398 288.448C266.851 288.448 264.088 287.552 262.11 285.76C260.131 283.931 259.142 281.224 259.142 277.64V251.208H267.878V277.528C267.878 278.797 268.214 279.787 268.886 280.496C269.558 281.168 270.472 281.504 271.63 281.504C273.011 281.504 274.187 281.131 275.158 280.384L277.51 286.544C276.614 287.179 275.531 287.664 274.262 288C273.03 288.299 271.742 288.448 270.398 288.448ZM254.494 265.264V258.544H275.382V265.264H254.494ZM295.316 288.448C291.881 288.448 288.857 287.776 286.244 286.432C283.668 285.088 281.671 283.259 280.252 280.944C278.833 278.592 278.124 275.923 278.124 272.936C278.124 269.912 278.815 267.243 280.196 264.928C281.615 262.576 283.537 260.747 285.964 259.44C288.391 258.096 291.135 257.424 294.196 257.424C297.145 257.424 299.796 258.059 302.148 259.328C304.537 260.56 306.423 262.352 307.804 264.704C309.185 267.019 309.876 269.8 309.876 273.048C309.876 273.384 309.857 273.776 309.82 274.224C309.783 274.635 309.745 275.027 309.708 275.4H285.236V270.304H305.116L301.756 271.816C301.756 270.248 301.439 268.885 300.804 267.728C300.169 266.571 299.292 265.675 298.172 265.04C297.052 264.368 295.745 264.032 294.252 264.032C292.759 264.032 291.433 264.368 290.276 265.04C289.156 265.675 288.279 266.589 287.644 267.784C287.009 268.941 286.692 270.323 286.692 271.928V273.272C286.692 274.915 287.047 276.371 287.756 277.64C288.503 278.872 289.529 279.824 290.836 280.496C292.18 281.131 293.748 281.448 295.54 281.448C297.145 281.448 298.545 281.205 299.74 280.72C300.972 280.235 302.092 279.507 303.1 278.536L307.748 283.576C306.367 285.144 304.631 286.357 302.54 287.216C300.449 288.037 298.041 288.448 295.316 288.448Z" fill="#2F2F2F"/>
<path d="M681.597 55.4H687.837V89H681.597V55.4ZM664.221 89H657.981V55.4H664.221V89ZM682.077 74.6H663.693V69.272H682.077V74.6ZM707.784 89.336C705.16 89.336 702.824 88.776 700.776 87.656C698.728 86.504 697.112 84.936 695.928 82.952C694.744 80.968 694.152 78.712 694.152 76.184C694.152 73.624 694.744 71.368 695.928 69.416C697.112 67.432 698.728 65.88 700.776 64.76C702.824 63.64 705.16 63.08 707.784 63.08C710.44 63.08 712.792 63.64 714.84 64.76C716.92 65.88 718.536 67.416 719.688 69.368C720.872 71.32 721.464 73.592 721.464 76.184C721.464 78.712 720.872 80.968 719.688 82.952C718.536 84.936 716.92 86.504 714.84 87.656C712.792 88.776 710.44 89.336 707.784 89.336ZM707.784 84.2C709.256 84.2 710.568 83.88 711.72 83.24C712.872 82.6 713.768 81.672 714.408 80.456C715.08 79.24 715.416 77.816 715.416 76.184C715.416 74.52 715.08 73.096 714.408 71.912C713.768 70.696 712.872 69.768 711.72 69.128C710.568 68.488 709.272 68.168 707.832 68.168C706.36 68.168 705.048 68.488 703.896 69.128C702.776 69.768 701.88 70.696 701.208 71.912C700.536 73.096 700.2 74.52 700.2 76.184C700.2 77.816 700.536 79.24 701.208 80.456C701.88 81.672 702.776 82.6 703.896 83.24C705.048 83.88 706.344 84.2 707.784 84.2ZM727.202 89V63.368H732.914V70.424L732.242 68.36C733.01 66.632 734.21 65.32 735.842 64.424C737.506 63.528 739.57 63.08 742.034 63.08V68.792C741.778 68.728 741.538 68.696 741.314 68.696C741.09 68.664 740.866 68.648 740.642 68.648C738.37 68.648 736.562 69.32 735.218 70.664C733.874 71.976 733.202 73.944 733.202 76.568V89H727.202ZM761.087 89V83.816L760.751 82.712V73.64C760.751 71.88 760.223 70.52 759.167 69.56C758.111 68.568 756.511 68.072 754.367 68.072C752.927 68.072 751.503 68.296 750.095 68.744C748.719 69.192 747.551 69.816 746.591 70.616L744.239 66.248C745.615 65.192 747.247 64.408 749.135 63.896C751.055 63.352 753.039 63.08 755.087 63.08C758.799 63.08 761.663 63.976 763.679 65.768C765.727 67.528 766.751 70.264 766.751 73.976V89H761.087ZM753.023 89.336C751.103 89.336 749.423 89.016 747.983 88.376C746.543 87.704 745.423 86.792 744.623 85.64C743.855 84.456 743.471 83.128 743.471 81.656C743.471 80.216 743.807 78.92 744.479 77.768C745.183 76.616 746.319 75.704 747.887 75.032C749.455 74.36 751.535 74.024 754.127 74.024H761.567V78.008H754.559C752.511 78.008 751.135 78.344 750.431 79.016C749.727 79.656 749.375 80.456 749.375 81.416C749.375 82.504 749.807 83.368 750.671 84.008C751.535 84.648 752.735 84.968 754.271 84.968C755.743 84.968 757.055 84.632 758.207 83.96C759.391 83.288 760.239 82.296 760.751 80.984L761.759 84.584C761.183 86.088 760.143 87.256 758.639 88.088C757.167 88.92 755.295 89.336 753.023 89.336ZM776.372 71.048C775.284 71.048 774.356 70.68 773.588 69.944C772.82 69.176 772.436 68.216 772.436 67.064C772.436 65.848 772.82 64.888 773.588 64.184C774.356 63.448 775.284 63.08 776.372 63.08C777.46 63.08 778.388 63.448 779.156 64.184C779.924 64.888 780.308 65.848 780.308 67.064C780.308 68.216 779.924 69.176 779.156 69.944C778.388 70.68 777.46 71.048 776.372 71.048ZM776.372 89.336C775.284 89.336 774.356 88.968 773.588 88.232C772.82 87.464 772.436 86.504 772.436 85.352C772.436 84.136 772.82 83.176 773.588 82.472C774.356 81.736 775.284 81.368 776.372 81.368C777.46 81.368 778.388 81.736 779.156 82.472C779.924 83.176 780.308 84.136 780.308 85.352C780.308 86.504 779.924 87.464 779.156 88.232C778.388 88.968 777.46 89.336 776.372 89.336ZM802.988 89V57.8L805.724 60.632H795.884V55.4H809.228V89H802.988ZM821.269 89V57.8L824.005 60.632H814.165V55.4H827.509V89H821.269ZM837.919 71.048C836.831 71.048 835.903 70.68 835.135 69.944C834.367 69.176 833.983 68.216 833.983 67.064C833.983 65.848 834.367 64.888 835.135 64.184C835.903 63.448 836.831 63.08 837.919 63.08C839.007 63.08 839.935 63.448 840.703 64.184C841.471 64.888 841.855 65.848 841.855 67.064C841.855 68.216 841.471 69.176 840.703 69.944C839.935 70.68 839.007 71.048 837.919 71.048ZM837.919 89.336C836.831 89.336 835.903 88.968 835.135 88.232C834.367 87.464 833.983 86.504 833.983 85.352C833.983 84.136 834.367 83.176 835.135 82.472C835.903 81.736 836.831 81.368 837.919 81.368C839.007 81.368 839.935 81.736 840.703 82.472C841.471 83.176 841.855 84.136 841.855 85.352C841.855 86.504 841.471 87.464 840.703 88.232C839.935 88.968 839.007 89.336 837.919 89.336ZM857.029 89.48C854.661 89.48 852.341 89.144 850.069 88.472C847.829 87.768 845.941 86.808 844.405 85.592L847.045 80.744C848.261 81.736 849.733 82.536 851.461 83.144C853.221 83.752 855.045 84.056 856.933 84.056C859.141 84.056 860.869 83.592 862.117 82.664C863.397 81.736 864.037 80.488 864.037 78.92C864.037 77.864 863.765 76.936 863.221 76.136C862.709 75.336 861.781 74.728 860.437 74.312C859.125 73.896 857.317 73.688 855.013 73.688H846.901L848.629 55.4H868.357V60.632H850.933L854.197 57.656L852.901 71.336L849.637 68.408H856.405C859.733 68.408 862.405 68.856 864.421 69.752C866.469 70.616 867.957 71.832 868.885 73.4C869.845 74.936 870.325 76.696 870.325 78.68C870.325 80.632 869.845 82.424 868.885 84.056C867.925 85.688 866.453 87 864.469 87.992C862.517 88.984 860.037 89.48 857.029 89.48ZM884.826 89.48C882.458 89.48 880.138 89.144 877.866 88.472C875.626 87.768 873.738 86.808 872.202 85.592L874.842 80.744C876.058 81.736 877.53 82.536 879.258 83.144C881.018 83.752 882.842 84.056 884.73 84.056C886.938 84.056 888.666 83.592 889.914 82.664C891.194 81.736 891.834 80.488 891.834 78.92C891.834 77.864 891.562 76.936 891.018 76.136C890.506 75.336 889.578 74.728 888.234 74.312C886.922 73.896 885.114 73.688 882.81 73.688H874.698L876.426 55.4H896.154V60.632H878.73L881.994 57.656L880.698 71.336L877.434 68.408H884.202C887.53 68.408 890.202 68.856 892.218 69.752C894.266 70.616 895.754 71.832 896.682 73.4C897.642 74.936 898.122 76.696 898.122 78.68C898.122 80.632 897.642 82.424 896.682 84.056C895.722 85.688 894.25 87 892.266 87.992C890.314 88.984 887.834 89.48 884.826 89.48ZM932.603 89V83.816L932.267 82.712V73.64C932.267 71.88 931.739 70.52 930.683 69.56C929.627 68.568 928.027 68.072 925.883 68.072C924.443 68.072 923.019 68.296 921.611 68.744C920.235 69.192 919.067 69.816 918.107 70.616L915.755 66.248C917.131 65.192 918.763 64.408 920.651 63.896C922.571 63.352 924.555 63.08 926.603 63.08C930.315 63.08 933.179 63.976 935.195 65.768C937.243 67.528 938.267 70.264 938.267 73.976V89H932.603ZM924.539 89.336C922.619 89.336 920.939 89.016 919.499 88.376C918.059 87.704 916.939 86.792 916.139 85.64C915.371 84.456 914.987 83.128 914.987 81.656C914.987 80.216 915.323 78.92 915.995 77.768C916.699 76.616 917.835 75.704 919.403 75.032C920.971 74.36 923.051 74.024 925.643 74.024H933.083V78.008H926.075C924.027 78.008 922.651 78.344 921.947 79.016C921.243 79.656 920.891 80.456 920.891 81.416C920.891 82.504 921.323 83.368 922.187 84.008C923.051 84.648 924.251 84.968 925.787 84.968C927.259 84.968 928.571 84.632 929.723 83.96C930.907 83.288 931.755 82.296 932.267 80.984L933.275 84.584C932.699 86.088 931.659 87.256 930.155 88.088C928.683 88.92 926.811 89.336 924.539 89.336ZM947.887 89.336C946.799 89.336 945.871 88.968 945.103 88.232C944.335 87.464 943.951 86.504 943.951 85.352C943.951 84.136 944.335 83.176 945.103 82.472C945.871 81.736 946.799 81.368 947.887 81.368C948.975 81.368 949.903 81.736 950.671 82.472C951.439 83.176 951.823 84.136 951.823 85.352C951.823 86.504 951.439 87.464 950.671 88.232C949.903 88.968 948.975 89.336 947.887 89.336ZM990.038 63.08C992.086 63.08 993.894 63.48 995.462 64.28C997.062 65.08 998.31 66.312 999.206 67.976C1000.1 69.608 1000.55 71.72 1000.55 74.312V89H994.55V75.08C994.55 72.808 994.054 71.112 993.062 69.992C992.07 68.872 990.646 68.312 988.79 68.312C987.478 68.312 986.31 68.6 985.286 69.176C984.294 69.752 983.51 70.6 982.934 71.72C982.39 72.84 982.118 74.264 982.118 75.992V89H976.118V75.08C976.118 72.808 975.622 71.112 974.63 69.992C973.638 68.872 972.214 68.312 970.358 68.312C969.046 68.312 967.878 68.6 966.854 69.176C965.862 69.752 965.078 70.6 964.502 71.72C963.958 72.84 963.686 74.264 963.686 75.992V89H957.686V63.368H963.398V70.184L962.39 68.168C963.254 66.504 964.502 65.24 966.134 64.376C967.798 63.512 969.686 63.08 971.798 63.08C974.198 63.08 976.278 63.672 978.038 64.856C979.83 66.04 981.014 67.832 981.59 70.232L979.238 69.416C980.07 67.496 981.446 65.96 983.366 64.808C985.286 63.656 987.51 63.08 990.038 63.08ZM1010.14 89.336C1009.05 89.336 1008.12 88.968 1007.35 88.232C1006.59 87.464 1006.2 86.504 1006.2 85.352C1006.2 84.136 1006.59 83.176 1007.35 82.472C1008.12 81.736 1009.05 81.368 1010.14 81.368C1011.23 81.368 1012.15 81.736 1012.92 82.472C1013.69 83.176 1014.07 84.136 1014.07 85.352C1014.07 86.504 1013.69 87.464 1012.92 88.232C1012.15 88.968 1011.23 89.336 1010.14 89.336Z" fill="#535353"/>
<path fill-rule="evenodd" clip-rule="evenodd" d="M92.3557 49.6428C93.6575 50.9446 93.6575 53.0551 92.3557 54.3569L74.7127 71.9998L92.3557 89.6428C93.6575 90.9446 93.6575 93.0551 92.3557 94.3569C91.054 95.6586 88.9434 95.6586 87.6417 94.3569L67.6417 74.3569C66.3399 73.0551 66.3399 70.9446 67.6417 69.6428L87.6417 49.6428C88.9434 48.3411 91.054 48.3411 92.3557 49.6428Z" fill="#2F2F2F"/>
<path d="M681.597 55.4H687.837V89H681.597V55.4ZM664.221 89H657.981V55.4H664.221V89ZM682.077 74.6H663.693V69.272H682.077V74.6ZM707.784 89.336C705.16 89.336 702.824 88.776 700.776 87.656C698.728 86.504 697.112 84.936 695.928 82.952C694.744 80.968 694.152 78.712 694.152 76.184C694.152 73.624 694.744 71.368 695.928 69.416C697.112 67.432 698.728 65.88 700.776 64.76C702.824 63.64 705.16 63.08 707.784 63.08C710.44 63.08 712.792 63.64 714.84 64.76C716.92 65.88 718.536 67.416 719.688 69.368C720.872 71.32 721.464 73.592 721.464 76.184C721.464 78.712 720.872 80.968 719.688 82.952C718.536 84.936 716.92 86.504 714.84 87.656C712.792 88.776 710.44 89.336 707.784 89.336ZM707.784 84.2C709.256 84.2 710.568 83.88 711.72 83.24C712.872 82.6 713.768 81.672 714.408 80.456C715.08 79.24 715.416 77.816 715.416 76.184C715.416 74.52 715.08 73.096 714.408 71.912C713.768 70.696 712.872 69.768 711.72 69.128C710.568 68.488 709.272 68.168 707.832 68.168C706.36 68.168 705.048 68.488 703.896 69.128C702.776 69.768 701.88 70.696 701.208 71.912C700.536 73.096 700.2 74.52 700.2 76.184C700.2 77.816 700.536 79.24 701.208 80.456C701.88 81.672 702.776 82.6 703.896 83.24C705.048 83.88 706.344 84.2 707.784 84.2ZM727.202 89V63.368H732.914V70.424L732.242 68.36C733.01 66.632 734.21 65.32 735.842 64.424C737.506 63.528 739.57 63.08 742.034 63.08V68.792C741.778 68.728 741.538 68.696 741.314 68.696C741.09 68.664 740.866 68.648 740.642 68.648C738.37 68.648 736.562 69.32 735.218 70.664C733.874 71.976 733.202 73.944 733.202 76.568V89H727.202ZM761.087 89V83.816L760.751 82.712V73.64C760.751 71.88 760.223 70.52 759.167 69.56C758.111 68.568 756.511 68.072 754.367 68.072C752.927 68.072 751.503 68.296 750.095 68.744C748.719 69.192 747.551 69.816 746.591 70.616L744.239 66.248C745.615 65.192 747.247 64.408 749.135 63.896C751.055 63.352 753.039 63.08 755.087 63.08C758.799 63.08 761.663 63.976 763.679 65.768C765.727 67.528 766.751 70.264 766.751 73.976V89H761.087ZM753.023 89.336C751.103 89.336 749.423 89.016 747.983 88.376C746.543 87.704 745.423 86.792 744.623 85.64C743.855 84.456 743.471 83.128 743.471 81.656C743.471 80.216 743.807 78.92 744.479 77.768C745.183 76.616 746.319 75.704 747.887 75.032C749.455 74.36 751.535 74.024 754.127 74.024H761.567V78.008H754.559C752.511 78.008 751.135 78.344 750.431 79.016C749.727 79.656 749.375 80.456 749.375 81.416C749.375 82.504 749.807 83.368 750.671 84.008C751.535 84.648 752.735 84.968 754.271 84.968C755.743 84.968 757.055 84.632 758.207 83.96C759.391 83.288 760.239 82.296 760.751 80.984L761.759 84.584C761.183 86.088 760.143 87.256 758.639 88.088C757.167 88.92 755.295 89.336 753.023 89.336ZM776.372 71.048C775.284 71.048 774.356 70.68 773.588 69.944C772.82 69.176 772.436 68.216 772.436 67.064C772.436 65.848 772.82 64.888 773.588 64.184C774.356 63.448 775.284 63.08 776.372 63.08C777.46 63.08 778.388 63.448 779.156 64.184C779.924 64.888 780.308 65.848 780.308 67.064C780.308 68.216 779.924 69.176 779.156 69.944C778.388 70.68 777.46 71.048 776.372 71.048ZM776.372 89.336C775.284 89.336 774.356 88.968 773.588 88.232C772.82 87.464 772.436 86.504 772.436 85.352C772.436 84.136 772.82 83.176 773.588 82.472C774.356 81.736 775.284 81.368 776.372 81.368C777.46 81.368 778.388 81.736 779.156 82.472C779.924 83.176 780.308 84.136 780.308 85.352C780.308 86.504 779.924 87.464 779.156 88.232C778.388 88.968 777.46 89.336 776.372 89.336ZM802.988 89V57.8L805.724 60.632H795.884V55.4H809.228V89H802.988ZM821.269 89V57.8L824.005 60.632H814.165V55.4H827.509V89H821.269ZM837.919 71.048C836.831 71.048 835.903 70.68 835.135 69.944C834.367 69.176 833.983 68.216 833.983 67.064C833.983 65.848 834.367 64.888 835.135 64.184C835.903 63.448 836.831 63.08 837.919 63.08C839.007 63.08 839.935 63.448 840.703 64.184C841.471 64.888 841.855 65.848 841.855 67.064C841.855 68.216 841.471 69.176 840.703 69.944C839.935 70.68 839.007 71.048 837.919 71.048ZM837.919 89.336C836.831 89.336 835.903 88.968 835.135 88.232C834.367 87.464 833.983 86.504 833.983 85.352C833.983 84.136 834.367 83.176 835.135 82.472C835.903 81.736 836.831 81.368 837.919 81.368C839.007 81.368 839.935 81.736 840.703 82.472C841.471 83.176 841.855 84.136 841.855 85.352C841.855 86.504 841.471 87.464 840.703 88.232C839.935 88.968 839.007 89.336 837.919 89.336ZM857.029 89.48C854.661 89.48 852.341 89.144 850.069 88.472C847.829 87.768 845.941 86.808 844.405 85.592L847.045 80.744C848.261 81.736 849.733 82.536 851.461 83.144C853.221 83.752 855.045 84.056 856.933 84.056C859.141 84.056 860.869 83.592 862.117 82.664C863.397 81.736 864.037 80.488 864.037 78.92C864.037 77.864 863.765 76.936 863.221 76.136C862.709 75.336 861.781 74.728 860.437 74.312C859.125 73.896 857.317 73.688 855.013 73.688H846.901L848.629 55.4H868.357V60.632H850.933L854.197 57.656L852.901 71.336L849.637 68.408H856.405C859.733 68.408 862.405 68.856 864.421 69.752C866.469 70.616 867.957 71.832 868.885 73.4C869.845 74.936 870.325 76.696 870.325 78.68C870.325 80.632 869.845 82.424 868.885 84.056C867.925 85.688 866.453 87 864.469 87.992C862.517 88.984 860.037 89.48 857.029 89.48ZM884.826 89.48C882.458 89.48 880.138 89.144 877.866 88.472C875.626 87.768 873.738 86.808 872.202 85.592L874.842 80.744C876.058 81.736 877.53 82.536 879.258 83.144C881.018 83.752 882.842 84.056 884.73 84.056C886.938 84.056 888.666 83.592 889.914 82.664C891.194 81.736 891.834 80.488 891.834 78.92C891.834 77.864 891.562 76.936 891.018 76.136C890.506 75.336 889.578 74.728 888.234 74.312C886.922 73.896 885.114 73.688 882.81 73.688H874.698L876.426 55.4H896.154V60.632H878.73L881.994 57.656L880.698 71.336L877.434 68.408H884.202C887.53 68.408 890.202 68.856 892.218 69.752C894.266 70.616 895.754 71.832 896.682 73.4C897.642 74.936 898.122 76.696 898.122 78.68C898.122 80.632 897.642 82.424 896.682 84.056C895.722 85.688 894.25 87 892.266 87.992C890.314 88.984 887.834 89.48 884.826 89.48ZM932.603 89V83.816L932.267 82.712V73.64C932.267 71.88 931.739 70.52 930.683 69.56C929.627 68.568 928.027 68.072 925.883 68.072C924.443 68.072 923.019 68.296 921.611 68.744C920.235 69.192 919.067 69.816 918.107 70.616L915.755 66.248C917.131 65.192 918.763 64.408 920.651 63.896C922.571 63.352 924.555 63.08 926.603 63.08C930.315 63.08 933.179 63.976 935.195 65.768C937.243 67.528 938.267 70.264 938.267 73.976V89H932.603ZM924.539 89.336C922.619 89.336 920.939 89.016 919.499 88.376C918.059 87.704 916.939 86.792 916.139 85.64C915.371 84.456 914.987 83.128 914.987 81.656C914.987 80.216 915.323 78.92 915.995 77.768C916.699 76.616 917.835 75.704 919.403 75.032C920.971 74.36 923.051 74.024 925.643 74.024H933.083V78.008H926.075C924.027 78.008 922.651 78.344 921.947 79.016C921.243 79.656 920.891 80.456 920.891 81.416C920.891 82.504 921.323 83.368 922.187 84.008C923.051 84.648 924.251 84.968 925.787 84.968C927.259 84.968 928.571 84.632 929.723 83.96C930.907 83.288 931.755 82.296 932.267 80.984L933.275 84.584C932.699 86.088 931.659 87.256 930.155 88.088C928.683 88.92 926.811 89.336 924.539 89.336ZM947.887 89.336C946.799 89.336 945.871 88.968 945.103 88.232C944.335 87.464 943.951 86.504 943.951 85.352C943.951 84.136 944.335 83.176 945.103 82.472C945.871 81.736 946.799 81.368 947.887 81.368C948.975 81.368 949.903 81.736 950.671 82.472C951.439 83.176 951.823 84.136 951.823 85.352C951.823 86.504 951.439 87.464 950.671 88.232C949.903 88.968 948.975 89.336 947.887 89.336ZM990.038 63.08C992.086 63.08 993.894 63.48 995.462 64.28C997.062 65.08 998.31 66.312 999.206 67.976C1000.1 69.608 1000.55 71.72 1000.55 74.312V89H994.55V75.08C994.55 72.808 994.054 71.112 993.062 69.992C992.07 68.872 990.646 68.312 988.79 68.312C987.478 68.312 986.31 68.6 985.286 69.176C984.294 69.752 983.51 70.6 982.934 71.72C982.39 72.84 982.118 74.264 982.118 75.992V89H976.118V75.08C976.118 72.808 975.622 71.112 974.63 69.992C973.638 68.872 972.214 68.312 970.358 68.312C969.046 68.312 967.878 68.6 966.854 69.176C965.862 69.752 965.078 70.6 964.502 71.72C963.958 72.84 963.686 74.264 963.686 75.992V89H957.686V63.368H963.398V70.184L962.39 68.168C963.254 66.504 964.502 65.24 966.134 64.376C967.798 63.512 969.686 63.08 971.798 63.08C974.198 63.08 976.278 63.672 978.038 64.856C979.83 66.04 981.014 67.832 981.59 70.232L979.238 69.416C980.07 67.496 981.446 65.96 983.366 64.808C985.286 63.656 987.51 63.08 990.038 63.08ZM1010.14 89.336C1009.05 89.336 1008.12 88.968 1007.35 88.232C1006.59 87.464 1006.2 86.504 1006.2 85.352C1006.2 84.136 1006.59 83.176 1007.35 82.472C1008.12 81.736 1009.05 81.368 1010.14 81.368C1011.23 81.368 1012.15 81.736 1012.92 82.472C1013.69 83.176 1014.07 84.136 1014.07 85.352C1014.07 86.504 1013.69 87.464 1012.92 88.232C1012.15 88.968 1011.23 89.336 1010.14 89.336Z" fill="#535353"/>
<path fill-rule="evenodd" clip-rule="evenodd" d="M92.3557 49.6428C93.6575 50.9446 93.6575 53.0551 92.3557 54.3569L74.7127 71.9998L92.3557 89.6428C93.6575 90.9446 93.6575 93.0551 92.3557 94.3569C91.054 95.6586 88.9434 95.6586 87.6417 94.3569L67.6417 74.3569C66.3399 73.0551 66.3399 70.9446 67.6417 69.6428L87.6417 49.6428C88.9434 48.3411 91.054 48.3411 92.3557 49.6428Z" fill="#2F2F2F"/>
<path d="M64 1696C64 1687.16 71.1634 1680 80 1680H1000C1008.84 1680 1016 1687.16 1016 1696V1808C1016 1816.84 1008.84 1824 1000 1824H80C71.1634 1824 64 1816.84 64 1808V1696Z" fill="#0033A0"/>
<path d="M433.064 1769.58C430.472 1769.58 428.056 1769.16 425.816 1768.33C423.608 1767.46 421.688 1766.25 420.056 1764.68C418.424 1763.11 417.144 1761.27 416.216 1759.16C415.32 1757.05 414.872 1754.73 414.872 1752.2C414.872 1749.67 415.32 1747.35 416.216 1745.24C417.144 1743.13 418.424 1741.29 420.056 1739.72C421.72 1738.15 423.656 1736.95 425.864 1736.12C428.072 1735.26 430.488 1734.82 433.112 1734.82C436.024 1734.82 438.648 1735.34 440.984 1736.36C443.352 1737.35 445.336 1738.82 446.936 1740.78L441.944 1745.38C440.792 1744.07 439.512 1743.1 438.104 1742.46C436.696 1741.78 435.16 1741.45 433.496 1741.45C431.928 1741.45 430.488 1741.7 429.176 1742.22C427.864 1742.73 426.728 1743.46 425.768 1744.42C424.808 1745.38 424.056 1746.52 423.512 1747.83C423 1749.14 422.744 1750.6 422.744 1752.2C422.744 1753.8 423 1755.26 423.512 1756.57C424.056 1757.88 424.808 1759.02 425.768 1759.98C426.728 1760.94 427.864 1761.67 429.176 1762.18C430.488 1762.7 431.928 1762.95 433.496 1762.95C435.16 1762.95 436.696 1762.63 438.104 1761.99C439.512 1761.32 440.792 1760.31 441.944 1758.97L446.936 1763.58C445.336 1765.53 443.352 1767.02 440.984 1768.04C438.648 1769.06 436.008 1769.58 433.064 1769.58ZM463.057 1769.38C460.305 1769.38 457.857 1768.81 455.713 1767.66C453.601 1766.5 451.921 1764.94 450.673 1762.95C449.457 1760.94 448.849 1758.65 448.849 1756.09C448.849 1753.5 449.457 1751.21 450.673 1749.22C451.921 1747.21 453.601 1745.64 455.713 1744.52C457.857 1743.37 460.305 1742.79 463.057 1742.79C465.777 1742.79 468.209 1743.37 470.353 1744.52C472.497 1745.64 474.177 1747.19 475.393 1749.18C476.609 1751.16 477.217 1753.46 477.217 1756.09C477.217 1758.65 476.609 1760.94 475.393 1762.95C474.177 1764.94 472.497 1766.5 470.353 1767.66C468.209 1768.81 465.777 1769.38 463.057 1769.38ZM463.057 1763.24C464.305 1763.24 465.425 1762.95 466.417 1762.38C467.409 1761.8 468.193 1760.98 468.769 1759.93C469.345 1758.84 469.633 1757.56 469.633 1756.09C469.633 1754.58 469.345 1753.3 468.769 1752.25C468.193 1751.19 467.409 1750.38 466.417 1749.8C465.425 1749.22 464.305 1748.94 463.057 1748.94C461.809 1748.94 460.689 1749.22 459.697 1749.8C458.705 1750.38 457.905 1751.19 457.297 1752.25C456.721 1753.3 456.433 1754.58 456.433 1756.09C456.433 1757.56 456.721 1758.84 457.297 1759.93C457.905 1760.98 458.705 1761.8 459.697 1762.38C460.689 1762.95 461.809 1763.24 463.057 1763.24ZM497.918 1742.79C499.966 1742.79 501.79 1743.21 503.39 1744.04C505.022 1744.84 506.302 1746.09 507.23 1747.78C508.158 1749.45 508.622 1751.59 508.622 1754.22V1769H501.134V1755.37C501.134 1753.29 500.67 1751.75 499.742 1750.76C498.846 1749.77 497.566 1749.27 495.902 1749.27C494.718 1749.27 493.646 1749.53 492.686 1750.04C491.758 1750.52 491.022 1751.27 490.478 1752.3C489.966 1753.32 489.71 1754.63 489.71 1756.23V1769H482.222V1743.18H489.374V1750.33L488.03 1748.17C488.958 1746.44 490.286 1745.11 492.014 1744.18C493.742 1743.26 495.71 1742.79 497.918 1742.79ZM516.321 1769V1742.6C516.321 1739.69 517.185 1737.37 518.913 1735.64C520.641 1733.88 523.105 1733 526.305 1733C527.393 1733 528.433 1733.11 529.425 1733.34C530.449 1733.56 531.313 1733.91 532.017 1734.39L530.049 1739.82C529.633 1739.53 529.169 1739.3 528.657 1739.14C528.145 1738.98 527.601 1738.9 527.025 1738.9C525.937 1738.9 525.089 1739.22 524.481 1739.86C523.905 1740.47 523.617 1741.4 523.617 1742.65V1745.05L523.809 1748.26V1769H516.321ZM512.337 1749.51V1743.75H530.241V1749.51H512.337ZM534.465 1769V1743.18H541.953V1769H534.465ZM538.209 1739.58C536.833 1739.58 535.713 1739.18 534.849 1738.38C533.985 1737.58 533.553 1736.58 533.553 1735.4C533.553 1734.22 533.985 1733.22 534.849 1732.42C535.713 1731.62 536.833 1731.22 538.209 1731.22C539.585 1731.22 540.705 1731.61 541.569 1732.38C542.433 1733.11 542.865 1734.07 542.865 1735.26C542.865 1736.5 542.433 1737.54 541.569 1738.38C540.737 1739.18 539.617 1739.58 538.209 1739.58ZM548.878 1769V1743.18H556.03V1750.47L555.022 1748.36C555.79 1746.54 557.022 1745.16 558.718 1744.23C560.414 1743.27 562.478 1742.79 564.91 1742.79V1749.7C564.59 1749.67 564.302 1749.66 564.046 1749.66C563.79 1749.62 563.518 1749.61 563.23 1749.61C561.182 1749.61 559.518 1750.2 558.238 1751.38C556.99 1752.54 556.366 1754.34 556.366 1756.81V1769H548.878ZM602.481 1742.79C604.529 1742.79 606.337 1743.21 607.905 1744.04C609.505 1744.84 610.753 1746.09 611.649 1747.78C612.577 1749.45 613.041 1751.59 613.041 1754.22V1769H605.553V1755.37C605.553 1753.29 605.121 1751.75 604.257 1750.76C603.393 1749.77 602.177 1749.27 600.609 1749.27C599.521 1749.27 598.545 1749.53 597.681 1750.04C596.817 1750.52 596.145 1751.26 595.665 1752.25C595.185 1753.24 594.945 1754.5 594.945 1756.04V1769H587.457V1755.37C587.457 1753.29 587.025 1751.75 586.161 1750.76C585.329 1749.77 584.129 1749.27 582.561 1749.27C581.473 1749.27 580.497 1749.53 579.633 1750.04C578.769 1750.52 578.097 1751.26 577.617 1752.25C577.137 1753.24 576.897 1754.5 576.897 1756.04V1769H569.409V1743.18H576.561V1750.23L575.217 1748.17C576.113 1746.41 577.377 1745.08 579.009 1744.18C580.673 1743.26 582.561 1742.79 584.673 1742.79C587.041 1742.79 589.105 1743.4 590.865 1744.62C592.657 1745.8 593.841 1747.62 594.417 1750.09L591.777 1749.37C592.641 1747.35 594.017 1745.75 595.905 1744.57C597.825 1743.38 600.017 1742.79 602.481 1742.79ZM635.593 1769V1763.96L635.113 1762.86V1753.83C635.113 1752.23 634.617 1750.98 633.625 1750.09C632.665 1749.19 631.177 1748.74 629.161 1748.74C627.785 1748.74 626.425 1748.97 625.081 1749.42C623.769 1749.83 622.649 1750.41 621.721 1751.14L619.033 1745.91C620.441 1744.92 622.137 1744.15 624.121 1743.61C626.105 1743.06 628.121 1742.79 630.169 1742.79C634.105 1742.79 637.161 1743.72 639.337 1745.58C641.513 1747.43 642.601 1750.33 642.601 1754.26V1769H635.593ZM627.721 1769.38C625.705 1769.38 623.977 1769.05 622.537 1768.38C621.097 1767.67 619.993 1766.73 619.225 1765.54C618.457 1764.36 618.073 1763.03 618.073 1761.56C618.073 1760.02 618.441 1758.68 619.177 1757.53C619.945 1756.38 621.145 1755.48 622.777 1754.84C624.409 1754.17 626.537 1753.83 629.161 1753.83H636.025V1758.2H629.977C628.217 1758.2 627.001 1758.49 626.329 1759.06C625.689 1759.64 625.369 1760.36 625.369 1761.22C625.369 1762.18 625.737 1762.95 626.473 1763.53C627.241 1764.07 628.281 1764.34 629.593 1764.34C630.841 1764.34 631.961 1764.06 632.953 1763.48C633.945 1762.87 634.665 1761.99 635.113 1760.84L636.265 1764.3C635.721 1765.96 634.729 1767.22 633.289 1768.09C631.849 1768.95 629.993 1769.38 627.721 1769.38ZM649.378 1769V1743.18H656.53V1750.47L655.522 1748.36C656.29 1746.54 657.522 1745.16 659.218 1744.23C660.914 1743.27 662.978 1742.79 665.41 1742.79V1749.7C665.09 1749.67 664.802 1749.66 664.546 1749.66C664.29 1749.62 664.018 1749.61 663.73 1749.61C661.682 1749.61 660.018 1750.2 658.738 1751.38C657.49 1752.54 656.866 1754.34 656.866 1756.81V1769H649.378Z" fill="white"/>
</g>
<defs>
<clipPath id="clip0_3524_28788">
<rect width="1080" height="1920" fill="white"/>
</clipPath>
</defs>
</svg>
