<svg width="1280" height="720" viewBox="0 0 1280 720" fill="none" xmlns="http://www.w3.org/2000/svg">
<g clip-path="url(#clip0_119_2)">
<rect width="1280" height="720" fill="white"/>
<rect width="1280" height="720" fill="#00BFD6"/>
<g filter="url(#filter0_d_119_2)">
<rect x="341" y="68" width="597" height="584" rx="5" fill="white"/>
</g>
<path d="M720.172 194.692C719.296 195.565 719.254 196.571 720.172 197.493C726.17 203.526 728.182 205.629 733.198 207.807C738.225 209.985 742.937 208.505 745.611 206.401C748.829 203.478 762.752 189.367 762.752 189.367C763.627 188.483 763.627 187.45 762.758 186.571L760.703 184.484C759.828 183.61 758.792 183.61 757.923 184.484C757.923 184.484 747.217 195.416 743.423 199.234C739.442 203.244 736.181 202.109 733.977 200.794C731.901 199.559 729.932 197.525 729.265 196.774C728.673 196.108 728.454 195.842 728.454 195.842L746.107 178.413L728.459 161.001C728.459 161.001 728.683 160.74 729.276 160.074C729.943 159.323 731.917 157.284 733.988 156.054C736.187 154.744 739.447 153.604 743.428 157.614C747.228 161.437 767.384 181.88 767.384 181.88C768.26 182.758 769.29 182.758 770.165 181.88L772.219 179.792C773.089 178.914 773.089 177.881 772.214 176.997C772.214 176.997 748.84 153.37 745.616 150.447C742.948 148.343 738.231 146.858 733.209 149.041C728.187 151.229 726.181 153.322 720.182 159.361C719.27 160.282 719.307 161.288 720.182 162.167L736.469 178.419L720.172 194.692Z" fill="#00BFD6"/>
<path d="M533.593 164.489H536.843C537.703 164.489 538.258 164.936 538.258 165.681C538.258 165.798 538.258 165.953 538.22 166.097C535.685 177.061 531.731 188.137 529.751 192.642H521.319C519.345 188.137 515.241 177.061 512.855 166.102C512.818 165.953 512.818 165.804 512.818 165.687C512.818 164.941 513.373 164.494 514.238 164.494H518.08C519.089 164.494 519.681 165.096 519.91 166.102C521.357 172.939 524.089 182.998 525.69 186.933C527.296 182.998 530.279 172.939 531.774 166.102C531.992 165.09 532.553 164.489 533.593 164.489Z" fill="#00BFD6"/>
<path d="M552.277 191.023C552.277 192.04 551.684 192.636 550.676 192.636H547.468C546.46 192.636 545.867 192.035 545.867 191.023V166.102C545.867 165.09 546.46 164.494 547.468 164.494H550.676C551.684 164.494 552.277 165.096 552.277 166.102V191.023Z" fill="#00BFD6"/>
<path d="M573.692 170.042V191.023C573.692 192.04 573.095 192.636 572.086 192.636H568.879C567.833 192.636 567.273 192.035 567.273 191.023V170.042H561.306C560.266 170.042 559.7 169.478 559.7 168.424V166.097C559.7 165.085 560.266 164.489 561.306 164.489H579.659C580.667 164.489 581.265 165.09 581.265 166.097V168.424C581.265 169.478 580.667 170.042 579.659 170.042H573.692Z" fill="#00BFD6"/>
<path d="M593.321 180.889H600.114C598.881 176.086 597.617 171.502 596.795 169.627C596.042 171.507 594.66 176.086 593.321 180.889ZM601.496 186.481H591.869C591.458 188.131 591.047 189.67 590.748 191.023C590.487 192.04 589.889 192.636 588.886 192.636H585.641C584.782 192.636 584.222 192.184 584.222 191.47C584.222 191.326 584.259 191.172 584.302 191.023C585.492 186.033 586.015 184.564 587.173 180.629C588.918 174.622 591.837 166.704 592.99 164.489H600.861C602.051 166.704 604.96 174.622 606.715 180.629C607.873 184.564 608.396 186.039 609.587 191.023C609.624 191.172 609.667 191.326 609.667 191.47C609.667 192.189 609.101 192.636 608.247 192.636H604.405C603.396 192.636 602.761 192.035 602.537 191.023C602.201 189.676 601.864 188.137 601.496 186.481Z" fill="#00BFD6"/>
<path d="M623.697 170.069V180.048H626.306C629.812 180.048 631.269 178.887 631.269 174.76C631.269 170.969 629.818 170.069 626.306 170.069H623.697ZM623.697 185.607V191.049C623.697 192.067 623.099 192.668 622.09 192.668H618.883C617.88 192.668 617.282 192.067 617.282 191.049V166.123C617.282 165.112 617.885 164.515 618.883 164.515H627.502C633.884 164.515 637.988 167.439 637.988 174.76C637.988 182.679 633.02 185.602 626.909 185.602H623.697V185.607Z" fill="#00BFD6"/>
<path d="M652.354 170.069V178.893H654.969C658.47 178.893 659.932 177.732 659.932 174.201C659.932 170.671 658.47 170.069 654.969 170.069H652.354ZM656.276 184.297H652.354V191.049C652.354 192.067 651.762 192.668 650.748 192.668H647.54C646.532 192.668 645.939 192.067 645.939 191.049V166.123C645.939 165.112 646.532 164.515 647.54 164.515H656.159C662.536 164.515 666.64 166.581 666.64 173.898C666.64 178.403 664.441 180.655 662.131 182.119C664.479 184.036 667.051 188.541 667.985 191.049C668.06 191.278 668.102 191.465 668.102 191.651C668.102 192.29 667.542 192.668 666.758 192.668H662.803C661.8 192.668 661.197 192.067 660.829 191.049C659.895 188.802 658.064 185.421 656.276 184.297Z" fill="#00BFD6"/>
<path d="M693.126 179.042V177.844C693.126 173.035 691.818 169.808 687.004 169.808C682.196 169.808 680.889 173.035 680.889 177.844V179.042C680.889 183.887 682.196 187.37 687.004 187.37C691.818 187.37 693.126 183.882 693.126 179.042ZM674.175 179.042V177.844C674.175 169.207 678.391 164.217 687.004 164.217C695.586 164.217 699.839 169.207 699.839 177.844V179.042C699.839 187.674 695.586 192.972 687.004 192.972C678.391 192.972 674.175 187.674 674.175 179.042Z" fill="#00BFD6"/>
<path d="M515.644 255L511.042 248.292L510.47 247.408L510.444 247.421L510.457 248.474V255H509.261V245.25H510.47L515.41 252.621L515.436 252.608L515.41 251.568V245.25H516.593V255H515.644ZM525.108 251.152C525.108 251.871 525.043 252.487 524.913 252.998C524.783 253.501 524.583 253.917 524.315 254.246C524.046 254.567 523.699 254.801 523.275 254.948C522.859 255.095 522.36 255.169 521.78 255.169C521.19 255.169 520.683 255.095 520.259 254.948C519.834 254.801 519.483 254.567 519.206 254.246C518.937 253.917 518.733 253.501 518.595 252.998C518.465 252.487 518.4 251.871 518.4 251.152C518.4 250.433 518.465 249.822 518.595 249.319C518.733 248.808 518.941 248.392 519.219 248.071C519.496 247.742 519.847 247.503 520.272 247.356C520.696 247.2 521.199 247.122 521.78 247.122C522.36 247.122 522.859 247.2 523.275 247.356C523.699 247.503 524.046 247.742 524.315 248.071C524.592 248.392 524.791 248.808 524.913 249.319C525.043 249.822 525.108 250.433 525.108 251.152ZM519.674 251.152C519.674 251.707 519.713 252.175 519.791 252.556C519.869 252.937 519.99 253.245 520.155 253.479C520.328 253.713 520.545 253.882 520.805 253.986C521.073 254.081 521.398 254.129 521.78 254.129C522.152 254.129 522.469 254.077 522.729 253.973C522.997 253.869 523.214 253.7 523.379 253.466C523.543 253.232 523.66 252.929 523.73 252.556C523.808 252.175 523.847 251.707 523.847 251.152C523.847 250.597 523.808 250.129 523.73 249.748C523.66 249.367 523.543 249.059 523.379 248.825C523.214 248.591 522.997 248.426 522.729 248.331C522.469 248.227 522.152 248.175 521.78 248.175C521.398 248.175 521.073 248.227 520.805 248.331C520.545 248.426 520.328 248.591 520.155 248.825C519.99 249.059 519.869 249.367 519.791 249.748C519.713 250.129 519.674 250.597 519.674 251.152ZM535.589 255V249.852C535.589 249.306 535.446 248.907 535.16 248.656C534.874 248.396 534.479 248.266 533.977 248.266C533.561 248.266 533.201 248.387 532.898 248.63C532.594 248.873 532.443 249.237 532.443 249.722V255H531.221V249.722C531.221 249.462 531.182 249.241 531.104 249.059C531.026 248.868 530.917 248.717 530.779 248.604C530.64 248.483 530.48 248.396 530.298 248.344C530.116 248.283 529.916 248.253 529.7 248.253C529.37 248.253 529.054 248.335 528.751 248.5C528.456 248.656 528.231 248.864 528.075 249.124V255H526.84V247.278L527.724 247.213L527.945 248.045H527.984C528.218 247.759 528.512 247.538 528.868 247.382C529.223 247.217 529.596 247.135 529.986 247.135C531.017 247.135 531.715 247.529 532.079 248.318H532.105C532.33 247.911 532.629 247.612 533.002 247.421C533.383 247.222 533.812 247.122 534.289 247.122C534.661 247.122 535.004 247.178 535.316 247.291C535.628 247.404 535.892 247.573 536.109 247.798C536.334 248.023 536.507 248.305 536.629 248.643C536.75 248.981 536.811 249.38 536.811 249.839V255H535.589ZM545.324 251.1C545.324 251.828 545.254 252.448 545.116 252.959C544.977 253.47 544.773 253.891 544.505 254.22C544.245 254.541 543.924 254.775 543.543 254.922C543.161 255.069 542.724 255.143 542.23 255.143C541.744 255.143 541.307 255.061 540.917 254.896C540.535 254.723 540.223 254.484 539.981 254.181L539.942 254.194L539.747 255H538.928V244.73L540.15 244.652V246.927L540.137 247.967L540.163 247.98C540.44 247.685 540.769 247.469 541.151 247.33C541.532 247.183 541.939 247.109 542.373 247.109C542.823 247.109 543.231 247.178 543.595 247.317C543.959 247.456 544.266 247.685 544.518 248.006C544.778 248.318 544.977 248.73 545.116 249.241C545.254 249.744 545.324 250.363 545.324 251.1ZM544.076 251.126C544.076 250.537 544.028 250.056 543.933 249.683C543.846 249.302 543.716 249.007 543.543 248.799C543.369 248.582 543.157 248.435 542.906 248.357C542.654 248.27 542.368 248.227 542.048 248.227C541.632 248.227 541.259 248.309 540.93 248.474C540.609 248.63 540.349 248.855 540.15 249.15V253.167C540.306 253.418 540.544 253.639 540.865 253.83C541.185 254.021 541.584 254.116 542.061 254.116C542.364 254.116 542.637 254.073 542.88 253.986C543.131 253.899 543.343 253.748 543.517 253.531C543.699 253.306 543.837 252.998 543.933 252.608C544.028 252.218 544.076 251.724 544.076 251.126ZM547.038 255V247.304L548.026 247.239L548.13 248.903H548.156C548.399 248.34 548.724 247.906 549.131 247.603C549.538 247.291 550.006 247.135 550.535 247.135C550.821 247.135 551.077 247.17 551.302 247.239L551.224 248.487C551.103 248.444 550.977 248.418 550.847 248.409C550.726 248.392 550.596 248.383 550.457 248.383C550.154 248.383 549.868 248.448 549.599 248.578C549.339 248.699 549.109 248.877 548.91 249.111C548.711 249.336 548.555 249.618 548.442 249.956C548.329 250.285 548.273 250.658 548.273 251.074V255H547.038ZM555.77 255.156C554.496 255.156 553.578 254.814 553.014 254.129C552.451 253.436 552.169 252.365 552.169 250.918C552.169 249.696 552.434 248.76 552.962 248.11C553.491 247.451 554.293 247.122 555.367 247.122C555.827 247.122 556.243 247.191 556.615 247.33C556.997 247.469 557.317 247.685 557.577 247.98C557.846 248.275 558.054 248.647 558.201 249.098C558.349 249.54 558.422 250.073 558.422 250.697C558.422 250.792 558.418 250.896 558.409 251.009C558.409 251.113 558.405 251.208 558.396 251.295H553.43C553.448 251.806 553.508 252.24 553.612 252.595C553.716 252.942 553.868 253.223 554.067 253.44C554.275 253.648 554.531 253.8 554.834 253.895C555.138 253.99 555.497 254.038 555.913 254.038C556.303 254.038 556.667 253.999 557.005 253.921C557.352 253.834 557.69 253.709 558.019 253.544L558.162 254.584C557.833 254.757 557.469 254.896 557.07 255C556.672 255.104 556.238 255.156 555.77 255.156ZM557.291 250.45C557.283 250.043 557.231 249.696 557.135 249.41C557.04 249.124 556.91 248.89 556.745 248.708C556.581 248.526 556.381 248.396 556.147 248.318C555.913 248.231 555.658 248.188 555.38 248.188C554.722 248.188 554.236 248.374 553.924 248.747C553.621 249.111 553.448 249.679 553.404 250.45H557.291ZM571.645 255L571.489 254.194L571.45 254.181C570.956 254.831 570.193 255.156 569.162 255.156C568.113 255.156 567.355 254.831 566.887 254.181C566.419 253.522 566.185 252.5 566.185 251.113C566.185 249.796 566.423 248.799 566.9 248.123C567.377 247.447 568.135 247.109 569.175 247.109C569.608 247.109 570.011 247.183 570.384 247.33C570.757 247.477 571.082 247.694 571.359 247.98L571.385 247.967L571.359 246.927V244.743L572.594 244.665V255H571.645ZM571.359 249.137C571.194 248.868 570.947 248.656 570.618 248.5C570.297 248.335 569.929 248.253 569.513 248.253C569.132 248.253 568.811 248.305 568.551 248.409C568.291 248.513 568.079 248.682 567.914 248.916C567.758 249.15 567.641 249.453 567.563 249.826C567.494 250.19 567.459 250.636 567.459 251.165C567.459 251.711 567.494 252.175 567.563 252.556C567.632 252.929 567.745 253.232 567.901 253.466C568.057 253.7 568.265 253.869 568.525 253.973C568.785 254.077 569.11 254.129 569.5 254.129C569.769 254.129 570.007 254.099 570.215 254.038C570.423 253.977 570.601 253.904 570.748 253.817C570.904 253.722 571.03 253.618 571.125 253.505C571.229 253.392 571.307 253.284 571.359 253.18V249.137ZM577.936 255.156C576.662 255.156 575.744 254.814 575.18 254.129C574.617 253.436 574.335 252.365 574.335 250.918C574.335 249.696 574.6 248.76 575.128 248.11C575.657 247.451 576.459 247.122 577.533 247.122C577.993 247.122 578.409 247.191 578.781 247.33C579.163 247.469 579.483 247.685 579.743 247.98C580.012 248.275 580.22 248.647 580.367 249.098C580.515 249.54 580.588 250.073 580.588 250.697C580.588 250.792 580.584 250.896 580.575 251.009C580.575 251.113 580.571 251.208 580.562 251.295H575.596C575.614 251.806 575.674 252.24 575.778 252.595C575.882 252.942 576.034 253.223 576.233 253.44C576.441 253.648 576.697 253.8 577 253.895C577.304 253.99 577.663 254.038 578.079 254.038C578.469 254.038 578.833 253.999 579.171 253.921C579.518 253.834 579.856 253.709 580.185 253.544L580.328 254.584C579.999 254.757 579.635 254.896 579.236 255C578.838 255.104 578.404 255.156 577.936 255.156ZM579.457 250.45C579.449 250.043 579.397 249.696 579.301 249.41C579.206 249.124 579.076 248.89 578.911 248.708C578.747 248.526 578.547 248.396 578.313 248.318C578.079 248.231 577.824 248.188 577.546 248.188C576.888 248.188 576.402 248.374 576.09 248.747C575.787 249.111 575.614 249.679 575.57 250.45H579.457ZM594.695 252.452C594.695 253.319 594.448 253.986 593.954 254.454C593.46 254.913 592.702 255.143 591.679 255.143C590.656 255.143 589.898 254.909 589.404 254.441C588.919 253.973 588.676 253.31 588.676 252.452V247.252H589.898V252.426C589.898 253.483 590.496 254.012 591.692 254.012C592.879 254.012 593.473 253.483 593.473 252.426V247.252H594.695V252.452ZM601.498 252.725C601.498 253.453 601.281 254.042 600.848 254.493C600.415 254.935 599.721 255.156 598.768 255.156C598.3 255.156 597.862 255.104 597.455 255C597.048 254.887 596.692 254.723 596.389 254.506L596.545 253.44C596.84 253.665 597.186 253.834 597.585 253.947C597.992 254.06 598.382 254.116 598.755 254.116C599.327 254.116 599.734 253.995 599.977 253.752C600.228 253.509 600.354 253.206 600.354 252.842C600.354 252.547 600.254 252.318 600.055 252.153C599.864 251.98 599.622 251.837 599.327 251.724C599.032 251.603 598.712 251.49 598.365 251.386C598.027 251.282 597.711 251.148 597.416 250.983C597.121 250.818 596.874 250.606 596.675 250.346C596.484 250.077 596.389 249.726 596.389 249.293C596.389 248.634 596.614 248.11 597.065 247.72C597.524 247.321 598.2 247.122 599.093 247.122C599.847 247.122 600.545 247.269 601.186 247.564L601.082 248.604C600.753 248.465 600.41 248.361 600.055 248.292C599.708 248.223 599.379 248.188 599.067 248.188C598.599 248.188 598.231 248.283 597.962 248.474C597.693 248.656 597.559 248.907 597.559 249.228C597.559 249.505 597.654 249.722 597.845 249.878C598.044 250.025 598.287 250.155 598.573 250.268C598.868 250.381 599.184 250.489 599.522 250.593C599.869 250.688 600.185 250.818 600.471 250.983C600.766 251.148 601.008 251.369 601.199 251.646C601.398 251.915 601.498 252.274 601.498 252.725ZM609.053 252.452C609.053 253.319 608.806 253.986 608.312 254.454C607.818 254.913 607.06 255.143 606.037 255.143C605.015 255.143 604.256 254.909 603.762 254.441C603.277 253.973 603.034 253.31 603.034 252.452V247.252H604.256V252.426C604.256 253.483 604.854 254.012 606.05 254.012C607.238 254.012 607.831 253.483 607.831 252.426V247.252H609.053V252.452ZM615.454 254.051L615.415 254.038C615.189 254.367 614.873 254.632 614.466 254.831C614.067 255.022 613.616 255.117 613.114 255.117C612.758 255.117 612.433 255.069 612.139 254.974C611.853 254.879 611.606 254.731 611.398 254.532C611.19 254.333 611.025 254.077 610.904 253.765C610.791 253.444 610.735 253.067 610.735 252.634C610.735 251.897 610.964 251.321 611.424 250.905C611.892 250.489 612.589 250.281 613.517 250.281C613.846 250.281 614.162 250.311 614.466 250.372C614.778 250.424 615.055 250.493 615.298 250.58V249.813C615.298 249.198 615.155 248.769 614.869 248.526C614.583 248.283 614.123 248.162 613.491 248.162C613.075 248.162 612.693 248.201 612.347 248.279C612.009 248.348 611.666 248.465 611.32 248.63L611.203 247.603C611.939 247.265 612.771 247.096 613.699 247.096C614.21 247.096 614.643 247.152 614.999 247.265C615.354 247.378 615.644 247.551 615.87 247.785C616.095 248.019 616.255 248.318 616.351 248.682C616.455 249.046 616.507 249.484 616.507 249.995V255H615.571L615.454 254.051ZM615.285 251.464C615.189 251.403 615.003 251.343 614.726 251.282C614.457 251.213 614.128 251.178 613.738 251.178C613.088 251.178 612.615 251.304 612.321 251.555C612.035 251.798 611.892 252.153 611.892 252.621C611.892 252.898 611.931 253.132 612.009 253.323C612.087 253.505 612.195 253.657 612.334 253.778C612.472 253.891 612.637 253.973 612.828 254.025C613.018 254.077 613.226 254.103 613.452 254.103C613.694 254.103 613.924 254.068 614.141 253.999C614.366 253.921 614.561 253.821 614.726 253.7C614.899 253.579 615.033 253.44 615.129 253.284C615.233 253.128 615.285 252.968 615.285 252.803V251.464ZM618.551 255V247.304L619.539 247.239L619.643 248.903H619.669C619.911 248.34 620.236 247.906 620.644 247.603C621.051 247.291 621.519 247.135 622.048 247.135C622.334 247.135 622.589 247.17 622.815 247.239L622.737 248.487C622.615 248.444 622.49 248.418 622.36 248.409C622.238 248.392 622.108 248.383 621.97 248.383C621.666 248.383 621.38 248.448 621.112 248.578C620.852 248.699 620.622 248.877 620.423 249.111C620.223 249.336 620.067 249.618 619.955 249.956C619.842 250.285 619.786 250.658 619.786 251.074V255H618.551ZM624.373 255V247.291L625.608 247.226V255H624.373ZM625.79 245.289C625.79 245.731 625.525 245.952 624.997 245.952C624.728 245.952 624.529 245.904 624.399 245.809C624.269 245.714 624.204 245.54 624.204 245.289C624.204 244.847 624.468 244.626 624.997 244.626C625.525 244.626 625.79 244.847 625.79 245.289ZM634.364 251.152C634.364 251.871 634.299 252.487 634.169 252.998C634.039 253.501 633.839 253.917 633.571 254.246C633.302 254.567 632.955 254.801 632.531 254.948C632.115 255.095 631.616 255.169 631.036 255.169C630.446 255.169 629.939 255.095 629.515 254.948C629.09 254.801 628.739 254.567 628.462 254.246C628.193 253.917 627.989 253.501 627.851 252.998C627.721 252.487 627.656 251.871 627.656 251.152C627.656 250.433 627.721 249.822 627.851 249.319C627.989 248.808 628.197 248.392 628.475 248.071C628.752 247.742 629.103 247.503 629.528 247.356C629.952 247.2 630.455 247.122 631.036 247.122C631.616 247.122 632.115 247.2 632.531 247.356C632.955 247.503 633.302 247.742 633.571 248.071C633.848 248.392 634.047 248.808 634.169 249.319C634.299 249.822 634.364 250.433 634.364 251.152ZM628.93 251.152C628.93 251.707 628.969 252.175 629.047 252.556C629.125 252.937 629.246 253.245 629.411 253.479C629.584 253.713 629.801 253.882 630.061 253.986C630.329 254.081 630.654 254.129 631.036 254.129C631.408 254.129 631.725 254.077 631.985 253.973C632.253 253.869 632.47 253.7 632.635 253.466C632.799 253.232 632.916 252.929 632.986 252.556C633.064 252.175 633.103 251.707 633.103 251.152C633.103 250.597 633.064 250.129 632.986 249.748C632.916 249.367 632.799 249.059 632.635 248.825C632.47 248.591 632.253 248.426 631.985 248.331C631.725 248.227 631.408 248.175 631.036 248.175C630.654 248.175 630.329 248.227 630.061 248.331C629.801 248.426 629.584 248.591 629.411 248.825C629.246 249.059 629.125 249.367 629.047 249.748C628.969 250.129 628.93 250.597 628.93 251.152Z" fill="#B7B7B7"/>
<path d="M515.15 326.732C514.899 326.611 514.591 326.515 514.227 326.446C513.872 326.368 513.499 326.329 513.109 326.329C512.598 326.329 512.156 326.394 511.783 326.524C511.419 326.645 511.116 326.849 510.873 327.135C510.639 327.421 510.466 327.802 510.353 328.279C510.24 328.747 510.184 329.332 510.184 330.034C510.184 330.779 510.24 331.403 510.353 331.906C510.466 332.409 510.643 332.812 510.886 333.115C511.129 333.418 511.436 333.635 511.809 333.765C512.182 333.895 512.628 333.96 513.148 333.96C513.547 333.96 513.915 333.921 514.253 333.843C514.591 333.756 514.903 333.639 515.189 333.492L515.358 334.61C515.055 334.766 514.691 334.9 514.266 335.013C513.841 335.126 513.412 335.182 512.979 335.182C511.532 335.182 510.47 334.77 509.794 333.947C509.118 333.115 508.78 331.811 508.78 330.034C508.78 328.361 509.122 327.118 509.807 326.303C510.492 325.488 511.571 325.081 513.044 325.081C513.451 325.081 513.863 325.129 514.279 325.224C514.704 325.311 515.05 325.415 515.319 325.536L515.15 326.732ZM523.229 331.152C523.229 331.871 523.164 332.487 523.034 332.998C522.904 333.501 522.704 333.917 522.436 334.246C522.167 334.567 521.82 334.801 521.396 334.948C520.98 335.095 520.481 335.169 519.901 335.169C519.311 335.169 518.804 335.095 518.38 334.948C517.955 334.801 517.604 334.567 517.327 334.246C517.058 333.917 516.854 333.501 516.716 332.998C516.586 332.487 516.521 331.871 516.521 331.152C516.521 330.433 516.586 329.822 516.716 329.319C516.854 328.808 517.062 328.392 517.34 328.071C517.617 327.742 517.968 327.503 518.393 327.356C518.817 327.2 519.32 327.122 519.901 327.122C520.481 327.122 520.98 327.2 521.396 327.356C521.82 327.503 522.167 327.742 522.436 328.071C522.713 328.392 522.912 328.808 523.034 329.319C523.164 329.822 523.229 330.433 523.229 331.152ZM517.795 331.152C517.795 331.707 517.834 332.175 517.912 332.556C517.99 332.937 518.111 333.245 518.276 333.479C518.449 333.713 518.666 333.882 518.926 333.986C519.194 334.081 519.519 334.129 519.901 334.129C520.273 334.129 520.59 334.077 520.85 333.973C521.118 333.869 521.335 333.7 521.5 333.466C521.664 333.232 521.781 332.929 521.851 332.556C521.929 332.175 521.968 331.707 521.968 331.152C521.968 330.597 521.929 330.129 521.851 329.748C521.781 329.367 521.664 329.059 521.5 328.825C521.335 328.591 521.118 328.426 520.85 328.331C520.59 328.227 520.273 328.175 519.901 328.175C519.519 328.175 519.194 328.227 518.926 328.331C518.666 328.426 518.449 328.591 518.276 328.825C518.111 329.059 517.99 329.367 517.912 329.748C517.834 330.129 517.795 330.597 517.795 331.152ZM529.758 335V329.878C529.758 329.306 529.606 328.894 529.303 328.643C529.008 328.383 528.575 328.253 528.003 328.253C527.838 328.253 527.669 328.275 527.496 328.318C527.323 328.353 527.154 328.409 526.989 328.487C526.824 328.556 526.673 328.647 526.534 328.76C526.395 328.864 526.283 328.985 526.196 329.124V335H524.961V327.278L525.845 327.213L526.053 328.032H526.092C526.361 327.737 526.69 327.512 527.08 327.356C527.479 327.191 527.899 327.109 528.341 327.109C529.164 327.109 529.81 327.339 530.278 327.798C530.746 328.257 530.98 328.951 530.98 329.878V335H529.758ZM534.686 328.214V332.972C534.686 333.379 534.786 333.67 534.985 333.843C535.185 334.016 535.462 334.103 535.817 334.103C535.93 334.103 536.047 334.094 536.168 334.077C536.29 334.06 536.389 334.034 536.467 333.999L536.545 334.935C536.424 334.996 536.264 335.043 536.064 335.078C535.874 335.113 535.674 335.13 535.466 335.13C534.799 335.13 534.296 334.952 533.958 334.597C533.62 334.233 533.451 333.704 533.451 333.011V328.214H532.372V327.252H533.49L533.724 325.328L534.686 325.224V327.252H536.597V328.214H534.686ZM538.113 335V327.304L539.101 327.239L539.205 328.903H539.231C539.474 328.34 539.799 327.906 540.206 327.603C540.614 327.291 541.082 327.135 541.61 327.135C541.896 327.135 542.152 327.17 542.377 327.239L542.299 328.487C542.178 328.444 542.052 328.418 541.922 328.409C541.801 328.392 541.671 328.383 541.532 328.383C541.229 328.383 540.943 328.448 540.674 328.578C540.414 328.699 540.185 328.877 539.985 329.111C539.786 329.336 539.63 329.618 539.517 329.956C539.405 330.285 539.348 330.658 539.348 331.074V335H538.113ZM548.08 334.051L548.041 334.038C547.815 334.367 547.499 334.632 547.092 334.831C546.693 335.022 546.242 335.117 545.74 335.117C545.384 335.117 545.059 335.069 544.765 334.974C544.479 334.879 544.232 334.731 544.024 334.532C543.816 334.333 543.651 334.077 543.53 333.765C543.417 333.444 543.361 333.067 543.361 332.634C543.361 331.897 543.59 331.321 544.05 330.905C544.518 330.489 545.215 330.281 546.143 330.281C546.472 330.281 546.788 330.311 547.092 330.372C547.404 330.424 547.681 330.493 547.924 330.58V329.813C547.924 329.198 547.781 328.769 547.495 328.526C547.209 328.283 546.749 328.162 546.117 328.162C545.701 328.162 545.319 328.201 544.973 328.279C544.635 328.348 544.292 328.465 543.946 328.63L543.829 327.603C544.565 327.265 545.397 327.096 546.325 327.096C546.836 327.096 547.269 327.152 547.625 327.265C547.98 327.378 548.27 327.551 548.496 327.785C548.721 328.019 548.881 328.318 548.977 328.682C549.081 329.046 549.133 329.484 549.133 329.995V335H548.197L548.08 334.051ZM547.911 331.464C547.815 331.403 547.629 331.343 547.352 331.282C547.083 331.213 546.754 331.178 546.364 331.178C545.714 331.178 545.241 331.304 544.947 331.555C544.661 331.798 544.518 332.153 544.518 332.621C544.518 332.898 544.557 333.132 544.635 333.323C544.713 333.505 544.821 333.657 544.96 333.778C545.098 333.891 545.263 333.973 545.454 334.025C545.644 334.077 545.852 334.103 546.078 334.103C546.32 334.103 546.55 334.068 546.767 333.999C546.992 333.921 547.187 333.821 547.352 333.7C547.525 333.579 547.659 333.44 547.755 333.284C547.859 333.128 547.911 332.968 547.911 332.803V331.464ZM555.935 332.725C555.935 333.453 555.718 334.042 555.285 334.493C554.851 334.935 554.158 335.156 553.205 335.156C552.737 335.156 552.299 335.104 551.892 335C551.484 334.887 551.129 334.723 550.826 334.506L550.982 333.44C551.276 333.665 551.623 333.834 552.022 333.947C552.429 334.06 552.819 334.116 553.192 334.116C553.764 334.116 554.171 333.995 554.414 333.752C554.665 333.509 554.791 333.206 554.791 332.842C554.791 332.547 554.691 332.318 554.492 332.153C554.301 331.98 554.058 331.837 553.764 331.724C553.469 331.603 553.148 331.49 552.802 331.386C552.464 331.282 552.147 331.148 551.853 330.983C551.558 330.818 551.311 330.606 551.112 330.346C550.921 330.077 550.826 329.726 550.826 329.293C550.826 328.634 551.051 328.11 551.502 327.72C551.961 327.321 552.637 327.122 553.53 327.122C554.284 327.122 554.981 327.269 555.623 327.564L555.519 328.604C555.189 328.465 554.847 328.361 554.492 328.292C554.145 328.223 553.816 328.188 553.504 328.188C553.036 328.188 552.667 328.283 552.399 328.474C552.13 328.656 551.996 328.907 551.996 329.228C551.996 329.505 552.091 329.722 552.282 329.878C552.481 330.025 552.724 330.155 553.01 330.268C553.304 330.381 553.621 330.489 553.959 330.593C554.305 330.688 554.622 330.818 554.908 330.983C555.202 331.148 555.445 331.369 555.636 331.646C555.835 331.915 555.935 332.274 555.935 332.725ZM560.747 335.156C559.473 335.156 558.554 334.814 557.991 334.129C557.427 333.436 557.146 332.365 557.146 330.918C557.146 329.696 557.41 328.76 557.939 328.11C558.467 327.451 559.269 327.122 560.344 327.122C560.803 327.122 561.219 327.191 561.592 327.33C561.973 327.469 562.294 327.685 562.554 327.98C562.822 328.275 563.03 328.647 563.178 329.098C563.325 329.54 563.399 330.073 563.399 330.697C563.399 330.792 563.394 330.896 563.386 331.009C563.386 331.113 563.381 331.208 563.373 331.295H558.407C558.424 331.806 558.485 332.24 558.589 332.595C558.693 332.942 558.844 333.223 559.044 333.44C559.252 333.648 559.507 333.8 559.811 333.895C560.114 333.99 560.474 334.038 560.89 334.038C561.28 334.038 561.644 333.999 561.982 333.921C562.328 333.834 562.666 333.709 562.996 333.544L563.139 334.584C562.809 334.757 562.445 334.896 562.047 335C561.648 335.104 561.215 335.156 560.747 335.156ZM562.268 330.45C562.259 330.043 562.207 329.696 562.112 329.41C562.016 329.124 561.886 328.89 561.722 328.708C561.557 328.526 561.358 328.396 561.124 328.318C560.89 328.231 560.634 328.188 560.357 328.188C559.698 328.188 559.213 328.374 558.901 328.747C558.597 329.111 558.424 329.679 558.381 330.45H562.268ZM569.809 328.617C569.584 328.513 569.333 328.431 569.055 328.37C568.787 328.301 568.514 328.266 568.236 328.266C567.82 328.266 567.465 328.318 567.17 328.422C566.876 328.526 566.637 328.691 566.455 328.916C566.273 329.141 566.139 329.432 566.052 329.787C565.974 330.142 565.935 330.571 565.935 331.074C565.935 331.62 565.983 332.084 566.078 332.465C566.182 332.846 566.33 333.154 566.52 333.388C566.711 333.622 566.945 333.795 567.222 333.908C567.508 334.012 567.838 334.064 568.21 334.064C568.826 334.064 569.376 333.917 569.861 333.622L569.952 334.636C569.727 334.792 569.441 334.918 569.094 335.013C568.748 335.117 568.366 335.169 567.95 335.169C566.867 335.169 566.048 334.844 565.493 334.194C564.939 333.535 564.661 332.495 564.661 331.074C564.661 329.757 564.926 328.773 565.454 328.123C565.983 327.464 566.828 327.135 567.989 327.135C568.336 327.135 568.674 327.17 569.003 327.239C569.341 327.308 569.636 327.399 569.887 327.512L569.809 328.617ZM575.933 334.051L575.894 334.038C575.669 334.367 575.352 334.632 574.945 334.831C574.546 335.022 574.096 335.117 573.593 335.117C573.238 335.117 572.913 335.069 572.618 334.974C572.332 334.879 572.085 334.731 571.877 334.532C571.669 334.333 571.504 334.077 571.383 333.765C571.27 333.444 571.214 333.067 571.214 332.634C571.214 331.897 571.444 331.321 571.903 330.905C572.371 330.489 573.069 330.281 573.996 330.281C574.325 330.281 574.642 330.311 574.945 330.372C575.257 330.424 575.534 330.493 575.777 330.58V329.813C575.777 329.198 575.634 328.769 575.348 328.526C575.062 328.283 574.603 328.162 573.97 328.162C573.554 328.162 573.173 328.201 572.826 328.279C572.488 328.348 572.146 328.465 571.799 328.63L571.682 327.603C572.419 327.265 573.251 327.096 574.178 327.096C574.689 327.096 575.123 327.152 575.478 327.265C575.833 327.378 576.124 327.551 576.349 327.785C576.574 328.019 576.735 328.318 576.83 328.682C576.934 329.046 576.986 329.484 576.986 329.995V335H576.05L575.933 334.051ZM575.764 331.464C575.669 331.403 575.482 331.343 575.205 331.282C574.936 331.213 574.607 331.178 574.217 331.178C573.567 331.178 573.095 331.304 572.8 331.555C572.514 331.798 572.371 332.153 572.371 332.621C572.371 332.898 572.41 333.132 572.488 333.323C572.566 333.505 572.674 333.657 572.813 333.778C572.952 333.891 573.116 333.973 573.307 334.025C573.498 334.077 573.706 334.103 573.931 334.103C574.174 334.103 574.403 334.068 574.62 333.999C574.845 333.921 575.04 333.821 575.205 333.7C575.378 333.579 575.513 333.44 575.608 333.284C575.712 333.128 575.764 332.968 575.764 332.803V331.464Z" fill="#B7B7B7"/>
<path d="M497.918 537.986C497.918 539.455 498.828 540.313 500.674 540.313C501.883 540.313 502.936 539.871 503.573 539.26L503.118 538.259C502.52 538.792 501.766 539.143 500.83 539.143C499.816 539.143 499.179 538.727 499.179 537.817C499.179 536.738 500.024 536.049 501.389 535.23L501.311 533.033H500.336L500.284 534.762C498.802 535.555 497.918 536.517 497.918 537.986ZM500.024 531.005C500.024 531.473 500.271 531.733 500.804 531.733C501.35 531.733 501.597 531.473 501.597 531.005C501.597 530.485 501.35 530.277 500.804 530.277C500.271 530.277 500.024 530.537 500.024 531.005ZM512.572 534.125C512.572 530.563 511.454 529.094 508.542 529.094C505.643 529.094 504.499 530.563 504.499 534.125C504.499 537.687 505.656 539.182 508.542 539.182C511.454 539.182 512.572 537.713 512.572 534.125ZM511.181 534.125C511.181 537.102 510.453 537.934 508.542 537.934C506.631 537.934 505.903 537.102 505.903 534.125C505.903 531.135 506.631 530.329 508.542 530.329C510.466 530.329 511.181 531.135 511.181 534.125ZM515.915 539V528.665L514.68 528.743V539H515.915ZM523.739 531.252L521.737 536.92L521.412 537.908H521.373L521.035 536.92L519.033 531.252H517.668L520.671 539H522.101L525.104 531.252H523.739ZM528.168 539V531.226L526.933 531.291V539H528.168ZM528.35 529.289C528.35 528.86 528.09 528.626 527.557 528.626C527.024 528.626 526.764 528.86 526.764 529.289C526.764 529.783 527.024 529.952 527.557 529.952C528.09 529.952 528.35 529.744 528.35 529.289ZM536.625 539V528.665L535.39 528.743V530.927L535.416 531.967L535.39 531.98C534.844 531.408 534.064 531.109 533.206 531.109C531.139 531.109 530.216 532.487 530.216 535.113C530.216 537.882 531.1 539.156 533.193 539.156C534.233 539.156 535 538.818 535.481 538.181L535.52 538.194L535.676 539H536.625ZM535.39 537.18C535.169 537.596 534.61 538.129 533.531 538.129C531.984 538.129 531.49 537.336 531.49 535.165C531.49 533.059 532.036 532.253 533.544 532.253C534.376 532.253 535.065 532.604 535.39 533.137V537.18ZM545.074 535.152C545.074 532.279 544.086 531.122 541.746 531.122C539.419 531.122 538.366 532.279 538.366 535.152C538.366 538.025 539.406 539.169 541.746 539.169C544.073 539.169 545.074 538.025 545.074 535.152ZM539.64 535.152C539.64 532.929 540.225 532.175 541.746 532.175C543.241 532.175 543.813 532.929 543.813 535.152C543.813 537.362 543.241 538.129 541.746 538.129C540.225 538.129 539.64 537.375 539.64 535.152ZM541.876 528.535L540.94 530.394H541.889L543.371 528.535H541.876ZM555.462 536.725C555.462 534.021 551.523 534.879 551.523 533.228C551.523 532.591 552.108 532.188 553.031 532.188C553.655 532.188 554.396 532.331 555.046 532.604L555.15 531.564C554.526 531.278 553.811 531.122 553.057 531.122C551.276 531.122 550.353 531.98 550.353 533.293C550.353 535.906 554.318 535.087 554.318 536.842C554.318 537.57 553.85 538.116 552.719 538.116C551.978 538.116 551.094 537.882 550.509 537.44L550.353 538.506C550.951 538.935 551.809 539.156 552.732 539.156C554.643 539.156 555.462 538.181 555.462 536.725ZM563.017 531.252H561.795V536.426C561.795 537.479 561.184 538.012 560.014 538.012C558.818 538.012 558.22 537.466 558.22 536.426V531.252H556.998V536.452C556.998 538.155 557.973 539.143 560.001 539.143C562.042 539.143 563.017 538.168 563.017 536.452V531.252ZM574.979 539V533.878C574.979 532.032 573.978 531.109 572.34 531.109C571.469 531.109 570.624 531.447 570.091 532.032H570.052L569.844 531.213L568.96 531.278V539H570.195V533.124C570.559 532.565 571.339 532.253 572.002 532.253C573.146 532.253 573.757 532.734 573.757 533.878V539H574.979ZM583.287 535.152C583.287 532.279 582.299 531.122 579.959 531.122C577.632 531.122 576.579 532.279 576.579 535.152C576.579 538.025 577.619 539.169 579.959 539.169C582.286 539.169 583.287 538.025 583.287 535.152ZM577.853 535.152C577.853 532.929 578.438 532.175 579.959 532.175C581.454 532.175 582.026 532.929 582.026 535.152C582.026 537.362 581.454 538.129 579.959 538.129C578.438 538.129 577.853 537.375 577.853 535.152ZM594.99 539V533.839C594.99 532.006 593.963 531.122 592.468 531.122C591.519 531.122 590.726 531.512 590.284 532.318H590.258C589.894 531.525 589.205 531.135 588.165 531.135C587.385 531.135 586.631 531.473 586.163 532.045H586.124L585.903 531.213L585.019 531.278V539H586.254V533.124C586.566 532.604 587.229 532.253 587.879 532.253C588.737 532.253 589.4 532.669 589.4 533.722V539H590.622V533.722C590.622 532.747 591.324 532.266 592.156 532.266C593.157 532.266 593.768 532.76 593.768 533.852V539H594.99ZM603.503 535.1C603.503 532.162 602.359 531.109 600.552 531.109C599.694 531.109 598.901 531.395 598.342 531.98L598.316 531.967L598.329 530.927V528.652L597.107 528.73V539H597.926L598.121 538.194L598.16 538.181C598.641 538.779 599.447 539.143 600.409 539.143C602.372 539.143 603.503 538.012 603.503 535.1ZM602.255 535.126C602.255 537.531 601.449 538.116 600.24 538.116C599.291 538.116 598.641 537.674 598.329 537.167V533.15C598.732 532.565 599.408 532.227 600.227 532.227C601.501 532.227 602.255 532.773 602.255 535.126ZM606.453 539V535.074C606.453 533.41 607.428 532.383 608.637 532.383C608.91 532.383 609.17 532.409 609.404 532.487L609.482 531.239C609.274 531.174 609.001 531.135 608.715 531.135C607.662 531.135 606.817 531.785 606.336 532.903H606.31L606.206 531.239L605.218 531.304V539H606.453ZM613.975 539.156C614.911 539.156 615.717 538.935 616.367 538.584L616.224 537.544C615.561 537.869 614.898 538.038 614.118 538.038C612.454 538.038 611.7 537.336 611.635 535.295H616.601C616.614 535.126 616.627 534.892 616.627 534.697C616.627 532.214 615.418 531.122 613.572 531.122C611.44 531.122 610.374 532.487 610.374 534.918C610.374 537.817 611.427 539.156 613.975 539.156ZM611.609 534.45C611.687 532.916 612.272 532.188 613.585 532.188C614.703 532.188 615.47 532.812 615.496 534.45H611.609ZM628.196 539V528.665L626.961 528.743V530.927L626.987 531.967L626.961 531.98C626.415 531.408 625.635 531.109 624.777 531.109C622.71 531.109 621.787 532.487 621.787 535.113C621.787 537.882 622.671 539.156 624.764 539.156C625.804 539.156 626.571 538.818 627.052 538.181L627.091 538.194L627.247 539H628.196ZM626.961 537.18C626.74 537.596 626.181 538.129 625.102 538.129C623.555 538.129 623.061 537.336 623.061 535.165C623.061 533.059 623.607 532.253 625.115 532.253C625.947 532.253 626.636 532.604 626.961 533.137V537.18ZM633.539 539.156C634.475 539.156 635.281 538.935 635.931 538.584L635.788 537.544C635.125 537.869 634.462 538.038 633.682 538.038C632.018 538.038 631.264 537.336 631.199 535.295H636.165C636.178 535.126 636.191 534.892 636.191 534.697C636.191 532.214 634.982 531.122 633.136 531.122C631.004 531.122 629.938 532.487 629.938 534.918C629.938 537.817 630.991 539.156 633.539 539.156ZM631.173 534.45C631.251 532.916 631.836 532.188 633.149 532.188C634.267 532.188 635.034 532.812 635.06 534.45H631.173ZM647.695 531.252H646.473V536.426C646.473 537.479 645.862 538.012 644.692 538.012C643.496 538.012 642.898 537.466 642.898 536.426V531.252H641.676V536.452C641.676 538.155 642.651 539.143 644.679 539.143C646.72 539.143 647.695 538.168 647.695 536.452V531.252ZM654.498 536.725C654.498 534.021 650.559 534.879 650.559 533.228C650.559 532.591 651.144 532.188 652.067 532.188C652.691 532.188 653.432 532.331 654.082 532.604L654.186 531.564C653.562 531.278 652.847 531.122 652.093 531.122C650.312 531.122 649.389 531.98 649.389 533.293C649.389 535.906 653.354 535.087 653.354 536.842C653.354 537.57 652.886 538.116 651.755 538.116C651.014 538.116 650.13 537.882 649.545 537.44L649.389 538.506C649.987 538.935 650.845 539.156 651.768 539.156C653.679 539.156 654.498 538.181 654.498 536.725ZM662.053 531.252H660.831V536.426C660.831 537.479 660.22 538.012 659.05 538.012C657.854 538.012 657.256 537.466 657.256 536.426V531.252H656.034V536.452C656.034 538.155 657.009 539.143 659.037 539.143C661.078 539.143 662.053 538.168 662.053 536.452V531.252ZM668.571 539H669.507V533.995C669.507 531.954 668.74 531.096 666.699 531.096C665.776 531.096 664.944 531.265 664.203 531.603L664.32 532.63C665.009 532.305 665.672 532.162 666.491 532.162C667.752 532.162 668.298 532.591 668.298 533.813V534.58C667.817 534.411 667.18 534.281 666.517 534.281C664.671 534.281 663.735 535.178 663.735 536.634C663.735 538.376 664.697 539.117 666.114 539.117C667.115 539.117 667.96 538.701 668.415 538.038L668.454 538.051L668.571 539ZM668.285 536.803C668.285 537.453 667.414 538.103 666.452 538.103C665.555 538.103 664.892 537.726 664.892 536.621C664.892 535.698 665.451 535.178 666.738 535.178C667.518 535.178 668.09 535.347 668.285 535.464V536.803ZM672.786 539V535.074C672.786 533.41 673.761 532.383 674.97 532.383C675.243 532.383 675.503 532.409 675.737 532.487L675.815 531.239C675.607 531.174 675.334 531.135 675.048 531.135C673.995 531.135 673.15 531.785 672.669 532.903H672.643L672.539 531.239L671.551 531.304V539H672.786ZM678.9 539V531.226L677.665 531.291V539H678.9ZM679.082 529.289C679.082 528.86 678.822 528.626 678.289 528.626C677.756 528.626 677.496 528.86 677.496 529.289C677.496 529.783 677.756 529.952 678.289 529.952C678.822 529.952 679.082 529.744 679.082 529.289ZM687.656 535.152C687.656 532.279 686.668 531.122 684.328 531.122C682.001 531.122 680.948 532.279 680.948 535.152C680.948 538.025 681.988 539.169 684.328 539.169C686.655 539.169 687.656 538.025 687.656 535.152ZM682.222 535.152C682.222 532.929 682.807 532.175 684.328 532.175C685.823 532.175 686.395 532.929 686.395 535.152C686.395 537.362 685.823 538.129 684.328 538.129C682.807 538.129 682.222 537.375 682.222 535.152ZM699.551 535.152C699.551 532.279 698.563 531.122 696.223 531.122C693.896 531.122 692.843 532.279 692.843 535.152C692.843 538.025 693.883 539.169 696.223 539.169C698.55 539.169 699.551 538.025 699.551 535.152ZM694.117 535.152C694.117 532.929 694.702 532.175 696.223 532.175C697.718 532.175 698.29 532.929 698.29 535.152C698.29 537.362 697.718 538.129 696.223 538.129C694.702 538.129 694.117 537.375 694.117 535.152ZM709.965 531.512C709.458 531.291 708.756 531.135 708.067 531.135C705.753 531.135 704.739 532.461 704.739 535.074C704.739 537.921 705.857 539.169 708.028 539.169C708.847 539.169 709.575 538.948 710.03 538.636L709.939 537.622C709.471 537.908 708.899 538.064 708.288 538.064C706.806 538.064 706.013 537.258 706.013 535.074C706.013 533.072 706.637 532.266 708.314 532.266C708.873 532.266 709.432 532.409 709.887 532.617L709.965 531.512ZM717.731 535.152C717.731 532.279 716.743 531.122 714.403 531.122C712.076 531.122 711.023 532.279 711.023 535.152C711.023 538.025 712.063 539.169 714.403 539.169C716.73 539.169 717.731 538.025 717.731 535.152ZM712.297 535.152C712.297 532.929 712.882 532.175 714.403 532.175C715.898 532.175 716.47 532.929 716.47 535.152C716.47 537.362 715.898 538.129 714.403 538.129C712.882 538.129 712.297 537.375 712.297 535.152ZM725.482 539V533.878C725.482 532.032 724.481 531.109 722.843 531.109C721.972 531.109 721.127 531.447 720.594 532.032H720.555L720.347 531.213L719.463 531.278V539H720.698V533.124C721.062 532.565 721.842 532.253 722.505 532.253C723.649 532.253 724.26 532.734 724.26 533.878V539H725.482ZM731.099 532.214V531.252H729.188V529.224L728.226 529.328L727.992 531.252H726.874V532.214H727.953V537.011C727.953 538.389 728.642 539.13 729.968 539.13C730.384 539.13 730.813 539.052 731.047 538.935L730.969 537.999C730.813 538.064 730.54 538.103 730.319 538.103C729.617 538.103 729.188 537.778 729.188 536.972V532.214H731.099ZM733.85 539V535.074C733.85 533.41 734.825 532.383 736.034 532.383C736.307 532.383 736.567 532.409 736.801 532.487L736.879 531.239C736.671 531.174 736.398 531.135 736.112 531.135C735.059 531.135 734.214 531.785 733.733 532.903H733.707L733.603 531.239L732.615 531.304V539H733.85ZM742.648 539H743.584V533.995C743.584 531.954 742.817 531.096 740.776 531.096C739.853 531.096 739.021 531.265 738.28 531.603L738.397 532.63C739.086 532.305 739.749 532.162 740.568 532.162C741.829 532.162 742.375 532.591 742.375 533.813V534.58C741.894 534.411 741.257 534.281 740.594 534.281C738.748 534.281 737.812 535.178 737.812 536.634C737.812 538.376 738.774 539.117 740.191 539.117C741.192 539.117 742.037 538.701 742.492 538.038L742.531 538.051L742.648 539ZM742.362 536.803C742.362 537.453 741.491 538.103 740.529 538.103C739.632 538.103 738.969 537.726 738.969 536.621C738.969 535.698 739.528 535.178 740.815 535.178C741.595 535.178 742.167 535.347 742.362 535.464V536.803ZM750.386 536.725C750.386 534.021 746.447 534.879 746.447 533.228C746.447 532.591 747.032 532.188 747.955 532.188C748.579 532.188 749.32 532.331 749.97 532.604L750.074 531.564C749.45 531.278 748.735 531.122 747.981 531.122C746.2 531.122 745.277 531.98 745.277 533.293C745.277 535.906 749.242 535.087 749.242 536.842C749.242 537.57 748.774 538.116 747.643 538.116C746.902 538.116 746.018 537.882 745.433 537.44L745.277 538.506C745.875 538.935 746.733 539.156 747.656 539.156C749.567 539.156 750.386 538.181 750.386 536.725ZM755.198 539.156C756.134 539.156 756.94 538.935 757.59 538.584L757.447 537.544C756.784 537.869 756.121 538.038 755.341 538.038C753.677 538.038 752.923 537.336 752.858 535.295H757.824C757.837 535.126 757.85 534.892 757.85 534.697C757.85 532.214 756.641 531.122 754.795 531.122C752.663 531.122 751.597 532.487 751.597 534.918C751.597 537.817 752.65 539.156 755.198 539.156ZM752.832 534.45C752.91 532.916 753.495 532.188 754.808 532.188C755.926 532.188 756.693 532.812 756.719 534.45H752.832ZM765.574 539V533.878C765.574 532.032 764.573 531.109 762.935 531.109C762.064 531.109 761.219 531.447 760.686 532.032H760.647L760.439 531.213L759.555 531.278V539H760.79V533.124C761.154 532.565 761.934 532.253 762.597 532.253C763.741 532.253 764.352 532.734 764.352 533.878V539H765.574ZM761.206 530.134C761.297 529.705 761.505 529.419 761.752 529.419C762.285 529.419 762.649 530.277 763.416 530.277C764.053 530.277 764.495 529.679 764.56 528.756L763.962 528.743C763.858 529.211 763.676 529.458 763.416 529.458C762.87 529.458 762.532 528.6 761.739 528.6C761.102 528.6 760.673 529.224 760.608 530.121L761.206 530.134ZM772.088 539H773.024V533.995C773.024 531.954 772.257 531.096 770.216 531.096C769.293 531.096 768.461 531.265 767.72 531.603L767.837 532.63C768.526 532.305 769.189 532.162 770.008 532.162C771.269 532.162 771.815 532.591 771.815 533.813V534.58C771.334 534.411 770.697 534.281 770.034 534.281C768.188 534.281 767.252 535.178 767.252 536.634C767.252 538.376 768.214 539.117 769.631 539.117C770.632 539.117 771.477 538.701 771.932 538.038L771.971 538.051L772.088 539ZM771.802 536.803C771.802 537.453 770.931 538.103 769.969 538.103C769.072 538.103 768.409 537.726 768.409 536.621C768.409 535.698 768.968 535.178 770.255 535.178C771.035 535.178 771.607 535.347 771.802 535.464V536.803ZM780.086 531.421C780.086 529.952 779.176 529.094 777.33 529.094C776.121 529.094 775.068 529.549 774.431 530.16L774.886 531.161C775.484 530.628 776.238 530.264 777.174 530.264C778.188 530.264 778.825 530.68 778.825 531.603C778.825 532.669 777.98 533.358 776.615 534.177L776.693 536.387H777.668L777.72 534.658C779.189 533.865 780.086 532.89 780.086 531.421ZM777.98 538.415C777.98 537.947 777.733 537.674 777.2 537.674C776.654 537.674 776.407 537.947 776.407 538.415C776.407 538.935 776.654 539.143 777.2 539.143C777.733 539.143 777.98 538.883 777.98 538.415Z" fill="#00C8CB"/>
<rect x="548" y="433" width="186" height="39" rx="3" fill="#00BFD6"/>
<path d="M622.092 458H623.702L619.824 447.5H618.116L614.252 458H615.792L616.632 455.494H621.252L622.092 458ZM618.956 448.55H618.998L619.32 449.642L620.846 454.248H617.052L618.606 449.642L618.956 448.55ZM630.089 449.936C629.543 449.698 628.787 449.53 628.045 449.53C625.553 449.53 624.461 450.958 624.461 453.772C624.461 456.838 625.665 458.182 628.003 458.182C628.885 458.182 629.669 457.944 630.159 457.608L630.061 456.516C629.557 456.824 628.941 456.992 628.283 456.992C626.687 456.992 625.833 456.124 625.833 453.772C625.833 451.616 626.505 450.748 628.311 450.748C628.913 450.748 629.515 450.902 630.005 451.126L630.089 449.936ZM636.857 449.936C636.311 449.698 635.555 449.53 634.813 449.53C632.321 449.53 631.229 450.958 631.229 453.772C631.229 456.838 632.433 458.182 634.771 458.182C635.653 458.182 636.437 457.944 636.927 457.608L636.829 456.516C636.325 456.824 635.709 456.992 635.051 456.992C633.455 456.992 632.601 456.124 632.601 453.772C632.601 451.616 633.273 450.748 635.079 450.748C635.681 450.748 636.283 450.902 636.773 451.126L636.857 449.936ZM641.875 458.168C642.883 458.168 643.751 457.93 644.451 457.552L644.297 456.432C643.583 456.782 642.869 456.964 642.029 456.964C640.237 456.964 639.425 456.208 639.355 454.01H644.703C644.717 453.828 644.731 453.576 644.731 453.366C644.731 450.692 643.429 449.516 641.441 449.516C639.145 449.516 637.997 450.986 637.997 453.604C637.997 456.726 639.131 458.168 641.875 458.168ZM639.327 453.1C639.411 451.448 640.041 450.664 641.455 450.664C642.659 450.664 643.485 451.336 643.513 453.1H639.327ZM652.992 458V446.87L651.662 446.954V449.306L651.69 450.426L651.662 450.44C651.074 449.824 650.234 449.502 649.31 449.502C647.084 449.502 646.09 450.986 646.09 453.814C646.09 456.796 647.042 458.168 649.296 458.168C650.416 458.168 651.242 457.804 651.76 457.118L651.802 457.132L651.97 458H652.992ZM651.662 456.04C651.424 456.488 650.822 457.062 649.66 457.062C647.994 457.062 647.462 456.208 647.462 453.87C647.462 451.602 648.05 450.734 649.674 450.734C650.57 450.734 651.312 451.112 651.662 451.686V456.04ZM658.746 458.168C659.754 458.168 660.622 457.93 661.322 457.552L661.168 456.432C660.454 456.782 659.74 456.964 658.9 456.964C657.108 456.964 656.296 456.208 656.226 454.01H661.574C661.588 453.828 661.602 453.576 661.602 453.366C661.602 450.692 660.3 449.516 658.312 449.516C656.016 449.516 654.868 450.986 654.868 453.604C654.868 456.726 656.002 458.168 658.746 458.168ZM656.198 453.1C656.282 451.448 656.912 450.664 658.326 450.664C659.53 450.664 660.356 451.336 660.384 453.1H656.198ZM664.767 458V453.772C664.767 451.98 665.817 450.874 667.119 450.874C667.413 450.874 667.693 450.902 667.945 450.986L668.029 449.642C667.805 449.572 667.511 449.53 667.203 449.53C666.069 449.53 665.159 450.23 664.641 451.434H664.613L664.501 449.642L663.437 449.712V458H664.767Z" fill="white"/>
<rect x="508.5" y="267.5" width="265" height="32" rx="2.5" stroke="#B7B7B7"/>
<rect x="508.5" y="350.5" width="265" height="32" rx="2.5" stroke="#B7B7B7"/>
</g>
<defs>
<filter id="filter0_d_119_2" x="328" y="58" width="631" height="618" filterUnits="userSpaceOnUse" color-interpolation-filters="sRGB">
<feFlood flood-opacity="0" result="BackgroundImageFix"/>
<feColorMatrix in="SourceAlpha" type="matrix" values="0 0 0 0 0 0 0 0 0 0 0 0 0 0 0 0 0 0 127 0" result="hardAlpha"/>
<feOffset dx="4" dy="7"/>
<feGaussianBlur stdDeviation="8.5"/>
<feColorMatrix type="matrix" values="0 0 0 0 0.0870139 0 0 0 0 0.736097 0 0 0 0 0.745833 0 0 0 0.4 0"/>
<feBlend mode="multiply" in2="BackgroundImageFix" result="effect1_dropShadow_119_2"/>
<feBlend mode="normal" in="SourceGraphic" in2="effect1_dropShadow_119_2" result="shape"/>
</filter>
<clipPath id="clip0_119_2">
<rect width="1280" height="720" fill="white"/>
</clipPath>
</defs>
</svg>
