<svg width="1360" height="768" viewBox="0 0 1360 768" fill="none" xmlns="http://www.w3.org/2000/svg">
<g clip-path="url(#clip0_8328_15916)">
<rect width="1360" height="768" fill="white"/>
<path d="M1287.31 50.25H1279.5V37.75H1287.31V39.625H1281.38V48.375H1287.31V50.25ZM1294.26 43.375L1291.13 39.9375C1291.05 39.8463 1290.95 39.7724 1290.84 39.7199C1290.73 39.6674 1290.6 39.6374 1290.48 39.6316C1290.36 39.6258 1290.24 39.6443 1290.12 39.6861C1290 39.7279 1289.9 39.792 1289.81 39.875C1289.72 39.9579 1289.64 40.0579 1289.59 40.1693C1289.54 40.2808 1289.51 40.4015 1289.5 40.5245C1289.49 40.6476 1289.51 40.7706 1289.55 40.8865C1289.6 41.0024 1289.66 41.1089 1289.74 41.2L1291.44 43.075H1284.5V44.95H1291.44L1289.74 46.825C1289.66 46.9161 1289.6 47.0226 1289.55 47.1385C1289.51 47.2544 1289.49 47.3774 1289.5 47.5005C1289.51 47.6235 1289.54 47.7442 1289.59 47.8557C1289.64 47.9671 1289.72 48.0671 1289.81 48.15C1289.98 48.3051 1290.2 48.3918 1290.43 48.3937C1290.56 48.3931 1290.69 48.3655 1290.81 48.3128C1290.93 48.2602 1291.04 48.1834 1291.13 48.0875L1294.25 44.65C1294.41 44.4774 1294.5 44.2502 1294.5 44.0137C1294.5 43.7773 1294.42 43.5491 1294.26 43.375Z" fill="#03050F"/>
<path d="M1308.13 41.86C1308.13 42.448 1308.62 42.77 1309.94 43.064L1310.57 43.204C1312.82 43.694 1313.69 44.464 1313.69 46.018C1313.69 47.922 1312.18 49.154 1309.74 49.154C1307.36 49.154 1305.78 47.978 1305.64 45.948H1307.91C1307.97 46.802 1308.74 47.39 1309.8 47.39C1310.75 47.39 1311.4 46.914 1311.4 46.242C1311.4 45.626 1310.92 45.304 1309.65 45.038L1309.04 44.912C1306.9 44.45 1305.91 43.554 1305.91 42.084C1305.91 40.278 1307.41 39.046 1309.62 39.046C1311.77 39.046 1313.27 40.208 1313.41 42.014H1311.24C1311.14 41.258 1310.5 40.796 1309.59 40.796C1308.74 40.796 1308.13 41.216 1308.13 41.86ZM1318.53 41.622C1320.58 41.622 1321.65 42.574 1321.65 44.394V49H1319.73L1319.59 48.062C1319.17 48.776 1318.41 49.14 1317.38 49.14C1315.81 49.14 1314.84 48.314 1314.84 46.97C1314.84 45.318 1316.33 44.632 1319.51 44.632V44.478C1319.51 43.568 1319.16 43.162 1318.37 43.162C1317.69 43.162 1317.21 43.512 1317.17 44.058H1315.14C1315.21 42.574 1316.54 41.622 1318.53 41.622ZM1319.52 46.354V45.864C1317.81 45.864 1316.99 46.158 1316.99 46.858C1316.99 47.362 1317.39 47.67 1318.05 47.67C1318.96 47.67 1319.52 47.166 1319.52 46.354ZM1325.52 49H1323.36V39.06H1325.52V49ZM1328.35 40.922C1327.65 40.922 1327.12 40.432 1327.12 39.732C1327.12 39.06 1327.65 38.556 1328.35 38.556C1329.05 38.556 1329.58 39.06 1329.58 39.732C1329.58 40.432 1329.05 40.922 1328.35 40.922ZM1329.42 49H1327.26V41.776H1329.42V49ZM1335.6 41.706V43.652C1335.46 43.61 1335.27 43.568 1335.05 43.568C1333.93 43.568 1333.29 44.31 1333.29 45.598V49H1331.13V41.776H1333.12L1333.26 42.84C1333.59 42.084 1334.27 41.636 1335.01 41.636C1335.23 41.636 1335.43 41.664 1335.6 41.706Z" fill="#13172C"/>
<path d="M157.216 96.6L165.312 119H160.864L159.296 114.36H150.4L148.832 119H144.384L152.48 96.6H157.216ZM151.36 111.064H158.336L154.848 100.728L151.36 111.064ZM176.472 102.2C179.896 102.2 182.008 104.472 182.008 108.216V119H177.848V109.24C177.848 106.904 176.76 105.624 174.808 105.624C172.664 105.624 171.416 107.192 171.416 109.944V119H167.288V102.552H171.032L171.352 104.952C172.504 103.16 174.232 102.2 176.472 102.2ZM190.508 119.352C187.084 119.352 185.004 117.08 185.004 113.336V102.552H189.132V112.28C189.132 114.616 190.252 115.896 192.204 115.896C194.348 115.896 195.596 114.328 195.596 111.576V102.552H199.724V119H195.98L195.66 116.6C194.508 118.392 192.748 119.352 190.508 119.352ZM207.137 119H202.977V96.28H207.137V119ZM217.741 102.2C222.189 102.2 224.557 104.376 224.557 108.536V119H220.877L220.557 116.76C219.597 118.424 217.837 119.32 215.469 119.32C211.949 119.32 209.709 117.432 209.709 114.392C209.709 110.616 213.197 109.048 220.397 109.048V108.632C220.397 106.328 219.501 105.336 217.453 105.336C215.661 105.336 214.413 106.2 214.285 107.608H210.349C210.541 104.376 213.485 102.2 217.741 102.2ZM220.429 112.824V111.64C216.013 111.64 213.837 112.408 213.837 114.264C213.837 115.544 214.893 116.344 216.557 116.344C218.957 116.344 220.429 114.968 220.429 112.824ZM235.47 116.056C237.294 116.056 238.606 114.936 238.926 113.112H243.022C242.606 116.92 239.598 119.352 235.31 119.352C230.35 119.352 226.99 115.896 226.99 110.776C226.99 105.688 230.35 102.2 235.31 102.2C239.598 102.2 242.606 104.632 243.022 108.44H238.926C238.606 106.616 237.294 105.496 235.47 105.496C232.814 105.496 231.15 107.512 231.15 110.776C231.15 114.04 232.814 116.056 235.47 116.056ZM247.683 100.28C246.307 100.28 245.219 99.256 245.219 97.88C245.219 96.536 246.307 95.512 247.683 95.512C249.059 95.512 250.147 96.536 250.147 97.88C250.147 99.256 249.059 100.28 247.683 100.28ZM249.731 119H245.571V102.552H249.731V119ZM261.132 95.512H264.908L261.804 100.44H259.02L261.132 95.512ZM260.812 102.2C265.772 102.2 269.164 105.688 269.164 110.776C269.164 115.864 265.772 119.352 260.812 119.352C255.788 119.352 252.396 115.864 252.396 110.776C252.396 105.688 255.788 102.2 260.812 102.2ZM260.78 116.056C263.308 116.056 264.972 113.976 264.972 110.776C264.972 107.544 263.308 105.496 260.78 105.496C258.22 105.496 256.556 107.544 256.556 110.776C256.556 113.976 258.22 116.056 260.78 116.056ZM280.815 102.2C284.239 102.2 286.351 104.472 286.351 108.216V119H282.191V109.24C282.191 106.904 281.103 105.624 279.151 105.624C277.007 105.624 275.759 107.192 275.759 109.944V119H271.631V102.552H275.375L275.695 104.952C276.847 103.16 278.575 102.2 280.815 102.2Z" fill="#13172C"/>
<path d="M160.875 45.25V42.75H150.975L154.588 38.375H151.275L146.775 44L151.275 49.625H154.588L150.975 45.25H160.875Z" fill="#03050F"/>
<path d="M178.188 39.2L181.66 49H179.378L178.776 47.166H175.08L174.478 49H172.196L175.668 39.2H178.188ZM175.542 45.5H178.314L176.928 41.202L175.542 45.5ZM186.26 43.344H184.958V46.676C184.958 47.222 185.224 47.446 185.756 47.446C185.994 47.446 186.218 47.404 186.316 47.39V49C186.05 49.07 185.588 49.14 185.168 49.14C183.53 49.14 182.788 48.44 182.788 46.802V43.344H181.92V41.776H182.788V40.012H184.888V41.776H186.26V43.344ZM192.238 41.706V43.652C192.098 43.61 191.916 43.568 191.692 43.568C190.572 43.568 189.928 44.31 189.928 45.598V49H187.772V41.776H189.76L189.9 42.84C190.236 42.084 190.908 41.636 191.65 41.636C191.874 41.636 192.07 41.664 192.238 41.706ZM196.534 38.696H198.382L196.996 40.88H195.638L196.534 38.696ZM196.66 41.622C198.718 41.622 199.782 42.574 199.782 44.394V49H197.864L197.724 48.062C197.304 48.776 196.548 49.14 195.512 49.14C193.944 49.14 192.978 48.314 192.978 46.97C192.978 45.318 194.462 44.632 197.64 44.632V44.478C197.64 43.568 197.29 43.162 196.506 43.162C195.82 43.162 195.344 43.512 195.302 44.058H193.272C193.342 42.574 194.672 41.622 196.66 41.622ZM197.654 46.354V45.864C195.946 45.864 195.12 46.158 195.12 46.858C195.12 47.362 195.526 47.67 196.184 47.67C197.094 47.67 197.654 47.166 197.654 46.354ZM203.397 43.806C203.397 44.17 203.705 44.366 204.671 44.562L205.175 44.66C206.953 45.01 207.653 45.584 207.653 46.718C207.653 48.23 206.435 49.154 204.447 49.154C202.529 49.154 201.269 48.244 201.129 46.732H203.243C203.257 47.264 203.775 47.628 204.489 47.628C205.091 47.628 205.511 47.348 205.511 46.928C205.511 46.55 205.203 46.368 204.181 46.158L203.719 46.074C202.081 45.738 201.325 45.066 201.325 43.946C201.325 42.546 202.529 41.622 204.349 41.622C206.127 41.622 207.317 42.504 207.429 43.904H205.455C205.385 43.428 204.965 43.12 204.349 43.12C203.789 43.12 203.397 43.4 203.397 43.806Z" fill="#13172C"/>
<path d="M706 249.5H698V245.5H706V249.5ZM714.265 282H695C694.204 282 693.441 281.684 692.879 281.121C692.316 280.559 692 279.796 692 279V233C692 232.204 692.316 231.441 692.879 230.879C693.441 230.316 694.204 230 695 230H725C725.796 230 726.559 230.316 727.121 230.879C727.684 231.441 728 232.204 728 233V255C729.348 255.001 730.69 255.162 732 255.48V233C732 231.143 731.263 229.363 729.95 228.05C728.637 226.737 726.857 226 725 226H695C693.143 226 691.363 226.737 690.05 228.05C688.738 229.363 688 231.143 688 233V279C688 280.857 688.738 282.637 690.05 283.95C691.363 285.263 693.143 286 695 286H718.372C716.788 284.907 715.399 283.555 714.265 282ZM720 253.5H698V257.5H719.137C719.419 257.333 719.707 257.167 720 257V253.5ZM698 261.5V265.5H712.295C712.892 264.066 713.683 262.72 714.645 261.5H698Z" fill="#13172C"/>
<path d="M728 258C725.231 258 722.524 258.821 720.222 260.359C717.92 261.898 716.125 264.084 715.066 266.642C714.006 269.201 713.729 272.016 714.269 274.731C714.809 277.447 716.143 279.942 718.101 281.899C720.058 283.857 722.553 285.191 725.269 285.731C727.984 286.271 730.799 285.994 733.358 284.934C735.916 283.875 738.102 282.08 739.641 279.778C741.179 277.476 742 274.769 742 272C742 268.287 740.525 264.726 737.899 262.101C735.274 259.475 731.713 258 728 258ZM725.5 279.577L719.085 273.165L721.915 270.335L725.5 273.923L734.085 265.335L736.915 268.165L725.5 279.577Z" fill="#003AC2"/>
<path d="M582.673 324.288C582.673 323.328 583.441 322.584 584.449 322.584C585.457 322.584 586.225 323.328 586.225 324.288C586.225 325.272 585.457 326.016 584.449 326.016C583.441 326.016 582.673 325.272 582.673 324.288ZM582.697 339.6L583.009 328.272H585.673L586.009 339.6H582.697ZM592.526 323.712C592.526 324.84 593.438 325.488 595.814 326.016L596.894 326.256C600.734 327.12 602.198 328.416 602.198 331.08C602.198 334.152 599.678 336.264 595.67 336.264C591.758 336.264 589.094 334.224 588.854 330.864H592.118C592.286 332.52 593.75 333.648 595.742 333.648C597.59 333.648 598.91 332.664 598.91 331.32C598.91 330.12 598.022 329.496 595.694 328.968L594.71 328.752C590.966 327.96 589.286 326.472 589.286 324.024C589.286 321.024 591.782 318.936 595.454 318.936C598.982 318.936 601.502 320.928 601.742 323.904H598.574C598.406 322.464 597.158 321.504 595.382 321.504C593.702 321.504 592.526 322.416 592.526 323.712ZM615.857 329.904V330.504H606.785C606.809 332.472 607.985 333.888 609.929 333.888C611.153 333.888 612.137 333.36 612.593 332.208H615.737C615.137 334.752 612.713 336.264 609.905 336.264C606.065 336.264 603.641 333.6 603.641 329.856C603.641 326.16 605.969 323.4 609.785 323.4C613.697 323.4 615.857 326.04 615.857 329.904ZM606.833 328.536H612.737C612.545 326.784 611.537 325.728 609.833 325.728C608.153 325.728 607.025 326.856 606.833 328.536ZM628.063 323.4C631.399 323.4 633.175 325.032 633.175 328.152V336H630.415L630.175 334.32C629.455 335.568 628.135 336.24 626.359 336.24C623.719 336.24 622.039 334.824 622.039 332.544C622.039 329.712 624.655 328.536 630.055 328.536V328.224C630.055 326.496 629.383 325.752 627.847 325.752C626.503 325.752 625.567 326.4 625.471 327.456H622.519C622.663 325.032 624.871 323.4 628.063 323.4ZM630.079 331.368V330.48C626.767 330.48 625.135 331.056 625.135 332.448C625.135 333.408 625.927 334.008 627.175 334.008C628.975 334.008 630.079 332.976 630.079 331.368ZM642.416 323.4C644.984 323.4 646.568 325.104 646.568 327.912V336H643.448V328.68C643.448 326.928 642.632 325.968 641.168 325.968C639.56 325.968 638.624 327.144 638.624 329.208V336H635.528V323.664H638.336L638.576 325.464C639.44 324.12 640.736 323.4 642.416 323.4ZM652.944 336.264C650.376 336.264 648.816 334.56 648.816 331.752V323.664H651.912V330.96C651.912 332.712 652.752 333.672 654.216 333.672C655.824 333.672 656.76 332.496 656.76 330.432V323.664H659.856V336H657.048L656.808 334.2C655.944 335.544 654.624 336.264 652.944 336.264ZM665.415 336H662.295V318.96H665.415V336ZM673.896 318.384H676.728L674.4 322.08H672.312L673.896 318.384ZM673.656 323.4C677.376 323.4 679.92 326.016 679.92 329.832C679.92 333.648 677.376 336.264 673.656 336.264C669.888 336.264 667.344 333.648 667.344 329.832C667.344 326.016 669.888 323.4 673.656 323.4ZM673.632 333.792C675.528 333.792 676.776 332.232 676.776 329.832C676.776 327.408 675.528 325.872 673.632 325.872C671.712 325.872 670.464 327.408 670.464 329.832C670.464 332.232 671.712 333.792 673.632 333.792ZM689.766 336H686.646V318.96H689.766V336ZM697.719 323.4C701.055 323.4 702.831 325.032 702.831 328.152V336H700.071L699.831 334.32C699.111 335.568 697.791 336.24 696.015 336.24C693.375 336.24 691.695 334.824 691.695 332.544C691.695 329.712 694.311 328.536 699.711 328.536V328.224C699.711 326.496 699.039 325.752 697.503 325.752C696.159 325.752 695.223 326.4 695.127 327.456H692.175C692.319 325.032 694.527 323.4 697.719 323.4ZM699.735 331.368V330.48C696.423 330.48 694.791 331.056 694.791 332.448C694.791 333.408 695.583 334.008 696.831 334.008C698.631 334.008 699.735 332.976 699.735 331.368ZM715.965 326.016H713.685V332.328C713.685 333.336 714.165 333.696 715.148 333.696C715.581 333.696 715.965 333.648 716.109 333.6V336C715.773 336.072 715.101 336.192 714.429 336.192C711.741 336.192 710.589 335.112 710.589 332.4V326.016H709.053V323.664H710.589V320.688H713.613V323.664H715.965V326.016ZM725.012 323.544V326.328C724.772 326.256 724.46 326.208 724.052 326.208C722.204 326.208 721.124 327.552 721.124 329.88V336H718.004V323.664H720.836L721.076 325.488C721.604 324.24 722.756 323.424 724.004 323.424C724.388 323.424 724.724 323.472 725.012 323.544ZM731.704 323.4C735.04 323.4 736.816 325.032 736.816 328.152V336H734.056L733.816 334.32C733.096 335.568 731.776 336.24 730 336.24C727.36 336.24 725.68 334.824 725.68 332.544C725.68 329.712 728.296 328.536 733.696 328.536V328.224C733.696 326.496 733.024 325.752 731.488 325.752C730.144 325.752 729.208 326.4 729.112 327.456H726.16C726.304 325.032 728.512 323.4 731.704 323.4ZM733.72 331.368V330.48C730.408 330.48 728.776 331.056 728.776 332.448C728.776 333.408 729.568 334.008 730.816 334.008C732.616 334.008 733.72 332.976 733.72 331.368ZM746.057 323.4C748.625 323.4 750.209 325.104 750.209 327.912V336H747.089V328.68C747.089 326.928 746.273 325.968 744.809 325.968C743.201 325.968 742.265 327.144 742.265 329.208V336H739.169V323.664H741.977L742.217 325.464C743.081 324.12 744.377 323.4 746.057 323.4ZM755.264 327.072C755.264 327.768 755.864 328.176 757.52 328.512L758.336 328.68C761.36 329.304 762.584 330.336 762.584 332.208C762.584 334.728 760.592 336.264 757.376 336.264C754.232 336.264 752.168 334.68 751.952 332.184H755C755.048 333.216 756.032 333.96 757.472 333.96C758.672 333.96 759.488 333.336 759.488 332.472C759.488 331.728 758.912 331.344 757.112 330.96L756.344 330.792C753.536 330.216 752.288 329.112 752.288 327.24C752.288 324.96 754.256 323.4 757.184 323.4C760.112 323.4 762.032 324.888 762.224 327.216H759.344C759.224 326.256 758.384 325.656 757.184 325.656C756.08 325.656 755.264 326.256 755.264 327.072ZM769.907 323.4C773.243 323.4 775.019 325.032 775.019 328.152V336H772.259L772.019 334.32C771.299 335.568 769.979 336.24 768.203 336.24C765.563 336.24 763.883 334.824 763.883 332.544C763.883 329.712 766.499 328.536 771.899 328.536V328.224C771.899 326.496 771.227 325.752 769.691 325.752C768.347 325.752 767.411 326.4 767.315 327.456H764.363C764.507 325.032 766.715 323.4 769.907 323.4ZM771.923 331.368V330.48C768.611 330.48 766.979 331.056 766.979 332.448C766.979 333.408 767.771 334.008 769.019 334.008C770.819 334.008 771.923 332.976 771.923 331.368ZM783.204 333.792C784.572 333.792 785.556 332.952 785.796 331.584H788.868C788.556 334.44 786.3 336.264 783.084 336.264C779.364 336.264 776.844 333.672 776.844 329.832C776.844 326.016 779.364 323.4 783.084 323.4C786.3 323.4 788.556 325.224 788.868 328.08H785.796C785.556 326.712 784.572 325.872 783.204 325.872C781.212 325.872 779.964 327.384 779.964 329.832C779.964 332.28 781.212 333.792 783.204 333.792ZM796.54 333.792C797.908 333.792 798.892 332.952 799.132 331.584H802.204C801.892 334.44 799.636 336.264 796.42 336.264C792.7 336.264 790.18 333.672 790.18 329.832C790.18 326.016 792.7 323.4 796.42 323.4C799.636 323.4 801.892 325.224 802.204 328.08H799.132C798.892 326.712 797.908 325.872 796.54 325.872C794.548 325.872 793.3 327.384 793.3 329.832C793.3 332.28 794.548 333.792 796.54 333.792ZM805.7 321.96C804.668 321.96 803.852 321.192 803.852 320.16C803.852 319.152 804.668 318.384 805.7 318.384C806.732 318.384 807.548 319.152 807.548 320.16C807.548 321.192 806.732 321.96 805.7 321.96ZM807.236 336H804.116V323.664H807.236V336ZM815.787 318.384H818.619L816.291 322.08H814.203L815.787 318.384ZM815.547 323.4C819.267 323.4 821.811 326.016 821.811 329.832C821.811 333.648 819.267 336.264 815.547 336.264C811.779 336.264 809.235 333.648 809.235 329.832C809.235 326.016 811.779 323.4 815.547 323.4ZM815.523 333.792C817.419 333.792 818.667 332.232 818.667 329.832C818.667 327.408 817.419 325.872 815.523 325.872C813.603 325.872 812.355 327.408 812.355 329.832C812.355 332.232 813.603 333.792 815.523 333.792ZM830.549 323.4C833.117 323.4 834.701 325.104 834.701 327.912V336H831.581V328.68C831.581 326.928 830.765 325.968 829.301 325.968C827.693 325.968 826.757 327.144 826.757 329.208V336H823.661V323.664H826.469L826.709 325.464C827.573 324.12 828.869 323.4 830.549 323.4ZM838.22 330.528L837.908 319.2H841.22L840.884 330.528H838.22ZM837.884 334.512C837.884 333.528 838.652 332.784 839.66 332.784C840.668 332.784 841.436 333.528 841.436 334.512C841.436 335.472 840.668 336.216 839.66 336.216C838.652 336.216 837.884 335.472 837.884 334.512Z" fill="#13172C"/>
<path d="M504.622 358.8H513.07V359.952H509.518V370H508.174V359.952H504.622V358.8ZM519.802 365.904V366.24H513.386C513.418 367.808 514.41 369.024 516.026 369.024C517.05 369.024 517.898 368.592 518.314 367.6H519.674C519.21 369.264 517.69 370.16 516.042 370.16C513.578 370.16 512.058 368.352 512.058 365.936C512.058 363.632 513.546 361.68 515.946 361.68C518.458 361.68 519.802 363.488 519.802 365.904ZM513.418 365.184H518.474C518.314 363.712 517.482 362.8 515.978 362.8C514.554 362.8 513.578 363.792 513.418 365.184ZM524.981 365.776L527.941 370H526.405L524.261 366.784L522.117 370H520.581L523.541 365.776L520.709 361.84H522.245L524.261 364.816L526.277 361.84H527.813L524.981 365.776ZM532.432 362.96H530.832V367.936C530.832 368.704 531.2 368.96 531.888 368.96C532.24 368.96 532.528 368.912 532.528 368.912V370C532.528 370 532.192 370.096 531.808 370.096C530.192 370.096 529.552 369.536 529.552 367.84V362.96H528.528V361.84H529.552V359.92H530.832V361.84H532.432V362.96ZM537.534 361.68C539.902 361.68 541.518 363.408 541.518 365.92C541.518 368.432 539.902 370.16 537.534 370.16C535.15 370.16 533.518 368.432 533.518 365.92C533.518 363.408 535.15 361.68 537.534 361.68ZM537.518 369.024C539.134 369.024 540.206 367.792 540.206 365.92C540.206 364.048 539.134 362.816 537.518 362.816C535.902 362.816 534.83 364.048 534.83 365.92C534.83 367.792 535.902 369.024 537.518 369.024ZM553.99 370H552.902L552.742 368.64C552.086 369.632 551.078 370.16 549.91 370.16C547.798 370.16 546.246 368.416 546.246 365.92C546.246 363.424 547.798 361.68 549.894 361.68C551.062 361.68 552.086 362.208 552.71 363.136V358.64H553.99V370ZM552.774 365.92C552.774 364.064 551.718 362.816 550.166 362.816C548.614 362.816 547.558 364.064 547.558 365.92C547.558 367.776 548.614 369.024 550.166 369.024C551.718 369.024 552.774 367.776 552.774 365.92ZM563.377 365.904V366.24H556.961C556.993 367.808 557.985 369.024 559.601 369.024C560.625 369.024 561.473 368.592 561.889 367.6H563.249C562.785 369.264 561.265 370.16 559.617 370.16C557.153 370.16 555.633 368.352 555.633 365.936C555.633 363.632 557.121 361.68 559.521 361.68C562.033 361.68 563.377 363.488 563.377 365.904ZM556.993 365.184H562.049C561.889 363.712 561.057 362.8 559.553 362.8C558.129 362.8 557.153 363.792 556.993 365.184ZM566.072 364.016C566.072 364.608 566.536 364.96 567.64 365.2L568.136 365.312C570.088 365.744 570.968 366.48 570.968 367.664C570.968 369.2 569.768 370.16 567.848 370.16C565.976 370.16 564.68 369.12 564.568 367.536H565.88C565.912 368.432 566.728 369.024 567.928 369.024C568.952 369.024 569.672 368.48 569.672 367.696C569.672 367.056 569.224 366.736 567.912 366.416L567.448 366.304C565.56 365.856 564.792 365.2 564.792 364.064C564.792 362.672 565.992 361.68 567.704 361.68C569.464 361.68 570.648 362.624 570.76 364.064H569.48C569.384 363.28 568.696 362.784 567.704 362.784C566.744 362.784 566.072 363.296 566.072 364.016ZM576.238 369.024C577.406 369.024 578.206 368.384 578.446 367.28H579.774C579.518 369.024 578.062 370.16 576.11 370.16C573.822 370.16 572.158 368.4 572.158 365.92C572.158 363.456 573.822 361.68 576.11 361.68C578.062 361.68 579.518 362.816 579.774 364.56H578.446C578.206 363.456 577.406 362.816 576.238 362.816C574.558 362.816 573.47 364.016 573.47 365.92C573.47 367.824 574.558 369.024 576.238 369.024ZM585.097 361.76V362.896C584.937 362.848 584.745 362.816 584.489 362.816C583.289 362.816 582.601 363.792 582.601 365.504V370H581.321V361.84H582.409L582.569 363.04C582.873 362.256 583.657 361.68 584.441 361.68C584.713 361.68 584.921 361.712 585.097 361.76ZM587.196 360.368C586.7 360.368 586.316 360 586.316 359.504C586.316 359.008 586.7 358.64 587.196 358.64C587.692 358.64 588.076 359.008 588.076 359.504C588.076 360 587.692 360.368 587.196 360.368ZM587.804 370H586.524V361.84H587.804V370ZM590.035 372.88V361.84H591.123L591.283 363.2C591.939 362.208 592.947 361.68 594.115 361.68C596.227 361.68 597.779 363.424 597.779 365.92C597.779 368.416 596.227 370.16 594.131 370.16C592.963 370.16 591.939 369.632 591.315 368.704V372.88H590.035ZM591.251 365.92C591.251 367.776 592.307 369.024 593.859 369.024C595.411 369.024 596.467 367.776 596.467 365.92C596.467 364.064 595.411 362.816 593.859 362.816C592.307 362.816 591.251 364.064 591.251 365.92ZM602.495 362.96H600.895V367.936C600.895 368.704 601.263 368.96 601.951 368.96C602.303 368.96 602.591 368.912 602.591 368.912V370C602.591 370 602.255 370.096 601.871 370.096C600.255 370.096 599.615 369.536 599.615 367.84V362.96H598.591V361.84H599.615V359.92H600.895V361.84H602.495V362.96ZM605.014 360.368C604.518 360.368 604.134 360 604.134 359.504C604.134 359.008 604.518 358.64 605.014 358.64C605.51 358.64 605.894 359.008 605.894 359.504C605.894 360 605.51 360.368 605.014 360.368ZM605.622 370H604.342V361.84H605.622V370ZM613.198 361.84H614.574L611.534 370H610.126L607.086 361.84H608.462L610.83 368.56L613.198 361.84ZM619.23 361.68C621.598 361.68 623.214 363.408 623.214 365.92C623.214 368.432 621.598 370.16 619.23 370.16C616.846 370.16 615.214 368.432 615.214 365.92C615.214 363.408 616.846 361.68 619.23 361.68ZM619.214 369.024C620.83 369.024 621.902 367.792 621.902 365.92C621.902 364.048 620.83 362.816 619.214 362.816C617.598 362.816 616.526 364.048 616.526 365.92C616.526 367.792 617.598 369.024 619.214 369.024ZM629.463 364.016C629.463 364.608 629.927 364.96 631.031 365.2L631.527 365.312C633.479 365.744 634.359 366.48 634.359 367.664C634.359 369.2 633.159 370.16 631.239 370.16C629.367 370.16 628.071 369.12 627.959 367.536H629.271C629.303 368.432 630.119 369.024 631.319 369.024C632.343 369.024 633.063 368.48 633.063 367.696C633.063 367.056 632.615 366.736 631.303 366.416L630.839 366.304C628.951 365.856 628.183 365.2 628.183 364.064C628.183 362.672 629.383 361.68 631.095 361.68C632.855 361.68 634.039 362.624 634.151 364.064H632.871C632.775 363.28 632.087 362.784 631.095 362.784C630.135 362.784 629.463 363.296 629.463 364.016ZM639.565 361.68C641.933 361.68 643.549 363.408 643.549 365.92C643.549 368.432 641.933 370.16 639.565 370.16C637.181 370.16 635.549 368.432 635.549 365.92C635.549 363.408 637.181 361.68 639.565 361.68ZM639.549 369.024C641.165 369.024 642.237 367.792 642.237 365.92C642.237 364.048 641.165 362.816 639.549 362.816C637.933 362.816 636.861 364.048 636.861 365.92C636.861 367.792 637.933 369.024 639.549 369.024ZM646.27 370H645.182V358.64H646.462V363.136C647.086 362.208 648.11 361.68 649.278 361.68C651.374 361.68 652.926 363.424 652.926 365.92C652.926 368.416 651.374 370.16 649.262 370.16C648.094 370.16 647.086 369.632 646.43 368.64L646.27 370ZM646.398 365.92C646.398 367.776 647.454 369.024 649.006 369.024C650.558 369.024 651.614 367.776 651.614 365.92C651.614 364.064 650.558 362.816 649.006 362.816C647.454 362.816 646.398 364.064 646.398 365.92ZM658.281 361.76V362.896C658.121 362.848 657.929 362.816 657.673 362.816C656.473 362.816 655.785 363.792 655.785 365.504V370H654.505V361.84H655.593L655.753 363.04C656.057 362.256 656.841 361.68 657.625 361.68C657.897 361.68 658.105 361.712 658.281 361.76ZM666.518 365.904V366.24H660.102C660.134 367.808 661.126 369.024 662.742 369.024C663.766 369.024 664.614 368.592 665.03 367.6H666.39C665.926 369.264 664.406 370.16 662.758 370.16C660.294 370.16 658.774 368.352 658.774 365.936C658.774 363.632 660.262 361.68 662.662 361.68C665.174 361.68 666.518 363.488 666.518 365.904ZM660.134 365.184H665.19C665.03 363.712 664.198 362.8 662.694 362.8C661.27 362.8 660.294 363.792 660.134 365.184ZM672.996 370H671.716V358.64H672.996V370ZM678.655 361.68C681.023 361.68 682.639 363.408 682.639 365.92C682.639 368.432 681.023 370.16 678.655 370.16C676.271 370.16 674.639 368.432 674.639 365.92C674.639 363.408 676.271 361.68 678.655 361.68ZM678.639 369.024C680.255 369.024 681.327 367.792 681.327 365.92C681.327 364.048 680.255 362.816 678.639 362.816C677.023 362.816 675.951 364.048 675.951 365.92C675.951 367.792 677.023 369.024 678.639 369.024ZM695.096 361.84V372.88H693.816V368.704C693.192 369.632 692.168 370.16 691 370.16C688.904 370.16 687.352 368.416 687.352 365.92C687.352 363.424 688.904 361.68 691.016 361.68C692.184 361.68 693.192 362.208 693.848 363.2L694.008 361.84H695.096ZM693.88 365.92C693.88 364.064 692.824 362.816 691.272 362.816C689.72 362.816 688.664 364.064 688.664 365.92C688.664 367.776 689.72 369.024 691.272 369.024C692.824 369.024 693.88 367.776 693.88 365.92ZM699.907 370.16C698.243 370.16 697.123 368.992 697.123 367.184V361.84H698.403V366.912C698.403 368.224 699.123 369.024 700.339 369.024C701.651 369.024 702.467 368.048 702.467 366.528V361.84H703.747V370H702.659L702.499 368.816C701.939 369.696 701.043 370.16 699.907 370.16ZM713.074 365.904V366.24H706.658C706.69 367.808 707.682 369.024 709.298 369.024C710.322 369.024 711.17 368.592 711.586 367.6H712.946C712.482 369.264 710.962 370.16 709.314 370.16C706.85 370.16 705.33 368.352 705.33 365.936C705.33 363.632 706.818 361.68 709.218 361.68C711.73 361.68 713.074 363.488 713.074 365.904ZM706.69 365.184H711.746C711.586 363.712 710.754 362.8 709.25 362.8C707.826 362.8 706.85 363.792 706.69 365.184ZM719.329 364.016C719.329 364.608 719.793 364.96 720.897 365.2L721.393 365.312C723.345 365.744 724.225 366.48 724.225 367.664C724.225 369.2 723.025 370.16 721.105 370.16C719.233 370.16 717.937 369.12 717.825 367.536H719.137C719.169 368.432 719.985 369.024 721.185 369.024C722.209 369.024 722.929 368.48 722.929 367.696C722.929 367.056 722.481 366.736 721.169 366.416L720.705 366.304C718.817 365.856 718.049 365.2 718.049 364.064C718.049 362.672 719.249 361.68 720.961 361.68C722.721 361.68 723.905 362.624 724.017 364.064H722.737C722.641 363.28 721.953 362.784 720.961 362.784C720.001 362.784 719.329 363.296 719.329 364.016ZM728.582 370.16C726.918 370.16 725.798 368.992 725.798 367.184V361.84H727.078V366.912C727.078 368.224 727.798 369.024 729.014 369.024C730.326 369.024 731.142 368.048 731.142 366.528V361.84H732.422V370H731.334L731.174 368.816C730.614 369.696 729.718 370.16 728.582 370.16ZM738.085 369.024C739.253 369.024 740.053 368.384 740.293 367.28H741.621C741.365 369.024 739.909 370.16 737.957 370.16C735.669 370.16 734.005 368.4 734.005 365.92C734.005 363.456 735.669 361.68 737.957 361.68C739.909 361.68 741.365 362.816 741.621 364.56H740.293C740.053 363.456 739.253 362.816 738.085 362.816C736.405 362.816 735.317 364.016 735.317 365.92C735.317 367.824 736.405 369.024 738.085 369.024ZM750.496 365.904V366.24H744.08C744.112 367.808 745.104 369.024 746.72 369.024C747.744 369.024 748.592 368.592 749.008 367.6H750.368C749.904 369.264 748.384 370.16 746.736 370.16C744.272 370.16 742.752 368.352 742.752 365.936C742.752 363.632 744.24 361.68 746.64 361.68C749.152 361.68 750.496 363.488 750.496 365.904ZM744.112 365.184H749.168C749.008 363.712 748.176 362.8 746.672 362.8C745.248 362.8 744.272 363.792 744.112 365.184ZM759.415 370H758.327L758.167 368.64C757.511 369.632 756.503 370.16 755.335 370.16C753.223 370.16 751.671 368.416 751.671 365.92C751.671 363.424 753.223 361.68 755.319 361.68C756.487 361.68 757.511 362.208 758.135 363.136V358.64H759.415V370ZM758.199 365.92C758.199 364.064 757.143 362.816 755.591 362.816C754.039 362.816 752.983 364.064 752.983 365.92C752.983 367.776 754.039 369.024 755.591 369.024C757.143 369.024 758.199 367.776 758.199 365.92ZM762.258 360.368C761.762 360.368 761.378 360 761.378 359.504C761.378 359.008 761.762 358.64 762.258 358.64C762.754 358.64 763.138 359.008 763.138 359.504C763.138 360 762.754 360.368 762.258 360.368ZM762.866 370H761.586V361.84H762.866V370ZM769.194 358.32H770.634L769.098 360.72H768.074L769.194 358.32ZM768.634 361.68C771.002 361.68 772.618 363.408 772.618 365.92C772.618 368.432 771.002 370.16 768.634 370.16C766.25 370.16 764.618 368.432 764.618 365.92C764.618 363.408 766.25 361.68 768.634 361.68ZM768.618 369.024C770.234 369.024 771.306 367.792 771.306 365.92C771.306 364.048 770.234 362.816 768.618 362.816C767.002 362.816 765.93 364.048 765.93 365.92C765.93 367.792 767.002 369.024 768.618 369.024ZM781.346 361.68C783.714 361.68 785.33 363.408 785.33 365.92C785.33 368.432 783.714 370.16 781.346 370.16C778.962 370.16 777.33 368.432 777.33 365.92C777.33 363.408 778.962 361.68 781.346 361.68ZM781.33 369.024C782.946 369.024 784.018 367.792 784.018 365.92C784.018 364.048 782.946 362.816 781.33 362.816C779.714 362.816 778.642 364.048 778.642 365.92C778.642 367.792 779.714 369.024 781.33 369.024ZM797.786 361.84V372.88H796.507V368.704C795.883 369.632 794.859 370.16 793.691 370.16C791.595 370.16 790.043 368.416 790.043 365.92C790.043 363.424 791.595 361.68 793.707 361.68C794.875 361.68 795.883 362.208 796.539 363.2L796.699 361.84H797.786ZM796.571 365.92C796.571 364.064 795.515 362.816 793.963 362.816C792.411 362.816 791.355 364.064 791.355 365.92C791.355 367.776 792.411 369.024 793.963 369.024C795.515 369.024 796.571 367.776 796.571 365.92ZM802.598 370.16C800.934 370.16 799.814 368.992 799.814 367.184V361.84H801.094V366.912C801.094 368.224 801.814 369.024 803.03 369.024C804.342 369.024 805.158 368.048 805.158 366.528V361.84H806.438V370H805.35L805.19 368.816C804.63 369.696 803.734 370.16 802.598 370.16ZM815.765 365.904V366.24H809.349C809.381 367.808 810.373 369.024 811.989 369.024C813.013 369.024 813.861 368.592 814.277 367.6H815.637C815.173 369.264 813.653 370.16 812.005 370.16C809.541 370.16 808.021 368.352 808.021 365.936C808.021 363.632 809.509 361.68 811.909 361.68C814.421 361.68 815.765 363.488 815.765 365.904ZM809.381 365.184H814.437C814.277 363.712 813.445 362.8 811.941 362.8C810.517 362.8 809.541 363.792 809.381 365.184ZM822.019 364.016C822.019 364.608 822.483 364.96 823.587 365.2L824.083 365.312C826.035 365.744 826.915 366.48 826.915 367.664C826.915 369.2 825.715 370.16 823.795 370.16C821.923 370.16 820.627 369.12 820.515 367.536H821.827C821.859 368.432 822.675 369.024 823.875 369.024C824.899 369.024 825.619 368.48 825.619 367.696C825.619 367.056 825.171 366.736 823.859 366.416L823.395 366.304C821.507 365.856 820.739 365.2 820.739 364.064C820.739 362.672 821.939 361.68 823.651 361.68C825.411 361.68 826.595 362.624 826.707 364.064H825.427C825.331 363.28 824.643 362.784 823.651 362.784C822.691 362.784 822.019 363.296 822.019 364.016ZM835.849 365.904V366.24H829.433C829.465 367.808 830.457 369.024 832.073 369.024C833.097 369.024 833.945 368.592 834.361 367.6H835.721C835.257 369.264 833.737 370.16 832.089 370.16C829.625 370.16 828.105 368.352 828.105 365.936C828.105 363.632 829.593 361.68 831.993 361.68C834.505 361.68 835.849 363.488 835.849 365.904ZM829.465 365.184H834.521C834.361 363.712 833.529 362.8 832.025 362.8C830.601 362.8 829.625 363.792 829.465 365.184ZM848.328 370H847.24L847.08 368.64C846.424 369.632 845.416 370.16 844.248 370.16C842.136 370.16 840.584 368.416 840.584 365.92C840.584 363.424 842.136 361.68 844.232 361.68C845.4 361.68 846.424 362.208 847.048 363.136V358.64H848.328V370ZM847.112 365.92C847.112 364.064 846.056 362.816 844.504 362.816C842.952 362.816 841.896 364.064 841.896 365.92C841.896 367.776 842.952 369.024 844.504 369.024C846.056 369.024 847.112 367.776 847.112 365.92ZM857.715 365.904V366.24H851.299C851.331 367.808 852.323 369.024 853.939 369.024C854.963 369.024 855.811 368.592 856.227 367.6H857.587C857.123 369.264 855.603 370.16 853.955 370.16C851.491 370.16 849.971 368.352 849.971 365.936C849.971 363.632 851.459 361.68 853.859 361.68C856.371 361.68 857.715 363.488 857.715 365.904ZM851.331 365.184H856.387C856.227 363.712 855.395 362.8 853.891 362.8C852.467 362.8 851.491 363.792 851.331 365.184ZM860.442 370H859.354V358.64H860.634V363.136C861.258 362.208 862.282 361.68 863.45 361.68C865.546 361.68 867.098 363.424 867.098 365.92C867.098 368.416 865.546 370.16 863.434 370.16C862.266 370.16 861.258 369.632 860.602 368.64L860.442 370ZM860.57 365.92C860.57 367.776 861.626 369.024 863.178 369.024C864.73 369.024 865.786 367.776 865.786 365.92C865.786 364.064 864.73 362.816 863.178 362.816C861.626 362.816 860.57 364.064 860.57 365.92ZM876.005 365.904V366.24H869.589C869.621 367.808 870.613 369.024 872.229 369.024C873.253 369.024 874.101 368.592 874.517 367.6H875.877C875.413 369.264 873.893 370.16 872.245 370.16C869.781 370.16 868.261 368.352 868.261 365.936C868.261 363.632 869.749 361.68 872.149 361.68C874.661 361.68 876.005 363.488 876.005 365.904ZM869.621 365.184H874.677C874.517 363.712 873.685 362.8 872.181 362.8C870.757 362.8 869.781 363.792 869.621 365.184ZM885.044 361.68C886.708 361.68 887.828 362.864 887.828 364.656V370H886.548V364.944C886.548 363.632 885.828 362.832 884.612 362.832C883.3 362.832 882.484 363.808 882.484 365.328V370H881.204V358.64H882.484V363.024C882.98 362.176 883.908 361.68 885.044 361.68ZM893.089 361.68C895.105 361.68 896.161 362.752 896.161 364.8V370H895.089L894.929 368.784C894.449 369.648 893.489 370.128 892.305 370.128C890.593 370.128 889.441 369.184 889.441 367.728C889.441 365.856 891.345 365.072 894.881 365.072V364.8C894.881 363.408 894.321 362.816 893.041 362.816C891.921 362.816 891.121 363.36 891.057 364.176H889.793C889.873 362.752 891.281 361.68 893.089 361.68ZM894.897 366.816V366.096C892.177 366.096 890.753 366.592 890.753 367.776C890.753 368.576 891.393 369.056 892.401 369.056C893.921 369.056 894.897 368.176 894.897 366.816ZM901.782 369.024C902.95 369.024 903.75 368.384 903.99 367.28H905.318C905.062 369.024 903.606 370.16 901.654 370.16C899.366 370.16 897.702 368.4 897.702 365.92C897.702 363.456 899.366 361.68 901.654 361.68C903.606 361.68 905.062 362.816 905.318 364.56H903.99C903.75 363.456 902.95 362.816 901.782 362.816C900.102 362.816 899.014 364.016 899.014 365.92C899.014 367.824 900.102 369.024 901.782 369.024ZM914.193 365.904V366.24H907.777C907.809 367.808 908.801 369.024 910.417 369.024C911.441 369.024 912.289 368.592 912.705 367.6H914.065C913.601 369.264 912.081 370.16 910.433 370.16C907.969 370.16 906.449 368.352 906.449 365.936C906.449 363.632 907.937 361.68 910.337 361.68C912.849 361.68 914.193 363.488 914.193 365.904ZM907.809 365.184H912.865C912.705 363.712 911.873 362.8 910.369 362.8C908.945 362.8 907.969 363.792 907.809 365.184ZM919.544 361.76V362.896C919.384 362.848 919.192 362.816 918.936 362.816C917.736 362.816 917.048 363.792 917.048 365.504V370H915.768V361.84H916.856L917.016 363.04C917.32 362.256 918.104 361.68 918.888 361.68C919.16 361.68 919.368 361.712 919.544 361.76Z" fill="#13172C"/>
<path d="M573.5 436C573.5 420.536 586.036 408 601.5 408H822.5C837.964 408 850.5 420.536 850.5 436C850.5 451.464 837.964 464 822.5 464H601.5C586.036 464 573.5 451.464 573.5 436Z" fill="#295BFF"/>
<path d="M622.989 429.4H625.941L621.567 442H618.435L614.061 429.4H617.013L620.001 438.868L622.989 429.4ZM630.594 432.514C633.456 432.514 635.4 434.494 635.4 437.356C635.4 440.218 633.456 442.198 630.594 442.198C627.732 442.198 625.752 440.218 625.752 437.356C625.752 434.494 627.732 432.514 630.594 432.514ZM630.576 440.056C631.836 440.056 632.61 439.012 632.61 437.356C632.61 435.7 631.836 434.656 630.576 434.656C629.334 434.656 628.542 435.7 628.542 437.356C628.542 439.012 629.334 440.056 630.576 440.056ZM639.92 442H637.148V429.22H639.92V442ZM648.024 432.712H650.958L647.448 442H644.838L641.31 432.712H644.244L646.134 438.778L648.024 432.712ZM661.063 437.428V437.95H654.457C654.475 439.282 655.231 440.164 656.509 440.164C657.319 440.164 657.931 439.822 658.237 439.102H660.973C660.577 440.992 658.687 442.198 656.455 442.198C653.521 442.198 651.649 440.236 651.649 437.356C651.649 434.512 653.467 432.514 656.401 432.514C659.371 432.514 661.063 434.44 661.063 437.428ZM654.493 436.294H658.309C658.165 435.178 657.517 434.494 656.419 434.494C655.339 434.494 654.619 435.214 654.493 436.294ZM668.486 432.622V435.124C668.306 435.07 668.072 435.016 667.784 435.016C666.344 435.016 665.516 435.97 665.516 437.626V442H662.744V432.712H665.3L665.48 434.08C665.912 433.108 666.776 432.532 667.73 432.532C668.018 432.532 668.27 432.568 668.486 432.622ZM678.237 432.514C680.883 432.514 682.251 433.738 682.251 436.078V442H679.785L679.605 440.794C679.065 441.712 678.093 442.18 676.761 442.18C674.745 442.18 673.503 441.118 673.503 439.39C673.503 437.266 675.411 436.384 679.497 436.384V436.186C679.497 435.016 679.047 434.494 678.039 434.494C677.157 434.494 676.545 434.944 676.491 435.646H673.881C673.971 433.738 675.681 432.514 678.237 432.514ZM679.515 438.598V437.968C677.319 437.968 676.257 438.346 676.257 439.246C676.257 439.894 676.779 440.29 677.625 440.29C678.795 440.29 679.515 439.642 679.515 438.598ZM693.219 434.728H691.545V439.012C691.545 439.714 691.887 440.002 692.571 440.002C692.877 440.002 693.165 439.948 693.291 439.93V442C692.949 442.09 692.355 442.18 691.815 442.18C689.709 442.18 688.755 441.28 688.755 439.174V434.728H687.639V432.712H688.755V430.444H691.455V432.712H693.219V434.728ZM700.791 432.622V435.124C700.611 435.07 700.377 435.016 700.089 435.016C698.649 435.016 697.821 435.97 697.821 437.626V442H695.049V432.712H697.605L697.785 434.08C698.217 433.108 699.081 432.532 700.035 432.532C700.323 432.532 700.575 432.568 700.791 432.622ZM706.362 432.514C709.008 432.514 710.376 433.738 710.376 436.078V442H707.91L707.73 440.794C707.19 441.712 706.218 442.18 704.886 442.18C702.87 442.18 701.628 441.118 701.628 439.39C701.628 437.266 703.536 436.384 707.622 436.384V436.186C707.622 435.016 707.172 434.494 706.164 434.494C705.282 434.494 704.67 434.944 704.616 435.646H702.006C702.096 433.738 703.806 432.514 706.362 432.514ZM707.64 438.598V437.968C705.444 437.968 704.382 438.346 704.382 439.246C704.382 439.894 704.904 440.29 705.75 440.29C706.92 440.29 707.64 439.642 707.64 438.598ZM718.06 432.514C720.004 432.514 721.138 433.774 721.138 435.916V442H718.366V436.618C718.366 435.376 717.844 434.764 716.854 434.764C715.81 434.764 715.216 435.538 715.216 436.978V442H712.426V432.712H715L715.18 434.062C715.828 433.036 716.8 432.514 718.06 432.514ZM725.628 435.322C725.628 435.79 726.024 436.042 727.266 436.294L727.914 436.42C730.2 436.87 731.1 437.608 731.1 439.066C731.1 441.01 729.534 442.198 726.978 442.198C724.512 442.198 722.892 441.028 722.712 439.084H725.43C725.448 439.768 726.114 440.236 727.032 440.236C727.806 440.236 728.346 439.876 728.346 439.336C728.346 438.85 727.95 438.616 726.636 438.346L726.042 438.238C723.936 437.806 722.964 436.942 722.964 435.502C722.964 433.702 724.512 432.514 726.852 432.514C729.138 432.514 730.668 433.648 730.812 435.448H728.274C728.184 434.836 727.644 434.44 726.852 434.44C726.132 434.44 725.628 434.8 725.628 435.322ZM737.076 432.514C739.722 432.514 741.09 433.738 741.09 436.078V442H738.624L738.444 440.794C737.904 441.712 736.932 442.18 735.6 442.18C733.584 442.18 732.342 441.118 732.342 439.39C732.342 437.266 734.25 436.384 738.336 436.384V436.186C738.336 435.016 737.886 434.494 736.878 434.494C735.996 434.494 735.384 434.944 735.33 435.646H732.72C732.81 433.738 734.52 432.514 737.076 432.514ZM738.354 438.598V437.968C736.158 437.968 735.096 438.346 735.096 439.246C735.096 439.894 735.618 440.29 736.464 440.29C737.634 440.29 738.354 439.642 738.354 438.598ZM747.64 440.056C748.54 440.056 749.188 439.498 749.35 438.58H752.05C751.834 440.812 750.124 442.198 747.586 442.198C744.688 442.198 742.78 440.29 742.78 437.356C742.78 434.44 744.706 432.514 747.586 432.514C750.124 432.514 751.834 433.9 752.05 436.132H749.35C749.188 435.214 748.54 434.656 747.64 434.656C746.362 434.656 745.588 435.664 745.588 437.338C745.588 439.048 746.362 440.056 747.64 440.056ZM758.253 440.056C759.153 440.056 759.801 439.498 759.963 438.58H762.663C762.447 440.812 760.737 442.198 758.199 442.198C755.301 442.198 753.393 440.29 753.393 437.356C753.393 434.44 755.319 432.514 758.199 432.514C760.737 432.514 762.447 433.9 762.663 436.132H759.963C759.801 435.214 759.153 434.656 758.253 434.656C756.975 434.656 756.201 435.664 756.201 437.338C756.201 439.048 756.975 440.056 758.253 440.056ZM765.806 431.614C764.906 431.614 764.222 430.984 764.222 430.084C764.222 429.22 764.906 428.572 765.806 428.572C766.706 428.572 767.39 429.22 767.39 430.084C767.39 430.984 766.706 431.614 765.806 431.614ZM767.174 442H764.402V432.712H767.174V442ZM773.783 432.514C776.645 432.514 778.589 434.494 778.589 437.356C778.589 440.218 776.645 442.198 773.783 442.198C770.921 442.198 768.941 440.218 768.941 437.356C768.941 434.494 770.921 432.514 773.783 432.514ZM773.765 440.056C775.025 440.056 775.799 439.012 775.799 437.356C775.799 435.7 775.025 434.656 773.765 434.656C772.523 434.656 771.731 435.7 771.731 437.356C771.731 439.012 772.523 440.056 773.765 440.056ZM785.934 432.514C787.878 432.514 789.012 433.774 789.012 435.916V442H786.24V436.618C786.24 435.376 785.718 434.764 784.728 434.764C783.684 434.764 783.09 435.538 783.09 436.978V442H780.3V432.712H782.874L783.054 434.062C783.702 433.036 784.674 432.514 785.934 432.514ZM800.073 437.428V437.95H793.467C793.485 439.282 794.241 440.164 795.519 440.164C796.329 440.164 796.941 439.822 797.247 439.102H799.983C799.587 440.992 797.697 442.198 795.465 442.198C792.531 442.198 790.659 440.236 790.659 437.356C790.659 434.512 792.477 432.514 795.411 432.514C798.381 432.514 800.073 434.44 800.073 437.428ZM793.503 436.294H797.319C797.175 435.178 796.527 434.494 795.429 434.494C794.349 434.494 793.629 435.214 793.503 436.294ZM804.274 435.322C804.274 435.79 804.67 436.042 805.912 436.294L806.56 436.42C808.846 436.87 809.746 437.608 809.746 439.066C809.746 441.01 808.18 442.198 805.624 442.198C803.158 442.198 801.538 441.028 801.358 439.084H804.076C804.094 439.768 804.76 440.236 805.678 440.236C806.452 440.236 806.992 439.876 806.992 439.336C806.992 438.85 806.596 438.616 805.282 438.346L804.688 438.238C802.582 437.806 801.61 436.942 801.61 435.502C801.61 433.702 803.158 432.514 805.498 432.514C807.784 432.514 809.314 433.648 809.458 435.448H806.92C806.83 434.836 806.29 434.44 805.498 434.44C804.778 434.44 804.274 434.8 804.274 435.322Z" fill="white"/>
<rect width="96" height="768" fill="#EDF0FF"/>
<path d="M58.0024 41.6001C62.4198 41.6001 66.0008 38.0187 66.0008 33.6008C66.0008 29.1829 62.4198 25.6016 58.0024 25.6016C53.5849 25.6016 50.0039 29.1829 50.0039 33.6008C50.0039 38.0187 53.5849 41.6001 58.0024 41.6001Z" fill="#00A3E0"/>
<path d="M49.0995 24.5722C49.2538 24.4969 49.22 24.2635 49.0506 24.2372C48.0569 24.0828 47.0369 24 45.998 24C34.9545 24 26 32.9554 26 44C26 53.6781 32.8693 61.7489 42.0007 63.601V34.7058C42.0007 30.6064 44.3456 26.8684 48.0381 25.0841L49.0995 24.5722Z" fill="#003AC2"/>
<path d="M49.9952 44V53.1173C49.9952 57.3672 47.6954 61.2859 43.9879 63.3601L43.6943 63.5219C43.5362 63.6085 43.5814 63.8494 43.7621 63.872C44.496 63.9548 45.2413 64 45.9941 64C57.0414 64 65.9921 55.0446 65.9921 44H49.9914H49.9952Z" fill="#003AC2"/>
<rect x="26" y="108" width="44" height="36" rx="8" fill="white"/>
<path d="M49.5625 130.064V133.502H46.4375V130.064C46.4375 129.65 46.6021 129.253 46.8951 128.96C47.1882 128.667 47.5856 128.502 48 128.502C48.4144 128.502 48.8118 128.667 49.1049 128.96C49.3979 129.253 49.5625 129.65 49.5625 130.064ZM50.0937 119.558C49.4917 119.095 48.7534 118.844 47.9938 118.844C47.2341 118.844 46.4958 119.095 45.8938 119.558L39.875 124.314V126.702L41.125 125.714V133.502H45.1875V130.064C45.1875 129.318 45.4838 128.603 46.0113 128.076C46.5387 127.548 47.2541 127.252 48 127.252C48.7459 127.252 49.4613 127.548 49.9887 128.076C50.5162 128.603 50.8125 129.318 50.8125 130.064V133.502H54.875V125.714L56.125 126.702V124.314L50.0937 119.558Z" fill="#13172C"/>
</g>
<defs>
<clipPath id="clip0_8328_15916">
<rect width="1360" height="768" fill="white"/>
</clipPath>
</defs>
</svg>
