<svg width="1360" height="768" viewBox="0 0 1360 768" fill="none" xmlns="http://www.w3.org/2000/svg">
<g clip-path="url(#clip0_8328_15849)">
<rect width="1360" height="768" fill="white"/>
<path d="M1287.31 50.25H1279.5V37.75H1287.31V39.625H1281.38V48.375H1287.31V50.25ZM1294.26 43.375L1291.13 39.9375C1291.05 39.8463 1290.95 39.7724 1290.84 39.7199C1290.73 39.6674 1290.6 39.6374 1290.48 39.6316C1290.36 39.6258 1290.24 39.6443 1290.12 39.6861C1290 39.7279 1289.9 39.792 1289.81 39.875C1289.72 39.9579 1289.64 40.0579 1289.59 40.1693C1289.54 40.2808 1289.51 40.4015 1289.5 40.5245C1289.49 40.6476 1289.51 40.7706 1289.55 40.8865C1289.6 41.0024 1289.66 41.1089 1289.74 41.2L1291.44 43.075H1284.5V44.95H1291.44L1289.74 46.825C1289.66 46.9161 1289.6 47.0226 1289.55 47.1385C1289.51 47.2544 1289.49 47.3774 1289.5 47.5005C1289.51 47.6235 1289.54 47.7442 1289.59 47.8557C1289.64 47.9671 1289.72 48.0671 1289.81 48.15C1289.98 48.3051 1290.2 48.3918 1290.43 48.3937C1290.56 48.3931 1290.69 48.3655 1290.81 48.3128C1290.93 48.2602 1291.04 48.1834 1291.13 48.0875L1294.25 44.65C1294.41 44.4774 1294.5 44.2502 1294.5 44.0137C1294.5 43.7773 1294.42 43.5491 1294.26 43.375Z" fill="#03050F"/>
<path d="M1308.13 41.86C1308.13 42.448 1308.62 42.77 1309.94 43.064L1310.57 43.204C1312.82 43.694 1313.69 44.464 1313.69 46.018C1313.69 47.922 1312.18 49.154 1309.74 49.154C1307.36 49.154 1305.78 47.978 1305.64 45.948H1307.91C1307.97 46.802 1308.74 47.39 1309.8 47.39C1310.75 47.39 1311.4 46.914 1311.4 46.242C1311.4 45.626 1310.92 45.304 1309.65 45.038L1309.04 44.912C1306.9 44.45 1305.91 43.554 1305.91 42.084C1305.91 40.278 1307.41 39.046 1309.62 39.046C1311.77 39.046 1313.27 40.208 1313.41 42.014H1311.24C1311.14 41.258 1310.5 40.796 1309.59 40.796C1308.74 40.796 1308.13 41.216 1308.13 41.86ZM1318.53 41.622C1320.58 41.622 1321.65 42.574 1321.65 44.394V49H1319.73L1319.59 48.062C1319.17 48.776 1318.41 49.14 1317.38 49.14C1315.81 49.14 1314.84 48.314 1314.84 46.97C1314.84 45.318 1316.33 44.632 1319.51 44.632V44.478C1319.51 43.568 1319.16 43.162 1318.37 43.162C1317.69 43.162 1317.21 43.512 1317.17 44.058H1315.14C1315.21 42.574 1316.54 41.622 1318.53 41.622ZM1319.52 46.354V45.864C1317.81 45.864 1316.99 46.158 1316.99 46.858C1316.99 47.362 1317.39 47.67 1318.05 47.67C1318.96 47.67 1319.52 47.166 1319.52 46.354ZM1325.52 49H1323.36V39.06H1325.52V49ZM1328.35 40.922C1327.65 40.922 1327.12 40.432 1327.12 39.732C1327.12 39.06 1327.65 38.556 1328.35 38.556C1329.05 38.556 1329.58 39.06 1329.58 39.732C1329.58 40.432 1329.05 40.922 1328.35 40.922ZM1329.42 49H1327.26V41.776H1329.42V49ZM1335.6 41.706V43.652C1335.46 43.61 1335.27 43.568 1335.05 43.568C1333.93 43.568 1333.29 44.31 1333.29 45.598V49H1331.13V41.776H1333.12L1333.26 42.84C1333.59 42.084 1334.27 41.636 1335.01 41.636C1335.23 41.636 1335.43 41.664 1335.6 41.706Z" fill="#13172C"/>
<path d="M157.216 96.6L165.312 119H160.864L159.296 114.36H150.4L148.832 119H144.384L152.48 96.6H157.216ZM151.36 111.064H158.336L154.848 100.728L151.36 111.064ZM176.472 102.2C179.896 102.2 182.008 104.472 182.008 108.216V119H177.848V109.24C177.848 106.904 176.76 105.624 174.808 105.624C172.664 105.624 171.416 107.192 171.416 109.944V119H167.288V102.552H171.032L171.352 104.952C172.504 103.16 174.232 102.2 176.472 102.2ZM190.508 119.352C187.084 119.352 185.004 117.08 185.004 113.336V102.552H189.132V112.28C189.132 114.616 190.252 115.896 192.204 115.896C194.348 115.896 195.596 114.328 195.596 111.576V102.552H199.724V119H195.98L195.66 116.6C194.508 118.392 192.748 119.352 190.508 119.352ZM207.137 119H202.977V96.28H207.137V119ZM217.741 102.2C222.189 102.2 224.557 104.376 224.557 108.536V119H220.877L220.557 116.76C219.597 118.424 217.837 119.32 215.469 119.32C211.949 119.32 209.709 117.432 209.709 114.392C209.709 110.616 213.197 109.048 220.397 109.048V108.632C220.397 106.328 219.501 105.336 217.453 105.336C215.661 105.336 214.413 106.2 214.285 107.608H210.349C210.541 104.376 213.485 102.2 217.741 102.2ZM220.429 112.824V111.64C216.013 111.64 213.837 112.408 213.837 114.264C213.837 115.544 214.893 116.344 216.557 116.344C218.957 116.344 220.429 114.968 220.429 112.824ZM235.47 116.056C237.294 116.056 238.606 114.936 238.926 113.112H243.022C242.606 116.92 239.598 119.352 235.31 119.352C230.35 119.352 226.99 115.896 226.99 110.776C226.99 105.688 230.35 102.2 235.31 102.2C239.598 102.2 242.606 104.632 243.022 108.44H238.926C238.606 106.616 237.294 105.496 235.47 105.496C232.814 105.496 231.15 107.512 231.15 110.776C231.15 114.04 232.814 116.056 235.47 116.056ZM247.683 100.28C246.307 100.28 245.219 99.256 245.219 97.88C245.219 96.536 246.307 95.512 247.683 95.512C249.059 95.512 250.147 96.536 250.147 97.88C250.147 99.256 249.059 100.28 247.683 100.28ZM249.731 119H245.571V102.552H249.731V119ZM261.132 95.512H264.908L261.804 100.44H259.02L261.132 95.512ZM260.812 102.2C265.772 102.2 269.164 105.688 269.164 110.776C269.164 115.864 265.772 119.352 260.812 119.352C255.788 119.352 252.396 115.864 252.396 110.776C252.396 105.688 255.788 102.2 260.812 102.2ZM260.78 116.056C263.308 116.056 264.972 113.976 264.972 110.776C264.972 107.544 263.308 105.496 260.78 105.496C258.22 105.496 256.556 107.544 256.556 110.776C256.556 113.976 258.22 116.056 260.78 116.056ZM280.815 102.2C284.239 102.2 286.351 104.472 286.351 108.216V119H282.191V109.24C282.191 106.904 281.103 105.624 279.151 105.624C277.007 105.624 275.759 107.192 275.759 109.944V119H271.631V102.552H275.375L275.695 104.952C276.847 103.16 278.575 102.2 280.815 102.2Z" fill="#13172C"/>
<path d="M160.875 45.25V42.75H150.975L154.588 38.375H151.275L146.775 44L151.275 49.625H154.588L150.975 45.25H160.875Z" fill="#03050F"/>
<path d="M178.188 39.2L181.66 49H179.378L178.776 47.166H175.08L174.478 49H172.196L175.668 39.2H178.188ZM175.542 45.5H178.314L176.928 41.202L175.542 45.5ZM186.26 43.344H184.958V46.676C184.958 47.222 185.224 47.446 185.756 47.446C185.994 47.446 186.218 47.404 186.316 47.39V49C186.05 49.07 185.588 49.14 185.168 49.14C183.53 49.14 182.788 48.44 182.788 46.802V43.344H181.92V41.776H182.788V40.012H184.888V41.776H186.26V43.344ZM192.238 41.706V43.652C192.098 43.61 191.916 43.568 191.692 43.568C190.572 43.568 189.928 44.31 189.928 45.598V49H187.772V41.776H189.76L189.9 42.84C190.236 42.084 190.908 41.636 191.65 41.636C191.874 41.636 192.07 41.664 192.238 41.706ZM196.534 38.696H198.382L196.996 40.88H195.638L196.534 38.696ZM196.66 41.622C198.718 41.622 199.782 42.574 199.782 44.394V49H197.864L197.724 48.062C197.304 48.776 196.548 49.14 195.512 49.14C193.944 49.14 192.978 48.314 192.978 46.97C192.978 45.318 194.462 44.632 197.64 44.632V44.478C197.64 43.568 197.29 43.162 196.506 43.162C195.82 43.162 195.344 43.512 195.302 44.058H193.272C193.342 42.574 194.672 41.622 196.66 41.622ZM197.654 46.354V45.864C195.946 45.864 195.12 46.158 195.12 46.858C195.12 47.362 195.526 47.67 196.184 47.67C197.094 47.67 197.654 47.166 197.654 46.354ZM203.397 43.806C203.397 44.17 203.705 44.366 204.671 44.562L205.175 44.66C206.953 45.01 207.653 45.584 207.653 46.718C207.653 48.23 206.435 49.154 204.447 49.154C202.529 49.154 201.269 48.244 201.129 46.732H203.243C203.257 47.264 203.775 47.628 204.489 47.628C205.091 47.628 205.511 47.348 205.511 46.928C205.511 46.55 205.203 46.368 204.181 46.158L203.719 46.074C202.081 45.738 201.325 45.066 201.325 43.946C201.325 42.546 202.529 41.622 204.349 41.622C206.127 41.622 207.317 42.504 207.429 43.904H205.455C205.385 43.428 204.965 43.12 204.349 43.12C203.789 43.12 203.397 43.4 203.397 43.806Z" fill="#13172C"/>
<path d="M151.416 151.2C157.008 151.2 159.936 154.128 159.936 159.6C159.936 164.88 156.792 168 151.416 168H145.44V151.2H151.416ZM151.152 165.336C154.56 165.336 156.504 163.344 156.504 159.576C156.504 155.688 154.752 153.864 151.152 153.864H148.752V165.336H151.152ZM173.693 161.904V162.504H164.621C164.645 164.472 165.821 165.888 167.765 165.888C168.989 165.888 169.973 165.36 170.429 164.208H173.573C172.973 166.752 170.549 168.264 167.741 168.264C163.901 168.264 161.477 165.6 161.477 161.856C161.477 158.16 163.805 155.4 167.621 155.4C171.533 155.4 173.693 158.04 173.693 161.904ZM164.669 160.536H170.573C170.381 158.784 169.373 157.728 167.669 157.728C165.989 157.728 164.861 158.856 164.669 160.536ZM181.527 158.016H179.247V164.328C179.247 165.336 179.727 165.696 180.711 165.696C181.143 165.696 181.527 165.648 181.671 165.6V168C181.335 168.072 180.663 168.192 179.991 168.192C177.303 168.192 176.151 167.112 176.151 164.4V158.016H174.615V155.664H176.151V152.688H179.175V155.664H181.527V158.016ZM188.969 155.4C192.305 155.4 194.081 157.032 194.081 160.152V168H191.321L191.081 166.32C190.361 167.568 189.041 168.24 187.265 168.24C184.625 168.24 182.945 166.824 182.945 164.544C182.945 161.712 185.561 160.536 190.961 160.536V160.224C190.961 158.496 190.289 157.752 188.753 157.752C187.409 157.752 186.473 158.4 186.377 159.456H183.425C183.569 157.032 185.777 155.4 188.969 155.4ZM190.985 163.368V162.48C187.673 162.48 186.041 163.056 186.041 164.448C186.041 165.408 186.833 166.008 188.081 166.008C189.881 166.008 190.985 164.976 190.985 163.368ZM199.602 168H196.482V150.96H199.602V168ZM205.227 168H202.107V150.96H205.227V168ZM219.372 161.904V162.504H210.3C210.324 164.472 211.5 165.888 213.444 165.888C214.668 165.888 215.652 165.36 216.108 164.208H219.252C218.652 166.752 216.228 168.264 213.42 168.264C209.58 168.264 207.156 165.6 207.156 161.856C207.156 158.16 209.484 155.4 213.3 155.4C217.212 155.4 219.372 158.04 219.372 161.904ZM210.348 160.536H216.252C216.06 158.784 215.052 157.728 213.348 157.728C211.668 157.728 210.54 158.856 210.348 160.536ZM237.987 168H235.179L234.939 166.056C234.075 167.472 232.587 168.264 230.859 168.264C227.739 168.264 225.555 165.672 225.555 161.832C225.555 158.016 227.763 155.4 230.859 155.4C232.563 155.4 234.051 156.192 234.891 157.536V150.96H237.987V168ZM234.987 161.832C234.987 159.432 233.739 157.872 231.843 157.872C229.971 157.872 228.723 159.432 228.723 161.832C228.723 164.232 229.971 165.792 231.843 165.792C233.739 165.792 234.987 164.232 234.987 161.832ZM252.138 161.904V162.504H243.066C243.09 164.472 244.266 165.888 246.21 165.888C247.434 165.888 248.418 165.36 248.874 164.208H252.018C251.418 166.752 248.994 168.264 246.186 168.264C242.346 168.264 239.922 165.6 239.922 161.856C239.922 158.16 242.25 155.4 246.066 155.4C249.978 155.4 252.138 158.04 252.138 161.904ZM243.114 160.536H249.018C248.826 158.784 247.818 157.728 246.114 157.728C244.434 157.728 243.306 158.856 243.114 160.536ZM262.016 168H258.896V150.96H262.016V168ZM269.969 155.4C273.305 155.4 275.081 157.032 275.081 160.152V168H272.321L272.081 166.32C271.361 167.568 270.041 168.24 268.265 168.24C265.625 168.24 263.945 166.824 263.945 164.544C263.945 161.712 266.561 160.536 271.961 160.536V160.224C271.961 158.496 271.289 157.752 269.753 157.752C268.409 157.752 267.473 158.4 267.377 159.456H264.425C264.569 157.032 266.777 155.4 269.969 155.4ZM271.985 163.368V162.48C268.673 162.48 267.041 163.056 267.041 164.448C267.041 165.408 267.833 166.008 269.081 166.008C270.881 166.008 271.985 164.976 271.985 163.368ZM288.215 158.016H285.935V164.328C285.935 165.336 286.415 165.696 287.398 165.696C287.831 165.696 288.215 165.648 288.359 165.6V168C288.023 168.072 287.351 168.192 286.679 168.192C283.991 168.192 282.839 167.112 282.839 164.4V158.016H281.303V155.664H282.839V152.688H285.863V155.664H288.215V158.016ZM297.262 155.544V158.328C297.022 158.256 296.71 158.208 296.302 158.208C294.454 158.208 293.374 159.552 293.374 161.88V168H290.254V155.664H293.086L293.326 157.488C293.854 156.24 295.006 155.424 296.254 155.424C296.638 155.424 296.974 155.472 297.262 155.544ZM303.954 155.4C307.29 155.4 309.066 157.032 309.066 160.152V168H306.306L306.066 166.32C305.346 167.568 304.026 168.24 302.25 168.24C299.61 168.24 297.93 166.824 297.93 164.544C297.93 161.712 300.546 160.536 305.946 160.536V160.224C305.946 158.496 305.274 157.752 303.738 157.752C302.394 157.752 301.458 158.4 301.362 159.456H298.41C298.554 157.032 300.762 155.4 303.954 155.4ZM305.97 163.368V162.48C302.658 162.48 301.026 163.056 301.026 164.448C301.026 165.408 301.818 166.008 303.066 166.008C304.866 166.008 305.97 164.976 305.97 163.368ZM318.307 155.4C320.875 155.4 322.459 157.104 322.459 159.912V168H319.339V160.68C319.339 158.928 318.523 157.968 317.059 157.968C315.451 157.968 314.515 159.144 314.515 161.208V168H311.419V155.664H314.227L314.467 157.464C315.331 156.12 316.627 155.4 318.307 155.4ZM327.514 159.072C327.514 159.768 328.114 160.176 329.77 160.512L330.586 160.68C333.61 161.304 334.834 162.336 334.834 164.208C334.834 166.728 332.842 168.264 329.626 168.264C326.482 168.264 324.418 166.68 324.202 164.184H327.25C327.298 165.216 328.282 165.96 329.722 165.96C330.922 165.96 331.738 165.336 331.738 164.472C331.738 163.728 331.162 163.344 329.362 162.96L328.594 162.792C325.786 162.216 324.538 161.112 324.538 159.24C324.538 156.96 326.506 155.4 329.434 155.4C332.362 155.4 334.282 156.888 334.474 159.216H331.594C331.474 158.256 330.634 157.656 329.434 157.656C328.33 157.656 327.514 158.256 327.514 159.072ZM342.157 155.4C345.493 155.4 347.269 157.032 347.269 160.152V168H344.509L344.269 166.32C343.549 167.568 342.229 168.24 340.453 168.24C337.813 168.24 336.133 166.824 336.133 164.544C336.133 161.712 338.749 160.536 344.149 160.536V160.224C344.149 158.496 343.477 157.752 341.941 157.752C340.597 157.752 339.661 158.4 339.565 159.456H336.613C336.757 157.032 338.965 155.4 342.157 155.4ZM344.173 163.368V162.48C340.861 162.48 339.229 163.056 339.229 164.448C339.229 165.408 340.021 166.008 341.269 166.008C343.069 166.008 344.173 164.976 344.173 163.368ZM355.454 165.792C356.822 165.792 357.806 164.952 358.046 163.584H361.118C360.806 166.44 358.55 168.264 355.334 168.264C351.614 168.264 349.094 165.672 349.094 161.832C349.094 158.016 351.614 155.4 355.334 155.4C358.55 155.4 360.806 157.224 361.118 160.08H358.046C357.806 158.712 356.822 157.872 355.454 157.872C353.462 157.872 352.214 159.384 352.214 161.832C352.214 164.28 353.462 165.792 355.454 165.792ZM368.79 165.792C370.158 165.792 371.142 164.952 371.382 163.584H374.454C374.142 166.44 371.886 168.264 368.67 168.264C364.95 168.264 362.43 165.672 362.43 161.832C362.43 158.016 364.95 155.4 368.67 155.4C371.886 155.4 374.142 157.224 374.454 160.08H371.382C371.142 158.712 370.158 157.872 368.79 157.872C366.798 157.872 365.55 159.384 365.55 161.832C365.55 164.28 366.798 165.792 368.79 165.792ZM377.95 153.96C376.918 153.96 376.102 153.192 376.102 152.16C376.102 151.152 376.918 150.384 377.95 150.384C378.982 150.384 379.798 151.152 379.798 152.16C379.798 153.192 378.982 153.96 377.95 153.96ZM379.486 168H376.366V155.664H379.486V168ZM388.037 150.384H390.869L388.541 154.08H386.453L388.037 150.384ZM387.797 155.4C391.517 155.4 394.061 158.016 394.061 161.832C394.061 165.648 391.517 168.264 387.797 168.264C384.029 168.264 381.485 165.648 381.485 161.832C381.485 158.016 384.029 155.4 387.797 155.4ZM387.773 165.792C389.669 165.792 390.917 164.232 390.917 161.832C390.917 159.408 389.669 157.872 387.773 157.872C385.853 157.872 384.605 159.408 384.605 161.832C384.605 164.232 385.853 165.792 387.773 165.792ZM402.799 155.4C405.367 155.4 406.951 157.104 406.951 159.912V168H403.831V160.68C403.831 158.928 403.015 157.968 401.551 157.968C399.943 157.968 399.007 159.144 399.007 161.208V168H395.911V155.664H398.719L398.959 157.464C399.823 156.12 401.119 155.4 402.799 155.4Z" fill="#13172C"/>
<path d="M146.772 205H144.84V195.2H146.772V205ZM152.135 195.2C155.397 195.2 157.105 196.908 157.105 200.1C157.105 203.18 155.271 205 152.135 205H148.649V195.2H152.135ZM151.981 203.446C153.969 203.446 155.103 202.284 155.103 200.086C155.103 197.818 154.081 196.754 151.981 196.754H150.581V203.446H151.981ZM166.051 203.558C167.353 203.558 168.305 202.83 168.529 201.64H170.531C170.153 203.81 168.445 205.154 166.037 205.154C163.237 205.154 161.347 203.124 161.347 200.1C161.347 197.062 163.237 195.046 166.037 195.046C168.431 195.046 170.251 196.488 170.475 198.56H168.501C168.277 197.412 167.283 196.642 166.037 196.642C164.413 196.642 163.321 198.014 163.321 200.086C163.321 202.186 164.413 203.558 166.051 203.558ZM172.866 196.81C172.264 196.81 171.788 196.362 171.788 195.76C171.788 195.172 172.264 194.724 172.866 194.724C173.468 194.724 173.944 195.172 173.944 195.76C173.944 196.362 173.468 196.81 172.866 196.81ZM173.762 205H171.942V197.804H173.762V205ZM179.004 199.176H177.674V202.858C177.674 203.446 177.954 203.656 178.528 203.656C178.78 203.656 179.004 203.628 179.088 203.6V205C178.892 205.042 178.5 205.112 178.108 205.112C176.54 205.112 175.868 204.482 175.868 202.9V199.176H174.972V197.804H175.868V196.068H177.632V197.804H179.004V199.176ZM183.545 197.65C185.491 197.65 186.527 198.602 186.527 200.422V205H184.917L184.777 204.02C184.357 204.748 183.587 205.14 182.551 205.14C181.011 205.14 180.031 204.314 180.031 202.984C180.031 201.332 181.557 200.646 184.707 200.646V200.464C184.707 199.456 184.315 199.022 183.419 199.022C182.635 199.022 182.089 199.4 182.033 200.016H180.311C180.395 198.602 181.683 197.65 183.545 197.65ZM184.721 202.298V201.78C182.789 201.78 181.837 202.116 181.837 202.928C181.837 203.488 182.299 203.838 183.027 203.838C184.077 203.838 184.721 203.236 184.721 202.298ZM188.215 199.512C188.215 198.938 188.663 198.504 189.251 198.504C189.839 198.504 190.287 198.938 190.287 199.512C190.287 200.072 189.839 200.506 189.251 200.506C188.663 200.506 188.215 200.072 188.215 199.512ZM188.215 204.104C188.215 203.53 188.663 203.096 189.251 203.096C189.839 203.096 190.287 203.53 190.287 204.104C190.287 204.664 189.839 205.098 189.251 205.098C188.663 205.098 188.215 204.664 188.215 204.104Z" fill="#5E6488"/>
<path d="M144.704 224.4C144.704 220.816 146.272 218.64 148.864 218.64C151.456 218.64 153.024 220.816 153.024 224.4C153.024 227.984 151.456 230.16 148.864 230.16C146.272 230.16 144.704 227.984 144.704 224.4ZM148.864 219.776C147.072 219.776 146.096 221.392 146.096 224.4C146.096 227.408 147.072 229.024 148.864 229.024C150.672 229.024 151.632 227.424 151.632 224.4C151.632 221.376 150.672 219.776 148.864 219.776ZM155.054 221.536C155.054 219.856 156.574 218.64 158.638 218.64C160.702 218.64 162.222 219.856 162.222 221.536C162.222 222.656 161.518 223.6 160.35 224.064C161.758 224.512 162.638 225.616 162.638 226.944C162.638 228.816 160.974 230.16 158.638 230.16C156.302 230.16 154.638 228.816 154.638 226.944C154.638 225.616 155.518 224.512 156.926 224.064C155.758 223.6 155.054 222.656 155.054 221.536ZM160.846 221.712C160.846 220.576 159.934 219.776 158.638 219.776C157.342 219.776 156.43 220.576 156.43 221.712C156.43 222.832 157.326 223.584 158.638 223.584C159.95 223.584 160.846 222.832 160.846 221.712ZM161.246 226.864C161.246 225.616 160.174 224.704 158.638 224.704C157.102 224.704 156.03 225.616 156.03 226.864C156.03 228.112 157.102 229.024 158.638 229.024C160.174 229.024 161.246 228.112 161.246 226.864ZM164.501 232.88V221.84H165.589L165.749 223.2C166.405 222.208 167.413 221.68 168.581 221.68C170.693 221.68 172.245 223.424 172.245 225.92C172.245 228.416 170.693 230.16 168.597 230.16C167.429 230.16 166.405 229.632 165.781 228.704V232.88H164.501ZM165.717 225.92C165.717 227.776 166.773 229.024 168.325 229.024C169.877 229.024 170.933 227.776 170.933 225.92C170.933 224.064 169.877 222.816 168.325 222.816C166.773 222.816 165.717 224.064 165.717 225.92ZM177.904 218.8C180 218.8 181.472 220.288 181.472 222.4C181.472 224.512 180 226 177.904 226H175.36V230H174.016V218.8H177.904ZM177.776 224.848C179.152 224.848 180.096 223.84 180.096 222.4C180.096 220.96 179.152 219.952 177.776 219.952H175.36V224.848H177.776ZM184.623 230H183.279V218.8H184.623V230ZM186.61 224.4C186.61 220.816 188.178 218.64 190.77 218.64C193.362 218.64 194.93 220.816 194.93 224.4C194.93 227.984 193.362 230.16 190.77 230.16C188.178 230.16 186.61 227.984 186.61 224.4ZM190.77 219.776C188.978 219.776 188.002 221.392 188.002 224.4C188.002 227.408 188.978 229.024 190.77 229.024C192.578 229.024 193.538 227.424 193.538 224.4C193.538 221.376 192.578 219.776 190.77 219.776ZM196.545 224.4C196.545 220.816 198.113 218.64 200.705 218.64C203.297 218.64 204.865 220.816 204.865 224.4C204.865 227.984 203.297 230.16 200.705 230.16C198.113 230.16 196.545 227.984 196.545 224.4ZM200.705 219.776C198.913 219.776 197.937 221.392 197.937 224.4C197.937 227.408 198.913 229.024 200.705 229.024C202.513 229.024 203.473 227.424 203.473 224.4C203.473 221.376 202.513 219.776 200.705 219.776ZM206.479 224.4C206.479 220.816 208.047 218.64 210.639 218.64C213.231 218.64 214.799 220.816 214.799 224.4C214.799 227.984 213.231 230.16 210.639 230.16C208.047 230.16 206.479 227.984 206.479 224.4ZM210.639 219.776C208.847 219.776 207.871 221.392 207.871 224.4C207.871 227.408 208.847 229.024 210.639 229.024C212.447 229.024 213.407 227.424 213.407 224.4C213.407 221.376 212.447 219.776 210.639 219.776ZM216.413 224.4C216.413 220.816 217.981 218.64 220.573 218.64C223.165 218.64 224.733 220.816 224.733 224.4C224.733 227.984 223.165 230.16 220.573 230.16C217.981 230.16 216.413 227.984 216.413 224.4ZM220.573 219.776C218.781 219.776 217.805 221.392 217.805 224.4C217.805 227.408 218.781 229.024 220.573 229.024C222.381 229.024 223.341 227.424 223.341 224.4C223.341 221.376 222.381 219.776 220.573 219.776ZM232.636 224.016C233.836 224.368 234.668 225.504 234.668 226.816C234.668 228.704 233.308 230 231.356 230H226.732V218.8H231.068C232.844 218.8 234.124 220 234.124 221.696C234.124 222.768 233.628 223.552 232.636 224.016ZM228.076 219.952V223.552H230.908C231.932 223.552 232.748 222.768 232.748 221.728C232.748 220.688 231.964 219.952 230.908 219.952H228.076ZM231.068 228.848C232.332 228.848 233.292 228 233.292 226.848C233.292 225.488 232.396 224.672 230.908 224.672H228.076V228.848H231.068ZM243.44 219.952H237.776V223.76H242.8V224.912H237.776V228.848H243.44V230H236.432V218.8H243.44V219.952Z" fill="#13172C"/>
<path d="M151.224 258.754H146.772V261.568H150.664V263.08H146.772V267H144.84V257.2H151.224V258.754ZM159.114 263.444V263.794H153.822C153.836 264.942 154.522 265.768 155.656 265.768C156.37 265.768 156.944 265.46 157.21 264.788H159.044C158.694 266.272 157.28 267.154 155.642 267.154C153.402 267.154 151.988 265.6 151.988 263.416C151.988 261.26 153.346 259.65 155.572 259.65C157.854 259.65 159.114 261.19 159.114 263.444ZM153.85 262.646H157.294C157.182 261.624 156.594 261.008 155.6 261.008C154.62 261.008 153.962 261.666 153.85 262.646ZM163.814 265.712C164.612 265.712 165.187 265.222 165.326 264.424H167.119C166.937 266.09 165.62 267.154 163.744 267.154C161.574 267.154 160.104 265.642 160.104 263.402C160.104 261.176 161.574 259.65 163.744 259.65C165.62 259.65 166.937 260.714 167.119 262.38H165.326C165.187 261.582 164.612 261.092 163.814 261.092C162.652 261.092 161.924 261.974 161.924 263.402C161.924 264.83 162.652 265.712 163.814 265.712ZM172.466 259.65C173.95 259.65 174.86 260.658 174.86 262.282V267H173.054V262.744C173.054 261.708 172.578 261.162 171.71 261.162C170.786 261.162 170.24 261.848 170.24 263.038V267H168.42V257.06H170.24V260.854C170.702 260.084 171.486 259.65 172.466 259.65ZM179.618 259.65C181.564 259.65 182.6 260.602 182.6 262.422V267H180.99L180.85 266.02C180.43 266.748 179.66 267.14 178.624 267.14C177.084 267.14 176.104 266.314 176.104 264.984C176.104 263.332 177.63 262.646 180.78 262.646V262.464C180.78 261.456 180.388 261.022 179.492 261.022C178.708 261.022 178.162 261.4 178.106 262.016H176.384C176.468 260.602 177.756 259.65 179.618 259.65ZM180.794 264.298V263.78C178.862 263.78 177.91 264.116 177.91 264.928C177.91 265.488 178.372 265.838 179.1 265.838C180.15 265.838 180.794 265.236 180.794 264.298ZM188.295 269.1H186.545L190.227 256.78H191.977L188.295 269.1ZM202.606 257.2H204.538V267H202.606V262.828H198.028V267H196.096V257.2H198.028V261.26H202.606V257.2ZM209.647 259.65C211.817 259.65 213.301 261.176 213.301 263.402C213.301 265.628 211.817 267.154 209.647 267.154C207.449 267.154 205.965 265.628 205.965 263.402C205.965 261.176 207.449 259.65 209.647 259.65ZM209.633 265.712C210.739 265.712 211.467 264.802 211.467 263.402C211.467 261.988 210.739 261.092 209.633 261.092C208.513 261.092 207.785 261.988 207.785 263.402C207.785 264.802 208.513 265.712 209.633 265.712ZM218.641 259.734V261.358C218.501 261.316 218.319 261.288 218.081 261.288C217.003 261.288 216.373 262.072 216.373 263.43V267H214.553V259.804H216.205L216.345 260.868C216.653 260.14 217.325 259.664 218.053 259.664C218.277 259.664 218.473 259.692 218.641 259.734ZM222.745 259.65C224.691 259.65 225.727 260.602 225.727 262.422V267H224.117L223.977 266.02C223.557 266.748 222.787 267.14 221.751 267.14C220.211 267.14 219.231 266.314 219.231 264.984C219.231 263.332 220.757 262.646 223.907 262.646V262.464C223.907 261.456 223.515 261.022 222.619 261.022C221.835 261.022 221.289 261.4 221.233 262.016H219.511C219.595 260.602 220.883 259.65 222.745 259.65ZM223.921 264.298V263.78C221.989 263.78 221.037 264.116 221.037 264.928C221.037 265.488 221.499 265.838 222.227 265.838C223.277 265.838 223.921 265.236 223.921 264.298Z" fill="#5E6488"/>
<path d="M144.832 292V291.136L149.44 286.64C150.48 285.616 150.896 284.88 150.896 284.048C150.896 282.688 149.984 281.776 148.608 281.776C147.328 281.776 146.416 282.56 146.288 283.84H144.896C145.024 281.984 146.608 280.64 148.656 280.64C150.752 280.64 152.288 282.064 152.288 284C152.288 285.152 151.712 286.192 150.352 287.504L146.864 290.88H152.288V292H144.832ZM158.065 292.16C155.393 292.16 153.857 290.128 153.857 286.56C153.857 282.896 155.489 280.64 158.113 280.64C160.049 280.64 161.489 281.728 161.793 283.488H160.417C160.145 282.4 159.313 281.776 158.145 281.776C156.353 281.776 155.201 283.552 155.201 286.368C155.729 285.296 156.881 284.64 158.289 284.64C160.449 284.64 161.953 286.128 161.953 288.288C161.953 290.624 160.417 292.16 158.065 292.16ZM155.569 288.384C155.569 289.92 156.609 290.992 158.081 290.992C159.537 290.992 160.561 289.936 160.561 288.384C160.561 286.944 159.489 285.824 158.081 285.824C156.609 285.824 155.569 286.896 155.569 288.384ZM164.024 294.4H162.792L167 280.32H168.232L164.024 294.4ZM169.195 286.4C169.195 282.816 170.763 280.64 173.355 280.64C175.947 280.64 177.515 282.816 177.515 286.4C177.515 289.984 175.947 292.16 173.355 292.16C170.763 292.16 169.195 289.984 169.195 286.4ZM173.355 281.776C171.563 281.776 170.587 283.392 170.587 286.4C170.587 289.408 171.563 291.024 173.355 291.024C175.163 291.024 176.123 289.424 176.123 286.4C176.123 283.376 175.163 281.776 173.355 281.776ZM179.037 284.432V282.88L181.533 280.8H182.653V292H181.277V282.544L179.037 284.432ZM186.062 294.4H184.83L189.038 280.32H190.27L186.062 294.4ZM191.36 292V291.136L195.968 286.64C197.008 285.616 197.424 284.88 197.424 284.048C197.424 282.688 196.512 281.776 195.136 281.776C193.856 281.776 192.944 282.56 192.816 283.84H191.424C191.552 281.984 193.136 280.64 195.184 280.64C197.28 280.64 198.816 282.064 198.816 284C198.816 285.152 198.24 286.192 196.88 287.504L193.392 290.88H198.816V292H191.36ZM200.385 286.4C200.385 282.816 201.953 280.64 204.545 280.64C207.137 280.64 208.705 282.816 208.705 286.4C208.705 289.984 207.137 292.16 204.545 292.16C201.953 292.16 200.385 289.984 200.385 286.4ZM204.545 281.776C202.753 281.776 201.777 283.392 201.777 286.4C201.777 289.408 202.753 291.024 204.545 291.024C206.353 291.024 207.313 289.424 207.313 286.4C207.313 283.376 206.353 281.776 204.545 281.776ZM210.291 292V291.136L214.899 286.64C215.939 285.616 216.355 284.88 216.355 284.048C216.355 282.688 215.443 281.776 214.067 281.776C212.787 281.776 211.875 282.56 211.747 283.84H210.355C210.483 281.984 212.067 280.64 214.115 280.64C216.211 280.64 217.747 282.064 217.747 284C217.747 285.152 217.171 286.192 215.811 287.504L212.323 290.88H217.747V292H210.291ZM219.54 288.96H220.916C221.108 290.24 222.068 291.024 223.348 291.024C224.868 291.024 225.924 289.904 225.924 288.4C225.924 286.944 224.884 285.776 223.396 285.776C222.452 285.776 221.412 286.24 221.012 287.072H219.684L220.372 280.8H226.548V281.92H221.46L221.076 285.68C221.668 284.928 222.676 284.64 223.604 284.64C225.764 284.64 227.316 286.192 227.316 288.352C227.316 290.624 225.604 292.16 223.38 292.16C221.444 292.16 219.7 290.992 219.54 288.96ZM237.477 287.936H232.517V286.784H237.477V287.936ZM242.868 284.432V282.88L245.364 280.8H246.484V292H245.108V282.544L242.868 284.432ZM249.301 286.4C249.301 282.816 250.869 280.64 253.461 280.64C256.053 280.64 257.621 282.816 257.621 286.4C257.621 289.984 256.053 292.16 253.461 292.16C250.869 292.16 249.301 289.984 249.301 286.4ZM253.461 281.776C251.669 281.776 250.693 283.392 250.693 286.4C250.693 289.408 251.669 291.024 253.461 291.024C255.269 291.024 256.229 289.424 256.229 286.4C256.229 283.376 255.269 281.776 253.461 281.776ZM259.683 285.76C259.683 285.264 260.067 284.88 260.579 284.88C261.091 284.88 261.475 285.264 261.475 285.76C261.475 286.256 261.091 286.64 260.579 286.64C260.067 286.64 259.683 286.256 259.683 285.76ZM259.683 291.2C259.683 290.704 260.067 290.32 260.579 290.32C261.091 290.32 261.475 290.704 261.475 291.2C261.475 291.696 261.091 292.08 260.579 292.08C260.067 292.08 259.683 291.696 259.683 291.2ZM263.529 286.4C263.529 282.816 265.097 280.64 267.689 280.64C270.281 280.64 271.849 282.816 271.849 286.4C271.849 289.984 270.281 292.16 267.689 292.16C265.097 292.16 263.529 289.984 263.529 286.4ZM267.689 281.776C265.897 281.776 264.921 283.392 264.921 286.4C264.921 289.408 265.897 291.024 267.689 291.024C269.497 291.024 270.457 289.424 270.457 286.4C270.457 283.376 269.497 281.776 267.689 281.776ZM273.593 288.96H274.969C275.161 290.24 276.121 291.024 277.401 291.024C278.921 291.024 279.977 289.904 279.977 288.4C279.977 286.944 278.937 285.776 277.449 285.776C276.505 285.776 275.465 286.24 275.065 287.072H273.737L274.425 280.8H280.601V281.92H275.513L275.129 285.68C275.721 284.928 276.729 284.64 277.657 284.64C279.817 284.64 281.369 286.192 281.369 288.352C281.369 290.624 279.657 292.16 277.433 292.16C275.497 292.16 273.753 290.992 273.593 288.96ZM289.898 283.68C291.914 283.68 292.97 284.752 292.97 286.8V292H291.898L291.738 290.784C291.258 291.648 290.298 292.128 289.114 292.128C287.402 292.128 286.25 291.184 286.25 289.728C286.25 287.856 288.154 287.072 291.69 287.072V286.8C291.69 285.408 291.13 284.816 289.85 284.816C288.73 284.816 287.93 285.36 287.866 286.176H286.602C286.682 284.752 288.09 283.68 289.898 283.68ZM291.706 288.816V288.096C288.986 288.096 287.562 288.592 287.562 289.776C287.562 290.576 288.202 291.056 289.21 291.056C290.73 291.056 291.706 290.176 291.706 288.816ZM294.927 283.84H296.015L296.175 285.024C296.639 284.176 297.519 283.68 298.559 283.68C299.599 283.68 300.399 284.224 300.799 285.184C301.391 284.192 302.223 283.68 303.439 283.68C304.975 283.68 305.999 284.848 305.999 286.656V292H304.719V286.816C304.719 285.536 304.143 284.816 303.103 284.816C301.919 284.816 301.103 285.744 301.103 287.072V292H299.823V286.816C299.823 285.536 299.247 284.816 298.207 284.816C297.023 284.816 296.207 285.824 296.207 287.312V292H294.927V283.84ZM308.211 291.2C308.211 290.704 308.595 290.32 309.107 290.32C309.619 290.32 310.003 290.704 310.003 291.2C310.003 291.696 309.619 292.08 309.107 292.08C308.595 292.08 308.211 291.696 308.211 291.2Z" fill="#13172C"/>
<path d="M151.21 319.2H153.1V329H151.042L146.716 322.252V329H144.84V319.2H146.884L151.21 325.962V319.2ZM154.573 320.334C154.573 319.27 155.385 318.5 156.463 318.5C157.527 318.5 158.339 319.284 158.339 320.334C158.339 321.384 157.527 322.168 156.463 322.168C155.385 322.168 154.573 321.384 154.573 320.334ZM155.735 320.334C155.735 320.74 156.043 321.076 156.463 321.076C156.869 321.076 157.177 320.74 157.177 320.334C157.177 319.914 156.869 319.592 156.463 319.592C156.043 319.592 155.735 319.914 155.735 320.334ZM169.635 329H167.997L167.857 327.866C167.353 328.692 166.485 329.154 165.477 329.154C163.657 329.154 162.383 327.642 162.383 325.402C162.383 323.176 163.671 321.65 165.477 321.65C166.471 321.65 167.339 322.112 167.829 322.896V319.06H169.635V329ZM167.885 325.402C167.885 324.002 167.157 323.092 166.051 323.092C164.959 323.092 164.231 324.002 164.231 325.402C164.231 326.802 164.959 327.712 166.051 327.712C167.157 327.712 167.885 326.802 167.885 325.402ZM178.089 325.444V325.794H172.797C172.811 326.942 173.497 327.768 174.631 327.768C175.345 327.768 175.919 327.46 176.185 326.788H178.019C177.669 328.272 176.255 329.154 174.617 329.154C172.377 329.154 170.963 327.6 170.963 325.416C170.963 323.26 172.321 321.65 174.547 321.65C176.829 321.65 178.089 323.19 178.089 325.444ZM172.825 324.646H176.269C176.157 323.624 175.569 323.008 174.575 323.008C173.595 323.008 172.937 323.666 172.825 324.646ZM186.464 321.734V323.358C186.324 323.316 186.142 323.288 185.904 323.288C184.826 323.288 184.196 324.072 184.196 325.43V329H182.376V321.804H184.028L184.168 322.868C184.476 322.14 185.148 321.664 185.876 321.664C186.1 321.664 186.296 321.692 186.464 321.734ZM194.084 325.444V325.794H188.792C188.806 326.942 189.492 327.768 190.626 327.768C191.34 327.768 191.914 327.46 192.18 326.788H194.014C193.664 328.272 192.25 329.154 190.612 329.154C188.372 329.154 186.958 327.6 186.958 325.416C186.958 323.26 188.316 321.65 190.542 321.65C192.824 321.65 194.084 323.19 194.084 325.444ZM188.82 324.646H192.264C192.152 323.624 191.564 323.008 190.57 323.008C189.59 323.008 188.932 323.666 188.82 324.646ZM199.022 321.804V323.176H197.678V329H195.872V323.176H194.864V321.804H195.872V321.272C195.872 319.662 196.544 318.976 198.154 318.976C198.56 318.976 198.924 319.018 199.078 319.06V320.46C198.98 320.446 198.756 320.404 198.546 320.404C197.902 320.404 197.636 320.712 197.636 321.286V321.804H199.022ZM206.939 325.444V325.794H201.647C201.661 326.942 202.347 327.768 203.481 327.768C204.195 327.768 204.769 327.46 205.035 326.788H206.869C206.519 328.272 205.105 329.154 203.467 329.154C201.227 329.154 199.813 327.6 199.813 325.416C199.813 323.26 201.171 321.65 203.397 321.65C205.679 321.65 206.939 323.19 206.939 325.444ZM201.675 324.646H205.119C205.007 323.624 204.419 323.008 203.425 323.008C202.445 323.008 201.787 323.666 201.675 324.646ZM212.297 321.734V323.358C212.157 323.316 211.975 323.288 211.737 323.288C210.659 323.288 210.029 324.072 210.029 325.43V329H208.209V321.804H209.861L210.001 322.868C210.309 322.14 210.981 321.664 211.709 321.664C211.933 321.664 212.129 321.692 212.297 321.734ZM219.917 325.444V325.794H214.625C214.639 326.942 215.325 327.768 216.459 327.768C217.173 327.768 217.747 327.46 218.013 326.788H219.847C219.497 328.272 218.083 329.154 216.445 329.154C214.205 329.154 212.791 327.6 212.791 325.416C212.791 323.26 214.149 321.65 216.375 321.65C218.657 321.65 219.917 323.19 219.917 325.444ZM214.653 324.646H218.097C217.985 323.624 217.397 323.008 216.403 323.008C215.423 323.008 214.765 323.666 214.653 324.646ZM225.233 321.65C226.731 321.65 227.655 322.644 227.655 324.282V329H225.835V324.73C225.835 323.708 225.359 323.148 224.505 323.148C223.567 323.148 223.021 323.834 223.021 325.038V329H221.215V321.804H222.853L222.993 322.854C223.497 322.07 224.253 321.65 225.233 321.65ZM232.61 327.712C233.408 327.712 233.982 327.222 234.122 326.424H235.914C235.732 328.09 234.416 329.154 232.54 329.154C230.37 329.154 228.9 327.642 228.9 325.402C228.9 323.176 230.37 321.65 232.54 321.65C234.416 321.65 235.732 322.714 235.914 324.38H234.122C233.982 323.582 233.408 323.092 232.61 323.092C231.448 323.092 230.72 323.974 230.72 325.402C230.72 326.83 231.448 327.712 232.61 327.712ZM238.154 320.81C237.552 320.81 237.076 320.362 237.076 319.76C237.076 319.172 237.552 318.724 238.154 318.724C238.756 318.724 239.232 319.172 239.232 319.76C239.232 320.362 238.756 320.81 238.154 320.81ZM239.05 329H237.23V321.804H239.05V329ZM243.929 321.65C245.875 321.65 246.911 322.602 246.911 324.422V329H245.301L245.161 328.02C244.741 328.748 243.971 329.14 242.935 329.14C241.395 329.14 240.415 328.314 240.415 326.984C240.415 325.332 241.941 324.646 245.091 324.646V324.464C245.091 323.456 244.699 323.022 243.803 323.022C243.019 323.022 242.473 323.4 242.417 324.016H240.695C240.779 322.602 242.067 321.65 243.929 321.65ZM245.105 326.298V325.78C243.173 325.78 242.221 326.116 242.221 326.928C242.221 327.488 242.683 327.838 243.411 327.838C244.461 327.838 245.105 327.236 245.105 326.298Z" fill="#5E6488"/>
<path d="M144.128 351.264L144.224 350.208H146.464L146.72 347.232H144.496L144.592 346.176H146.816L147.072 343.44H148.192L147.936 346.176H151.088L151.344 343.44H152.464L152.224 346.176H154.496L154.4 347.232H152.112L151.856 350.208H154.128L154.032 351.264H151.76L151.504 354H150.384L150.64 351.264H147.488L147.232 354H146.112L146.352 351.264H144.128ZM147.84 347.168L147.568 350.272H150.736L151.008 347.168H147.84ZM155.529 348.4C155.529 344.816 157.097 342.64 159.689 342.64C162.281 342.64 163.849 344.816 163.849 348.4C163.849 351.984 162.281 354.16 159.689 354.16C157.097 354.16 155.529 351.984 155.529 348.4ZM159.689 343.776C157.897 343.776 156.921 345.392 156.921 348.4C156.921 351.408 157.897 353.024 159.689 353.024C161.497 353.024 162.457 351.424 162.457 348.4C162.457 345.376 161.497 343.776 159.689 343.776ZM165.435 354V353.136L170.043 348.64C171.083 347.616 171.499 346.88 171.499 346.048C171.499 344.688 170.587 343.776 169.211 343.776C167.931 343.776 167.019 344.56 166.891 345.84H165.499C165.627 343.984 167.211 342.64 169.259 342.64C171.355 342.64 172.891 344.064 172.891 346C172.891 347.152 172.315 348.192 170.955 349.504L167.467 352.88H172.891V354H165.435ZM174.46 348.4C174.46 344.816 176.028 342.64 178.62 342.64C181.212 342.64 182.78 344.816 182.78 348.4C182.78 351.984 181.212 354.16 178.62 354.16C176.028 354.16 174.46 351.984 174.46 348.4ZM178.62 343.776C176.828 343.776 175.852 345.392 175.852 348.4C175.852 351.408 176.828 353.024 178.62 353.024C180.428 353.024 181.388 351.424 181.388 348.4C181.388 345.376 180.428 343.776 178.62 343.776ZM184.395 348.4C184.395 344.816 185.963 342.64 188.555 342.64C191.147 342.64 192.715 344.816 192.715 348.4C192.715 351.984 191.147 354.16 188.555 354.16C185.963 354.16 184.395 351.984 184.395 348.4ZM188.555 343.776C186.763 343.776 185.787 345.392 185.787 348.4C185.787 351.408 186.763 353.024 188.555 353.024C190.363 353.024 191.323 351.424 191.323 348.4C191.323 345.376 190.363 343.776 188.555 343.776ZM194.237 346.432V344.88L196.733 342.8H197.853V354H196.477V344.544L194.237 346.432Z" fill="#13172C"/>
<path d="M149.222 389.558C150.524 389.558 151.476 388.83 151.7 387.64H153.702C153.324 389.81 151.616 391.154 149.208 391.154C146.408 391.154 144.518 389.124 144.518 386.1C144.518 383.062 146.408 381.046 149.208 381.046C151.602 381.046 153.422 382.488 153.646 384.56H151.672C151.448 383.412 150.454 382.642 149.208 382.642C147.584 382.642 146.492 384.014 146.492 386.086C146.492 388.186 147.584 389.558 149.222 389.558ZM158.586 380.724H160.238L158.88 382.88H157.662L158.586 380.724ZM158.446 383.65C160.616 383.65 162.1 385.176 162.1 387.402C162.1 389.628 160.616 391.154 158.446 391.154C156.248 391.154 154.764 389.628 154.764 387.402C154.764 385.176 156.248 383.65 158.446 383.65ZM158.432 389.712C159.538 389.712 160.266 388.802 160.266 387.402C160.266 385.988 159.538 385.092 158.432 385.092C157.312 385.092 156.584 385.988 156.584 387.402C156.584 388.802 157.312 389.712 158.432 389.712ZM170.323 391H168.685L168.545 389.866C168.041 390.692 167.173 391.154 166.165 391.154C164.345 391.154 163.071 389.642 163.071 387.402C163.071 385.176 164.359 383.65 166.165 383.65C167.159 383.65 168.027 384.112 168.517 384.896V381.06H170.323V391ZM168.573 387.402C168.573 386.002 167.845 385.092 166.739 385.092C165.647 385.092 164.919 386.002 164.919 387.402C164.919 388.802 165.647 389.712 166.739 389.712C167.845 389.712 168.573 388.802 168.573 387.402ZM172.926 382.81C172.324 382.81 171.848 382.362 171.848 381.76C171.848 381.172 172.324 380.724 172.926 380.724C173.528 380.724 174.004 381.172 174.004 381.76C174.004 382.362 173.528 382.81 172.926 382.81ZM173.822 391H172.002V383.804H173.822V391ZM178.772 392.288C179.864 392.288 180.536 391.7 180.536 390.468V389.474C180.074 390.216 179.262 390.678 178.282 390.678C176.448 390.678 175.188 389.25 175.188 387.164C175.188 385.078 176.434 383.65 178.282 383.65C179.234 383.65 180.088 384.098 180.564 384.854L180.69 383.804H182.342V390.328C182.342 392.568 180.886 393.674 178.716 393.674C176.868 393.674 175.524 392.652 175.356 391.21H177.148C177.288 391.868 177.89 392.288 178.772 392.288ZM180.606 387.178C180.606 385.904 179.878 385.05 178.8 385.05C177.722 385.05 177.008 385.89 177.008 387.178C177.008 388.452 177.722 389.306 178.8 389.306C179.878 389.306 180.606 388.452 180.606 387.178ZM187.301 383.65C189.471 383.65 190.955 385.176 190.955 387.402C190.955 389.628 189.471 391.154 187.301 391.154C185.103 391.154 183.619 389.628 183.619 387.402C183.619 385.176 185.103 383.65 187.301 383.65ZM187.287 389.712C188.393 389.712 189.121 388.802 189.121 387.402C189.121 385.988 188.393 385.092 187.287 385.092C186.167 385.092 185.439 385.988 185.439 387.402C185.439 388.802 186.167 389.712 187.287 389.712ZM202.194 391H200.556L200.416 389.866C199.912 390.692 199.044 391.154 198.036 391.154C196.216 391.154 194.942 389.642 194.942 387.402C194.942 385.176 196.23 383.65 198.036 383.65C199.03 383.65 199.898 384.112 200.388 384.896V381.06H202.194V391ZM200.444 387.402C200.444 386.002 199.716 385.092 198.61 385.092C197.518 385.092 196.79 386.002 196.79 387.402C196.79 388.802 197.518 389.712 198.61 389.712C199.716 389.712 200.444 388.802 200.444 387.402ZM210.649 387.444V387.794H205.357C205.371 388.942 206.057 389.768 207.191 389.768C207.905 389.768 208.479 389.46 208.745 388.788H210.579C210.229 390.272 208.815 391.154 207.177 391.154C204.937 391.154 203.523 389.6 203.523 387.416C203.523 385.26 204.881 383.65 207.107 383.65C209.389 383.65 210.649 385.19 210.649 387.444ZM205.385 386.646H208.829C208.717 385.624 208.129 385.008 207.135 385.008C206.155 385.008 205.497 385.666 205.385 386.646ZM218.17 383.65C220.116 383.65 221.152 384.602 221.152 386.422V391H219.542L219.402 390.02C218.982 390.748 218.212 391.14 217.176 391.14C215.636 391.14 214.656 390.314 214.656 388.984C214.656 387.332 216.182 386.646 219.332 386.646V386.464C219.332 385.456 218.94 385.022 218.044 385.022C217.26 385.022 216.714 385.4 216.658 386.016H214.936C215.02 384.602 216.308 383.65 218.17 383.65ZM219.346 388.298V387.78C217.414 387.78 216.462 388.116 216.462 388.928C216.462 389.488 216.924 389.838 217.652 389.838C218.702 389.838 219.346 389.236 219.346 388.298ZM225.09 391.154C223.592 391.154 222.682 390.16 222.682 388.522V383.804H224.488V388.06C224.488 389.082 224.978 389.642 225.832 389.642C226.77 389.642 227.316 388.956 227.316 387.752V383.804H229.122V391H227.484L227.344 389.95C226.84 390.734 226.07 391.154 225.09 391.154ZM234.189 385.176H232.859V388.858C232.859 389.446 233.139 389.656 233.713 389.656C233.965 389.656 234.189 389.628 234.273 389.6V391C234.077 391.042 233.685 391.112 233.293 391.112C231.725 391.112 231.053 390.482 231.053 388.9V385.176H230.157V383.804H231.053V382.068H232.817V383.804H234.189V385.176ZM238.858 383.65C241.028 383.65 242.512 385.176 242.512 387.402C242.512 389.628 241.028 391.154 238.858 391.154C236.66 391.154 235.176 389.628 235.176 387.402C235.176 385.176 236.66 383.65 238.858 383.65ZM238.844 389.712C239.95 389.712 240.678 388.802 240.678 387.402C240.678 385.988 239.95 385.092 238.844 385.092C237.724 385.092 236.996 385.988 236.996 387.402C236.996 388.802 237.724 389.712 238.844 389.712ZM247.851 383.734V385.358C247.711 385.316 247.529 385.288 247.291 385.288C246.213 385.288 245.583 386.072 245.583 387.43V391H243.763V383.804H245.415L245.555 384.868C245.863 384.14 246.535 383.664 247.263 383.664C247.487 383.664 247.683 383.692 247.851 383.734ZM249.879 382.81C249.277 382.81 248.801 382.362 248.801 381.76C248.801 381.172 249.277 380.724 249.879 380.724C250.481 380.724 250.957 381.172 250.957 381.76C250.957 382.362 250.481 382.81 249.879 382.81ZM250.775 391H248.955V383.804H250.775V391ZM254.689 389.53H258.245V391H252.267V390.09L255.823 385.274H252.547V383.804H258.245V384.714L254.689 389.53ZM262.882 383.65C264.828 383.65 265.864 384.602 265.864 386.422V391H264.254L264.114 390.02C263.694 390.748 262.924 391.14 261.888 391.14C260.348 391.14 259.368 390.314 259.368 388.984C259.368 387.332 260.894 386.646 264.044 386.646V386.464C264.044 385.456 263.652 385.022 262.756 385.022C261.972 385.022 261.426 385.4 261.37 386.016H259.648C259.732 384.602 261.02 383.65 262.882 383.65ZM264.058 388.298V387.78C262.126 387.78 261.174 388.116 261.174 388.928C261.174 389.488 261.636 389.838 262.364 389.838C263.414 389.838 264.058 389.236 264.058 388.298ZM270.839 389.712C271.637 389.712 272.211 389.222 272.351 388.424H274.143C273.961 390.09 272.645 391.154 270.769 391.154C268.599 391.154 267.129 389.642 267.129 387.402C267.129 385.176 268.599 383.65 270.769 383.65C272.645 383.65 273.961 384.714 274.143 386.38H272.351C272.211 385.582 271.637 385.092 270.839 385.092C269.677 385.092 268.949 385.974 268.949 387.402C268.949 388.83 269.677 389.712 270.839 389.712ZM276.382 382.81C275.78 382.81 275.304 382.362 275.304 381.76C275.304 381.172 275.78 380.724 276.382 380.724C276.984 380.724 277.46 381.172 277.46 381.76C277.46 382.362 276.984 382.81 276.382 382.81ZM277.278 391H275.458V383.804H277.278V391ZM282.466 380.724H284.118L282.76 382.88H281.542L282.466 380.724ZM282.326 383.65C284.496 383.65 285.98 385.176 285.98 387.402C285.98 389.628 284.496 391.154 282.326 391.154C280.128 391.154 278.644 389.628 278.644 387.402C278.644 385.176 280.128 383.65 282.326 383.65ZM282.312 389.712C283.418 389.712 284.146 388.802 284.146 387.402C284.146 385.988 283.418 385.092 282.312 385.092C281.192 385.092 280.464 385.988 280.464 387.402C280.464 388.802 281.192 389.712 282.312 389.712ZM291.277 383.65C292.775 383.65 293.699 384.644 293.699 386.282V391H291.879V386.73C291.879 385.708 291.403 385.148 290.549 385.148C289.611 385.148 289.065 385.834 289.065 387.038V391H287.259V383.804H288.897L289.037 384.854C289.541 384.07 290.297 383.65 291.277 383.65Z" fill="#5E6488"/>
<path d="M150.08 413.6H144.576V412.656L150.432 404.8H151.456V412.448H153.056V413.6H151.456V416H150.08V413.6ZM146.24 412.448H150.08V407.2L146.24 412.448ZM154.851 407.536C154.851 405.856 156.371 404.64 158.435 404.64C160.499 404.64 162.019 405.856 162.019 407.536C162.019 408.656 161.315 409.6 160.147 410.064C161.555 410.512 162.435 411.616 162.435 412.944C162.435 414.816 160.771 416.16 158.435 416.16C156.099 416.16 154.435 414.816 154.435 412.944C154.435 411.616 155.315 410.512 156.723 410.064C155.555 409.6 154.851 408.656 154.851 407.536ZM160.643 407.712C160.643 406.576 159.731 405.776 158.435 405.776C157.139 405.776 156.227 406.576 156.227 407.712C156.227 408.832 157.123 409.584 158.435 409.584C159.747 409.584 160.643 408.832 160.643 407.712ZM161.043 412.864C161.043 411.616 159.971 410.704 158.435 410.704C156.899 410.704 155.827 411.616 155.827 412.864C155.827 414.112 156.899 415.024 158.435 415.024C159.971 415.024 161.043 414.112 161.043 412.864ZM163.913 404.8H170.953V405.696L166.249 416H164.777L169.497 405.92H163.913V404.8ZM172.618 408.432V406.88L175.114 404.8H176.234V416H174.858V406.544L172.618 408.432ZM179.243 412.96H180.619C180.811 414.24 181.771 415.024 183.051 415.024C184.571 415.024 185.627 413.904 185.627 412.4C185.627 410.944 184.587 409.776 183.099 409.776C182.155 409.776 181.115 410.24 180.715 411.072H179.387L180.075 404.8H186.251V405.92H181.163L180.779 409.68C181.371 408.928 182.379 408.64 183.307 408.64C185.467 408.64 187.019 410.192 187.019 412.352C187.019 414.624 185.307 416.16 183.083 416.16C181.147 416.16 179.403 414.992 179.243 412.96ZM192.245 404.64C194.965 404.64 196.437 406.624 196.437 410.24C196.437 413.888 194.917 416.16 192.197 416.16C190.261 416.16 188.837 415.056 188.533 413.312H189.909C190.181 414.4 191.013 415.024 192.165 415.024C194.037 415.024 195.093 413.248 195.093 410.448C194.565 411.52 193.397 412.16 192.021 412.16C189.909 412.16 188.373 410.64 188.373 408.512C188.373 406.176 189.909 404.64 192.245 404.64ZM194.757 408.416C194.757 406.88 193.717 405.808 192.245 405.808C190.773 405.808 189.765 406.88 189.765 408.416C189.765 409.856 190.837 410.976 192.245 410.976C193.717 410.976 194.757 409.904 194.757 408.416Z" fill="#13172C"/>
<path d="M397.21 195.2H399.1V205H397.042L392.716 198.252V205H390.84V195.2H392.884L397.21 201.962V195.2ZM400.573 196.334C400.573 195.27 401.385 194.5 402.463 194.5C403.527 194.5 404.339 195.284 404.339 196.334C404.339 197.384 403.527 198.168 402.463 198.168C401.385 198.168 400.573 197.384 400.573 196.334ZM401.735 196.334C401.735 196.74 402.043 197.076 402.463 197.076C402.869 197.076 403.177 196.74 403.177 196.334C403.177 195.914 402.869 195.592 402.463 195.592C402.043 195.592 401.735 195.914 401.735 196.334ZM415.635 205H413.997L413.857 203.866C413.353 204.692 412.485 205.154 411.477 205.154C409.657 205.154 408.383 203.642 408.383 201.402C408.383 199.176 409.671 197.65 411.477 197.65C412.471 197.65 413.339 198.112 413.829 198.896V195.06H415.635V205ZM413.885 201.402C413.885 200.002 413.157 199.092 412.051 199.092C410.959 199.092 410.231 200.002 410.231 201.402C410.231 202.802 410.959 203.712 412.051 203.712C413.157 203.712 413.885 202.802 413.885 201.402ZM424.089 201.444V201.794H418.797C418.811 202.942 419.497 203.768 420.631 203.768C421.345 203.768 421.919 203.46 422.185 202.788H424.019C423.669 204.272 422.255 205.154 420.617 205.154C418.377 205.154 416.963 203.6 416.963 201.416C416.963 199.26 418.321 197.65 420.547 197.65C422.829 197.65 424.089 199.19 424.089 201.444ZM418.825 200.646H422.269C422.157 199.624 421.569 199.008 420.575 199.008C419.595 199.008 418.937 199.666 418.825 200.646ZM431.876 199.176H430.546V202.858C430.546 203.446 430.826 203.656 431.4 203.656C431.652 203.656 431.876 203.628 431.96 203.6V205C431.764 205.042 431.372 205.112 430.98 205.112C429.412 205.112 428.74 204.482 428.74 202.9V199.176H427.844V197.804H428.74V196.068H430.504V197.804H431.876V199.176ZM436.417 197.65C438.363 197.65 439.399 198.602 439.399 200.422V205H437.789L437.649 204.02C437.229 204.748 436.459 205.14 435.423 205.14C433.883 205.14 432.903 204.314 432.903 202.984C432.903 201.332 434.429 200.646 437.579 200.646V200.464C437.579 199.456 437.187 199.022 436.291 199.022C435.507 199.022 434.961 199.4 434.905 200.016H433.183C433.267 198.602 434.555 197.65 436.417 197.65ZM437.593 202.298V201.78C435.661 201.78 434.709 202.116 434.709 202.928C434.709 203.488 435.171 203.838 435.899 203.838C436.949 203.838 437.593 203.236 437.593 202.298ZM445.032 197.734V199.358C444.892 199.316 444.71 199.288 444.472 199.288C443.394 199.288 442.764 200.072 442.764 201.43V205H440.944V197.804H442.596L442.736 198.868C443.044 198.14 443.716 197.664 444.444 197.664C444.668 197.664 444.864 197.692 445.032 197.734ZM447.2 196.81C446.584 196.81 446.122 196.362 446.122 195.76C446.122 195.172 446.584 194.724 447.2 194.724C447.816 194.724 448.278 195.158 448.278 195.76C448.278 196.362 447.816 196.81 447.2 196.81ZM446.276 197.804H448.082V205.07C448.082 206.75 447.172 207.52 445.212 207.52V206.12C445.898 206.12 446.276 205.756 446.276 205.084V197.804ZM456.584 201.444V201.794H451.292C451.306 202.942 451.992 203.768 453.126 203.768C453.84 203.768 454.414 203.46 454.68 202.788H456.514C456.164 204.272 454.75 205.154 453.112 205.154C450.872 205.154 449.458 203.6 449.458 201.416C449.458 199.26 450.816 197.65 453.042 197.65C455.324 197.65 456.584 199.19 456.584 201.444ZM451.32 200.646H454.764C454.652 199.624 454.064 199.008 453.07 199.008C452.09 199.008 451.432 199.666 451.32 200.646ZM461.354 199.176H460.024V202.858C460.024 203.446 460.304 203.656 460.878 203.656C461.13 203.656 461.354 203.628 461.438 203.6V205C461.242 205.042 460.85 205.112 460.458 205.112C458.89 205.112 458.218 204.482 458.218 202.9V199.176H457.322V197.804H458.218V196.068H459.982V197.804H461.354V199.176ZM465.896 197.65C467.842 197.65 468.878 198.602 468.878 200.422V205H467.268L467.128 204.02C466.708 204.748 465.938 205.14 464.902 205.14C463.362 205.14 462.382 204.314 462.382 202.984C462.382 201.332 463.908 200.646 467.058 200.646V200.464C467.058 199.456 466.666 199.022 465.77 199.022C464.986 199.022 464.44 199.4 464.384 200.016H462.662C462.746 198.602 464.034 197.65 465.896 197.65ZM467.072 202.298V201.78C465.14 201.78 464.188 202.116 464.188 202.928C464.188 203.488 464.65 203.838 465.378 203.838C466.428 203.838 467.072 203.236 467.072 202.298Z" fill="#5E6488"/>
<path d="M396.576 220.256L394.464 221.2L396.576 222.16L396.016 223.136L394.128 221.792L394.368 224.08H393.232L393.472 221.792L391.584 223.136L391.024 222.16L393.136 221.2L391.024 220.256L391.584 219.28L393.472 220.624L393.232 218.32H394.368L394.128 220.624L396.016 219.28L396.576 220.256ZM404.573 220.256L402.461 221.2L404.573 222.16L404.013 223.136L402.125 221.792L402.365 224.08H401.229L401.469 221.792L399.581 223.136L399.021 222.16L401.133 221.2L399.021 220.256L399.581 219.28L401.469 220.624L401.229 218.32H402.365L402.125 220.624L404.013 219.28L404.573 220.256ZM412.57 220.256L410.458 221.2L412.57 222.16L412.01 223.136L410.122 221.792L410.362 224.08H409.226L409.466 221.792L407.578 223.136L407.018 222.16L409.13 221.2L407.018 220.256L407.578 219.28L409.466 220.624L409.226 218.32H410.362L410.122 220.624L412.01 219.28L412.57 220.256ZM420.567 220.256L418.455 221.2L420.567 222.16L420.007 223.136L418.119 221.792L418.359 224.08H417.223L417.463 221.792L415.575 223.136L415.015 222.16L417.127 221.2L415.015 220.256L415.575 219.28L417.463 220.624L417.223 218.32H418.359L418.119 220.624L420.007 219.28L420.567 220.256ZM431.92 220.256L429.808 221.2L431.92 222.16L431.36 223.136L429.472 221.792L429.712 224.08H428.576L428.816 221.792L426.928 223.136L426.368 222.16L428.48 221.2L426.368 220.256L426.928 219.28L428.816 220.624L428.576 218.32H429.712L429.472 220.624L431.36 219.28L431.92 220.256ZM439.917 220.256L437.805 221.2L439.917 222.16L439.357 223.136L437.469 221.792L437.709 224.08H436.573L436.813 221.792L434.925 223.136L434.365 222.16L436.477 221.2L434.365 220.256L434.925 219.28L436.813 220.624L436.573 218.32H437.709L437.469 220.624L439.357 219.28L439.917 220.256ZM447.914 220.256L445.802 221.2L447.914 222.16L447.354 223.136L445.466 221.792L445.706 224.08H444.57L444.81 221.792L442.922 223.136L442.362 222.16L444.474 221.2L442.362 220.256L442.922 219.28L444.81 220.624L444.57 218.32H445.706L445.466 220.624L447.354 219.28L447.914 220.256ZM455.91 220.256L453.798 221.2L455.91 222.16L455.35 223.136L453.462 221.792L453.702 224.08H452.566L452.806 221.792L450.918 223.136L450.358 222.16L452.47 221.2L450.358 220.256L450.918 219.28L452.806 220.624L452.566 218.32H453.702L453.462 220.624L455.35 219.28L455.91 220.256ZM467.264 220.256L465.152 221.2L467.264 222.16L466.704 223.136L464.816 221.792L465.056 224.08H463.92L464.16 221.792L462.272 223.136L461.712 222.16L463.824 221.2L461.712 220.256L462.272 219.28L464.16 220.624L463.92 218.32H465.056L464.816 220.624L466.704 219.28L467.264 220.256ZM475.26 220.256L473.148 221.2L475.26 222.16L474.7 223.136L472.812 221.792L473.052 224.08H471.916L472.156 221.792L470.268 223.136L469.708 222.16L471.82 221.2L469.708 220.256L470.268 219.28L472.156 220.624L471.916 218.32H473.052L472.812 220.624L474.7 219.28L475.26 220.256ZM483.257 220.256L481.145 221.2L483.257 222.16L482.697 223.136L480.809 221.792L481.049 224.08H479.913L480.153 221.792L478.265 223.136L477.705 222.16L479.817 221.2L477.705 220.256L478.265 219.28L480.153 220.624L479.913 218.32H481.049L480.809 220.624L482.697 219.28L483.257 220.256ZM491.254 220.256L489.142 221.2L491.254 222.16L490.694 223.136L488.806 221.792L489.046 224.08H487.91L488.15 221.792L486.262 223.136L485.702 222.16L487.814 221.2L485.702 220.256L486.262 219.28L488.15 220.624L487.91 218.32H489.046L488.806 220.624L490.694 219.28L491.254 220.256ZM496.863 230V229.136L501.471 224.64C502.511 223.616 502.927 222.88 502.927 222.048C502.927 220.688 502.015 219.776 500.639 219.776C499.359 219.776 498.447 220.56 498.319 221.84H496.927C497.055 219.984 498.639 218.64 500.687 218.64C502.783 218.64 504.319 220.064 504.319 222C504.319 223.152 503.743 224.192 502.383 225.504L498.895 228.88H504.319V230H496.863ZM510.889 227.6H505.385V226.656L511.241 218.8H512.265V226.448H513.865V227.6H512.265V230H510.889V227.6ZM507.049 226.448H510.889V221.2L507.049 226.448ZM520.621 227.6H515.117V226.656L520.973 218.8H521.997V226.448H523.597V227.6H521.997V230H520.621V227.6ZM516.781 226.448H520.621V221.2L516.781 226.448ZM525.392 221.536C525.392 219.856 526.912 218.64 528.976 218.64C531.04 218.64 532.56 219.856 532.56 221.536C532.56 222.656 531.856 223.6 530.688 224.064C532.096 224.512 532.976 225.616 532.976 226.944C532.976 228.816 531.312 230.16 528.976 230.16C526.64 230.16 524.976 228.816 524.976 226.944C524.976 225.616 525.856 224.512 527.264 224.064C526.096 223.6 525.392 222.656 525.392 221.536ZM531.184 221.712C531.184 220.576 530.272 219.776 528.976 219.776C527.68 219.776 526.768 220.576 526.768 221.712C526.768 222.832 527.664 223.584 528.976 223.584C530.288 223.584 531.184 222.832 531.184 221.712ZM531.584 226.864C531.584 225.616 530.512 224.704 528.976 224.704C527.44 224.704 526.368 225.616 526.368 226.864C526.368 228.112 527.44 229.024 528.976 229.024C530.512 229.024 531.584 228.112 531.584 226.864Z" fill="#13172C"/>
<path d="M392.772 267H390.84V257.2H392.772V267ZM394.509 259.804H396.133L396.273 260.854C396.693 260.098 397.463 259.65 398.401 259.65C399.339 259.65 400.025 260.112 400.375 260.952C400.865 260.098 401.649 259.65 402.685 259.65C404.085 259.65 404.995 260.672 404.995 262.282V267H403.203V262.548C403.203 261.652 402.783 261.148 402.027 261.148C401.187 261.148 400.641 261.806 400.641 262.828V267H398.849V262.548C398.849 261.652 398.429 261.148 397.687 261.148C396.833 261.148 396.301 261.848 396.301 262.954V267H394.509V259.804ZM406.577 269.52V259.804H408.215L408.355 260.924C408.873 260.07 409.755 259.65 410.721 259.65C412.667 259.65 413.829 261.302 413.829 263.402C413.829 265.474 412.653 267.14 410.735 267.14C409.769 267.14 408.887 266.706 408.383 265.894V269.52H406.577ZM408.327 263.402C408.327 264.802 409.055 265.712 410.161 265.712C411.253 265.712 411.981 264.788 411.981 263.402C411.981 262.002 411.253 261.078 410.161 261.078C409.055 261.078 408.327 262.002 408.327 263.402ZM418.49 259.65C420.66 259.65 422.144 261.176 422.144 263.402C422.144 265.628 420.66 267.154 418.49 267.154C416.292 267.154 414.808 265.628 414.808 263.402C414.808 261.176 416.292 259.65 418.49 259.65ZM418.476 265.712C419.582 265.712 420.31 264.802 420.31 263.402C420.31 261.988 419.582 261.092 418.476 261.092C417.356 261.092 416.628 261.988 416.628 263.402C416.628 264.802 417.356 265.712 418.476 265.712ZM427.484 259.734V261.358C427.344 261.316 427.162 261.288 426.924 261.288C425.846 261.288 425.216 262.072 425.216 263.43V267H423.396V259.804H425.048L425.188 260.868C425.496 260.14 426.168 259.664 426.896 259.664C427.12 259.664 427.316 259.692 427.484 259.734ZM432.059 261.176H430.729V264.858C430.729 265.446 431.009 265.656 431.583 265.656C431.835 265.656 432.059 265.628 432.143 265.6V267C431.947 267.042 431.555 267.112 431.163 267.112C429.595 267.112 428.923 266.482 428.923 264.9V261.176H428.027V259.804H428.923V258.068H430.687V259.804H432.059V261.176ZM440.171 263.444V263.794H434.879C434.893 264.942 435.579 265.768 436.713 265.768C437.427 265.768 438.001 265.46 438.267 264.788H440.101C439.751 266.272 438.337 267.154 436.699 267.154C434.459 267.154 433.045 265.6 433.045 263.416C433.045 261.26 434.403 259.65 436.629 259.65C438.911 259.65 440.171 261.19 440.171 263.444ZM434.907 262.646H438.351C438.239 261.624 437.651 261.008 436.657 261.008C435.677 261.008 435.019 261.666 434.907 262.646Z" fill="#5E6488"/>
<path d="M392.208 283.712C392.208 284.64 392.912 285.184 394.688 285.6L395.36 285.76C397.888 286.352 398.88 287.2 398.88 288.976C398.88 290.8 397.248 292.16 394.832 292.16C392.432 292.16 390.768 290.816 390.544 288.688H391.952C392.128 290.08 393.264 290.992 394.848 290.992C396.4 290.992 397.504 290.112 397.504 288.96C397.504 287.936 396.832 287.408 395.104 287.008L394.48 286.864C391.936 286.288 390.864 285.392 390.864 283.84C390.864 281.968 392.432 280.64 394.672 280.64C396.848 280.64 398.464 281.936 398.608 283.808H397.248C397.12 282.608 396.064 281.792 394.624 281.792C393.232 281.792 392.208 282.592 392.208 283.712ZM400.918 294.4H399.686L403.894 280.32H405.126L400.918 294.4ZM415.024 289.6H409.52V288.656L415.376 280.8H416.4V288.448H418V289.6H416.4V292H415.024V289.6ZM411.184 288.448H415.024V283.2L411.184 288.448ZM419.571 288.96H420.947C421.139 290.24 422.099 291.024 423.379 291.024C424.899 291.024 425.955 289.904 425.955 288.4C425.955 286.944 424.915 285.776 423.427 285.776C422.483 285.776 421.443 286.24 421.043 287.072H419.715L420.403 280.8H426.579V281.92H421.491L421.107 285.68C421.699 284.928 422.707 284.64 423.635 284.64C425.795 284.64 427.347 286.192 427.347 288.352C427.347 290.624 425.635 292.16 423.411 292.16C421.475 292.16 419.731 290.992 419.571 288.96ZM428.829 286.4C428.829 282.816 430.397 280.64 432.989 280.64C435.581 280.64 437.149 282.816 437.149 286.4C437.149 289.984 435.581 292.16 432.989 292.16C430.397 292.16 428.829 289.984 428.829 286.4ZM432.989 281.776C431.197 281.776 430.221 283.392 430.221 286.4C430.221 289.408 431.197 291.024 432.989 291.024C434.797 291.024 435.757 289.424 435.757 286.4C435.757 283.376 434.797 281.776 432.989 281.776ZM438.899 291.2C438.899 290.704 439.283 290.32 439.795 290.32C440.307 290.32 440.691 290.704 440.691 291.2C440.691 291.696 440.307 292.08 439.795 292.08C439.283 292.08 438.899 291.696 438.899 291.2ZM442.542 286.4C442.542 282.816 444.11 280.64 446.702 280.64C449.294 280.64 450.862 282.816 450.862 286.4C450.862 289.984 449.294 292.16 446.702 292.16C444.11 292.16 442.542 289.984 442.542 286.4ZM446.702 281.776C444.91 281.776 443.934 283.392 443.934 286.4C443.934 289.408 444.91 291.024 446.702 291.024C448.51 291.024 449.47 289.424 449.47 286.4C449.47 283.376 448.51 281.776 446.702 281.776ZM452.476 286.4C452.476 282.816 454.044 280.64 456.636 280.64C459.228 280.64 460.796 282.816 460.796 286.4C460.796 289.984 459.228 292.16 456.636 292.16C454.044 292.16 452.476 289.984 452.476 286.4ZM456.636 281.776C454.844 281.776 453.868 283.392 453.868 286.4C453.868 289.408 454.844 291.024 456.636 291.024C458.444 291.024 459.404 289.424 459.404 286.4C459.404 283.376 458.444 281.776 456.636 281.776Z" fill="#13172C"/>
<path d="M395.418 319.046C398.33 319.046 400.304 321.09 400.304 324.1C400.304 327.11 398.33 329.154 395.418 329.154C392.506 329.154 390.518 327.11 390.518 324.1C390.518 321.09 392.506 319.046 395.418 319.046ZM395.418 327.558C397.196 327.558 398.33 326.214 398.33 324.1C398.33 321.986 397.196 320.642 395.418 320.642C393.64 320.642 392.492 321.986 392.492 324.1C392.492 326.214 393.64 327.558 395.418 327.558ZM401.77 331.52V321.804H403.408L403.548 322.924C404.066 322.07 404.948 321.65 405.914 321.65C407.86 321.65 409.022 323.302 409.022 325.402C409.022 327.474 407.846 329.14 405.928 329.14C404.962 329.14 404.08 328.706 403.576 327.894V331.52H401.77ZM403.52 325.402C403.52 326.802 404.248 327.712 405.354 327.712C406.446 327.712 407.174 326.788 407.174 325.402C407.174 324.002 406.446 323.078 405.354 323.078C404.248 323.078 403.52 324.002 403.52 325.402ZM417.127 325.444V325.794H411.835C411.849 326.942 412.535 327.768 413.669 327.768C414.383 327.768 414.957 327.46 415.223 326.788H417.057C416.707 328.272 415.293 329.154 413.655 329.154C411.415 329.154 410.001 327.6 410.001 325.416C410.001 323.26 411.359 321.65 413.585 321.65C415.867 321.65 417.127 323.19 417.127 325.444ZM411.863 324.646H415.307C415.195 323.624 414.607 323.008 413.613 323.008C412.633 323.008 411.975 323.666 411.863 324.646ZM422.485 321.734V323.358C422.345 323.316 422.163 323.288 421.925 323.288C420.847 323.288 420.217 324.072 420.217 325.43V329H418.397V321.804H420.049L420.189 322.868C420.497 322.14 421.169 321.664 421.897 321.664C422.121 321.664 422.317 321.692 422.485 321.734ZM426.589 321.65C428.535 321.65 429.571 322.602 429.571 324.422V329H427.961L427.821 328.02C427.401 328.748 426.631 329.14 425.595 329.14C424.055 329.14 423.075 328.314 423.075 326.984C423.075 325.332 424.601 324.646 427.751 324.646V324.464C427.751 323.456 427.359 323.022 426.463 323.022C425.679 323.022 425.133 323.4 425.077 324.016H423.355C423.439 322.602 424.727 321.65 426.589 321.65ZM427.765 326.298V325.78C425.833 325.78 424.881 326.116 424.881 326.928C424.881 327.488 425.343 327.838 426.071 327.838C427.121 327.838 427.765 327.236 427.765 326.298ZM438.087 329H436.449L436.309 327.866C435.805 328.692 434.937 329.154 433.929 329.154C432.109 329.154 430.835 327.642 430.835 325.402C430.835 323.176 432.123 321.65 433.929 321.65C434.923 321.65 435.791 322.112 436.281 322.896V319.06H438.087V329ZM436.337 325.402C436.337 324.002 435.609 323.092 434.503 323.092C433.411 323.092 432.683 324.002 432.683 325.402C432.683 326.802 433.411 327.712 434.503 327.712C435.609 327.712 436.337 326.802 436.337 325.402ZM443.098 321.65C445.268 321.65 446.752 323.176 446.752 325.402C446.752 327.628 445.268 329.154 443.098 329.154C440.9 329.154 439.416 327.628 439.416 325.402C439.416 323.176 440.9 321.65 443.098 321.65ZM443.084 327.712C444.19 327.712 444.918 326.802 444.918 325.402C444.918 323.988 444.19 323.092 443.084 323.092C441.964 323.092 441.236 323.988 441.236 325.402C441.236 326.802 441.964 327.712 443.084 327.712ZM452.092 321.734V323.358C451.952 323.316 451.77 323.288 451.532 323.288C450.454 323.288 449.824 324.072 449.824 325.43V329H448.004V321.804H449.656L449.796 322.868C450.104 322.14 450.776 321.664 451.504 321.664C451.728 321.664 451.924 321.692 452.092 321.734Z" fill="#5E6488"/>
<path d="M392.432 354H391.088V342.8H392.432V354ZM396.244 352.816H400.66V354H394.42V353.296L398.836 347.024H394.74V345.84H400.66V346.544L396.244 352.816ZM403.236 344.368C402.74 344.368 402.356 344 402.356 343.504C402.356 343.008 402.74 342.64 403.236 342.64C403.732 342.64 404.116 343.008 404.116 343.504C404.116 344 403.732 344.368 403.236 344.368ZM403.844 354H402.564V345.84H403.844V354ZM406.076 356.88V345.84H407.164L407.324 347.2C407.98 346.208 408.988 345.68 410.156 345.68C412.268 345.68 413.82 347.424 413.82 349.92C413.82 352.416 412.268 354.16 410.172 354.16C409.004 354.16 407.98 353.632 407.356 352.704V356.88H406.076ZM407.292 349.92C407.292 351.776 408.348 353.024 409.9 353.024C411.452 353.024 412.508 351.776 412.508 349.92C412.508 348.064 411.452 346.816 409.9 346.816C408.348 346.816 407.292 348.064 407.292 349.92ZM418.695 345.68C420.711 345.68 421.767 346.752 421.767 348.8V354H420.695L420.535 352.784C420.055 353.648 419.095 354.128 417.911 354.128C416.199 354.128 415.047 353.184 415.047 351.728C415.047 349.856 416.951 349.072 420.487 349.072V348.8C420.487 347.408 419.927 346.816 418.647 346.816C417.527 346.816 416.727 347.36 416.663 348.176H415.399C415.479 346.752 416.887 345.68 418.695 345.68ZM420.503 350.816V350.096C417.783 350.096 416.359 350.592 416.359 351.776C416.359 352.576 416.999 353.056 418.007 353.056C419.527 353.056 420.503 352.176 420.503 350.816ZM429.07 345.84H430.446L426.366 356.88H424.974L426.206 353.68L422.958 345.84H424.35L426.83 352.128L429.07 345.84Z" fill="#13172C"/>
<path d="M397.224 382.754H392.772V385.568H396.664V387.08H392.772V391H390.84V381.2H397.224V382.754ZM401.67 383.65C403.84 383.65 405.324 385.176 405.324 387.402C405.324 389.628 403.84 391.154 401.67 391.154C399.472 391.154 397.988 389.628 397.988 387.402C397.988 385.176 399.472 383.65 401.67 383.65ZM401.656 389.712C402.762 389.712 403.49 388.802 403.49 387.402C403.49 385.988 402.762 385.092 401.656 385.092C400.536 385.092 399.808 385.988 399.808 387.402C399.808 388.802 400.536 389.712 401.656 389.712ZM410.664 383.734V385.358C410.524 385.316 410.342 385.288 410.104 385.288C409.026 385.288 408.396 386.072 408.396 387.43V391H406.576V383.804H408.228L408.368 384.868C408.676 384.14 409.348 383.664 410.076 383.664C410.3 383.664 410.496 383.692 410.664 383.734ZM411.726 383.804H413.35L413.49 384.854C413.91 384.098 414.68 383.65 415.618 383.65C416.556 383.65 417.242 384.112 417.592 384.952C418.082 384.098 418.866 383.65 419.902 383.65C421.302 383.65 422.212 384.672 422.212 386.282V391H420.42V386.548C420.42 385.652 420 385.148 419.244 385.148C418.404 385.148 417.858 385.806 417.858 386.828V391H416.066V386.548C416.066 385.652 415.646 385.148 414.904 385.148C414.05 385.148 413.518 385.848 413.518 386.954V391H411.726V383.804ZM426.972 383.65C428.918 383.65 429.954 384.602 429.954 386.422V391H428.344L428.204 390.02C427.784 390.748 427.014 391.14 425.978 391.14C424.438 391.14 423.458 390.314 423.458 388.984C423.458 387.332 424.984 386.646 428.134 386.646V386.464C428.134 385.456 427.742 385.022 426.846 385.022C426.062 385.022 425.516 385.4 425.46 386.016H423.738C423.822 384.602 425.11 383.65 426.972 383.65ZM428.148 388.298V387.78C426.216 387.78 425.264 388.116 425.264 388.928C425.264 389.488 425.726 389.838 426.454 389.838C427.504 389.838 428.148 389.236 428.148 388.298ZM441.487 391H439.849L439.709 389.866C439.205 390.692 438.337 391.154 437.329 391.154C435.509 391.154 434.235 389.642 434.235 387.402C434.235 385.176 435.523 383.65 437.329 383.65C438.323 383.65 439.191 384.112 439.681 384.896V381.06H441.487V391ZM439.737 387.402C439.737 386.002 439.009 385.092 437.903 385.092C436.811 385.092 436.083 386.002 436.083 387.402C436.083 388.802 436.811 389.712 437.903 389.712C439.009 389.712 439.737 388.802 439.737 387.402ZM449.941 387.444V387.794H444.649C444.663 388.942 445.349 389.768 446.483 389.768C447.197 389.768 447.771 389.46 448.037 388.788H449.871C449.521 390.272 448.107 391.154 446.469 391.154C444.229 391.154 442.815 389.6 442.815 387.416C442.815 385.26 444.173 383.65 446.399 383.65C448.681 383.65 449.941 385.19 449.941 387.444ZM444.677 386.646H448.121C448.009 385.624 447.421 385.008 446.427 385.008C445.447 385.008 444.789 385.666 444.677 386.646ZM454.284 393.52V383.804H455.922L456.062 384.924C456.58 384.07 457.462 383.65 458.428 383.65C460.374 383.65 461.536 385.302 461.536 387.402C461.536 389.474 460.36 391.14 458.442 391.14C457.476 391.14 456.594 390.706 456.09 389.894V393.52H454.284ZM456.034 387.402C456.034 388.802 456.762 389.712 457.868 389.712C458.96 389.712 459.688 388.788 459.688 387.402C459.688 386.002 458.96 385.078 457.868 385.078C456.762 385.078 456.034 386.002 456.034 387.402ZM466.029 383.65C467.975 383.65 469.011 384.602 469.011 386.422V391H467.401L467.261 390.02C466.841 390.748 466.071 391.14 465.035 391.14C463.495 391.14 462.515 390.314 462.515 388.984C462.515 387.332 464.041 386.646 467.191 386.646V386.464C467.191 385.456 466.799 385.022 465.903 385.022C465.119 385.022 464.573 385.4 464.517 386.016H462.795C462.879 384.602 464.167 383.65 466.029 383.65ZM467.205 388.298V387.78C465.273 387.78 464.321 388.116 464.321 388.928C464.321 389.488 464.783 389.838 465.511 389.838C466.561 389.838 467.205 389.236 467.205 388.298ZM473.86 392.288C474.952 392.288 475.624 391.7 475.624 390.468V389.474C475.162 390.216 474.35 390.678 473.37 390.678C471.536 390.678 470.276 389.25 470.276 387.164C470.276 385.078 471.522 383.65 473.37 383.65C474.322 383.65 475.176 384.098 475.652 384.854L475.778 383.804H477.43V390.328C477.43 392.568 475.974 393.674 473.804 393.674C471.956 393.674 470.612 392.652 470.444 391.21H472.236C472.376 391.868 472.978 392.288 473.86 392.288ZM475.694 387.178C475.694 385.904 474.966 385.05 473.888 385.05C472.81 385.05 472.096 385.89 472.096 387.178C472.096 388.452 472.81 389.306 473.888 389.306C474.966 389.306 475.694 388.452 475.694 387.178ZM482.388 383.65C484.558 383.65 486.042 385.176 486.042 387.402C486.042 389.628 484.558 391.154 482.388 391.154C480.19 391.154 478.706 389.628 478.706 387.402C478.706 385.176 480.19 383.65 482.388 383.65ZM482.374 389.712C483.48 389.712 484.208 388.802 484.208 387.402C484.208 385.988 483.48 385.092 482.374 385.092C481.254 385.092 480.526 385.988 480.526 387.402C480.526 388.802 481.254 389.712 482.374 389.712Z" fill="#5E6488"/>
<path d="M395.776 414.992C397.552 414.992 398.864 414.064 399.216 412.544H400.592C400.064 414.864 398.32 416.16 395.776 416.16C392.72 416.16 390.672 413.856 390.672 410.4C390.672 406.928 392.72 404.64 395.776 404.64C398.256 404.64 400.208 406.112 400.528 408.256H399.152C398.816 406.784 397.456 405.808 395.776 405.808C393.552 405.808 392.048 407.664 392.048 410.384C392.048 413.12 393.552 414.992 395.776 414.992ZM406.044 407.76V408.896C405.884 408.848 405.692 408.816 405.436 408.816C404.236 408.816 403.548 409.792 403.548 411.504V416H402.268V407.84H403.356L403.516 409.04C403.82 408.256 404.604 407.68 405.388 407.68C405.66 407.68 405.868 407.712 406.044 407.76ZM411.391 404.32H412.831L411.294 406.72H410.27L411.391 404.32ZM414.686 411.904V412.24H408.27C408.302 413.808 409.294 415.024 410.911 415.024C411.934 415.024 412.782 414.592 413.199 413.6H414.559C414.095 415.264 412.575 416.16 410.926 416.16C408.462 416.16 406.942 414.352 406.942 411.936C406.942 409.632 408.43 407.68 410.83 407.68C413.342 407.68 414.686 409.488 414.686 411.904ZM408.302 411.184H413.359C413.199 409.712 412.366 408.8 410.862 408.8C409.438 408.8 408.462 409.792 408.302 411.184ZM423.606 416H422.518L422.358 414.64C421.702 415.632 420.694 416.16 419.526 416.16C417.414 416.16 415.862 414.416 415.862 411.92C415.862 409.424 417.414 407.68 419.51 407.68C420.678 407.68 421.702 408.208 422.326 409.136V404.64H423.606V416ZM422.39 411.92C422.39 410.064 421.334 408.816 419.782 408.816C418.23 408.816 417.174 410.064 417.174 411.92C417.174 413.776 418.23 415.024 419.782 415.024C421.334 415.024 422.39 413.776 422.39 411.92ZM426.449 406.368C425.953 406.368 425.569 406 425.569 405.504C425.569 405.008 425.953 404.64 426.449 404.64C426.945 404.64 427.329 405.008 427.329 405.504C427.329 406 426.945 406.368 426.449 406.368ZM427.057 416H425.777V407.84H427.057V416ZM432.423 408.96H430.823V413.936C430.823 414.704 431.191 414.96 431.879 414.96C432.231 414.96 432.519 414.912 432.519 414.912V416C432.519 416 432.183 416.096 431.799 416.096C430.183 416.096 429.543 415.536 429.543 413.84V408.96H428.519V407.84H429.543V405.92H430.823V407.84H432.423V408.96ZM437.524 407.68C439.892 407.68 441.508 409.408 441.508 411.92C441.508 414.432 439.892 416.16 437.524 416.16C435.14 416.16 433.508 414.432 433.508 411.92C433.508 409.408 435.14 407.68 437.524 407.68ZM437.508 415.024C439.124 415.024 440.196 413.792 440.196 411.92C440.196 410.048 439.124 408.816 437.508 408.816C435.892 408.816 434.82 410.048 434.82 411.92C434.82 413.792 435.892 415.024 437.508 415.024Z" fill="#13172C"/>
<path d="M144 468C144 452.536 156.536 440 172 440H360C375.464 440 388 452.536 388 468C388 483.464 375.464 496 360 496H172C156.536 496 144 483.464 144 468Z" fill="#295BFF"/>
<path d="M256.936 472.227C255.935 472.693 254.728 472.262 254.434 471.198C253.858 469.114 253.852 466.9 254.436 464.793C255.2 462.04 256.921 459.649 259.29 458.052C261.658 456.454 264.52 455.754 267.358 456.077C269.531 456.325 271.581 457.159 273.298 458.474C274.174 459.145 274.122 460.426 273.314 461.179C272.507 461.932 271.251 461.861 270.321 461.265C269.298 460.609 268.131 460.189 266.906 460.05C265.013 459.834 263.105 460.301 261.525 461.366C259.946 462.432 258.798 464.026 258.289 465.862C257.96 467.05 257.911 468.289 258.137 469.484C258.342 470.569 257.937 471.76 256.936 472.227Z" fill="white"/>
<rect width="96" height="768" fill="#EDF0FF"/>
<path d="M58.0024 41.6001C62.4198 41.6001 66.0008 38.0187 66.0008 33.6008C66.0008 29.1829 62.4198 25.6016 58.0024 25.6016C53.5849 25.6016 50.0039 29.1829 50.0039 33.6008C50.0039 38.0187 53.5849 41.6001 58.0024 41.6001Z" fill="#00A3E0"/>
<path d="M49.0995 24.5722C49.2538 24.4969 49.22 24.2635 49.0506 24.2372C48.0569 24.0828 47.0369 24 45.998 24C34.9545 24 26 32.9554 26 44C26 53.6781 32.8693 61.7489 42.0007 63.601V34.7058C42.0007 30.6064 44.3456 26.8684 48.0381 25.0841L49.0995 24.5722Z" fill="#003AC2"/>
<path d="M49.9952 44V53.1173C49.9952 57.3672 47.6954 61.2859 43.9879 63.3601L43.6943 63.5219C43.5362 63.6085 43.5814 63.8494 43.7621 63.872C44.496 63.9548 45.2413 64 45.9941 64C57.0414 64 65.9921 55.0446 65.9921 44H49.9914H49.9952Z" fill="#003AC2"/>
<rect x="26" y="108" width="44" height="36" rx="8" fill="white"/>
<path d="M49.5625 130.064V133.502H46.4375V130.064C46.4375 129.65 46.6021 129.253 46.8951 128.96C47.1882 128.667 47.5856 128.502 48 128.502C48.4144 128.502 48.8118 128.667 49.1049 128.96C49.3979 129.253 49.5625 129.65 49.5625 130.064ZM50.0937 119.558C49.4917 119.095 48.7534 118.844 47.9938 118.844C47.2341 118.844 46.4958 119.095 45.8938 119.558L39.875 124.314V126.702L41.125 125.714V133.502H45.1875V130.064C45.1875 129.318 45.4838 128.603 46.0113 128.076C46.5387 127.548 47.2541 127.252 48 127.252C48.7459 127.252 49.4613 127.548 49.9887 128.076C50.5162 128.603 50.8125 129.318 50.8125 130.064V133.502H54.875V125.714L56.125 126.702V124.314L50.0937 119.558Z" fill="#13172C"/>
</g>
<defs>
<clipPath id="clip0_8328_15849">
<rect width="1360" height="768" fill="white"/>
</clipPath>
</defs>
</svg>
