<svg width="1080" height="1920" viewBox="0 0 1080 1920" fill="none" xmlns="http://www.w3.org/2000/svg">
<g clip-path="url(#clip0_3524_28245)">
<rect width="1080" height="1920" fill="white"/>
<rect width="1080" height="1920" fill="white"/>
<path d="M148.409 536V496.8H165.377C168.886 496.8 171.91 497.379 174.449 498.536C176.987 499.656 178.947 501.28 180.329 503.408C181.71 505.536 182.401 508.075 182.401 511.024C182.401 513.936 181.71 516.456 180.329 518.584C178.947 520.712 176.987 522.355 174.449 523.512C171.91 524.632 168.886 525.192 165.377 525.192H153.449L157.481 521.104V536H148.409ZM157.481 522.112L153.449 517.8H164.873C167.673 517.8 169.763 517.203 171.145 516.008C172.526 514.813 173.217 513.152 173.217 511.024C173.217 508.859 172.526 507.179 171.145 505.984C169.763 504.789 167.673 504.192 164.873 504.192H153.449L157.481 499.88V522.112ZM187.087 536V505.872H195.431V514.384L194.255 511.92C195.151 509.792 196.588 508.187 198.567 507.104C200.545 505.984 202.953 505.424 205.791 505.424V513.488C205.417 513.451 205.081 513.432 204.783 513.432C204.484 513.395 204.167 513.376 203.831 513.376C201.441 513.376 199.5 514.067 198.007 515.448C196.551 516.792 195.823 518.901 195.823 521.776V536H187.087ZM224.598 536.448C221.164 536.448 218.14 535.776 215.526 534.432C212.95 533.088 210.953 531.259 209.534 528.944C208.116 526.592 207.406 523.923 207.406 520.936C207.406 517.912 208.097 515.243 209.478 512.928C210.897 510.576 212.82 508.747 215.246 507.44C217.673 506.096 220.417 505.424 223.478 505.424C226.428 505.424 229.078 506.059 231.43 507.328C233.82 508.56 235.705 510.352 237.086 512.704C238.468 515.019 239.158 517.8 239.158 521.048C239.158 521.384 239.14 521.776 239.102 522.224C239.065 522.635 239.028 523.027 238.99 523.4H214.518V518.304H234.398L231.038 519.816C231.038 518.248 230.721 516.885 230.086 515.728C229.452 514.571 228.574 513.675 227.454 513.04C226.334 512.368 225.028 512.032 223.534 512.032C222.041 512.032 220.716 512.368 219.558 513.04C218.438 513.675 217.561 514.589 216.926 515.784C216.292 516.941 215.974 518.323 215.974 519.928V521.272C215.974 522.915 216.329 524.371 217.038 525.64C217.785 526.872 218.812 527.824 220.118 528.496C221.462 529.131 223.03 529.448 224.822 529.448C226.428 529.448 227.828 529.205 229.022 528.72C230.254 528.235 231.374 527.507 232.382 526.536L237.03 531.576C235.649 533.144 233.913 534.357 231.822 535.216C229.732 536.037 227.324 536.448 224.598 536.448ZM261.662 536.448C259.124 536.448 256.902 535.888 254.998 534.768C253.094 533.648 251.601 531.949 250.518 529.672C249.473 527.357 248.95 524.445 248.95 520.936C248.95 517.389 249.454 514.477 250.462 512.2C251.47 509.923 252.926 508.224 254.83 507.104C256.734 505.984 259.012 505.424 261.662 505.424C264.5 505.424 267.038 506.077 269.278 507.384C271.556 508.653 273.348 510.445 274.654 512.76C275.998 515.075 276.67 517.8 276.67 520.936C276.67 524.109 275.998 526.853 274.654 529.168C273.348 531.483 271.556 533.275 269.278 534.544C267.038 535.813 264.5 536.448 261.662 536.448ZM243.854 546.864V505.872H252.198V512.032L252.03 520.992L252.59 529.896V546.864H243.854ZM260.15 529.28C261.606 529.28 262.894 528.944 264.014 528.272C265.172 527.6 266.086 526.648 266.758 525.416C267.468 524.147 267.822 522.653 267.822 520.936C267.822 519.181 267.468 517.688 266.758 516.456C266.086 515.224 265.172 514.272 264.014 513.6C262.894 512.928 261.606 512.592 260.15 512.592C258.694 512.592 257.388 512.928 256.23 513.6C255.073 514.272 254.158 515.224 253.486 516.456C252.814 517.688 252.478 519.181 252.478 520.936C252.478 522.653 252.814 524.147 253.486 525.416C254.158 526.648 255.073 527.6 256.23 528.272C257.388 528.944 258.694 529.28 260.15 529.28ZM299.386 536V530.12L298.826 528.832V518.304C298.826 516.437 298.248 514.981 297.09 513.936C295.97 512.891 294.234 512.368 291.882 512.368C290.277 512.368 288.69 512.629 287.122 513.152C285.592 513.637 284.285 514.309 283.202 515.168L280.066 509.064C281.709 507.907 283.688 507.011 286.002 506.376C288.317 505.741 290.669 505.424 293.058 505.424C297.65 505.424 301.216 506.507 303.754 508.672C306.293 510.837 307.562 514.216 307.562 518.808V536H299.386ZM290.202 536.448C287.85 536.448 285.834 536.056 284.154 535.272C282.474 534.451 281.186 533.349 280.29 531.968C279.394 530.587 278.946 529.037 278.946 527.32C278.946 525.528 279.376 523.96 280.234 522.616C281.13 521.272 282.53 520.227 284.434 519.48C286.338 518.696 288.821 518.304 291.882 518.304H299.89V523.4H292.834C290.781 523.4 289.362 523.736 288.578 524.408C287.832 525.08 287.458 525.92 287.458 526.928C287.458 528.048 287.888 528.944 288.746 529.616C289.642 530.251 290.856 530.568 292.386 530.568C293.842 530.568 295.149 530.232 296.306 529.56C297.464 528.851 298.304 527.824 298.826 526.48L300.17 530.512C299.536 532.453 298.378 533.928 296.698 534.936C295.018 535.944 292.853 536.448 290.202 536.448ZM314.349 536V505.872H322.693V514.384L321.517 511.92C322.413 509.792 323.85 508.187 325.829 507.104C327.808 505.984 330.216 505.424 333.053 505.424V513.488C332.68 513.451 332.344 513.432 332.045 513.432C331.746 513.395 331.429 513.376 331.093 513.376C328.704 513.376 326.762 514.067 325.269 515.448C323.813 516.792 323.085 518.901 323.085 521.776V536H314.349ZM353.639 536V530.12L353.079 528.832V518.304C353.079 516.437 352.5 514.981 351.343 513.936C350.223 512.891 348.487 512.368 346.135 512.368C344.529 512.368 342.943 512.629 341.375 513.152C339.844 513.637 338.537 514.309 337.455 515.168L334.319 509.064C335.961 507.907 337.94 507.011 340.255 506.376C342.569 505.741 344.921 505.424 347.311 505.424C351.903 505.424 355.468 506.507 358.007 508.672C360.545 510.837 361.815 514.216 361.815 518.808V536H353.639ZM344.455 536.448C342.103 536.448 340.087 536.056 338.407 535.272C336.727 534.451 335.439 533.349 334.543 531.968C333.647 530.587 333.199 529.037 333.199 527.32C333.199 525.528 333.628 523.96 334.487 522.616C335.383 521.272 336.783 520.227 338.687 519.48C340.591 518.696 343.073 518.304 346.135 518.304H354.143V523.4H347.087C345.033 523.4 343.615 523.736 342.831 524.408C342.084 525.08 341.711 525.92 341.711 526.928C341.711 528.048 342.14 528.944 342.999 529.616C343.895 530.251 345.108 530.568 346.639 530.568C348.095 530.568 349.401 530.232 350.559 529.56C351.716 528.851 352.556 527.824 353.079 526.48L354.423 530.512C353.788 532.453 352.631 533.928 350.951 534.936C349.271 535.944 347.105 536.448 344.455 536.448ZM386.913 505.424C389.302 505.424 391.43 505.909 393.297 506.88C395.201 507.813 396.694 509.269 397.777 511.248C398.86 513.189 399.401 515.691 399.401 518.752V536H390.665V520.096C390.665 517.669 390.124 515.877 389.041 514.72C387.996 513.563 386.502 512.984 384.561 512.984C383.18 512.984 381.929 513.283 380.809 513.88C379.726 514.44 378.868 515.317 378.233 516.512C377.636 517.707 377.337 519.237 377.337 521.104V536H368.601V505.872H376.945V514.216L375.377 511.696C376.46 509.68 378.009 508.131 380.025 507.048C382.041 505.965 384.337 505.424 386.913 505.424ZM419.355 536.448C416.517 536.448 413.96 535.813 411.683 534.544C409.405 533.237 407.595 531.427 406.251 529.112C404.944 526.797 404.291 524.072 404.291 520.936C404.291 517.763 404.944 515.019 406.251 512.704C407.595 510.389 409.405 508.597 411.683 507.328C413.96 506.059 416.517 505.424 419.355 505.424C421.893 505.424 424.115 505.984 426.019 507.104C427.923 508.224 429.397 509.923 430.443 512.2C431.488 514.477 432.011 517.389 432.011 520.936C432.011 524.445 431.507 527.357 430.499 529.672C429.491 531.949 428.035 533.648 426.131 534.768C424.264 535.888 422.005 536.448 419.355 536.448ZM420.867 529.28C422.285 529.28 423.573 528.944 424.731 528.272C425.888 527.6 426.803 526.648 427.475 525.416C428.184 524.147 428.539 522.653 428.539 520.936C428.539 519.181 428.184 517.688 427.475 516.456C426.803 515.224 425.888 514.272 424.731 513.6C423.573 512.928 422.285 512.592 420.867 512.592C419.411 512.592 418.104 512.928 416.947 513.6C415.789 514.272 414.856 515.224 414.147 516.456C413.475 517.688 413.139 519.181 413.139 520.936C413.139 522.653 413.475 524.147 414.147 525.416C414.856 526.648 415.789 527.6 416.947 528.272C418.104 528.944 419.411 529.28 420.867 529.28ZM428.763 536V529.84L428.931 520.88L428.371 511.976V494.448H437.107V536H428.763ZM458.408 536.448C455.197 536.448 452.341 535.776 449.84 534.432C447.376 533.088 445.416 531.259 443.96 528.944C442.541 526.592 441.832 523.923 441.832 520.936C441.832 517.912 442.541 515.243 443.96 512.928C445.416 510.576 447.376 508.747 449.84 507.44C452.341 506.096 455.197 505.424 458.408 505.424C461.581 505.424 464.419 506.096 466.92 507.44C469.421 508.747 471.381 510.557 472.8 512.872C474.219 515.187 474.928 517.875 474.928 520.936C474.928 523.923 474.219 526.592 472.8 528.944C471.381 531.259 469.421 533.088 466.92 534.432C464.419 535.776 461.581 536.448 458.408 536.448ZM458.408 529.28C459.864 529.28 461.171 528.944 462.328 528.272C463.485 527.6 464.4 526.648 465.072 525.416C465.744 524.147 466.08 522.653 466.08 520.936C466.08 519.181 465.744 517.688 465.072 516.456C464.4 515.224 463.485 514.272 462.328 513.6C461.171 512.928 459.864 512.592 458.408 512.592C456.952 512.592 455.645 512.928 454.488 513.6C453.331 514.272 452.397 515.224 451.688 516.456C451.016 517.688 450.68 519.181 450.68 520.936C450.68 522.653 451.016 524.147 451.688 525.416C452.397 526.648 453.331 527.6 454.488 528.272C455.645 528.944 456.952 529.28 458.408 529.28ZM506.707 536.448C503.16 536.448 500.397 535.552 498.419 533.76C496.44 531.931 495.451 529.224 495.451 525.64V499.208H504.187V525.528C504.187 526.797 504.523 527.787 505.195 528.496C505.867 529.168 506.781 529.504 507.939 529.504C509.32 529.504 510.496 529.131 511.467 528.384L513.819 534.544C512.923 535.179 511.84 535.664 510.571 536C509.339 536.299 508.051 536.448 506.707 536.448ZM490.803 513.264V506.544H511.691V513.264H490.803ZM530.315 536.448C527.813 536.448 525.573 535.963 523.595 534.992C521.653 534.021 520.141 532.547 519.059 530.568C517.976 528.552 517.435 525.995 517.435 522.896V505.872H526.171V521.608C526.171 524.109 526.693 525.957 527.739 527.152C528.821 528.309 530.333 528.888 532.275 528.888C533.619 528.888 534.813 528.608 535.859 528.048C536.904 527.451 537.725 526.555 538.323 525.36C538.92 524.128 539.219 522.597 539.219 520.768V505.872H547.955V536H539.667V527.712L541.179 530.12C540.171 532.211 538.677 533.797 536.699 534.88C534.757 535.925 532.629 536.448 530.315 536.448ZM584.619 536.448C581.185 536.448 578.161 535.776 575.547 534.432C572.971 533.088 570.974 531.259 569.555 528.944C568.137 526.592 567.427 523.923 567.427 520.936C567.427 517.912 568.118 515.243 569.499 512.928C570.918 510.576 572.841 508.747 575.267 507.44C577.694 506.096 580.438 505.424 583.499 505.424C586.449 505.424 589.099 506.059 591.451 507.328C593.841 508.56 595.726 510.352 597.107 512.704C598.489 515.019 599.179 517.8 599.179 521.048C599.179 521.384 599.161 521.776 599.123 522.224C599.086 522.635 599.049 523.027 599.011 523.4H574.539V518.304H594.419L591.059 519.816C591.059 518.248 590.742 516.885 590.107 515.728C589.473 514.571 588.595 513.675 587.475 513.04C586.355 512.368 585.049 512.032 583.555 512.032C582.062 512.032 580.737 512.368 579.579 513.04C578.459 513.675 577.582 514.589 576.947 515.784C576.313 516.941 575.995 518.323 575.995 519.928V521.272C575.995 522.915 576.35 524.371 577.059 525.64C577.806 526.872 578.833 527.824 580.139 528.496C581.483 529.131 583.051 529.448 584.843 529.448C586.449 529.448 587.849 529.205 589.043 528.72C590.275 528.235 591.395 527.507 592.403 526.536L597.051 531.576C595.67 533.144 593.934 534.357 591.843 535.216C589.753 536.037 587.345 536.448 584.619 536.448ZM599.247 536L612.743 518.304L612.575 523.12L599.639 505.872H609.439L617.615 517.128L613.919 517.24L622.375 505.872H631.671L618.679 522.952V518.248L632.119 536H622.207L613.639 524.016L617.279 524.52L608.767 536H599.247ZM653.048 536.448C650.509 536.448 648.288 535.888 646.384 534.768C644.48 533.648 642.986 531.949 641.904 529.672C640.858 527.357 640.336 524.445 640.336 520.936C640.336 517.389 640.84 514.477 641.848 512.2C642.856 509.923 644.312 508.224 646.216 507.104C648.12 505.984 650.397 505.424 653.048 505.424C655.885 505.424 658.424 506.077 660.664 507.384C662.941 508.653 664.733 510.445 666.04 512.76C667.384 515.075 668.056 517.8 668.056 520.936C668.056 524.109 667.384 526.853 666.04 529.168C664.733 531.483 662.941 533.275 660.664 534.544C658.424 535.813 655.885 536.448 653.048 536.448ZM635.24 546.864V505.872H643.584V512.032L643.416 520.992L643.976 529.896V546.864H635.24ZM651.536 529.28C652.992 529.28 654.28 528.944 655.4 528.272C656.557 527.6 657.472 526.648 658.144 525.416C658.853 524.147 659.208 522.653 659.208 520.936C659.208 519.181 658.853 517.688 658.144 516.456C657.472 515.224 656.557 514.272 655.4 513.6C654.28 512.928 652.992 512.592 651.536 512.592C650.08 512.592 648.773 512.928 647.616 513.6C646.458 514.272 645.544 515.224 644.872 516.456C644.2 517.688 643.864 519.181 643.864 520.936C643.864 522.653 644.2 524.147 644.872 525.416C645.544 526.648 646.458 527.6 647.616 528.272C648.773 528.944 650.08 529.28 651.536 529.28ZM687.736 536.448C684.301 536.448 681.277 535.776 678.664 534.432C676.088 533.088 674.091 531.259 672.672 528.944C671.253 526.592 670.544 523.923 670.544 520.936C670.544 517.912 671.235 515.243 672.616 512.928C674.035 510.576 675.957 508.747 678.384 507.44C680.811 506.096 683.555 505.424 686.616 505.424C689.565 505.424 692.216 506.059 694.568 507.328C696.957 508.56 698.843 510.352 700.224 512.704C701.605 515.019 702.296 517.8 702.296 521.048C702.296 521.384 702.277 521.776 702.24 522.224C702.203 522.635 702.165 523.027 702.128 523.4H677.656V518.304H697.536L694.176 519.816C694.176 518.248 693.859 516.885 693.224 515.728C692.589 514.571 691.712 513.675 690.592 513.04C689.472 512.368 688.165 512.032 686.672 512.032C685.179 512.032 683.853 512.368 682.696 513.04C681.576 513.675 680.699 514.589 680.064 515.784C679.429 516.941 679.112 518.323 679.112 519.928V521.272C679.112 522.915 679.467 524.371 680.176 525.64C680.923 526.872 681.949 527.824 683.256 528.496C684.6 529.131 686.168 529.448 687.96 529.448C689.565 529.448 690.965 529.205 692.16 528.72C693.392 528.235 694.512 527.507 695.52 526.536L700.168 531.576C698.787 533.144 697.051 534.357 694.96 535.216C692.869 536.037 690.461 536.448 687.736 536.448ZM706.992 536V505.872H715.336V514.384L714.16 511.92C715.056 509.792 716.493 508.187 718.472 507.104C720.451 505.984 722.859 505.424 725.696 505.424V513.488C725.323 513.451 724.987 513.432 724.688 513.432C724.389 513.395 724.072 513.376 723.736 513.376C721.347 513.376 719.405 514.067 717.912 515.448C716.456 516.792 715.728 518.901 715.728 521.776V536H706.992ZM729.825 536V505.872H738.561V536H729.825ZM734.193 501.672C732.588 501.672 731.281 501.205 730.273 500.272C729.265 499.339 728.761 498.181 728.761 496.8C728.761 495.419 729.265 494.261 730.273 493.328C731.281 492.395 732.588 491.928 734.193 491.928C735.798 491.928 737.105 492.376 738.113 493.272C739.121 494.131 739.625 495.251 739.625 496.632C739.625 498.088 739.121 499.301 738.113 500.272C737.142 501.205 735.836 501.672 734.193 501.672ZM760.501 536.448C757.066 536.448 754.042 535.776 751.429 534.432C748.853 533.088 746.856 531.259 745.437 528.944C744.018 526.592 743.309 523.923 743.309 520.936C743.309 517.912 744 515.243 745.381 512.928C746.8 510.576 748.722 508.747 751.149 507.44C753.576 506.096 756.32 505.424 759.381 505.424C762.33 505.424 764.981 506.059 767.333 507.328C769.722 508.56 771.608 510.352 772.989 512.704C774.37 515.019 775.061 517.8 775.061 521.048C775.061 521.384 775.042 521.776 775.005 522.224C774.968 522.635 774.93 523.027 774.893 523.4H750.421V518.304H770.301L766.941 519.816C766.941 518.248 766.624 516.885 765.989 515.728C765.354 514.571 764.477 513.675 763.357 513.04C762.237 512.368 760.93 512.032 759.437 512.032C757.944 512.032 756.618 512.368 755.461 513.04C754.341 513.675 753.464 514.589 752.829 515.784C752.194 516.941 751.877 518.323 751.877 519.928V521.272C751.877 522.915 752.232 524.371 752.941 525.64C753.688 526.872 754.714 527.824 756.021 528.496C757.365 529.131 758.933 529.448 760.725 529.448C762.33 529.448 763.73 529.205 764.925 528.72C766.157 528.235 767.277 527.507 768.285 526.536L772.933 531.576C771.552 533.144 769.816 534.357 767.725 535.216C765.634 536.037 763.226 536.448 760.501 536.448ZM798.069 505.424C800.458 505.424 802.586 505.909 804.453 506.88C806.357 507.813 807.85 509.269 808.933 511.248C810.016 513.189 810.557 515.691 810.557 518.752V536H801.821V520.096C801.821 517.669 801.28 515.877 800.197 514.72C799.152 513.563 797.658 512.984 795.717 512.984C794.336 512.984 793.085 513.283 791.965 513.88C790.882 514.44 790.024 515.317 789.389 516.512C788.792 517.707 788.493 519.237 788.493 521.104V536H779.757V505.872H788.101V514.216L786.533 511.696C787.616 509.68 789.165 508.131 791.181 507.048C793.197 505.965 795.493 505.424 798.069 505.424ZM832.134 536.448C828.886 536.448 825.993 535.795 823.454 534.488C820.916 533.144 818.918 531.296 817.462 528.944C816.044 526.592 815.334 523.923 815.334 520.936C815.334 517.912 816.044 515.243 817.462 512.928C818.918 510.576 820.916 508.747 823.454 507.44C825.993 506.096 828.886 505.424 832.134 505.424C835.308 505.424 838.07 506.096 840.422 507.44C842.774 508.747 844.51 510.632 845.63 513.096L838.854 516.736C838.07 515.317 837.081 514.272 835.886 513.6C834.729 512.928 833.46 512.592 832.078 512.592C830.585 512.592 829.241 512.928 828.046 513.6C826.852 514.272 825.9 515.224 825.19 516.456C824.518 517.688 824.182 519.181 824.182 520.936C824.182 522.691 824.518 524.184 825.19 525.416C825.9 526.648 826.852 527.6 828.046 528.272C829.241 528.944 830.585 529.28 832.078 529.28C833.46 529.28 834.729 528.963 835.886 528.328C837.081 527.656 838.07 526.592 838.854 525.136L845.63 528.832C844.51 531.259 842.774 533.144 840.422 534.488C838.07 535.795 835.308 536.448 832.134 536.448ZM849.376 536V505.872H858.112V536H849.376ZM853.744 501.672C852.139 501.672 850.832 501.205 849.824 500.272C848.816 499.339 848.312 498.181 848.312 496.8C848.312 495.419 848.816 494.261 849.824 493.328C850.832 492.395 852.139 491.928 853.744 491.928C855.35 491.928 856.656 492.376 857.664 493.272C858.672 494.131 859.176 495.251 859.176 496.632C859.176 498.088 858.672 499.301 857.664 500.272C856.694 501.205 855.387 501.672 853.744 501.672ZM883.58 536V530.12L883.02 528.832V518.304C883.02 516.437 882.441 514.981 881.284 513.936C880.164 512.891 878.428 512.368 876.076 512.368C874.471 512.368 872.884 512.629 871.316 513.152C869.785 513.637 868.479 514.309 867.396 515.168L864.26 509.064C865.903 507.907 867.881 507.011 870.196 506.376C872.511 505.741 874.863 505.424 877.252 505.424C881.844 505.424 885.409 506.507 887.948 508.672C890.487 510.837 891.756 514.216 891.756 518.808V536H883.58ZM874.396 536.448C872.044 536.448 870.028 536.056 868.348 535.272C866.668 534.451 865.38 533.349 864.484 531.968C863.588 530.587 863.14 529.037 863.14 527.32C863.14 525.528 863.569 523.96 864.428 522.616C865.324 521.272 866.724 520.227 868.628 519.48C870.532 518.696 873.015 518.304 876.076 518.304H884.084V523.4H877.028C874.975 523.4 873.556 523.736 872.772 524.408C872.025 525.08 871.652 525.92 871.652 526.928C871.652 528.048 872.081 528.944 872.94 529.616C873.836 530.251 875.049 530.568 876.58 530.568C878.036 530.568 879.343 530.232 880.5 529.56C881.657 528.851 882.497 527.824 883.02 526.48L884.364 530.512C883.729 532.453 882.572 533.928 880.892 534.936C879.212 535.944 877.047 536.448 874.396 536.448ZM901.847 536.448C900.353 536.448 899.065 535.944 897.983 534.936C896.937 533.891 896.415 532.565 896.415 530.96C896.415 529.355 896.937 528.067 897.983 527.096C899.065 526.088 900.353 525.584 901.847 525.584C903.377 525.584 904.665 526.088 905.711 527.096C906.756 528.067 907.279 529.355 907.279 530.96C907.279 532.565 906.756 533.891 905.711 534.936C904.665 535.944 903.377 536.448 901.847 536.448ZM915.383 536.448C913.89 536.448 912.602 535.944 911.519 534.936C910.474 533.891 909.951 532.565 909.951 530.96C909.951 529.355 910.474 528.067 911.519 527.096C912.602 526.088 913.89 525.584 915.383 525.584C916.914 525.584 918.202 526.088 919.247 527.096C920.292 528.067 920.815 529.355 920.815 530.96C920.815 532.565 920.292 533.891 919.247 534.936C918.202 535.944 916.914 536.448 915.383 536.448ZM928.919 536.448C927.426 536.448 926.138 535.944 925.055 534.936C924.01 533.891 923.487 532.565 923.487 530.96C923.487 529.355 924.01 528.067 925.055 527.096C926.138 526.088 927.426 525.584 928.919 525.584C930.45 525.584 931.738 526.088 932.783 527.096C933.828 528.067 934.351 529.355 934.351 530.96C934.351 532.565 933.828 533.891 932.783 534.936C931.738 535.944 930.45 536.448 928.919 536.448Z" fill="#2F2F2F"/>
<path d="M149.244 601.64H163.164V605.92H149.244V601.64ZM149.644 613.64H165.444V618H144.444V590H164.884V594.36H149.644V613.64ZM177.165 618.28C175.378 618.28 173.658 618.053 172.005 617.6C170.378 617.12 169.085 616.547 168.125 615.88L170.045 612.08C171.005 612.693 172.152 613.2 173.485 613.6C174.818 614 176.152 614.2 177.485 614.2C179.058 614.2 180.192 613.987 180.885 613.56C181.605 613.133 181.965 612.56 181.965 611.84C181.965 611.253 181.725 610.813 181.245 610.52C180.765 610.2 180.138 609.96 179.365 609.8C178.592 609.64 177.725 609.493 176.765 609.36C175.832 609.227 174.885 609.053 173.925 608.84C172.992 608.6 172.138 608.267 171.365 607.84C170.592 607.387 169.965 606.787 169.485 606.04C169.005 605.293 168.765 604.307 168.765 603.08C168.765 601.72 169.152 600.547 169.925 599.56C170.698 598.547 171.778 597.773 173.165 597.24C174.578 596.68 176.245 596.4 178.165 596.4C179.605 596.4 181.058 596.56 182.525 596.88C183.992 597.2 185.205 597.653 186.165 598.24L184.245 602.04C183.232 601.427 182.205 601.013 181.165 600.8C180.152 600.56 179.138 600.44 178.125 600.44C176.605 600.44 175.472 600.667 174.725 601.12C174.005 601.573 173.645 602.147 173.645 602.84C173.645 603.48 173.885 603.96 174.365 604.28C174.845 604.6 175.472 604.853 176.245 605.04C177.018 605.227 177.872 605.387 178.805 605.52C179.765 605.627 180.712 605.8 181.645 606.04C182.578 606.28 183.432 606.613 184.205 607.04C185.005 607.44 185.645 608.013 186.125 608.76C186.605 609.507 186.845 610.48 186.845 611.68C186.845 613.013 186.445 614.173 185.645 615.16C184.872 616.147 183.765 616.92 182.325 617.48C180.885 618.013 179.165 618.28 177.165 618.28ZM199.191 618.28C196.844 618.28 195.031 617.68 193.751 616.48C192.471 615.253 191.831 613.453 191.831 611.08V591.92H196.831V610.96C196.831 611.973 197.084 612.76 197.591 613.32C198.124 613.88 198.858 614.16 199.791 614.16C200.911 614.16 201.844 613.867 202.591 613.28L203.991 616.84C203.404 617.32 202.684 617.68 201.831 617.92C200.978 618.16 200.098 618.28 199.191 618.28ZM188.311 600.8V596.8H202.551V600.8H188.311ZM221.264 618V613.68L220.984 612.76V605.2C220.984 603.733 220.544 602.6 219.664 601.8C218.784 600.973 217.451 600.56 215.664 600.56C214.464 600.56 213.278 600.747 212.104 601.12C210.958 601.493 209.984 602.013 209.184 602.68L207.224 599.04C208.371 598.16 209.731 597.507 211.304 597.08C212.904 596.627 214.558 596.4 216.264 596.4C219.358 596.4 221.744 597.147 223.424 598.64C225.131 600.107 225.984 602.387 225.984 605.48V618H221.264ZM214.544 618.28C212.944 618.28 211.544 618.013 210.344 617.48C209.144 616.92 208.211 616.16 207.544 615.2C206.904 614.213 206.584 613.107 206.584 611.88C206.584 610.68 206.864 609.6 207.424 608.64C208.011 607.68 208.958 606.92 210.264 606.36C211.571 605.8 213.304 605.52 215.464 605.52H221.664V608.84H215.824C214.118 608.84 212.971 609.12 212.384 609.68C211.798 610.213 211.504 610.88 211.504 611.68C211.504 612.587 211.864 613.307 212.584 613.84C213.304 614.373 214.304 614.64 215.584 614.64C216.811 614.64 217.904 614.36 218.864 613.8C219.851 613.24 220.558 612.413 220.984 611.32L221.824 614.32C221.344 615.573 220.478 616.547 219.224 617.24C217.998 617.933 216.438 618.28 214.544 618.28ZM259.361 596.4C261.068 596.4 262.574 596.733 263.881 597.4C265.214 598.067 266.254 599.093 267.001 600.48C267.748 601.84 268.121 603.6 268.121 605.76V618H263.121V606.4C263.121 604.507 262.708 603.093 261.881 602.16C261.054 601.227 259.868 600.76 258.321 600.76C257.228 600.76 256.254 601 255.401 601.48C254.574 601.96 253.921 602.667 253.441 603.6C252.988 604.533 252.761 605.72 252.761 607.16V618H247.761V606.4C247.761 604.507 247.348 603.093 246.521 602.16C245.694 601.227 244.508 600.76 242.961 600.76C241.868 600.76 240.894 601 240.041 601.48C239.214 601.96 238.561 602.667 238.081 603.6C237.628 604.533 237.401 605.72 237.401 607.16V618H232.401V596.64H237.161V602.32L236.321 600.64C237.041 599.253 238.081 598.2 239.441 597.48C240.828 596.76 242.401 596.4 244.161 596.4C246.161 596.4 247.894 596.893 249.361 597.88C250.854 598.867 251.841 600.36 252.321 602.36L250.361 601.68C251.054 600.08 252.201 598.8 253.801 597.84C255.401 596.88 257.254 596.4 259.361 596.4ZM284.15 618.28C281.963 618.28 280.016 617.813 278.31 616.88C276.603 615.92 275.256 614.613 274.27 612.96C273.283 611.307 272.79 609.427 272.79 607.32C272.79 605.187 273.283 603.307 274.27 601.68C275.256 600.027 276.603 598.733 278.31 597.8C280.016 596.867 281.963 596.4 284.15 596.4C286.363 596.4 288.323 596.867 290.03 597.8C291.763 598.733 293.11 600.013 294.07 601.64C295.056 603.267 295.55 605.16 295.55 607.32C295.55 609.427 295.056 611.307 294.07 612.96C293.11 614.613 291.763 615.92 290.03 616.88C288.323 617.813 286.363 618.28 284.15 618.28ZM284.15 614C285.376 614 286.47 613.733 287.43 613.2C288.39 612.667 289.136 611.893 289.67 610.88C290.23 609.867 290.51 608.68 290.51 607.32C290.51 605.933 290.23 604.747 289.67 603.76C289.136 602.747 288.39 601.973 287.43 601.44C286.47 600.907 285.39 600.64 284.19 600.64C282.963 600.64 281.87 600.907 280.91 601.44C279.976 601.973 279.23 602.747 278.67 603.76C278.11 604.747 277.83 605.933 277.83 607.32C277.83 608.68 278.11 609.867 278.67 610.88C279.23 611.893 279.976 612.667 280.91 613.2C281.87 613.733 282.95 614 284.15 614ZM306.931 618.28C305.144 618.28 303.424 618.053 301.771 617.6C300.144 617.12 298.851 616.547 297.891 615.88L299.811 612.08C300.771 612.693 301.917 613.2 303.251 613.6C304.584 614 305.917 614.2 307.251 614.2C308.824 614.2 309.957 613.987 310.651 613.56C311.371 613.133 311.731 612.56 311.731 611.84C311.731 611.253 311.491 610.813 311.011 610.52C310.531 610.2 309.904 609.96 309.131 609.8C308.357 609.64 307.491 609.493 306.531 609.36C305.597 609.227 304.651 609.053 303.691 608.84C302.757 608.6 301.904 608.267 301.131 607.84C300.357 607.387 299.731 606.787 299.251 606.04C298.771 605.293 298.531 604.307 298.531 603.08C298.531 601.72 298.917 600.547 299.691 599.56C300.464 598.547 301.544 597.773 302.931 597.24C304.344 596.68 306.011 596.4 307.931 596.4C309.371 596.4 310.824 596.56 312.291 596.88C313.757 597.2 314.971 597.653 315.931 598.24L314.011 602.04C312.997 601.427 311.971 601.013 310.931 600.8C309.917 600.56 308.904 600.44 307.891 600.44C306.371 600.44 305.237 600.667 304.491 601.12C303.771 601.573 303.411 602.147 303.411 602.84C303.411 603.48 303.651 603.96 304.131 604.28C304.611 604.6 305.237 604.853 306.011 605.04C306.784 605.227 307.637 605.387 308.571 605.52C309.531 605.627 310.477 605.8 311.411 606.04C312.344 606.28 313.197 606.613 313.971 607.04C314.771 607.44 315.411 608.013 315.891 608.76C316.371 609.507 316.611 610.48 316.611 611.68C316.611 613.013 316.211 614.173 315.411 615.16C314.637 616.147 313.531 616.92 312.091 617.48C310.651 618.013 308.931 618.28 306.931 618.28ZM337.651 618L328.491 596.64H333.691L341.571 615.48H339.011L347.171 596.64H351.971L342.811 618H337.651ZM367.592 618V613.68L367.312 612.76V605.2C367.312 603.733 366.872 602.6 365.992 601.8C365.112 600.973 363.779 600.56 361.992 600.56C360.792 600.56 359.606 600.747 358.432 601.12C357.286 601.493 356.312 602.013 355.512 602.68L353.552 599.04C354.699 598.16 356.059 597.507 357.632 597.08C359.232 596.627 360.886 596.4 362.592 596.4C365.686 596.4 368.072 597.147 369.752 598.64C371.459 600.107 372.312 602.387 372.312 605.48V618H367.592ZM360.872 618.28C359.272 618.28 357.872 618.013 356.672 617.48C355.472 616.92 354.539 616.16 353.872 615.2C353.232 614.213 352.912 613.107 352.912 611.88C352.912 610.68 353.192 609.6 353.752 608.64C354.339 607.68 355.286 606.92 356.592 606.36C357.899 605.8 359.632 605.52 361.792 605.52H367.992V608.84H362.152C360.446 608.84 359.299 609.12 358.712 609.68C358.126 610.213 357.832 610.88 357.832 611.68C357.832 612.587 358.192 613.307 358.912 613.84C359.632 614.373 360.632 614.64 361.912 614.64C363.139 614.64 364.232 614.36 365.192 613.8C366.179 613.24 366.886 612.413 367.312 611.32L368.152 614.32C367.672 615.573 366.806 616.547 365.552 617.24C364.326 617.933 362.766 618.28 360.872 618.28ZM378.729 618V588.32H383.729V618H378.729ZM390.292 618V596.64H395.292V618H390.292ZM392.812 593.12C391.878 593.12 391.105 592.827 390.492 592.24C389.905 591.653 389.612 590.947 389.612 590.12C389.612 589.267 389.905 588.56 390.492 588C391.105 587.413 391.878 587.12 392.812 587.12C393.745 587.12 394.505 587.4 395.092 587.96C395.705 588.493 396.012 589.173 396.012 590C396.012 590.88 395.718 591.627 395.132 592.24C394.545 592.827 393.772 593.12 392.812 593.12ZM410.894 618.28C408.841 618.28 406.988 617.827 405.334 616.92C403.708 615.987 402.428 614.707 401.494 613.08C400.561 611.453 400.094 609.533 400.094 607.32C400.094 605.107 400.561 603.187 401.494 601.56C402.428 599.933 403.708 598.667 405.334 597.76C406.988 596.853 408.841 596.4 410.894 596.4C412.681 596.4 414.281 596.8 415.694 597.6C417.108 598.373 418.228 599.56 419.054 601.16C419.881 602.76 420.294 604.813 420.294 607.32C420.294 609.8 419.894 611.853 419.094 613.48C418.294 615.08 417.188 616.28 415.774 617.08C414.361 617.88 412.734 618.28 410.894 618.28ZM411.494 614C412.694 614 413.761 613.733 414.694 613.2C415.654 612.667 416.414 611.893 416.974 610.88C417.561 609.867 417.854 608.68 417.854 607.32C417.854 605.933 417.561 604.747 416.974 603.76C416.414 602.747 415.654 601.973 414.694 601.44C413.761 600.907 412.694 600.64 411.494 600.64C410.294 600.64 409.214 600.907 408.254 601.44C407.321 601.973 406.561 602.747 405.974 603.76C405.414 604.747 405.134 605.933 405.134 607.32C405.134 608.68 405.414 609.867 405.974 610.88C406.561 611.893 407.321 612.667 408.254 613.2C409.214 613.733 410.294 614 411.494 614ZM417.974 618V612.96L418.174 607.28L417.774 601.6V588.32H422.734V618H417.974ZM442.475 618V613.68L442.195 612.76V605.2C442.195 603.733 441.755 602.6 440.875 601.8C439.995 600.973 438.662 600.56 436.875 600.56C435.675 600.56 434.488 600.747 433.315 601.12C432.168 601.493 431.195 602.013 430.395 602.68L428.435 599.04C429.582 598.16 430.942 597.507 432.515 597.08C434.115 596.627 435.768 596.4 437.475 596.4C440.568 596.4 442.955 597.147 444.635 598.64C446.342 600.107 447.195 602.387 447.195 605.48V618H442.475ZM435.755 618.28C434.155 618.28 432.755 618.013 431.555 617.48C430.355 616.92 429.422 616.16 428.755 615.2C428.115 614.213 427.795 613.107 427.795 611.88C427.795 610.68 428.075 609.6 428.635 608.64C429.222 607.68 430.168 606.92 431.475 606.36C432.782 605.8 434.515 605.52 436.675 605.52H442.875V608.84H437.035C435.328 608.84 434.182 609.12 433.595 609.68C433.008 610.213 432.715 610.88 432.715 611.68C432.715 612.587 433.075 613.307 433.795 613.84C434.515 614.373 435.515 614.64 436.795 614.64C438.022 614.64 439.115 614.36 440.075 613.8C441.062 613.24 441.768 612.413 442.195 611.32L443.035 614.32C442.555 615.573 441.688 616.547 440.435 617.24C439.208 617.933 437.648 618.28 435.755 618.28ZM465.732 596.4C467.439 596.4 468.959 596.733 470.292 597.4C471.652 598.067 472.719 599.093 473.492 600.48C474.265 601.84 474.652 603.6 474.652 605.76V618H469.652V606.4C469.652 604.507 469.199 603.093 468.292 602.16C467.412 601.227 466.172 600.76 464.572 600.76C463.399 600.76 462.359 601 461.452 601.48C460.545 601.96 459.839 602.68 459.332 603.64C458.852 604.573 458.612 605.76 458.612 607.2V618H453.612V596.64H458.372V602.4L457.532 600.64C458.279 599.28 459.359 598.24 460.772 597.52C462.212 596.773 463.865 596.4 465.732 596.4ZM490.074 618.28C488.021 618.28 486.167 617.827 484.514 616.92C482.887 615.987 481.607 614.707 480.674 613.08C479.741 611.453 479.274 609.533 479.274 607.32C479.274 605.107 479.741 603.187 480.674 601.56C481.607 599.933 482.887 598.667 484.514 597.76C486.167 596.853 488.021 596.4 490.074 596.4C491.861 596.4 493.461 596.8 494.874 597.6C496.287 598.373 497.407 599.56 498.234 601.16C499.061 602.76 499.474 604.813 499.474 607.32C499.474 609.8 499.074 611.853 498.274 613.48C497.474 615.08 496.367 616.28 494.954 617.08C493.541 617.88 491.914 618.28 490.074 618.28ZM490.674 614C491.874 614 492.941 613.733 493.874 613.2C494.834 612.667 495.594 611.893 496.154 610.88C496.741 609.867 497.034 608.68 497.034 607.32C497.034 605.933 496.741 604.747 496.154 603.76C495.594 602.747 494.834 601.973 493.874 601.44C492.941 600.907 491.874 600.64 490.674 600.64C489.474 600.64 488.394 600.907 487.434 601.44C486.501 601.973 485.741 602.747 485.154 603.76C484.594 604.747 484.314 605.933 484.314 607.32C484.314 608.68 484.594 609.867 485.154 610.88C485.741 611.893 486.501 612.667 487.434 613.2C488.394 613.733 489.474 614 490.674 614ZM497.154 618V612.96L497.354 607.28L496.954 601.6V588.32H501.914V618H497.154ZM518.095 618.28C515.908 618.28 513.962 617.813 512.255 616.88C510.548 615.92 509.202 614.613 508.215 612.96C507.228 611.307 506.735 609.427 506.735 607.32C506.735 605.187 507.228 603.307 508.215 601.68C509.202 600.027 510.548 598.733 512.255 597.8C513.962 596.867 515.908 596.4 518.095 596.4C520.308 596.4 522.268 596.867 523.975 597.8C525.708 598.733 527.055 600.013 528.015 601.64C529.002 603.267 529.495 605.16 529.495 607.32C529.495 609.427 529.002 611.307 528.015 612.96C527.055 614.613 525.708 615.92 523.975 616.88C522.268 617.813 520.308 618.28 518.095 618.28ZM518.095 614C519.322 614 520.415 613.733 521.375 613.2C522.335 612.667 523.082 611.893 523.615 610.88C524.175 609.867 524.455 608.68 524.455 607.32C524.455 605.933 524.175 604.747 523.615 603.76C523.082 602.747 522.335 601.973 521.375 601.44C520.415 600.907 519.335 600.64 518.135 600.64C516.908 600.64 515.815 600.907 514.855 601.44C513.922 601.973 513.175 602.747 512.615 603.76C512.055 604.747 511.775 605.933 511.775 607.32C511.775 608.68 512.055 609.867 512.615 610.88C513.175 611.893 513.922 612.667 514.855 613.2C515.815 613.733 516.895 614 518.095 614ZM553.371 618.28C551.024 618.28 549.211 617.68 547.931 616.48C546.651 615.253 546.011 613.453 546.011 611.08V591.92H551.011V610.96C551.011 611.973 551.264 612.76 551.771 613.32C552.304 613.88 553.037 614.16 553.971 614.16C555.091 614.16 556.024 613.867 556.771 613.28L558.171 616.84C557.584 617.32 556.864 617.68 556.011 617.92C555.157 618.16 554.277 618.28 553.371 618.28ZM542.491 600.8V596.8H556.731V600.8H542.491ZM571.324 618.28C569.511 618.28 567.911 617.947 566.524 617.28C565.137 616.587 564.057 615.547 563.284 614.16C562.511 612.747 562.124 610.973 562.124 608.84V596.64H567.124V608.16C567.124 610.08 567.551 611.52 568.404 612.48C569.284 613.413 570.524 613.88 572.124 613.88C573.297 613.88 574.311 613.64 575.164 613.16C576.044 612.68 576.724 611.96 577.204 611C577.711 610.04 577.964 608.853 577.964 607.44V596.64H582.964V618H578.204V612.24L579.044 614C578.324 615.387 577.271 616.453 575.884 617.2C574.497 617.92 572.977 618.28 571.324 618.28ZM609.605 618.28C607.552 618.28 605.698 617.827 604.045 616.92C602.418 615.987 601.138 614.707 600.205 613.08C599.272 611.453 598.805 609.533 598.805 607.32C598.805 605.107 599.272 603.187 600.205 601.56C601.138 599.933 602.418 598.667 604.045 597.76C605.698 596.853 607.552 596.4 609.605 596.4C611.392 596.4 612.992 596.8 614.405 597.6C615.818 598.373 616.938 599.56 617.765 601.16C618.592 602.76 619.005 604.813 619.005 607.32C619.005 609.8 618.605 611.853 617.805 613.48C617.005 615.08 615.898 616.28 614.485 617.08C613.072 617.88 611.445 618.28 609.605 618.28ZM610.205 614C611.405 614 612.472 613.733 613.405 613.2C614.365 612.667 615.125 611.893 615.685 610.88C616.272 609.867 616.565 608.68 616.565 607.32C616.565 605.933 616.272 604.747 615.685 603.76C615.125 602.747 614.365 601.973 613.405 601.44C612.472 600.907 611.405 600.64 610.205 600.64C609.005 600.64 607.925 600.907 606.965 601.44C606.032 601.973 605.272 602.747 604.685 603.76C604.125 604.747 603.845 605.933 603.845 607.32C603.845 608.68 604.125 609.867 604.685 610.88C605.272 611.893 606.032 612.667 606.965 613.2C607.925 613.733 609.005 614 610.205 614ZM616.685 618V612.96L616.885 607.28L616.485 601.6V588.32H621.445V618H616.685ZM637.626 618.28C635.439 618.28 633.493 617.813 631.786 616.88C630.079 615.92 628.733 614.613 627.746 612.96C626.759 611.307 626.266 609.427 626.266 607.32C626.266 605.187 626.759 603.307 627.746 601.68C628.733 600.027 630.079 598.733 631.786 597.8C633.493 596.867 635.439 596.4 637.626 596.4C639.839 596.4 641.799 596.867 643.506 597.8C645.239 598.733 646.586 600.013 647.546 601.64C648.533 603.267 649.026 605.16 649.026 607.32C649.026 609.427 648.533 611.307 647.546 612.96C646.586 614.613 645.239 615.92 643.506 616.88C641.799 617.813 639.839 618.28 637.626 618.28ZM637.626 614C638.853 614 639.946 613.733 640.906 613.2C641.866 612.667 642.613 611.893 643.146 610.88C643.706 609.867 643.986 608.68 643.986 607.32C643.986 605.933 643.706 604.747 643.146 603.76C642.613 602.747 641.866 601.973 640.906 601.44C639.946 600.907 638.866 600.64 637.666 600.64C636.439 600.64 635.346 600.907 634.386 601.44C633.453 601.973 632.706 602.747 632.146 603.76C631.586 604.747 631.306 605.933 631.306 607.32C631.306 608.68 631.586 609.867 632.146 610.88C632.706 611.893 633.453 612.667 634.386 613.2C635.346 613.733 636.426 614 637.626 614ZM663.607 618.28C661.367 618.28 659.367 617.813 657.607 616.88C655.874 615.92 654.514 614.613 653.527 612.96C652.541 611.307 652.047 609.427 652.047 607.32C652.047 605.187 652.541 603.307 653.527 601.68C654.514 600.027 655.874 598.733 657.607 597.8C659.367 596.867 661.367 596.4 663.607 596.4C665.687 596.4 667.514 596.827 669.087 597.68C670.687 598.507 671.901 599.733 672.727 601.36L668.887 603.6C668.247 602.587 667.461 601.84 666.527 601.36C665.621 600.88 664.634 600.64 663.567 600.64C662.341 600.64 661.234 600.907 660.247 601.44C659.261 601.973 658.487 602.747 657.927 603.76C657.367 604.747 657.087 605.933 657.087 607.32C657.087 608.707 657.367 609.907 657.927 610.92C658.487 611.907 659.261 612.667 660.247 613.2C661.234 613.733 662.341 614 663.567 614C664.634 614 665.621 613.76 666.527 613.28C667.461 612.8 668.247 612.053 668.887 611.04L672.727 613.28C671.901 614.88 670.687 616.12 669.087 617C667.514 617.853 665.687 618.28 663.607 618.28ZM686.09 618.28C684.276 618.28 682.676 617.947 681.29 617.28C679.903 616.587 678.823 615.547 678.05 614.16C677.276 612.747 676.89 610.973 676.89 608.84V596.64H681.89V608.16C681.89 610.08 682.316 611.52 683.17 612.48C684.05 613.413 685.29 613.88 686.89 613.88C688.063 613.88 689.076 613.64 689.93 613.16C690.81 612.68 691.49 611.96 691.97 611C692.476 610.04 692.73 608.853 692.73 607.44V596.64H697.73V618H692.97V612.24L693.81 614C693.09 615.387 692.036 616.453 690.65 617.2C689.263 617.92 687.743 618.28 686.09 618.28ZM731.236 596.4C732.943 596.4 734.449 596.733 735.756 597.4C737.089 598.067 738.129 599.093 738.876 600.48C739.623 601.84 739.996 603.6 739.996 605.76V618H734.996V606.4C734.996 604.507 734.583 603.093 733.756 602.16C732.929 601.227 731.743 600.76 730.196 600.76C729.103 600.76 728.129 601 727.276 601.48C726.449 601.96 725.796 602.667 725.316 603.6C724.863 604.533 724.636 605.72 724.636 607.16V618H719.636V606.4C719.636 604.507 719.223 603.093 718.396 602.16C717.569 601.227 716.383 600.76 714.836 600.76C713.743 600.76 712.769 601 711.916 601.48C711.089 601.96 710.436 602.667 709.956 603.6C709.503 604.533 709.276 605.72 709.276 607.16V618H704.276V596.64H709.036V602.32L708.196 600.64C708.916 599.253 709.956 598.2 711.316 597.48C712.703 596.76 714.276 596.4 716.036 596.4C718.036 596.4 719.769 596.893 721.236 597.88C722.729 598.867 723.716 600.36 724.196 602.36L722.236 601.68C722.929 600.08 724.076 598.8 725.676 597.84C727.276 596.88 729.129 596.4 731.236 596.4ZM756.465 618.28C754.091 618.28 752.011 617.813 750.225 616.88C748.465 615.92 747.091 614.613 746.105 612.96C745.145 611.307 744.665 609.427 744.665 607.32C744.665 605.187 745.131 603.307 746.065 601.68C747.025 600.027 748.331 598.733 749.985 597.8C751.665 596.867 753.571 596.4 755.705 596.4C757.785 596.4 759.638 596.853 761.265 597.76C762.891 598.667 764.171 599.947 765.105 601.6C766.038 603.253 766.505 605.2 766.505 607.44C766.505 607.653 766.491 607.893 766.465 608.16C766.465 608.427 766.451 608.68 766.425 608.92H748.625V605.6H763.785L761.825 606.64C761.851 605.413 761.598 604.333 761.065 603.4C760.531 602.467 759.798 601.733 758.865 601.2C757.958 600.667 756.905 600.4 755.705 600.4C754.478 600.4 753.398 600.667 752.465 601.2C751.558 601.733 750.838 602.48 750.305 603.44C749.798 604.373 749.545 605.48 749.545 606.76V607.56C749.545 608.84 749.838 609.973 750.425 610.96C751.011 611.947 751.838 612.707 752.905 613.24C753.971 613.773 755.198 614.04 756.585 614.04C757.785 614.04 758.865 613.853 759.825 613.48C760.785 613.107 761.638 612.52 762.385 611.72L765.065 614.8C764.105 615.92 762.891 616.787 761.425 617.4C759.985 617.987 758.331 618.28 756.465 618.28ZM783.427 596.4C785.134 596.4 786.654 596.733 787.987 597.4C789.347 598.067 790.414 599.093 791.187 600.48C791.961 601.84 792.347 603.6 792.347 605.76V618H787.347V606.4C787.347 604.507 786.894 603.093 785.987 602.16C785.107 601.227 783.867 600.76 782.267 600.76C781.094 600.76 780.054 601 779.147 601.48C778.241 601.96 777.534 602.68 777.027 603.64C776.547 604.573 776.307 605.76 776.307 607.2V618H771.307V596.64H776.067V602.4L775.227 600.64C775.974 599.28 777.054 598.24 778.467 597.52C779.907 596.773 781.561 596.4 783.427 596.4ZM806.73 618.28C804.383 618.28 802.57 617.68 801.29 616.48C800.01 615.253 799.37 613.453 799.37 611.08V591.92H804.37V610.96C804.37 611.973 804.623 612.76 805.13 613.32C805.663 613.88 806.397 614.16 807.33 614.16C808.45 614.16 809.383 613.867 810.13 613.28L811.53 616.84C810.943 617.32 810.223 617.68 809.37 617.92C808.517 618.16 807.637 618.28 806.73 618.28ZM795.85 600.8V596.8H810.09V600.8H795.85ZM824.54 618.28C822.353 618.28 820.407 617.813 818.7 616.88C816.993 615.92 815.647 614.613 814.66 612.96C813.673 611.307 813.18 609.427 813.18 607.32C813.18 605.187 813.673 603.307 814.66 601.68C815.647 600.027 816.993 598.733 818.7 597.8C820.407 596.867 822.353 596.4 824.54 596.4C826.753 596.4 828.713 596.867 830.42 597.8C832.153 598.733 833.5 600.013 834.46 601.64C835.447 603.267 835.94 605.16 835.94 607.32C835.94 609.427 835.447 611.307 834.46 612.96C833.5 614.613 832.153 615.92 830.42 616.88C828.713 617.813 826.753 618.28 824.54 618.28ZM824.54 614C825.767 614 826.86 613.733 827.82 613.2C828.78 612.667 829.527 611.893 830.06 610.88C830.62 609.867 830.9 608.68 830.9 607.32C830.9 605.933 830.62 604.747 830.06 603.76C829.527 602.747 828.78 601.973 827.82 601.44C826.86 600.907 825.78 600.64 824.58 600.64C823.353 600.64 822.26 600.907 821.3 601.44C820.367 601.973 819.62 602.747 819.06 603.76C818.5 604.747 818.22 605.933 818.22 607.32C818.22 608.68 818.5 609.867 819.06 610.88C819.62 611.893 820.367 612.667 821.3 613.2C822.26 613.733 823.34 614 824.54 614ZM863.616 618.28C861.883 618.28 860.296 617.88 858.856 617.08C857.443 616.28 856.309 615.08 855.456 613.48C854.629 611.853 854.216 609.8 854.216 607.32C854.216 604.813 854.616 602.76 855.416 601.16C856.243 599.56 857.363 598.373 858.776 597.6C860.189 596.8 861.803 596.4 863.616 596.4C865.723 596.4 867.576 596.853 869.176 597.76C870.803 598.667 872.083 599.933 873.016 601.56C873.976 603.187 874.456 605.107 874.456 607.32C874.456 609.533 873.976 611.467 873.016 613.12C872.083 614.747 870.803 616.013 869.176 616.92C867.576 617.827 865.723 618.28 863.616 618.28ZM851.776 625.76V596.64H856.536V601.68L856.376 607.36L856.776 613.04V625.76H851.776ZM863.056 614C864.256 614 865.323 613.733 866.256 613.2C867.216 612.667 867.976 611.893 868.536 610.88C869.096 609.867 869.376 608.68 869.376 607.32C869.376 605.933 869.096 604.747 868.536 603.76C867.976 602.747 867.216 601.973 866.256 601.44C865.323 600.907 864.256 600.64 863.056 600.64C861.856 600.64 860.776 600.907 859.816 601.44C858.856 601.973 858.096 602.747 857.536 603.76C856.976 604.747 856.696 605.933 856.696 607.32C856.696 608.68 856.976 609.867 857.536 610.88C858.096 611.893 858.856 612.667 859.816 613.2C860.776 613.733 861.856 614 863.056 614ZM892.085 618V613.68L891.805 612.76V605.2C891.805 603.733 891.365 602.6 890.485 601.8C889.605 600.973 888.271 600.56 886.485 600.56C885.285 600.56 884.098 600.747 882.925 601.12C881.778 601.493 880.805 602.013 880.005 602.68L878.045 599.04C879.191 598.16 880.551 597.507 882.125 597.08C883.725 596.627 885.378 596.4 887.085 596.4C890.178 596.4 892.565 597.147 894.245 598.64C895.951 600.107 896.805 602.387 896.805 605.48V618H892.085ZM885.365 618.28C883.765 618.28 882.365 618.013 881.165 617.48C879.965 616.92 879.031 616.16 878.365 615.2C877.725 614.213 877.405 613.107 877.405 611.88C877.405 610.68 877.685 609.6 878.245 608.64C878.831 607.68 879.778 606.92 881.085 606.36C882.391 605.8 884.125 605.52 886.285 605.52H892.485V608.84H886.645C884.938 608.84 883.791 609.12 883.205 609.68C882.618 610.213 882.325 610.88 882.325 611.68C882.325 612.587 882.685 613.307 883.405 613.84C884.125 614.373 885.125 614.64 886.405 614.64C887.631 614.64 888.725 614.36 889.685 613.8C890.671 613.24 891.378 612.413 891.805 611.32L892.645 614.32C892.165 615.573 891.298 616.547 890.045 617.24C888.818 617.933 887.258 618.28 885.365 618.28ZM903.221 618V596.64H907.981V602.52L907.421 600.8C908.061 599.36 909.061 598.267 910.421 597.52C911.808 596.773 913.528 596.4 915.581 596.4V601.16C915.368 601.107 915.168 601.08 914.981 601.08C914.795 601.053 914.608 601.04 914.421 601.04C912.528 601.04 911.021 601.6 909.901 602.72C908.781 603.813 908.221 605.453 908.221 607.64V618H903.221ZM931.46 618V613.68L931.18 612.76V605.2C931.18 603.733 930.74 602.6 929.86 601.8C928.98 600.973 927.646 600.56 925.86 600.56C924.66 600.56 923.473 600.747 922.3 601.12C921.153 601.493 920.18 602.013 919.38 602.68L917.42 599.04C918.566 598.16 919.926 597.507 921.5 597.08C923.1 596.627 924.753 596.4 926.46 596.4C929.553 596.4 931.94 597.147 933.62 598.64C935.326 600.107 936.18 602.387 936.18 605.48V618H931.46ZM924.74 618.28C923.14 618.28 921.74 618.013 920.54 617.48C919.34 616.92 918.406 616.16 917.74 615.2C917.1 614.213 916.78 613.107 916.78 611.88C916.78 610.68 917.06 609.6 917.62 608.64C918.206 607.68 919.153 606.92 920.46 606.36C921.766 605.8 923.5 605.52 925.66 605.52H931.86V608.84H926.02C924.313 608.84 923.166 609.12 922.58 609.68C921.993 610.213 921.7 610.88 921.7 611.68C921.7 612.587 922.06 613.307 922.78 613.84C923.5 614.373 924.5 614.64 925.78 614.64C927.006 614.64 928.1 614.36 929.06 613.8C930.046 613.24 930.753 612.413 931.18 611.32L932.02 614.32C931.54 615.573 930.673 616.547 929.42 617.24C928.193 617.933 926.633 618.28 924.74 618.28ZM332.369 652.4C334.076 652.4 335.582 652.733 336.889 653.4C338.222 654.067 339.262 655.093 340.009 656.48C340.756 657.84 341.129 659.6 341.129 661.76V674H336.129V662.4C336.129 660.507 335.716 659.093 334.889 658.16C334.062 657.227 332.876 656.76 331.329 656.76C330.236 656.76 329.262 657 328.409 657.48C327.582 657.96 326.929 658.667 326.449 659.6C325.996 660.533 325.769 661.72 325.769 663.16V674H320.769V662.4C320.769 660.507 320.356 659.093 319.529 658.16C318.702 657.227 317.516 656.76 315.969 656.76C314.876 656.76 313.902 657 313.049 657.48C312.222 657.96 311.569 658.667 311.089 659.6C310.636 660.533 310.409 661.72 310.409 663.16V674H305.409V652.64H310.169V658.32L309.329 656.64C310.049 655.253 311.089 654.2 312.449 653.48C313.836 652.76 315.409 652.4 317.169 652.4C319.169 652.4 320.902 652.893 322.369 653.88C323.862 654.867 324.849 656.36 325.329 658.36L323.369 657.68C324.062 656.08 325.209 654.8 326.809 653.84C328.409 652.88 330.262 652.4 332.369 652.4ZM357.597 674.28C355.224 674.28 353.144 673.813 351.357 672.88C349.597 671.92 348.224 670.613 347.237 668.96C346.277 667.307 345.797 665.427 345.797 663.32C345.797 661.187 346.264 659.307 347.197 657.68C348.157 656.027 349.464 654.733 351.117 653.8C352.797 652.867 354.704 652.4 356.837 652.4C358.917 652.4 360.771 652.853 362.397 653.76C364.024 654.667 365.304 655.947 366.237 657.6C367.171 659.253 367.637 661.2 367.637 663.44C367.637 663.653 367.624 663.893 367.597 664.16C367.597 664.427 367.584 664.68 367.557 664.92H349.757V661.6H364.917L362.957 662.64C362.984 661.413 362.731 660.333 362.197 659.4C361.664 658.467 360.931 657.733 359.997 657.2C359.091 656.667 358.037 656.4 356.837 656.4C355.611 656.4 354.531 656.667 353.597 657.2C352.691 657.733 351.971 658.48 351.437 659.44C350.931 660.373 350.677 661.48 350.677 662.76V663.56C350.677 664.84 350.971 665.973 351.557 666.96C352.144 667.947 352.971 668.707 354.037 669.24C355.104 669.773 356.331 670.04 357.717 670.04C358.917 670.04 359.997 669.853 360.957 669.48C361.917 669.107 362.771 668.52 363.517 667.72L366.197 670.8C365.237 671.92 364.024 672.787 362.557 673.4C361.117 673.987 359.464 674.28 357.597 674.28ZM370.24 682.04C369.307 682.04 368.427 681.933 367.6 681.72C366.747 681.533 366.027 681.227 365.44 680.8L366.88 677.08C367.653 677.64 368.627 677.92 369.8 677.92C370.707 677.92 371.413 677.627 371.92 677.04C372.427 676.48 372.68 675.64 372.68 674.52V652.64H377.68V674.4C377.68 676.747 377.027 678.6 375.72 679.96C374.44 681.347 372.613 682.04 370.24 682.04ZM375.16 649.12C374.227 649.12 373.453 648.827 372.84 648.24C372.253 647.653 371.96 646.947 371.96 646.12C371.96 645.267 372.253 644.56 372.84 644C373.453 643.413 374.227 643.12 375.16 643.12C376.093 643.12 376.853 643.4 377.44 643.96C378.053 644.493 378.36 645.173 378.36 646C378.36 646.88 378.067 647.627 377.48 648.24C376.893 648.827 376.12 649.12 375.16 649.12ZM393.837 674.28C391.65 674.28 389.704 673.813 387.997 672.88C386.29 671.92 384.944 670.613 383.957 668.96C382.97 667.307 382.477 665.427 382.477 663.32C382.477 661.187 382.97 659.307 383.957 657.68C384.944 656.027 386.29 654.733 387.997 653.8C389.704 652.867 391.65 652.4 393.837 652.4C396.05 652.4 398.01 652.867 399.717 653.8C401.45 654.733 402.797 656.013 403.757 657.64C404.744 659.267 405.237 661.16 405.237 663.32C405.237 665.427 404.744 667.307 403.757 668.96C402.797 670.613 401.45 671.92 399.717 672.88C398.01 673.813 396.05 674.28 393.837 674.28ZM393.837 670C395.064 670 396.157 669.733 397.117 669.2C398.077 668.667 398.824 667.893 399.357 666.88C399.917 665.867 400.197 664.68 400.197 663.32C400.197 661.933 399.917 660.747 399.357 659.76C398.824 658.747 398.077 657.973 397.117 657.44C396.157 656.907 395.077 656.64 393.877 656.64C392.65 656.64 391.557 656.907 390.597 657.44C389.664 657.973 388.917 658.747 388.357 659.76C387.797 660.747 387.517 661.933 387.517 663.32C387.517 664.68 387.797 665.867 388.357 666.88C388.917 667.893 389.664 668.667 390.597 669.2C391.557 669.733 392.637 670 393.837 670ZM410.018 674V652.64H414.778V658.52L414.218 656.8C414.858 655.36 415.858 654.267 417.218 653.52C418.605 652.773 420.325 652.4 422.378 652.4V657.16C422.165 657.107 421.965 657.08 421.778 657.08C421.592 657.053 421.405 657.04 421.218 657.04C419.325 657.04 417.818 657.6 416.698 658.72C415.578 659.813 415.018 661.453 415.018 663.64V674H410.018ZM438.256 674V669.68L437.976 668.76V661.2C437.976 659.733 437.536 658.6 436.656 657.8C435.776 656.973 434.443 656.56 432.656 656.56C431.456 656.56 430.27 656.747 429.096 657.12C427.95 657.493 426.976 658.013 426.176 658.68L424.216 655.04C425.363 654.16 426.723 653.507 428.296 653.08C429.896 652.627 431.55 652.4 433.256 652.4C436.35 652.4 438.736 653.147 440.416 654.64C442.123 656.107 442.976 658.387 442.976 661.48V674H438.256ZM431.536 674.28C429.936 674.28 428.536 674.013 427.336 673.48C426.136 672.92 425.203 672.16 424.536 671.2C423.896 670.213 423.576 669.107 423.576 667.88C423.576 666.68 423.856 665.6 424.416 664.64C425.003 663.68 425.95 662.92 427.256 662.36C428.563 661.8 430.296 661.52 432.456 661.52H438.656V664.84H432.816C431.11 664.84 429.963 665.12 429.376 665.68C428.79 666.213 428.496 666.88 428.496 667.68C428.496 668.587 428.856 669.307 429.576 669.84C430.296 670.373 431.296 670.64 432.576 670.64C433.803 670.64 434.896 670.36 435.856 669.8C436.843 669.24 437.55 668.413 437.976 667.32L438.816 670.32C438.336 671.573 437.47 672.547 436.216 673.24C434.99 673.933 433.43 674.28 431.536 674.28ZM449.393 674V652.64H454.153V658.52L453.593 656.8C454.233 655.36 455.233 654.267 456.593 653.52C457.98 652.773 459.7 652.4 461.753 652.4V657.16C461.54 657.107 461.34 657.08 461.153 657.08C460.967 657.053 460.78 657.04 460.593 657.04C458.7 657.04 457.193 657.6 456.073 658.72C454.953 659.813 454.393 661.453 454.393 663.64V674H449.393ZM485.285 674.28C482.938 674.28 481.125 673.68 479.845 672.48C478.565 671.253 477.925 669.453 477.925 667.08V647.92H482.925V666.96C482.925 667.973 483.178 668.76 483.685 669.32C484.218 669.88 484.952 670.16 485.885 670.16C487.005 670.16 487.938 669.867 488.685 669.28L490.085 672.84C489.498 673.32 488.778 673.68 487.925 673.92C487.072 674.16 486.192 674.28 485.285 674.28ZM474.405 656.8V652.8H488.645V656.8H474.405ZM503.238 674.28C501.425 674.28 499.825 673.947 498.438 673.28C497.051 672.587 495.971 671.547 495.198 670.16C494.425 668.747 494.038 666.973 494.038 664.84V652.64H499.038V664.16C499.038 666.08 499.465 667.52 500.318 668.48C501.198 669.413 502.438 669.88 504.038 669.88C505.211 669.88 506.225 669.64 507.078 669.16C507.958 668.68 508.638 667.96 509.118 667C509.625 666.04 509.878 664.853 509.878 663.44V652.64H514.878V674H510.118V668.24L510.958 670C510.238 671.387 509.185 672.453 507.798 673.2C506.411 673.92 504.891 674.28 503.238 674.28ZM542.519 674.28C540.146 674.28 538.066 673.813 536.279 672.88C534.519 671.92 533.146 670.613 532.159 668.96C531.199 667.307 530.719 665.427 530.719 663.32C530.719 661.187 531.186 659.307 532.119 657.68C533.079 656.027 534.386 654.733 536.039 653.8C537.719 652.867 539.626 652.4 541.759 652.4C543.839 652.4 545.693 652.853 547.319 653.76C548.946 654.667 550.226 655.947 551.159 657.6C552.093 659.253 552.559 661.2 552.559 663.44C552.559 663.653 552.546 663.893 552.519 664.16C552.519 664.427 552.506 664.68 552.479 664.92H534.679V661.6H549.839L547.879 662.64C547.906 661.413 547.653 660.333 547.119 659.4C546.586 658.467 545.853 657.733 544.919 657.2C544.013 656.667 542.959 656.4 541.759 656.4C540.533 656.4 539.453 656.667 538.519 657.2C537.613 657.733 536.893 658.48 536.359 659.44C535.853 660.373 535.599 661.48 535.599 662.76V663.56C535.599 664.84 535.893 665.973 536.479 666.96C537.066 667.947 537.893 668.707 538.959 669.24C540.026 669.773 541.253 670.04 542.639 670.04C543.839 670.04 544.919 669.853 545.879 669.48C546.839 669.107 547.693 668.52 548.439 667.72L551.119 670.8C550.159 671.92 548.946 672.787 547.479 673.4C546.039 673.987 544.386 674.28 542.519 674.28ZM553.856 674L563.256 661.76L563.176 664.44L554.216 652.64H559.776L566.056 661.04H563.936L570.256 652.64H575.656L566.616 664.44L566.656 661.76L576.016 674H570.376L563.776 665.08L565.856 665.36L559.376 674H553.856ZM591.546 674.28C589.812 674.28 588.226 673.88 586.786 673.08C585.372 672.28 584.239 671.08 583.386 669.48C582.559 667.853 582.146 665.8 582.146 663.32C582.146 660.813 582.546 658.76 583.346 657.16C584.172 655.56 585.292 654.373 586.706 653.6C588.119 652.8 589.732 652.4 591.546 652.4C593.652 652.4 595.506 652.853 597.106 653.76C598.732 654.667 600.012 655.933 600.946 657.56C601.906 659.187 602.386 661.107 602.386 663.32C602.386 665.533 601.906 667.467 600.946 669.12C600.012 670.747 598.732 672.013 597.106 672.92C595.506 673.827 593.652 674.28 591.546 674.28ZM579.706 681.76V652.64H584.466V657.68L584.306 663.36L584.706 669.04V681.76H579.706ZM590.986 670C592.186 670 593.252 669.733 594.186 669.2C595.146 668.667 595.906 667.893 596.466 666.88C597.026 665.867 597.306 664.68 597.306 663.32C597.306 661.933 597.026 660.747 596.466 659.76C595.906 658.747 595.146 657.973 594.186 657.44C593.252 656.907 592.186 656.64 590.986 656.64C589.786 656.64 588.706 656.907 587.746 657.44C586.786 657.973 586.026 658.747 585.466 659.76C584.906 660.747 584.626 661.933 584.626 663.32C584.626 664.68 584.906 665.867 585.466 666.88C586.026 667.893 586.786 668.667 587.746 669.2C588.706 669.733 589.786 670 590.986 670ZM617.168 674.28C614.794 674.28 612.714 673.813 610.928 672.88C609.168 671.92 607.794 670.613 606.808 668.96C605.848 667.307 605.368 665.427 605.368 663.32C605.368 661.187 605.834 659.307 606.768 657.68C607.728 656.027 609.034 654.733 610.688 653.8C612.368 652.867 614.274 652.4 616.408 652.4C618.488 652.4 620.341 652.853 621.968 653.76C623.594 654.667 624.874 655.947 625.808 657.6C626.741 659.253 627.208 661.2 627.208 663.44C627.208 663.653 627.194 663.893 627.168 664.16C627.168 664.427 627.154 664.68 627.128 664.92H609.328V661.6H624.488L622.528 662.64C622.554 661.413 622.301 660.333 621.768 659.4C621.234 658.467 620.501 657.733 619.568 657.2C618.661 656.667 617.608 656.4 616.408 656.4C615.181 656.4 614.101 656.667 613.168 657.2C612.261 657.733 611.541 658.48 611.008 659.44C610.501 660.373 610.248 661.48 610.248 662.76V663.56C610.248 664.84 610.541 665.973 611.128 666.96C611.714 667.947 612.541 668.707 613.608 669.24C614.674 669.773 615.901 670.04 617.288 670.04C618.488 670.04 619.568 669.853 620.528 669.48C621.488 669.107 622.341 668.52 623.088 667.72L625.768 670.8C624.808 671.92 623.594 672.787 622.128 673.4C620.688 673.987 619.034 674.28 617.168 674.28ZM632.01 674V652.64H636.77V658.52L636.21 656.8C636.85 655.36 637.85 654.267 639.21 653.52C640.597 652.773 642.317 652.4 644.37 652.4V657.16C644.157 657.107 643.957 657.08 643.77 657.08C643.584 657.053 643.397 657.04 643.21 657.04C641.317 657.04 639.81 657.6 638.69 658.72C637.57 659.813 637.01 661.453 637.01 663.64V674H632.01ZM648.612 674V652.64H653.612V674H648.612ZM651.132 649.12C650.199 649.12 649.425 648.827 648.812 648.24C648.225 647.653 647.932 646.947 647.932 646.12C647.932 645.267 648.225 644.56 648.812 644C649.425 643.413 650.199 643.12 651.132 643.12C652.065 643.12 652.825 643.4 653.412 643.96C654.025 644.493 654.332 645.173 654.332 646C654.332 646.88 654.039 647.627 653.452 648.24C652.865 648.827 652.092 649.12 651.132 649.12ZM670.215 674.28C667.841 674.28 665.761 673.813 663.975 672.88C662.215 671.92 660.841 670.613 659.855 668.96C658.895 667.307 658.415 665.427 658.415 663.32C658.415 661.187 658.881 659.307 659.815 657.68C660.775 656.027 662.081 654.733 663.735 653.8C665.415 652.867 667.321 652.4 669.455 652.4C671.535 652.4 673.388 652.853 675.015 653.76C676.641 654.667 677.921 655.947 678.855 657.6C679.788 659.253 680.255 661.2 680.255 663.44C680.255 663.653 680.241 663.893 680.215 664.16C680.215 664.427 680.201 664.68 680.175 664.92H662.375V661.6H677.535L675.575 662.64C675.601 661.413 675.348 660.333 674.815 659.4C674.281 658.467 673.548 657.733 672.615 657.2C671.708 656.667 670.655 656.4 669.455 656.4C668.228 656.4 667.148 656.667 666.215 657.2C665.308 657.733 664.588 658.48 664.055 659.44C663.548 660.373 663.295 661.48 663.295 662.76V663.56C663.295 664.84 663.588 665.973 664.175 666.96C664.761 667.947 665.588 668.707 666.655 669.24C667.721 669.773 668.948 670.04 670.335 670.04C671.535 670.04 672.615 669.853 673.575 669.48C674.535 669.107 675.388 668.52 676.135 667.72L678.815 670.8C677.855 671.92 676.641 672.787 675.175 673.4C673.735 673.987 672.081 674.28 670.215 674.28ZM697.177 652.4C698.884 652.4 700.404 652.733 701.737 653.4C703.097 654.067 704.164 655.093 704.937 656.48C705.711 657.84 706.097 659.6 706.097 661.76V674H701.097V662.4C701.097 660.507 700.644 659.093 699.737 658.16C698.857 657.227 697.617 656.76 696.017 656.76C694.844 656.76 693.804 657 692.897 657.48C691.991 657.96 691.284 658.68 690.777 659.64C690.297 660.573 690.057 661.76 690.057 663.2V674H685.057V652.64H689.817V658.4L688.977 656.64C689.724 655.28 690.804 654.24 692.217 653.52C693.657 652.773 695.311 652.4 697.177 652.4ZM722.279 674.28C720.039 674.28 718.039 673.813 716.279 672.88C714.546 671.92 713.186 670.613 712.199 668.96C711.213 667.307 710.719 665.427 710.719 663.32C710.719 661.187 711.213 659.307 712.199 657.68C713.186 656.027 714.546 654.733 716.279 653.8C718.039 652.867 720.039 652.4 722.279 652.4C724.359 652.4 726.186 652.827 727.759 653.68C729.359 654.507 730.573 655.733 731.399 657.36L727.559 659.6C726.919 658.587 726.133 657.84 725.199 657.36C724.293 656.88 723.306 656.64 722.239 656.64C721.013 656.64 719.906 656.907 718.919 657.44C717.933 657.973 717.159 658.747 716.599 659.76C716.039 660.747 715.759 661.933 715.759 663.32C715.759 664.707 716.039 665.907 716.599 666.92C717.159 667.907 717.933 668.667 718.919 669.2C719.906 669.733 721.013 670 722.239 670C723.306 670 724.293 669.76 725.199 669.28C726.133 668.8 726.919 668.053 727.559 667.04L731.399 669.28C730.573 670.88 729.359 672.12 727.759 673C726.186 673.853 724.359 674.28 722.279 674.28ZM735.526 674V652.64H740.526V674H735.526ZM738.046 649.12C737.113 649.12 736.339 648.827 735.726 648.24C735.139 647.653 734.846 646.947 734.846 646.12C734.846 645.267 735.139 644.56 735.726 644C736.339 643.413 737.113 643.12 738.046 643.12C738.979 643.12 739.739 643.4 740.326 643.96C740.939 644.493 741.246 645.173 741.246 646C741.246 646.88 740.953 647.627 740.366 648.24C739.779 648.827 739.006 649.12 738.046 649.12ZM760.249 674V669.68L759.969 668.76V661.2C759.969 659.733 759.529 658.6 758.649 657.8C757.769 656.973 756.435 656.56 754.649 656.56C753.449 656.56 752.262 656.747 751.089 657.12C749.942 657.493 748.969 658.013 748.169 658.68L746.209 655.04C747.355 654.16 748.715 653.507 750.289 653.08C751.889 652.627 753.542 652.4 755.249 652.4C758.342 652.4 760.729 653.147 762.409 654.64C764.115 656.107 764.969 658.387 764.969 661.48V674H760.249ZM753.529 674.28C751.929 674.28 750.529 674.013 749.329 673.48C748.129 672.92 747.195 672.16 746.529 671.2C745.889 670.213 745.569 669.107 745.569 667.88C745.569 666.68 745.849 665.6 746.409 664.64C746.995 663.68 747.942 662.92 749.249 662.36C750.555 661.8 752.289 661.52 754.449 661.52H760.649V664.84H754.809C753.102 664.84 751.955 665.12 751.369 665.68C750.782 666.213 750.489 666.88 750.489 667.68C750.489 668.587 750.849 669.307 751.569 669.84C752.289 670.373 753.289 670.64 754.569 670.64C755.795 670.64 756.889 670.36 757.849 669.8C758.835 669.24 759.542 668.413 759.969 667.32L760.809 670.32C760.329 671.573 759.462 672.547 758.209 673.24C756.982 673.933 755.422 674.28 753.529 674.28ZM772.985 674.28C772.079 674.28 771.305 673.973 770.665 673.36C770.025 672.72 769.705 671.92 769.705 670.96C769.705 669.947 770.025 669.147 770.665 668.56C771.305 667.947 772.079 667.64 772.985 667.64C773.892 667.64 774.665 667.947 775.305 668.56C775.945 669.147 776.265 669.947 776.265 670.96C776.265 671.92 775.945 672.72 775.305 673.36C774.665 673.973 773.892 674.28 772.985 674.28Z" fill="#404040"/>
<rect x="288.5" y="712.5" width="503" height="15" rx="7.5" fill="#D9F0E3" stroke="#5ADB92"/>
<rect x="288" y="712" width="228.789" height="16" rx="8" fill="#5ADB92"/>
</g>
<defs>
<clipPath id="clip0_3524_28245">
<rect width="1080" height="1920" fill="white"/>
</clipPath>
</defs>
</svg>
